<svg width="75" height="73" viewBox="0 0 75 73" fill="none" xmlns="http://www.w3.org/2000/svg">
<path d="M37.3924 68.4635C19.3239 68.4635 4.34272 54.4486 4.34272 36.7583C4.34272 19.068 19.3239 5.05311 37.3924 5.05311C55.4609 5.05311 70.442 19.068 70.442 36.7583C70.442 54.4486 55.4609 68.4635 37.3924 68.4635Z" fill="#FFDDD8" stroke="white" stroke-width="8.13842"/>
<path d="M37.3348 59.0862L45.2193 31.5939L29.4504 31.5939L37.3348 59.0862Z" fill="#F04338"/>
<path d="M29.4443 31.594L37.3288 18.5713H21.5599L29.4443 31.594Z" fill="white"/>
<path d="M45.2247 31.594L53.1092 18.5713H37.3403L45.2247 31.594Z" fill="white"/>
<path d="M14.6184 31.6151L37.3365 57.909L60.2048 31.6098L52.7146 19.3424H22.2539L14.6184 31.6151Z" stroke="black" stroke-width="1.54215"/>
</svg>
