<svg width="65" height="65" viewBox="0 0 65 65" fill="none" xmlns="http://www.w3.org/2000/svg">
<path fill-rule="evenodd" clip-rule="evenodd" d="M35.2644 0.220101C43.378 0.0117407 50.7301 4.19135 56.114 10.2648C61.9276 16.8229 65.6395 24.924 64.9055 33.6571C64.0077 44.3385 61.1915 56.0682 51.8259 61.2821C42.0279 66.7366 29.9201 63.8251 19.9557 58.6806C10.3719 53.7325 1.52031 45.556 0.558902 34.8131C-0.315528 25.042 8.76772 18.2277 15.7158 11.3022C21.2973 5.7388 27.3864 0.422414 35.2644 0.220101Z" fill="#E3ECF6"/>
<path d="M25.3828 42.8145C25.3828 42.0661 25.2996 41.4008 25.1333 40.6523L26.7965 38.7395C26.1312 37.6584 26.1312 37.6584 25.4659 36.4941L22.971 36.9931C22.4721 36.4941 21.8899 35.9952 21.2246 35.6625L21.0583 33.1676C19.8108 32.835 19.8108 32.835 18.5634 32.5023L17.1496 34.6646C16.4012 34.6646 15.7359 34.7477 15.0705 34.914L13.0746 33.2508C11.9935 33.9161 11.9935 33.9161 10.8292 34.5814L11.3282 37.1595C10.8292 37.6584 10.4134 38.1574 10.0808 38.8227L7.50271 39.0722C7.17005 40.3196 7.17005 40.3196 6.8374 41.5671L8.99964 43.064C8.99964 43.1472 8.99964 43.1472 8.99964 43.2304C8.99964 43.8125 9.08281 44.3946 9.24913 44.8936C9.24913 44.9768 9.24913 44.9768 9.24913 45.0599L7.58587 47.0559C8.25117 48.2201 8.25117 48.2201 8.91648 49.3013L11.4945 48.8023C11.5777 48.8023 11.5777 48.8854 11.6609 48.8854C11.9935 49.2181 12.4093 49.5508 12.8251 49.8002C12.9083 49.8834 12.9915 49.8834 13.0746 49.9666L13.3241 52.6278C14.5716 52.9604 14.5716 52.9604 15.819 53.2931L17.316 51.1308C17.9813 51.1308 18.6466 51.0477 19.3119 50.8814L21.3078 52.5446C22.4721 51.8793 22.4721 51.8793 23.5532 51.214L23.0542 48.7191C23.5532 48.2201 24.0522 47.638 24.3848 47.0559L26.8797 46.8895C27.2124 45.6421 27.2124 45.6421 27.545 44.3946L25.3828 42.8145ZM21.5573 44.3115C20.7256 46.8064 18.0644 48.137 15.6527 47.3053C13.1578 46.4737 11.8272 43.8125 12.6588 41.4008C13.4904 38.9059 16.1517 37.5753 18.5634 38.4069C21.0583 39.1554 22.3889 41.8166 21.5573 44.3115Z" fill="#FFF4D2"/>
<path d="M15.6528 53.8753C15.5696 53.8753 15.5696 53.8753 15.4865 53.8753C14.239 53.5427 14.239 53.5427 12.9916 53.21C12.7421 53.1269 12.5758 52.9606 12.4926 52.6279L12.3263 50.2993C11.9105 49.9667 11.4115 49.634 11.0788 49.3845L8.83343 49.8004C8.58394 49.8835 8.33445 49.7172 8.16812 49.4677C7.50282 48.3866 7.50282 48.3866 6.83752 47.2223C6.67119 46.9728 6.75435 46.7233 6.92068 46.4738L8.41761 44.7274C8.25129 44.1453 8.25129 43.5631 8.25129 43.1473L6.33854 41.8167C6.08905 41.6504 6.00588 41.4009 6.08905 41.1514L6.17221 40.9851C6.50486 39.9039 6.50486 39.8208 6.75435 38.6565C6.83751 38.407 7.00384 38.2407 7.33649 38.1575L9.5819 37.9912C9.74822 37.6585 10.0809 37.1596 10.4967 36.7437L10.0809 34.4983C9.99771 34.2489 10.164 33.9994 10.4135 33.833C11.5778 33.1677 11.5778 33.1677 12.6589 32.5024C12.9084 32.3361 13.1579 32.4193 13.4074 32.5856L15.1538 34.0825C15.6528 33.9162 16.2349 33.9162 16.7339 33.833L17.9814 32.0035C18.1477 31.754 18.3972 31.6708 18.6467 31.754C19.8941 32.0866 19.8941 32.0866 21.1416 32.4193C21.3911 32.5024 21.5574 32.6688 21.6405 33.0014L21.8069 35.2468C22.2227 35.4963 22.7217 35.829 23.1375 36.2448L25.2997 35.829C25.5492 35.7458 25.7987 35.9121 25.965 36.1616C26.3808 36.8269 26.464 37.0764 26.7135 37.4922L27.2956 38.407C27.462 38.6565 27.3788 38.906 27.2125 39.1555L25.7987 40.8187C25.965 41.4009 25.965 41.8999 26.0482 42.482L27.8778 43.7294C28.1273 43.8958 28.2104 44.1453 28.1273 44.3948C27.7946 45.6422 27.7946 45.6422 27.462 46.8896C27.3788 47.1391 27.1293 47.3055 26.8798 47.3055L24.6344 47.4718C24.3849 47.9708 24.0523 48.3866 23.6365 48.8024L24.0523 50.9646C24.1354 51.2141 23.9691 51.4636 23.7196 51.6299C22.5553 52.2952 22.5553 52.2952 21.4742 52.9606C21.2247 53.1269 20.9752 53.0437 20.7257 52.8774L18.9793 51.3805C18.4803 51.4636 17.9814 51.5468 17.3992 51.5468L16.0686 53.4595C16.0686 53.709 15.9023 53.8753 15.6528 53.8753ZM13.7401 52.0458C14.4885 52.2121 14.6548 52.2952 15.4033 52.4616L16.6508 50.632C16.7339 50.4657 16.9834 50.3825 17.1497 50.3825C17.7319 50.3825 18.3972 50.2993 18.9793 50.133C19.1457 50.0498 19.3951 50.133 19.5615 50.2993L21.2247 51.7131C21.89 51.3805 22.0564 51.2141 22.7217 50.8815L22.3058 48.8024C22.3058 48.6361 22.3058 48.3866 22.4722 48.2203C22.9712 47.7213 23.387 47.2223 23.6365 46.6402C23.7196 46.4738 23.8859 46.3075 24.1354 46.3075L26.2145 46.1412C26.3808 45.3927 26.464 45.2264 26.6303 44.4779L25.0502 43.3136C24.8839 43.2305 24.8007 42.981 24.8007 42.8147C24.8007 42.1493 24.7176 41.484 24.5513 40.8187C24.4681 40.6524 24.5513 40.4029 24.7176 40.2366L26.0482 38.6565L25.7155 38.0744C25.5492 37.8249 25.3829 37.5754 25.2166 37.1596L23.1375 37.5754C22.9712 37.5754 22.7217 37.5754 22.5553 37.4091C22.0564 36.9101 21.5574 36.4943 20.9752 36.1616C20.8089 36.0784 20.6426 35.9121 20.6426 35.6626L20.4763 33.6667C19.7278 33.5004 19.5615 33.4172 18.813 33.2509L17.5656 34.9142C17.4824 35.0805 17.3161 35.2468 17.0666 35.1636C16.4013 35.1636 15.736 35.2468 15.1538 35.4131C14.9875 35.4963 14.738 35.4131 14.5717 35.2468L12.9084 33.833C12.2431 34.2489 12.0768 34.332 11.4115 34.6647L11.8273 36.8269C11.8273 37.0764 11.8273 37.2427 11.661 37.4091C11.162 37.8249 10.663 38.5733 10.5799 38.906C10.4967 39.0723 10.3304 39.2386 10.0809 39.2386L7.91863 39.4881C7.75231 40.2366 7.66915 40.4029 7.50282 41.1514L9.33241 42.3988C9.49873 42.482 9.5819 42.7315 9.5819 42.981C9.5819 42.981 9.49873 43.9789 9.83139 44.7274C9.91455 44.9769 9.83139 45.1432 9.74822 45.3095L8.33445 46.9728C8.75027 47.6381 8.83343 47.8044 9.16608 48.4697L11.3283 48.0539C11.4946 48.0539 11.7441 48.0539 11.8273 48.2203C12.0768 48.4697 12.8253 49.135 13.3242 49.3845C13.4906 49.4677 13.6569 49.634 13.6569 49.8835L13.7401 52.0458ZM17.0666 48.1371C16.4844 48.1371 15.9855 48.0539 15.4033 47.8876C12.6589 46.9728 11.0788 43.9789 11.9936 41.1514C12.9084 38.3238 15.9023 36.8269 18.7298 37.7417C20.0604 38.1575 21.1416 39.1555 21.8069 40.4029C22.4722 41.6504 22.5553 43.1473 22.1395 44.4779C21.3911 46.7233 19.312 48.1371 17.0666 48.1371ZM17.0666 38.7397C15.3202 38.7397 13.7401 39.8208 13.1579 41.5672C12.4926 43.7294 13.6569 45.9749 15.736 46.7233C17.8982 47.3886 20.1436 46.2243 20.8921 44.1453C21.2247 43.1473 21.1416 41.983 20.6426 41.0682C20.1436 40.0703 19.312 39.405 18.314 39.0723C17.9814 38.8228 17.5656 38.7397 17.0666 38.7397Z" fill="#2E3C56"/>
<path d="M57.6502 31.5044L61.4757 29.9244C61.3925 27.8453 61.3925 27.8453 61.2262 25.7662L57.3176 24.6019C56.9849 23.4376 56.4028 22.4397 55.8206 21.4417L57.4007 17.6162C55.8206 16.2024 55.7375 16.2024 54.2405 14.7887L50.6645 16.7846C49.5834 16.2856 48.5023 15.8698 47.338 15.6203L45.7579 11.7948C43.6788 11.878 43.6788 11.878 41.5166 12.0443L40.3523 16.0361C39.2712 16.3688 38.19 16.8677 37.2752 17.5331L33.3666 15.953C31.9528 17.5331 31.9528 17.5331 30.539 19.1132L32.535 22.8555C32.036 23.8534 31.7033 24.9346 31.4538 26.0157L27.5452 27.6789C27.6283 29.758 27.6283 29.758 27.7947 31.8371L31.8696 33.0014C31.8696 33.0845 31.9528 33.0845 31.9528 33.1677C32.2023 34.0825 32.6181 34.9141 33.1171 35.6626C33.1171 35.7458 33.2003 35.8289 33.2003 35.9953L31.7033 39.9039C33.2834 41.3177 33.2834 41.3177 34.7804 42.7315L38.5227 40.7356C38.6059 40.7356 38.689 40.8187 38.7722 40.8187C39.5207 41.1514 40.2691 41.484 41.1008 41.6503C41.2671 41.6503 41.4334 41.7335 41.5997 41.8167L43.263 45.7253C45.3421 45.6422 45.3421 45.6422 47.4211 45.4758L48.5854 41.4009C49.6665 41.0682 50.6645 40.6524 51.5793 39.9871L55.4048 41.5672C56.8186 39.9871 56.8186 39.9871 58.2323 38.4901L56.2364 34.831C56.9849 33.833 57.4007 32.6687 57.6502 31.5044ZM44.5104 36.4111C40.3523 36.4111 36.9426 33.0014 36.9426 28.8432C36.9426 24.6019 40.3523 21.1922 44.5104 21.1922C48.6686 21.1922 52.0783 24.6019 52.0783 28.8432C52.1614 33.0014 48.7518 36.4111 44.5104 36.4111Z" fill="#FFF4D2"/>
<path d="M44.5105 36.9932C44.1778 36.9932 43.8452 36.7437 43.8452 36.3279C43.8452 35.9952 44.0947 35.6626 44.5105 35.6626C48.336 35.6626 51.4962 32.5024 51.4962 28.6769C51.4962 24.8514 48.336 21.6912 44.5105 21.6912C40.685 21.6912 37.5248 24.8514 37.5248 28.6769C37.5248 30.0075 37.9406 31.3381 38.6059 32.4192C38.7722 32.6687 38.6891 33.0845 38.4396 33.2508C38.1901 33.4172 37.7743 33.334 37.608 33.0845C36.7763 31.7539 36.2773 30.257 36.2773 28.6769C36.2773 24.1029 39.9365 20.4437 44.5105 20.4437C49.0845 20.4437 52.7436 24.1029 52.7436 28.6769C52.7436 33.334 49.0845 36.9932 44.5105 36.9932Z" fill="#2E3C56"/>
<path d="M43.3463 46.3075C43.0968 46.3075 42.8473 46.1411 42.7641 45.8917L41.184 42.2325C41.1009 42.2325 41.1009 42.2325 41.0177 42.1493C40.2692 41.983 39.4376 41.6503 38.606 41.2345L35.1131 43.1473C34.8636 43.3136 34.6141 43.2304 34.3647 43.0641L31.2876 40.2366C31.1213 40.0702 31.0381 39.8207 31.1213 39.5713L32.6182 35.9121C32.6182 35.9121 32.6182 35.9121 32.6182 35.8289C32.1192 35.0805 31.7034 34.2488 31.4539 33.4172L27.6284 32.3361C27.3789 32.2529 27.2126 32.0034 27.2126 31.7539V31.5044C27.1295 29.6749 27.1295 29.5917 26.9631 27.5958C26.9631 27.3463 27.1295 27.0968 27.379 27.0136L31.0381 25.5167C31.2876 24.5187 31.5371 23.6871 31.9529 22.8555L30.0402 19.3626C29.8738 19.1131 29.957 18.8636 30.1233 18.6142C31.5371 17.0341 31.5371 17.0341 32.9509 15.454C33.1172 15.3708 33.3667 15.2876 33.6162 15.3708L37.1922 16.8677C38.0238 16.3688 38.9386 15.9529 39.8534 15.6203L40.9345 11.9611C41.0177 11.7116 41.2672 11.5453 41.5167 11.5453L45.6748 11.2126C45.9243 11.2126 46.1738 11.379 46.257 11.6285L47.6707 15.1213C48.5855 15.3708 49.5835 15.7035 50.4983 16.1193L53.8248 14.2897C54.0743 14.1234 54.3238 14.2065 54.5733 14.3728C55.5712 15.2876 55.9039 15.6203 56.4029 16.0361C56.7355 16.2856 57.0682 16.6182 57.6503 17.1172C57.8166 17.2836 57.8998 17.533 57.8166 17.7825L56.4029 21.2754C56.9018 22.107 57.4008 23.0218 57.7335 24.0198L61.3927 25.1009C61.6421 25.184 61.8085 25.4335 61.8085 25.683C61.9748 27.7621 61.9748 27.7621 62.058 29.8412C62.058 30.0907 61.8916 30.3402 61.6421 30.4233L58.2325 32.0034C57.983 32.9182 57.6503 33.9162 57.2345 34.831L59.0641 38.1575C59.2304 38.407 59.1473 38.6565 58.9809 38.906C57.5672 40.4861 57.5672 40.486 56.1534 42.0661C55.9871 42.2325 55.7376 42.3156 55.4881 42.2325L51.9121 40.8187C51.0804 41.3177 50.1656 41.7335 49.334 41.983L48.2529 45.7253C48.1697 45.9748 47.9202 46.1411 47.6707 46.1411L43.3463 46.3075C43.4294 46.3075 43.3463 46.3075 43.3463 46.3075ZM38.606 40.0702C38.6891 40.0702 38.7723 40.0702 38.7723 40.0702L39.0218 40.1534C39.9366 40.5692 40.6019 40.8187 41.2672 40.985C41.4335 40.985 41.5167 41.0682 41.683 41.1514L41.8493 41.2345C42.0157 41.3177 42.182 41.4008 42.2651 41.5672L43.7621 45.06L47.0886 44.8937L48.1697 41.2345C48.1697 41.1514 48.2529 41.0682 48.336 40.985C48.4192 40.9019 48.5024 40.8187 48.5855 40.8187C49.5835 40.5692 50.4983 40.0702 51.4131 39.4881C51.5794 39.4049 51.8289 39.3218 51.9952 39.4049L55.4881 40.8187C56.486 39.6544 56.6524 39.4881 57.7335 38.3238L55.987 35.0805C55.9039 34.9141 55.9039 34.6646 55.987 34.4983C56.486 33.5004 56.9018 32.4192 57.0682 31.4213C57.0682 31.2549 57.2345 31.0055 57.484 30.9223L60.8105 29.5085C60.7273 27.9284 60.7273 27.7621 60.6442 26.182L57.1513 25.1009C56.985 25.0177 56.8187 24.8514 56.7355 24.6851C56.4029 23.6039 55.9039 22.606 55.3217 21.6912C55.2386 21.5249 55.1554 21.2754 55.2386 21.1091L56.6524 17.6994C56.2365 17.3667 55.9871 17.1172 55.7376 16.8677C55.2386 16.4519 54.9059 16.1193 54.1575 15.454L50.9141 17.2004C50.7478 17.2836 50.4983 17.2836 50.332 17.2004C49.2508 16.7014 48.2529 16.2856 47.1718 16.1193C47.0054 16.1193 46.7559 15.9529 46.6728 15.7035L45.259 12.2938L41.9325 12.4601L40.8514 16.0361C40.7682 16.2024 40.6019 16.3688 40.4356 16.4519C39.4376 16.7846 38.4396 17.2836 37.5248 17.8657C37.3585 17.9489 37.109 18.032 36.9427 17.9489L33.4499 16.5351C32.4519 17.6994 32.2856 17.8657 31.2045 19.03L33.034 22.3565C33.1172 22.5228 33.1172 22.7723 33.034 22.9386C32.6182 23.8534 32.2024 24.8514 32.0361 25.9325C31.9529 26.182 31.7866 26.3483 31.5371 26.4315L28.1274 27.8453C28.2106 29.3422 28.2106 29.6749 28.2937 31.1718L31.9529 32.2529C32.1192 32.3361 32.2856 32.4192 32.3687 32.5856L32.4519 32.7519V32.835C32.7014 33.6667 33.1172 34.4983 33.533 35.1636C33.533 35.2468 33.6162 35.2468 33.6162 35.3299C33.6162 35.4131 33.6993 35.4963 33.6993 35.5794C33.7825 35.7458 33.7825 35.9121 33.6993 36.0784L32.2856 39.5713L34.7805 41.8167L38.107 39.9871C38.3565 40.0702 38.4396 40.0702 38.606 40.0702Z" fill="#2E3C56"/>
<path d="M44.5106 39.405C38.606 39.405 33.8657 34.6647 33.8657 28.7601C33.8657 23.3545 37.8576 18.8637 43.2632 18.1984C43.5958 18.1984 43.9285 18.3647 43.9285 18.7805C43.9285 19.1132 43.7621 19.4458 43.3463 19.4458C38.606 20.028 35.1132 24.0198 35.1132 28.7601C35.1132 33.9162 39.3545 38.1575 44.5106 38.1575C47.1718 38.1575 49.7499 36.9932 51.4963 34.9973C51.7458 34.7478 52.1616 34.7478 52.4111 34.9141C52.6606 35.1636 52.6606 35.4963 52.4943 35.8289C50.4983 38.0743 47.5876 39.405 44.5106 39.405Z" fill="#2E3C56"/>
<path d="M54.5733 29.4253C54.2406 29.4253 53.908 29.1759 53.908 28.76C53.908 25.8493 52.5774 23.1881 50.3319 21.4417C50.0825 21.1922 49.9993 20.8595 50.2488 20.5269C50.4983 20.2774 50.8309 20.1942 51.1636 20.4437C53.7416 22.4396 55.1554 25.5167 55.1554 28.76C55.1554 29.0927 54.9059 29.4253 54.5733 29.4253Z" fill="#2E3C56"/>
</svg>
