<svg width="18" height="14" viewBox="0 0 18 14" fill="none" xmlns="http://www.w3.org/2000/svg">
<path fill-rule="evenodd" clip-rule="evenodd" d="M0.000244141 2.625C0.000244141 1.17525 1.20908 0 2.70024 0H15.3002C16.7914 0 18.0002 1.17525 18.0002 2.625V11.375C18.0002 12.8247 16.7914 14 15.3002 14H2.70024C1.20908 14 0.000244141 12.8247 0.000244141 11.375V2.625ZM1.90112 2.2221L9.00024 6.82338L16.0994 2.2221C15.9494 1.9416 15.6479 1.75 15.3002 1.75H2.70024C2.35263 1.75 2.05105 1.9416 1.90112 2.2221ZM16.2002 4.25995L9.49947 8.60304C9.19716 8.79899 8.80332 8.79899 8.50101 8.60304L1.80024 4.25995V11.375C1.80024 11.8582 2.20319 12.25 2.70024 12.25H15.3002C15.7973 12.25 16.2002 11.8582 16.2002 11.375V4.25995Z" fill="#FAFAFA"/>
</svg>
