<svg width="167" height="20" viewBox="0 0 167 20" fill="none" xmlns="http://www.w3.org/2000/svg">
<path d="M1.82905 7.59709C22.8894 5.87862 44.0159 5.43402 65.1258 5.57685C86.1139 5.71736 107.098 6.72173 128.018 8.58763C139.678 9.62655 151.324 7.99948 162.938 9.61199L163.543 5.25434C143.438 7.2193 123.357 9.53671 103.272 11.7435C97.5224 12.3747 91.7913 13.052 86.0622 13.8721C84.4067 14.1093 82.8463 15.5537 83.0054 17.5854C83.1542 19.4721 84.5493 19.126 86.3371 18.9924C96.4746 18.2299 106.575 17.0367 116.685 15.9425C126.796 14.8483 136.638 13.7794 146.616 12.699C152.36 12.0771 158.095 11.3975 163.833 10.7064C165.5 10.5 166.833 11.2344 166.989 9.32017C167.123 7.66389 166.094 5.54229 164.438 5.34879C143.235 2.88165 121.95 1.2415 100.643 0.483622C79.5477 -0.267346 58.4337 -0.168292 37.3506 0.953553C25.4481 1.58704 13.5517 2.49926 1.67197 3.54969C-0.651074 3.75471 -0.510534 7.78598 1.82905 7.59479V7.59709Z" fill="#1CC661"/>
</svg>
