<svg width="70" height="65" viewBox="0 0 70 65" fill="none" xmlns="http://www.w3.org/2000/svg">
<path fill-rule="evenodd" clip-rule="evenodd" d="M28.6991 0.218729C34.6818 0.364046 39.6174 4.17583 44.7075 7.3228C50.2636 10.7579 57.5548 13.1123 59.5926 19.3185C61.6311 25.5269 56.6155 31.5576 54.7183 37.8106C52.7692 44.2346 53.0872 51.6443 48.3434 56.3945C43.2689 61.4758 35.7066 65.4346 28.6991 63.8644C21.8151 62.3218 19.715 53.6348 14.5557 48.8233C10.3137 44.8673 3.35702 43.6798 1.25731 38.2728C-0.868334 32.799 1.96159 26.8423 3.86219 21.2864C5.732 15.8204 7.7101 10.2681 12.1156 6.53115C16.7394 2.60909 22.6378 0.0715 28.6991 0.218729Z" fill="#E3ECF6"/>
<ellipse cx="41.5669" cy="30.8019" rx="26.0621" ry="26.0932" fill="#D9D9D9"/>
<ellipse cx="41.5667" cy="30.8019" rx="22.7208" ry="22.7479" fill="#D9D9D9"/>
<ellipse cx="41.5669" cy="30.8019" rx="18.7112" ry="18.7336" fill="#D9D9D9"/>
<ellipse cx="41.5667" cy="30.802" rx="16.3123" ry="16.3318" fill="#D9D9D9"/>
<path d="M41.4339 17.287C41.1663 17.287 40.9656 17.0862 40.8987 16.8186V3.23678C40.8987 2.96916 41.0994 2.70154 41.4339 2.70154C41.7685 2.70154 41.9692 2.90225 41.9692 3.23678V16.7517C41.9692 17.0193 41.7685 17.287 41.4339 17.287C41.5008 17.287 41.5008 17.287 41.4339 17.287Z" fill="#1C2F42"/>
<path d="M41.4339 58.7015C41.1663 58.7015 40.9656 58.5008 40.8987 58.2332V44.6513C40.8987 44.3837 41.0994 44.1161 41.4339 44.1161C41.7685 44.1161 41.9692 44.3168 41.9692 44.6513V58.2332C41.9692 58.5008 41.7685 58.7015 41.4339 58.7015Z" fill="#1C2F42"/>
<path d="M68.8986 31.2033H55.3998C55.1325 31.2033 54.8652 31.0026 54.8652 30.6681C54.8652 30.3335 55.0657 30.1328 55.3998 30.1328H68.9655C69.2328 30.1328 69.5001 30.3335 69.5001 30.6681C69.5001 31.0026 69.2328 31.2033 68.8986 31.2033Z" fill="#1C2F42"/>
<path d="M27.5334 31.2033H14.0346C13.7673 31.2033 13.5 31.0026 13.5 30.6681C13.5 30.3335 13.7005 30.1328 14.0346 30.1328H27.5334C27.8007 30.1328 28.068 30.3335 28.068 30.6681C28.068 31.0026 27.8007 31.2033 27.5334 31.2033Z" fill="#1C2F42"/>
<path d="M40.2354 24.2001C40.6542 22.9097 42.4798 22.9097 42.8986 24.2001L43.8035 26.9883C43.9907 27.5653 44.5284 27.9561 45.1351 27.9561H48.0668C49.4226 27.9561 49.9867 29.6907 48.8903 30.4883L46.5157 32.2156C46.0256 32.5721 45.8205 33.2035 46.0076 33.7799L46.9139 36.5727C47.3326 37.8629 45.8556 38.9349 44.7588 38.137L42.3905 36.4144C41.8996 36.0573 41.2344 36.0573 40.7435 36.4144L38.3752 38.137C37.2784 38.9349 35.8014 37.8629 36.2201 36.5727L37.1264 33.7799C37.3135 33.2035 37.1084 32.5721 36.6183 32.2156L34.2437 30.4883C33.1473 29.6907 33.7114 27.9561 35.0672 27.9561H37.9989C38.6056 27.9561 39.1433 27.5653 39.3305 26.9883L40.2354 24.2001Z" fill="#ED9048"/>
<path d="M37.2233 38.9644C36.2877 38.9644 35.4858 38.2284 35.4858 37.2917C35.4858 37.1579 35.4858 37.091 35.4858 36.9572L36.1541 33.0767L33.3474 30.3335C32.6791 29.6645 32.6791 28.594 33.3474 27.9249C33.6147 27.6573 33.9488 27.4566 34.2829 27.4566L36.3545 27.1221C36.6218 27.0552 36.8891 27.2559 36.8891 27.5235C36.956 27.7911 36.7555 28.0587 36.4882 28.0587L34.4166 28.3933C34.1493 28.3933 33.9488 28.594 33.882 28.8616C33.8152 29.1292 33.882 29.3969 34.0825 29.5976L37.0896 32.5414C37.2233 32.6752 37.2901 32.809 37.2233 33.0098L36.4882 37.1579C36.4214 37.4255 36.555 37.6932 36.7555 37.827C36.956 37.9608 37.2901 38.0277 37.4906 37.8939L41.166 35.9536C41.2997 35.8867 41.5001 35.8867 41.6338 35.9536L45.3092 37.8939C45.5097 38.0277 45.8438 38.0277 46.0443 37.827C46.2448 37.6932 46.3784 37.4255 46.3116 37.1579L45.6433 33.0098C45.6433 32.8759 45.6433 32.6752 45.777 32.5414L48.7841 29.5976C48.9846 29.3969 49.0514 29.1292 48.9846 28.8616C48.9178 28.594 48.7173 28.3933 48.45 28.3933L44.3068 27.7911C44.1732 27.7911 43.9727 27.6573 43.9059 27.5235L42.0347 23.7768C41.8343 23.4423 41.3665 23.3084 41.0323 23.5092C40.8987 23.5761 40.8319 23.643 40.765 23.7768L40.2973 24.7804C40.1636 25.048 39.8963 25.1149 39.629 24.9811C39.3617 24.8473 39.2949 24.5796 39.4285 24.312L39.8963 23.3084C40.2973 22.4387 41.2997 22.1041 42.1684 22.5056C42.5025 22.6394 42.7698 22.9739 42.9703 23.3084L44.7078 26.8544L48.5837 27.3897C49.5192 27.5235 50.1206 28.3933 49.987 29.3299C49.9202 29.7314 49.7865 30.0659 49.5192 30.3335L46.7125 33.0767L47.3808 36.9572C47.5813 37.8939 46.9798 38.7636 46.0443 38.9644C45.6433 39.0313 45.2424 38.9644 44.8414 38.7636L41.3665 36.9572L37.9584 38.7636C37.7579 38.8975 37.4906 38.9644 37.2233 38.9644Z" fill="#1C2F42"/>
<path d="M41.4331 56.6274C27.1324 56.6274 15.5715 45.0527 15.5715 30.7349C15.5715 16.4171 27.1992 4.77551 41.4331 4.77551C44.6407 4.77551 47.8484 5.37766 50.9224 6.58196C51.1897 6.71578 51.2565 6.9834 51.1228 7.25102C50.9892 7.45174 50.7887 7.58555 50.5214 7.51864C37.7577 2.50072 23.3233 8.78985 18.2446 21.5688C13.1658 34.3478 19.5143 48.7994 32.278 53.8842C37.2899 55.8914 42.8364 56.159 48.0489 54.6871C48.3162 54.6202 48.5835 54.754 48.6503 55.0216C48.7171 55.2893 48.5835 55.5569 48.3162 55.6238C46.1109 56.2928 43.772 56.6274 41.4331 56.6274ZM53.0608 53.7504C52.8603 53.7504 52.7267 53.6835 52.593 53.4828C52.4594 53.2152 52.593 52.9476 52.7935 52.8137C65.0894 46.5915 69.9009 31.5378 63.6193 19.3609C63.4856 19.0933 63.352 18.8257 63.1515 18.5581C63.0178 18.2904 63.0847 18.0228 63.352 17.889C63.6193 17.7552 63.8866 17.8221 64.0202 18.0897C71.0369 30.5342 66.5596 46.3239 54.13 53.349C53.8627 53.4828 53.5954 53.6166 53.3281 53.8173C53.2613 53.7504 53.1944 53.8173 53.0608 53.7504ZM41.4331 53.349C28.9367 53.349 18.846 43.2462 18.846 30.7349C18.846 18.2235 28.9367 8.05389 41.4331 8.05389C53.9295 8.05389 64.087 18.2235 64.087 30.7349C64.087 43.1793 53.9295 53.349 41.4331 53.349ZM41.4331 9.05747C29.5381 9.05747 19.8484 18.7588 19.8484 30.668C19.8484 42.6441 29.5381 52.3454 41.4999 52.3454C53.4617 52.3454 63.1515 42.6441 63.1515 30.668C63.0847 18.7588 53.3949 9.05747 41.4331 9.05747ZM60.4116 14.2761C60.278 14.2761 60.1443 14.2092 60.0107 14.0754C58.6073 12.5366 57.0703 11.1315 55.3329 9.99415C55.1324 9.86034 55.0656 9.52581 55.1992 9.32509C55.3329 9.12438 55.667 9.05747 55.8675 9.19128C57.6718 10.3956 59.3424 11.8675 60.7458 13.4732C60.9462 13.674 60.8794 14.0085 60.6789 14.2092C60.6121 14.2761 60.5453 14.343 60.4116 14.2761Z" fill="#1C2F42"/>
<path d="M41.4331 49.9369C37.4235 49.9369 33.4808 48.6657 30.2063 46.324C30.0059 46.1902 29.939 45.8557 30.0727 45.655C30.2063 45.4542 30.5405 45.3873 30.8078 45.5211C33.8818 47.729 37.624 48.9333 41.4331 48.9333C51.4569 48.9333 59.6097 40.7708 59.6097 30.6681C59.6097 20.5653 51.5238 12.4698 41.4331 12.4698C31.4092 12.4698 23.2565 20.6323 23.2565 30.6681C23.2565 34.7493 24.593 38.6299 27.0655 41.8413C27.1992 42.0421 27.1324 42.3766 26.9319 42.5104C26.7314 42.6442 26.4641 42.6442 26.2636 42.4435C23.6574 39.0982 22.1873 34.9501 22.1873 30.6681C22.2541 20.097 30.8746 11.4662 41.4331 11.4662C52.0584 11.4662 60.6789 20.097 60.6789 30.6681C60.6789 41.2392 52.0584 49.9369 41.4331 49.9369C41.4999 49.9369 41.4999 49.9369 41.4331 49.9369ZM41.4331 46.9931C32.4116 46.9931 25.1276 39.7004 25.1276 30.735C25.1276 21.7697 32.4116 14.41 41.3663 14.41C50.3209 14.41 57.6717 21.7027 57.6717 30.6681C57.7386 39.7004 50.4546 46.9931 41.4331 46.9931ZM41.4331 15.4136C33.013 15.4136 26.1968 22.238 26.1968 30.6681C26.1968 39.0982 33.013 45.9895 41.4331 45.9895C49.8531 45.9895 56.7362 39.1651 56.7362 30.735C56.7362 22.238 49.92 15.4136 41.4331 15.4136Z" fill="#1C2F42"/>
</svg>
