<svg width="64" height="65" viewBox="0 0 64 65" fill="none" xmlns="http://www.w3.org/2000/svg">
<path fill-rule="evenodd" clip-rule="evenodd" d="M28.9121 0.220083C34.5412 -0.0209104 38.4175 5.66041 43.6034 7.86302C50.2197 10.6732 61.2886 8.08501 63.5188 14.9187C65.869 22.1199 55.5979 27.3177 52.1544 34.0648C50.0663 38.1562 49.2168 42.4878 47.3145 46.6688C44.6078 52.6179 44.7318 61.4731 38.6248 63.8015C32.6637 66.0742 27.4743 58.2602 21.3199 56.5796C14.9856 54.8498 6.42424 58.896 2.21281 53.8581C-2.01967 48.7951 2.93795 41.0702 2.83892 34.4718C2.75607 28.9515 -0.707612 23.2645 1.67892 18.2861C4.06068 13.3176 10.4162 12.1331 15.0076 9.08726C19.6831 5.98563 23.3065 0.460069 28.9121 0.220083Z" fill="#E3ECF6"/>
<path d="M43.3945 8.66858C46.2848 15.5331 50.8611 16.9783 54.7149 17.2191C54.2332 35.0428 47.2482 47.8084 33.2784 55.9976C19.3085 47.8084 12.3235 35.0428 11.8418 17.3395C15.6956 17.0987 20.2719 15.6535 23.1622 8.78901H43.3945V8.66858ZM48.8138 21.7955C48.8138 20.9525 48.0913 20.2299 47.2482 20.2299C44.7192 20.2299 42.9128 19.989 41.588 16.1352C41.4676 15.4127 40.8655 15.0514 40.1429 15.0514H26.4138C25.6913 15.0514 25.0891 15.5331 24.9687 16.1352C23.6439 19.8686 21.8375 20.2299 19.3085 20.2299C18.4655 20.2299 17.7429 20.9525 17.7429 21.7955C17.7429 28.0578 18.9472 33.4772 21.3558 37.9331C23.7644 42.389 27.4977 46.0019 32.4353 48.7718C32.6762 48.8922 32.9171 49.0127 33.1579 49.0127C33.3988 49.0127 33.7601 48.8922 33.8805 48.7718C43.9966 43.1116 48.8138 34.3202 48.8138 21.7955Z" fill="#FFD566"/>
<path d="M46.1643 21.3137C43.5149 21.3137 40.745 20.9524 39.1794 16.2557C39.1794 16.2557 39.1794 16.1352 39.059 16.1352H25.2095C25.2095 16.1352 25.0891 16.1352 25.0891 16.2557C23.5235 20.9524 20.7536 21.3137 18.1041 21.3137C18.1041 21.3137 17.9837 21.3137 17.9837 21.4342C17.9837 33.4772 22.56 41.7868 32.074 47.2062C41.588 41.9073 46.2848 33.4772 46.1643 21.3137C46.2848 21.4341 46.1643 21.3137 46.1643 21.3137ZM47.7299 21.4342C47.7299 33.9589 42.9127 42.8707 32.917 48.4105C32.6762 48.5309 32.4353 48.6514 32.1944 48.6514C31.9536 48.6514 31.7127 48.5309 31.4719 48.4105C26.5342 45.6406 22.8009 42.0277 20.3923 37.5718C17.9837 33.1159 16.7794 27.6965 16.7794 21.4342C16.5385 20.5911 17.2611 19.8686 18.1041 19.8686C20.6331 19.8686 22.4396 19.6277 23.7643 15.7739C24.0052 15.1718 24.6073 14.6901 25.2095 14.6901H38.9385C39.6611 14.6901 40.2633 15.1718 40.3837 15.7739C41.7084 19.5073 43.5149 19.8686 46.0439 19.8686C47.0073 19.8686 47.7299 20.5911 47.7299 21.4342Z" fill="#1C2F42"/>
<path d="M55.076 16.3761C54.7147 35.2836 47.3685 48.6514 32.4352 57.2019C32.3147 57.3223 32.1943 57.3223 32.0739 57.3223C31.9534 57.3223 31.833 57.3223 31.7126 57.2019C16.8997 48.6514 9.55343 35.2836 9.19214 16.3761C9.19214 16.0148 9.433 15.6535 9.91472 15.6535C14.0093 15.5331 18.104 14.3288 20.8739 7.46426C20.9943 7.2234 21.2351 6.98254 21.5964 6.98254H42.7921C43.1534 6.98254 43.3943 7.2234 43.5147 7.46426C46.1642 14.3288 50.3792 15.4127 54.4739 15.6535C54.7147 15.6535 55.076 15.8944 55.076 16.3761ZM53.5104 16.9782C49.6567 16.7374 45.0803 15.2922 42.19 8.42771H21.9577C19.0674 15.2922 14.4911 16.7374 10.6373 16.9782C11.119 34.8019 18.104 47.4471 32.0739 55.6363C46.0438 47.4471 53.0287 34.8019 53.5104 16.9782Z" fill="#1C2F42"/>
<path d="M55.6783 12.8836C56.8826 12.8836 57.7256 13.8471 57.7256 14.9309C57.7256 35.8858 49.6568 50.5782 33.0374 59.9718C32.917 59.9718 32.917 60.0922 32.7966 60.0922C32.6761 60.0922 32.6761 60.2127 32.5557 60.2127C32.3148 60.2127 32.1944 60.3331 32.074 60.3331C31.9535 60.3331 31.7127 60.3331 31.5923 60.2127C31.4718 60.2127 31.3514 60.0922 31.3514 60.0922C31.231 60.0922 31.231 60.0922 31.1105 59.9718C30.9901 59.8514 16.6589 49.2535 12.5643 41.7868C8.46967 34.4406 6.42236 25.5288 6.42236 14.9309C6.42236 13.7266 7.3858 12.8836 8.46968 12.8836C12.6847 12.8836 16.1772 12.4019 18.4654 5.65781C18.8267 4.8148 19.6697 4.21265 20.5127 4.21265H43.7557C44.5987 4.21265 45.4417 4.8148 45.6826 5.65781C47.9708 12.4019 51.4632 12.8836 55.6783 12.8836ZM32.5557 58.6471C48.5729 49.6148 56.4009 35.404 56.4009 14.9309C56.4009 14.5696 56.16 14.3288 55.7987 14.3288C51.3428 14.3288 47.0073 13.7266 44.3578 6.13953C44.2374 5.89867 43.9966 5.65781 43.7557 5.65781H20.5127C20.2718 5.65781 20.031 5.77824 19.9105 6.13953C17.2611 13.7266 13.046 14.3288 8.46968 14.3288C8.10838 14.3288 7.86752 14.5696 7.86752 14.9309C7.86752 35.2836 15.6955 49.6148 31.7127 58.6471H31.8331H31.9535C32.074 58.6471 32.1944 58.6471 32.1944 58.6471C32.3148 58.7675 32.4353 58.7675 32.5557 58.6471C32.4353 58.6471 32.4353 58.6471 32.5557 58.6471Z" fill="#1C2F42"/>
<path d="M30.8114 25.0757C31.2302 23.7853 33.0559 23.7853 33.4747 25.0757L34.3795 27.8639C34.5668 28.4409 35.1045 28.8317 35.7112 28.8317H38.6428C39.9986 28.8317 40.5628 30.5663 39.4664 31.3639L37.0917 33.0912C36.6016 33.4477 36.3966 34.0791 36.5836 34.6555L37.49 37.4483C37.9087 38.7385 36.4317 39.8105 35.3348 39.0126L32.9666 37.29C32.4756 36.9329 31.8105 36.9329 31.3195 37.29L28.9513 39.0126C27.8544 39.8105 26.3774 38.7385 26.7961 37.4483L27.7025 34.6555C27.8896 34.0791 27.6845 33.4477 27.1944 33.0912L24.8197 31.3639C23.7233 30.5663 24.2875 28.8317 25.6433 28.8317H28.575C29.1817 28.8317 29.7193 28.4409 29.9066 27.8639L30.8114 25.0757Z" fill="#ED9048"/>
<path d="M27.7995 39.84C26.8639 39.84 26.062 39.104 26.062 38.1673C26.062 38.0335 26.062 37.9666 26.062 37.8328L26.7302 33.9523L23.9236 31.2091C23.2553 30.5401 23.2553 29.4696 23.9236 28.8005C24.1909 28.5329 24.525 28.3322 24.8591 28.3322L26.9307 27.9977C27.198 27.9308 27.4653 28.1315 27.4653 28.3991C27.5321 28.6667 27.3317 28.9344 27.0644 28.9344L24.9928 29.2689C24.7255 29.2689 24.525 29.4696 24.4582 29.7372C24.3913 30.0048 24.4582 30.2725 24.6586 30.4732L27.6658 33.417C27.7994 33.5508 27.8663 33.6847 27.7995 33.8854L27.0644 38.0335C26.9975 38.3011 27.1312 38.5688 27.3317 38.7026C27.5321 38.8364 27.8663 38.9033 28.0668 38.7695L31.7422 36.8292C31.8758 36.7623 32.0763 36.7623 32.2099 36.8292L35.8854 38.7695C36.0858 38.9033 36.42 38.9033 36.6205 38.7026C36.8209 38.5688 36.9546 38.3011 36.8878 38.0335L36.2195 33.8854C36.2195 33.7516 36.2195 33.5508 36.3531 33.417L39.3603 30.4732C39.5608 30.2725 39.6276 30.0048 39.5608 29.7372C39.494 29.4696 39.2935 29.2689 39.0262 29.2689L34.883 28.6667C34.7493 28.6667 34.5489 28.5329 34.482 28.3991L32.6109 24.6524C32.4104 24.3179 31.9426 24.1841 31.6085 24.3848C31.4749 24.4517 31.408 24.5186 31.3412 24.6524L30.8734 25.656C30.7398 25.9236 30.4725 25.9905 30.2052 25.8567C29.9379 25.7229 29.871 25.4553 30.0047 25.1876L30.4725 24.1841C30.8734 23.3143 31.8758 22.9798 32.7446 23.3812C33.0787 23.515 33.346 23.8495 33.5465 24.1841L35.2839 27.7301L39.1598 28.2653C40.0954 28.3991 40.6968 29.2689 40.5632 30.2056C40.4963 30.607 40.3627 30.9415 40.0954 31.2091L37.2887 33.9523L37.957 37.8328C38.1574 38.7695 37.556 39.6393 36.6205 39.84C36.2195 39.9069 35.8185 39.84 35.4176 39.6393L31.9426 37.8328L28.5345 39.6393C28.3341 39.7731 28.0668 39.84 27.7995 39.84Z" fill="#1C2F42"/>
</svg>
