<svg width="65" height="65" viewBox="0 0 65 65" fill="none" xmlns="http://www.w3.org/2000/svg">
<g id="Group 40339">
<path id="Vector" fill-rule="evenodd" clip-rule="evenodd" d="M33.5231 5.74022C39.0073 3.71782 44.4691 -0.856968 50.1915 0.600632C55.6189 1.98312 57.1962 8.11298 59.7908 12.4311C62.0113 16.1268 63.7111 20.0132 64.3333 24.1367C64.9038 27.917 63.8788 31.635 63.2581 35.4094C62.6542 39.0822 63.2215 43.1789 60.7061 46.1952C58.1898 49.2127 52.5836 49.0418 49.6299 51.7516C45.8171 55.2496 46.5317 62.4132 41.2747 64.0225C36.3564 65.5281 31.6007 60.9239 27.1028 58.6475C23.4525 56.8001 21.0169 53.6359 17.2999 51.8891C12.9724 49.8554 6.81159 50.7542 3.5486 47.5782C0.394896 44.5087 0.265178 39.77 0.658462 35.6917C1.033 31.8078 5.04049 28.8297 5.72807 24.9775C6.5734 20.2415 1.1467 14.1485 5.10656 10.7708C9.19456 7.2838 16.5635 11.9192 22.2086 10.9198C26.4413 10.1705 29.5524 7.20449 33.5231 5.74022Z" fill="#E3ECF6"/>
<g id="Group">
<path id="Vector_2" d="M5.36963 41.1524V21.7349H49.662V41.1524C49.662 44.8963 46.6161 47.9422 42.8722 47.9422H12.1594C8.41552 47.9422 5.36963 44.8963 5.36963 41.1524Z" fill="#FCEDED"/>
</g>
<g id="Group_2">
<path id="Vector_3" d="M5.36963 21.7349V20.5927C5.36963 16.8487 8.41552 13.8029 12.1594 13.8029H42.8087C46.5526 13.8029 49.5985 16.8487 49.5985 20.5927V21.7349H5.36963Z" fill="#E26464"/>
</g>
<g id="Group_3">
<path id="Vector_4" d="M42.8088 48.4499H12.1595C8.0983 48.4499 4.86204 45.1501 4.86204 41.1524V40.6448C4.86204 40.3909 5.05241 40.1371 5.36969 40.1371C5.62351 40.1371 5.87734 40.3275 5.87734 40.6448V41.1524C5.87734 44.6425 8.73286 47.498 12.2229 47.498H42.8722C46.3623 47.498 49.2178 44.6425 49.2178 41.1524V20.5926C49.2178 17.1026 46.3623 14.247 42.8722 14.247H12.1595C8.66941 14.247 5.81388 17.1026 5.81388 20.5926V35.5683C5.81388 35.8221 5.62351 36.0759 5.30623 36.0759C5.05241 36.0759 4.79858 35.8856 4.79858 35.5683V20.5926C4.86204 16.5949 8.0983 13.3586 12.1595 13.3586H42.8088C46.8065 13.3586 50.1062 16.5949 50.1062 20.6561V41.2159C50.1062 45.1501 46.8065 48.4499 42.8088 48.4499Z" fill="#2E3C56"/>
</g>
<g id="Group_4">
<path id="Vector_5" d="M49.5986 22.2426H5.36971C5.05243 22.2426 4.86206 21.9888 4.86206 21.7349C4.86206 21.4811 5.05243 21.2273 5.36971 21.2273H49.6621C49.9159 21.2273 50.1697 21.4177 50.1697 21.7349C50.1063 21.9888 49.8524 22.2426 49.5986 22.2426Z" fill="#2E3C56"/>
</g>
<g id="Group_5">
<path id="Vector_6" d="M10.002 45.7848V26.3672H54.2943V45.7848C54.2943 49.5287 51.2484 52.5746 47.5045 52.5746H16.7918C13.0478 52.638 10.002 49.5287 10.002 45.7848Z" fill="white"/>
</g>
<g id="Group_6">
<path id="Vector_7" d="M30.1176 18.9428H23.6451C23.3913 18.9428 23.1375 18.7524 23.1375 18.4351C23.1375 18.1813 23.3278 17.9275 23.6451 17.9275H30.0542C30.308 17.9275 30.5618 18.1179 30.5618 18.4351C30.5618 18.7524 30.3714 18.9428 30.1176 18.9428Z" fill="#2E3C56"/>
</g>
<g id="Group_7">
<path id="Vector_8" d="M32.3386 26.8748H10.0021C9.74823 26.8748 9.55786 26.6844 9.55786 26.3671C9.55786 26.1133 9.74823 25.8595 10.0021 25.8595H32.3386C32.5924 25.8595 32.8462 26.0499 32.8462 26.3671C32.7828 26.6844 32.5924 26.8748 32.3386 26.8748Z" fill="#2E3C56"/>
</g>
<path id="Rectangle 22705" d="M9.93848 26.0499C9.93848 22.1948 13.0636 19.0697 16.9186 19.0697H47.3776C51.2326 19.0697 54.3577 22.1948 54.3577 26.0499H9.93848Z" fill="#D9D9D9"/>
<g id="Group_8">
<path id="Vector_9" d="M47.4411 53.0822H16.7918C12.7941 53.0822 9.49438 49.8459 9.49438 45.7847V25.2884C9.49438 21.2907 12.7306 17.991 16.7918 17.991H18.6321C18.8859 17.991 19.1397 18.1813 19.1397 18.4986C19.1397 18.7524 18.9493 19.0063 18.6321 19.0063H16.7918C13.3017 19.0063 10.4462 21.8618 10.4462 25.3519V45.9116C10.4462 49.4017 13.3017 52.2573 16.7918 52.2573H47.4411C50.9312 52.2573 53.7867 49.4017 53.7867 45.9116V37.0913C53.7867 36.8374 53.9771 36.5836 54.2944 36.5836C54.5482 36.5836 54.802 36.774 54.802 37.0913V45.7847C54.7386 49.8459 51.5023 53.0822 47.4411 53.0822Z" fill="#2E3C56"/>
</g>
<g id="Group_9">
<path id="Vector_10" d="M54.2944 32.5224C54.0406 32.5224 53.7868 32.332 53.7868 32.0147V25.2884C53.7868 21.7983 50.9313 18.9428 47.4412 18.9428H35.1307C34.8769 18.9428 34.623 18.7524 34.623 18.4351C34.623 18.1813 34.8134 17.9275 35.1307 17.9275H47.4412C51.4389 17.9275 54.7386 21.1638 54.7386 25.2249V32.0147C54.7386 32.332 54.5483 32.5224 54.2944 32.5224Z" fill="#2E3C56"/>
</g>
<g id="Group_10">
<g id="Group_11">
<path id="Vector_11" d="M56.7866 30.5765H51.1414V32.5388H56.7866V30.5765Z" fill="#7EB9E7"/>
</g>
<g id="Group_12">
<path id="Vector_12" d="M54.3111 14.0482V22.4105C54.4017 22.4407 54.5225 22.501 54.5828 22.5916C54.9149 22.9237 54.9149 23.4973 54.5828 23.8595C54.2206 24.2218 53.6772 24.2218 53.3149 23.8595C52.9828 23.5275 52.9828 22.9539 53.3149 22.5916C53.4055 22.501 53.496 22.4407 53.5866 22.4105V14.0482L48.0017 23.7086L48.0319 23.769C49.9338 24.2218 51.3225 25.8822 51.3225 27.8746C51.3225 28.2973 51.2621 28.6897 51.1413 29.0822H56.7564C56.6357 28.6897 56.5753 28.2973 56.5753 27.8746C56.5753 25.852 57.9942 24.1916 59.8659 23.769L59.896 23.7086L54.3111 14.0482Z" fill="#7EB9E7"/>
</g>
</g>
<g id="Group_13">
<g id="Group_14">
<path id="Vector_13" d="M56.9223 33.0823H50.9449V30.8181H56.8921V33.0823H56.9223ZM51.2468 32.7804H56.5902V31.12H51.2468V32.7804Z" fill="#2E3C56"/>
<path id="Vector (Stroke)" fill-rule="evenodd" clip-rule="evenodd" d="M50.7849 33.2422V30.6581H57.0521V33.0822H56.9223V33.2422H50.7849ZM56.8921 33.0822V30.8181H50.9449V33.0822H56.8921ZM56.5902 32.7803H51.2468V31.12H56.5902V32.7803ZM56.4302 31.28H51.4068V32.6203H56.4302V31.28Z" fill="#2E3C56"/>
</g>
<g id="Group_15">
<path id="Vector_14" d="M56.9222 29.6256H50.9147L50.9751 29.4445C51.0958 29.0521 51.1562 28.6898 51.1562 28.2973C51.1562 26.3955 49.8581 24.7955 48.0166 24.3426H47.9562L47.8354 24.1615L53.7524 13.9275V22.9539L53.6619 22.9841C53.5713 23.0143 53.5109 23.0747 53.4204 23.1351C53.1185 23.437 53.1185 23.8898 53.4204 24.1917C53.7222 24.4936 54.1751 24.4936 54.477 24.1917C54.6279 24.0407 54.6883 23.8596 54.6883 23.6785C54.6883 23.4671 54.5977 23.286 54.477 23.1653C54.4166 23.1049 54.326 23.0445 54.2354 23.0143L54.1449 22.9841V13.8973L60.0619 24.1313L59.9713 24.3124H59.9109C58.0694 24.7049 56.7411 26.3653 56.7411 28.2671C56.7411 28.6596 56.8015 29.0521 56.9222 29.4143V29.6256ZM51.3071 29.3238H56.4996C56.409 28.9917 56.3788 28.6294 56.3788 28.2671C56.3788 26.2747 57.7373 24.5539 59.6392 24.0407L54.4166 14.9841V22.6822C54.5071 22.7426 54.5675 22.803 54.6581 22.8634C54.8694 23.0747 54.96 23.3162 54.96 23.5879C54.96 23.8596 54.8392 24.1313 54.6581 24.3124C54.2656 24.7049 53.6015 24.7049 53.1788 24.3124C52.7864 23.92 52.7864 23.2558 53.1788 22.8332C53.2392 22.7728 53.3298 22.7124 53.4204 22.6521V15.0143L48.1977 24.0709C50.0996 24.5841 51.4279 26.2747 51.4279 28.2671C51.4279 28.6294 51.3977 28.9917 51.3071 29.3238Z" fill="#2E3C56"/>
<path id="Vector (Stroke)_2" fill-rule="evenodd" clip-rule="evenodd" d="M57.0823 29.7856H50.6928L50.8227 29.3956C50.9391 29.0171 50.9963 28.6713 50.9963 28.2973C50.9963 26.478 49.7596 24.9446 47.9971 24.5026H47.8706L47.6472 24.1675L53.9125 13.3311V23.0692L53.7125 23.1359C53.6881 23.144 53.6649 23.1569 53.6329 23.1793C53.6254 23.1846 53.6135 23.1934 53.5994 23.2037C53.5767 23.2204 53.5485 23.2412 53.5235 23.2584C53.2942 23.4975 53.2975 23.8425 53.5336 24.0785C53.773 24.3179 54.1245 24.3179 54.3639 24.0785C54.4817 23.9607 54.5283 23.8218 54.5283 23.6784C54.5283 23.5135 54.4575 23.372 54.3639 23.2784C54.319 23.2334 54.2493 23.1875 54.1849 23.1661L53.9849 23.0994V13.3009L60.2436 24.1258L60.0702 24.4724H59.928C58.1702 24.8551 56.9012 26.445 56.9012 28.2671C56.9012 28.6435 56.9591 29.0188 57.0741 29.3637L57.0823 29.3883V29.7856ZM59.911 24.3124H59.9714L60.0619 24.1313L54.1449 13.8973V22.9841L54.2355 23.0143C54.3261 23.0445 54.4166 23.1048 54.477 23.1652C54.5978 23.286 54.6883 23.4671 54.6883 23.6784C54.6883 23.8596 54.628 24.0407 54.477 24.1916C54.1751 24.4935 53.7223 24.4935 53.4204 24.1916C53.1185 23.8897 53.1185 23.4369 53.4204 23.135C53.4474 23.117 53.4718 23.099 53.495 23.0818C53.5497 23.0413 53.5984 23.0053 53.6619 22.9841L53.7525 22.9539V13.9275L47.8355 24.1614L47.9563 24.3426H48.0166C49.8581 24.7954 51.1563 26.3954 51.1563 28.2973C51.1563 28.6898 51.0959 29.052 50.9751 29.4445L50.9148 29.6256H56.9223V29.4143C56.8015 29.052 56.7412 28.6596 56.7412 28.2671C56.7412 26.3652 58.0695 24.7048 59.911 24.3124ZM54.4166 22.6822C54.4619 22.7124 54.4997 22.7426 54.5374 22.7728C54.5751 22.803 54.6129 22.8331 54.6582 22.8633C54.8695 23.0747 54.96 23.3162 54.96 23.5879C54.96 23.8596 54.8393 24.1313 54.6582 24.3124C54.2657 24.7048 53.6015 24.7048 53.1789 24.3124C52.7865 23.9199 52.7865 23.2558 53.1789 22.8331C53.2393 22.7728 53.3298 22.7124 53.4204 22.652V15.0143L48.1978 24.0709C48.251 24.0852 48.3037 24.1005 48.356 24.1167C50.1729 24.6789 51.428 26.3304 51.428 28.2671C51.428 28.572 51.4066 28.8768 51.3458 29.1637C51.3344 29.2177 51.3216 29.2711 51.3072 29.3237H56.4997C56.4853 29.2711 56.4725 29.2177 56.461 29.1637C56.4003 28.8768 56.3789 28.572 56.3789 28.2671C56.3789 26.3304 57.6625 24.6503 59.481 24.0866C59.5333 24.0703 59.5861 24.055 59.6393 24.0407L54.4166 14.9841V22.6822ZM54.5766 15.5818L59.3992 23.9446C57.5337 24.539 56.2189 26.2706 56.2189 28.2671C56.2189 28.567 56.2391 28.8721 56.2977 29.1637H51.5092C51.5678 28.8721 51.588 28.567 51.588 28.2671C51.588 26.271 50.3017 24.5674 48.4379 23.9747L53.2604 15.612V22.5667C53.192 22.6133 53.1203 22.6655 53.0658 22.72L53.0617 22.7243C52.6144 23.2059 52.6086 23.9684 53.0658 24.4255L53.07 24.4296C53.5517 24.8769 54.3141 24.8827 54.7713 24.4255C54.981 24.2158 55.12 23.9039 55.12 23.5879C55.12 23.2753 55.0137 22.9926 54.7713 22.7502L54.7601 22.739L54.7469 22.7302C54.7082 22.7044 54.6755 22.6784 54.6373 22.6478L54.6357 22.6465C54.6175 22.6319 54.5979 22.6163 54.5766 22.6001V15.5818Z" fill="#2E3C56"/>
</g>
</g>
<g id="Group_16">
<g id="Group_17">
<path id="Vector_15" d="M23.2644 37.6624H15.5862V38.5507H23.2644V37.6624Z" fill="#FFEEDE"/>
</g>
</g>
<g id="Group_18">
<g id="Group_19">
<path id="Vector_16" d="M25.4853 44.5791H15.5862V45.4675H25.4853V44.5791Z" fill="#FFEEDE"/>
</g>
</g>
<g id="Group_20">
<g id="Group_21">
<path id="Vector_17" d="M32.9732 42.2947H17.9341V43.1831H32.9732V42.2947Z" fill="#98B5EE"/>
</g>
</g>
<g id="Group_22">
<g id="Group_23">
<g id="Group_24">
<path id="Vector_18" d="M23.2009 39.9468H17.9341V40.8352H23.2009V39.9468Z" fill="#6088CC"/>
</g>
</g>
<g id="Group_25">
<g id="Group_26">
<path id="Vector_19" d="M41.1591 39.9468H35.8922V40.8352H41.1591V39.9468Z" fill="#98B5EE"/>
</g>
</g>
<g id="Group_27">
<g id="Group_28">
<path id="Vector_20" d="M48.6468 39.9468H42.1108V40.8352H48.6468V39.9468Z" fill="#F77F7F"/>
</g>
</g>
<g id="Group_29">
<g id="Group_30">
<path id="Vector_21" d="M34.8768 39.9468H24.2162V40.8352H34.8768V39.9468Z" fill="#F77F7F"/>
</g>
</g>
</g>
<g id="Group_31">
<g id="Group_32">
<g id="Group_33">
<path id="Vector_22" d="M23.2009 46.8634H17.9341V47.7518H23.2009V46.8634Z" fill="#98B5EE"/>
</g>
</g>
<g id="Group_34">
<g id="Group_35">
<path id="Vector_23" d="M28.7216 46.8634H24.2162V47.7518H28.7216V46.8634Z" fill="#F77F7F"/>
</g>
</g>
<g id="Group_36">
<g id="Group_37">
<path id="Vector_24" d="M40.461 46.8634H29.6735V47.7518H40.461V46.8634Z" fill="#98B5EE"/>
</g>
</g>
<g id="Group_38">
<g id="Group_39">
<path id="Vector_25" d="M48.6468 46.8634H41.4128V47.7518H48.6468V46.8634Z" fill="#6088CC"/>
</g>
</g>
</g>
<g id="Group_40">
<g id="Group_41">
<g id="Group_42">
<path id="Vector_26" d="M24.4941 37.3088L19.457 32.4655L24.4941 27.6222H26.8189L21.9756 32.4655L27.0126 37.3088H24.4941Z" fill="#2E3C56"/>
</g>
</g>
<g id="Group_43">
<g id="Group_44">
<path id="Vector_27" d="M36.3117 20.4542L30.4997 43.7022H28.5624L34.1806 20.4542H36.3117Z" fill="#2E3C56"/>
</g>
</g>
<g id="Group_45">
<g id="Group_46">
<path id="Vector_28" d="M37.668 27.6222H39.9928L45.0298 32.4655L39.9928 37.3088H37.668L42.705 32.4655L37.668 27.6222Z" fill="#2E3C56"/>
</g>
</g>
</g>
</g>
</svg>
