<svg width="327" height="326" viewBox="0 0 327 326" fill="none" xmlns="http://www.w3.org/2000/svg">
<circle cx="163.814" cy="163" r="139" fill="#FAFAFA"/>
<circle cx="163.814" cy="163" r="158" stroke="white" stroke-width="10"/>
<path d="M119.68 62.2968C119.68 62.2968 107.597 74.4338 108.923 88.7587C112.248 94.2413 120.86 102.275 126.158 105.997C121.316 93.1893 119.061 78.4685 119.68 62.2968ZM86.8539 64.934C72.5176 100.022 79.8539 127.089 100.907 143.982L100.797 144.199C83.8589 176.799 84.8544 217.615 105.738 245.206L105.847 245.313C109.147 249.66 112.841 253.71 116.936 257.393C143.895 281.635 181.271 283.992 214.319 267.603C176.772 282.758 125.39 269.468 125.39 228.298C125.39 202.813 147.551 178.066 177.21 167.803C184.302 165.27 190.25 160.487 194.338 154.298L240.229 162.204L199.828 138.821C199.953 137.614 200.048 136.437 200.048 135.197C200.048 116.126 184.648 100.613 165.573 100.613C159.697 100.613 153.618 101.39 147.459 103.25C139.747 105.574 132.75 108.452 126.158 113.017C106.405 98.485 93.1741 80.2567 86.8539 64.934ZM165.573 128.868C169.048 128.868 171.903 131.723 171.903 135.197C171.903 137.938 170.083 140.317 167.645 141.183C166.986 141.419 166.313 141.532 165.573 141.532C162.096 141.532 159.242 138.674 159.242 135.2C159.242 131.723 162.096 128.871 165.573 128.871V128.868Z" fill="#276CB4"/>
<path d="M292.83 140.293L248.036 114.493C246.695 113.715 245.163 113.408 243.754 113.503C243.286 113.536 242.89 113.602 242.437 113.721C240.634 114.207 239.082 115.336 238.044 117.127L218.532 150.946L241.93 160.991H212.737L189.52 201.225C187.449 204.811 188.576 209.26 192.154 211.327L236.948 237.237C240.527 239.302 244.869 238.075 246.937 234.49L295.574 150.395C297.642 146.81 296.412 142.358 292.83 140.293Z" fill="#F04338"/>
<path d="M198.501 47.9994C183.272 47.9994 167.668 52.1028 152.995 59.877C160.871 57.1506 168.726 55.7737 176.319 55.7737C195.265 55.7737 212.593 64.3352 224.579 81.8327C228.974 88.2491 232.469 95.4839 234.898 103.244C237.076 102.35 239.412 101.903 241.766 101.903C242.515 101.903 243.262 101.945 244.011 102.037C246.317 102.314 248.591 103.005 250.709 104.23L282.219 122.455C278.074 101.587 268.249 82.6764 252.902 68.8764C237.797 55.2915 219.465 48.4556 200.427 48.02C199.786 48.0055 199.142 47.9994 198.501 47.9994Z" fill="#ED9048"/>
</svg>
