<?xml version="1.0" standalone="no"?>
<!DOCTYPE svg PUBLIC "-//W3C//DTD SVG 20010904//EN"
 "http://www.w3.org/TR/2001/REC-SVG-20010904/DTD/svg10.dtd">
<svg version="1.0" xmlns="http://www.w3.org/2000/svg"
 width="32.000000pt" height="32.000000pt" viewBox="0 0 32.000000 32.000000"
 preserveAspectRatio="xMidYMid meet">

<g transform="translate(0.000000,32.000000) scale(0.100000,-0.100000)"
fill="#000000" stroke="none">
<path d="M101 282 c-19 -10 -43 -34 -53 -53 -66 -124 77 -252 196 -174 l27 18
-20 21 c-18 17 -24 19 -41 8 -52 -32 -120 4 -120 64 0 58 69 93 120 62 17 -11
23 -9 41 8 l20 21 -27 18 c-41 27 -102 30 -143 7z"/>
<path d="M136 194 c-20 -20 -20 -38 0 -59 20 -20 42 -16 60 10 12 18 11 24 -2
43 -18 26 -37 28 -58 6z"/>
</g>
</svg>
