<svg width="24" height="25" viewBox="0 0 24 25" fill="none" xmlns="http://www.w3.org/2000/svg">
<rect width="24" height="24" transform="translate(-9.15527e-05 0.31543)" fill="white"/>
<path d="M11.9999 1.31543C5.93447 1.31543 0.999908 6.24999 0.999908 12.3154C0.999908 18.3809 5.93447 23.3154 11.9999 23.3154C18.0653 23.3154 22.9999 18.3809 22.9999 12.3154C22.9999 6.24999 18.0653 1.31543 11.9999 1.31543ZM19.2728 6.38811C20.5814 7.98693 21.3738 10.0233 21.3945 12.241C21.0847 12.1754 17.9784 11.5454 14.8521 11.9385C14.5969 11.3158 14.3561 10.7679 14.0263 10.0928C17.5002 8.67443 19.0747 6.65606 19.2728 6.38811ZM18.2283 5.3016C18.0593 5.54231 16.6449 7.44332 13.3039 8.69559C11.7643 5.86681 10.0578 3.54297 9.79813 3.19523C12.7777 2.47699 15.9176 3.25156 18.2283 5.3016ZM8.00536 3.8268C8.25308 4.16651 9.93204 6.49324 11.4889 9.26067C7.09386 10.4278 3.22288 10.411 2.80267 10.4054C3.41192 7.48984 5.37675 5.06665 8.00536 3.8268ZM2.60422 12.3298C2.60422 12.2337 2.60613 12.1381 2.60901 12.0426C3.02009 12.0511 7.57321 12.1098 12.2653 10.7055C12.5343 11.2319 12.7912 11.7663 13.0271 12.3C9.62954 13.257 6.54267 16.0049 5.01965 18.612C3.519 16.9463 2.60422 14.743 2.60422 12.3298ZM6.23276 19.742C7.2142 17.7357 9.87775 15.1459 13.6657 13.8537C14.9848 17.2815 15.5303 20.1544 15.67 20.9787C12.649 22.2656 9.01616 21.9125 6.23276 19.742ZM17.2496 20.1186C17.1533 19.547 16.6532 16.7965 15.4243 13.4195C18.3686 12.9482 20.9554 13.7197 21.2768 13.8211C20.858 16.4355 19.3574 18.6933 17.2496 20.1186Z" fill="#9E9E9E"/>
</svg>
