<svg width="41" height="41" viewBox="0 0 41 41" fill="none" xmlns="http://www.w3.org/2000/svg">
<path fill-rule="evenodd" clip-rule="evenodd" d="M16.5 15.6572C16.5 14.0004 17.8431 12.6572 19.5 12.6572H33.5C35.1569 12.6572 36.5 14.0004 36.5 15.6572V25.6572C36.5 27.3141 35.1569 28.6572 33.5 28.6572H19.5C17.8431 28.6572 16.5 27.3141 16.5 25.6572V15.6572ZM18.6121 15.1968L26.5 20.4554L34.3879 15.1968C34.2213 14.8762 33.8862 14.6572 33.5 14.6572H19.5C19.1138 14.6572 18.7787 14.8762 18.6121 15.1968ZM34.5 17.5257L27.0547 22.4893C26.7188 22.7132 26.2812 22.7132 25.9453 22.4893L18.5 17.5257V25.6572C18.5 26.2095 18.9477 26.6572 19.5 26.6572H33.5C34.0523 26.6572 34.5 26.2095 34.5 25.6572V17.5257Z" fill="#FAFAFA"/>
<path opacity="0.1" fill-rule="evenodd" clip-rule="evenodd" d="M19.1243 0.661028C22.8635 0.751851 25.9482 3.13421 29.1295 5.10107C32.6021 7.24798 37.1591 8.71952 38.4327 12.5984C39.7068 16.4786 36.5721 20.2478 35.3863 24.1559C34.1681 28.171 34.3669 32.802 31.402 35.7709C28.2304 38.9467 23.504 41.4209 19.1243 40.4395C14.8218 39.4754 13.5092 34.0461 10.2846 31.0389C7.63339 28.5664 3.28548 27.8242 1.97317 24.4448C0.644639 21.0237 2.41334 17.3008 3.60121 13.8283C4.76985 10.4121 6.00616 6.94187 8.7596 4.60629C11.6495 2.15501 15.336 0.56901 19.1243 0.661028Z" fill="#E3ECF6"/>
</svg>
