<svg width="24" height="25" viewBox="0 0 24 25" fill="none" xmlns="http://www.w3.org/2000/svg">
<path d="M19.65 9.73678L14.81 9.31678L12.92 4.86678C12.58 4.05678 11.42 4.05678 11.08 4.86678L9.19 9.32678L4.36 9.73678C3.48 9.80678 3.12 10.9068 3.79 11.4868L7.46 14.6668L6.36 19.3868C6.16 20.2468 7.09 20.9268 7.85 20.4668L12 17.9668L16.15 20.4768C16.91 20.9368 17.84 20.2568 17.64 19.3968L16.54 14.6668L20.21 11.4868C20.88 10.9068 20.53 9.80678 19.65 9.73678ZM12 16.0968V6.79678L13.71 10.8368L18.09 11.2168L14.77 14.0968L15.77 18.3768L12 16.0968Z" fill="#ED9048"/>
</svg>
