<svg width="56" height="57" viewBox="0 0 56 57" fill="none" xmlns="http://www.w3.org/2000/svg">
<circle opacity="0.1" cx="28.0005" cy="28.7295" r="28" fill="#276CB4"/>
<g clip-path="url(#clip0_213_16964)">
<path d="M24.0005 44.2293C23.7624 44.2246 23.528 44.1692 23.313 44.0668C23.022 43.916 22.7879 43.6748 22.6459 43.3795C22.5039 43.0842 22.4616 42.7507 22.5255 42.4293L24.2755 33.6793L17.4755 31.1293C17.2432 31.0441 17.0358 30.9024 16.8721 30.7169C16.7084 30.5313 16.5935 30.3079 16.538 30.0668C16.4832 29.8273 16.4876 29.5781 16.5508 29.3407C16.6139 29.1033 16.7339 28.8849 16.9005 28.7043L30.9005 13.7043C31.1257 13.4676 31.4209 13.3095 31.7427 13.2533C32.0645 13.197 32.3959 13.2456 32.688 13.3918C32.9765 13.542 33.209 13.7812 33.3508 14.0739C33.4927 14.3666 33.5364 14.6973 33.4755 15.0168L31.7255 23.7668L38.5255 26.3168C38.7578 26.402 38.9652 26.5437 39.1289 26.7292C39.2926 26.9148 39.4074 27.1382 39.463 27.3793C39.5177 27.6207 39.5133 27.8718 39.4502 28.1112C39.3871 28.3506 39.2671 28.5712 39.1005 28.7543L25.1005 43.7543C24.9587 43.9036 24.7881 44.0227 24.5991 44.1044C24.41 44.186 24.2064 44.2285 24.0005 44.2293ZM20.6255 29.1043L26.5255 31.3168C26.8572 31.4449 27.1337 31.685 27.3072 31.9954C27.4806 32.3058 27.5402 32.6671 27.4755 33.0168L26.513 37.8418L35.3755 28.3418L29.4755 26.1293C29.1423 26.0032 28.8643 25.7635 28.6905 25.4525C28.5167 25.1415 28.4582 24.7792 28.5255 24.4293L29.488 19.6043L20.6255 29.1043Z" fill="#276CB4"/>
</g>
<defs>
<clipPath id="clip0_213_16964">
<rect width="32" height="32" fill="white" transform="translate(12.0005 12.7295)"/>
</clipPath>
</defs>
</svg>
