<svg width="24" height="25" viewBox="0 0 24 25" fill="none" xmlns="http://www.w3.org/2000/svg">
<rect width="24" height="24" transform="translate(-9.91821e-05 0.31543)" fill="white"/>
<path d="M8.33411 12.3154C8.33411 10.2905 9.97529 8.64847 12.0003 8.64847C14.0254 8.64847 15.6674 10.2905 15.6674 12.3154C15.6674 14.3404 14.0254 15.9824 12.0003 15.9824C9.97529 15.9824 8.33411 14.3404 8.33411 12.3154ZM6.35175 12.3154C6.35175 15.435 8.88062 17.9638 12.0003 17.9638C15.1201 17.9638 17.6489 15.435 17.6489 12.3154C17.6489 9.19583 15.1201 6.66706 12.0003 6.66706C8.88062 6.66706 6.35175 9.19583 6.35175 12.3154ZM16.5525 6.4431C16.5524 6.70417 16.6297 6.95941 16.7747 7.17654C16.9196 7.39367 17.1257 7.56294 17.3669 7.66295C17.6081 7.76295 17.8735 7.7892 18.1296 7.73837C18.3856 7.68754 18.6209 7.56191 18.8056 7.37738C18.9903 7.19285 19.1161 6.9577 19.1671 6.70167C19.2182 6.44563 19.1921 6.18021 19.0923 5.93897C18.9925 5.69774 18.8234 5.49151 18.6064 5.34638C18.3894 5.20125 18.1342 5.12373 17.8731 5.12363C17.5231 5.12379 17.187 5.26284 16.9395 5.51024C16.692 5.75764 16.5528 6.09316 16.5525 6.4431ZM7.55616 21.2692C6.48366 21.2203 5.90073 21.0417 5.51334 20.8908C4.99975 20.6908 4.6333 20.4527 4.24802 20.068C3.86274 19.6832 3.62425 19.3172 3.42519 18.8036C3.27418 18.4164 3.09553 17.8333 3.04677 16.7608C2.99344 15.6013 2.9828 15.253 2.9828 12.3155C2.9828 9.37799 2.99432 9.03065 3.04677 7.8702C3.09562 6.79774 3.27558 6.2158 3.42519 5.82745C3.62513 5.31389 3.86327 4.94745 4.24802 4.56219C4.63277 4.17693 4.99887 3.93845 5.51334 3.73939C5.90055 3.58838 6.48366 3.40974 7.55616 3.36099C8.7157 3.30766 9.06402 3.29701 12.0003 3.29701C14.9367 3.29701 15.2853 3.30854 16.4458 3.36099C17.5183 3.40983 18.1003 3.58979 18.4887 3.73939C19.0023 3.93845 19.3687 4.17745 19.754 4.56219C20.1393 4.94693 20.3769 5.31389 20.5768 5.82745C20.7278 6.21465 20.9065 6.79774 20.9552 7.8702C21.0086 9.03065 21.0192 9.37799 21.0192 12.3155C21.0192 15.253 21.0086 15.6004 20.9552 16.7608C20.9064 17.8333 20.7269 18.4162 20.5768 18.8036C20.3769 19.3172 20.1387 19.6836 19.754 20.068C19.3692 20.4524 19.0023 20.6908 18.4887 20.8908C18.1014 21.0418 17.5183 21.2204 16.4458 21.2692C15.2863 21.3225 14.938 21.3331 12.0003 21.3331C9.0627 21.3331 8.71535 21.3225 7.55616 21.2692ZM7.46508 1.38205C6.29402 1.43537 5.4938 1.62105 4.79496 1.89297C4.07122 2.17378 3.45854 2.55051 2.8463 3.16176C2.23406 3.77301 1.85829 4.38663 1.57747 5.11034C1.30554 5.80959 1.11985 6.60933 1.06652 7.78035C1.01231 8.95321 0.999901 9.32818 0.999901 12.3154C0.999901 15.3027 1.01231 15.6776 1.06652 16.8505C1.11985 18.0216 1.30554 18.8213 1.57747 19.5205C1.85829 20.2438 2.23415 20.8581 2.8463 21.4691C3.45846 22.0801 4.07122 22.4563 4.79496 22.7379C5.49512 23.0098 6.29402 23.1955 7.46508 23.2488C8.63861 23.3021 9.01297 23.3154 12.0003 23.3154C14.9877 23.3154 15.3627 23.303 16.5356 23.2488C17.7068 23.1955 18.5064 23.0098 19.2057 22.7379C19.929 22.4563 20.5421 22.0803 21.1544 21.4691C21.7666 20.8579 22.1416 20.2438 22.4232 19.5205C22.6951 18.8213 22.8817 18.0215 22.9342 16.8505C22.9875 15.6768 22.9999 15.3027 22.9999 12.3154C22.9999 9.32818 22.9875 8.95321 22.9342 7.78035C22.8808 6.60925 22.6951 5.80915 22.4232 5.11034C22.1416 4.38707 21.7657 3.77397 21.1544 3.16176C20.5431 2.54954 19.929 2.17378 19.2066 1.89297C18.5064 1.62105 17.7067 1.43449 16.5365 1.38205C15.3636 1.32872 14.9886 1.31543 12.0012 1.31543C9.01385 1.31543 8.63861 1.32784 7.46508 1.38205Z" fill="#9E9E9E"/>
<path d="M8.33411 12.3154C8.33411 10.2905 9.97529 8.64847 12.0003 8.64847C14.0254 8.64847 15.6674 10.2905 15.6674 12.3154C15.6674 14.3404 14.0254 15.9824 12.0003 15.9824C9.97529 15.9824 8.33411 14.3404 8.33411 12.3154ZM6.35175 12.3154C6.35175 15.435 8.88062 17.9638 12.0003 17.9638C15.1201 17.9638 17.6489 15.435 17.6489 12.3154C17.6489 9.19583 15.1201 6.66706 12.0003 6.66706C8.88062 6.66706 6.35175 9.19583 6.35175 12.3154ZM16.5525 6.4431C16.5524 6.70417 16.6297 6.95941 16.7747 7.17654C16.9196 7.39367 17.1257 7.56294 17.3669 7.66295C17.6081 7.76295 17.8735 7.7892 18.1296 7.73837C18.3856 7.68754 18.6209 7.56191 18.8056 7.37738C18.9903 7.19285 19.1161 6.9577 19.1671 6.70167C19.2182 6.44563 19.1921 6.18021 19.0923 5.93897C18.9925 5.69774 18.8234 5.49151 18.6064 5.34638C18.3894 5.20125 18.1342 5.12373 17.8731 5.12363C17.5231 5.12379 17.187 5.26284 16.9395 5.51024C16.692 5.75764 16.5528 6.09316 16.5525 6.4431ZM7.55616 21.2692C6.48366 21.2203 5.90073 21.0417 5.51334 20.8908C4.99975 20.6908 4.6333 20.4527 4.24802 20.068C3.86274 19.6832 3.62425 19.3172 3.42519 18.8036C3.27418 18.4164 3.09553 17.8333 3.04677 16.7608C2.99344 15.6013 2.9828 15.253 2.9828 12.3155C2.9828 9.37799 2.99432 9.03065 3.04677 7.8702C3.09562 6.79774 3.27558 6.2158 3.42519 5.82745C3.62513 5.31389 3.86327 4.94745 4.24802 4.56219C4.63277 4.17693 4.99887 3.93845 5.51334 3.73939C5.90055 3.58838 6.48366 3.40974 7.55616 3.36099C8.7157 3.30766 9.06402 3.29701 12.0003 3.29701C14.9367 3.29701 15.2853 3.30854 16.4458 3.36099C17.5183 3.40983 18.1003 3.58979 18.4887 3.73939C19.0023 3.93845 19.3687 4.17745 19.754 4.56219C20.1393 4.94693 20.3769 5.31389 20.5768 5.82745C20.7278 6.21465 20.9065 6.79774 20.9552 7.8702C21.0086 9.03065 21.0192 9.37799 21.0192 12.3155C21.0192 15.253 21.0086 15.6004 20.9552 16.7608C20.9064 17.8333 20.7269 18.4162 20.5768 18.8036C20.3769 19.3172 20.1387 19.6836 19.754 20.068C19.3692 20.4524 19.0023 20.6908 18.4887 20.8908C18.1014 21.0418 17.5183 21.2204 16.4458 21.2692C15.2863 21.3225 14.938 21.3331 12.0003 21.3331C9.0627 21.3331 8.71535 21.3225 7.55616 21.2692ZM7.46508 1.38205C6.29402 1.43537 5.4938 1.62105 4.79496 1.89297C4.07122 2.17378 3.45854 2.55051 2.8463 3.16176C2.23406 3.77301 1.85829 4.38663 1.57747 5.11034C1.30554 5.80959 1.11985 6.60933 1.06652 7.78035C1.01231 8.95321 0.999901 9.32818 0.999901 12.3154C0.999901 15.3027 1.01231 15.6776 1.06652 16.8505C1.11985 18.0216 1.30554 18.8213 1.57747 19.5205C1.85829 20.2438 2.23415 20.8581 2.8463 21.4691C3.45846 22.0801 4.07122 22.4563 4.79496 22.7379C5.49512 23.0098 6.29402 23.1955 7.46508 23.2488C8.63861 23.3021 9.01297 23.3154 12.0003 23.3154C14.9877 23.3154 15.3627 23.303 16.5356 23.2488C17.7068 23.1955 18.5064 23.0098 19.2057 22.7379C19.929 22.4563 20.5421 22.0803 21.1544 21.4691C21.7666 20.8579 22.1416 20.2438 22.4232 19.5205C22.6951 18.8213 22.8817 18.0215 22.9342 16.8505C22.9875 15.6768 22.9999 15.3027 22.9999 12.3154C22.9999 9.32818 22.9875 8.95321 22.9342 7.78035C22.8808 6.60925 22.6951 5.80915 22.4232 5.11034C22.1416 4.38707 21.7657 3.77397 21.1544 3.16176C20.5431 2.54954 19.929 2.17378 19.2066 1.89297C18.5064 1.62105 17.7067 1.43449 16.5365 1.38205C15.3636 1.32872 14.9886 1.31543 12.0012 1.31543C9.01385 1.31543 8.63861 1.32784 7.46508 1.38205Z" fill="#9E9E9E"/>
</svg>
