<svg width="24" height="25" viewBox="0 0 24 25" fill="none" xmlns="http://www.w3.org/2000/svg">
<rect width="24" height="24" transform="translate(3.05176e-05 0.31543)" fill="white"/>
<g clip-path="url(#clip0_207_14876)">
<path d="M8.05004 21.3154H4.22503V9.27793H8.05004V21.3154ZM6.13753 7.59043C4.90003 7.59043 4.00003 6.69043 4.00003 5.45293C4.00003 4.21543 5.01253 3.31543 6.13753 3.31543C7.37503 3.31543 8.27503 4.21543 8.27503 5.45293C8.27503 6.69043 7.37503 7.59043 6.13753 7.59043ZM22 21.3154H18.175V14.7904C18.175 12.8779 17.3875 12.3154 16.2625 12.3154C15.1375 12.3154 14.0125 13.2154 14.0125 14.9029V21.3154H10.1875V9.27793H13.7875V10.9654C14.125 10.1779 15.475 8.94043 17.3875 8.94043C19.525 8.94043 21.775 10.1779 21.775 13.8904V21.3154H22Z" fill="#9E9E9E"/>
</g>
<defs>
<clipPath id="clip0_207_14876">
<rect width="18" height="18" fill="white" transform="translate(4.00003 3.31543)"/>
</clipPath>
</defs>
</svg>
