<svg width="56" height="57" viewBox="0 0 56 57" fill="none" xmlns="http://www.w3.org/2000/svg">
<circle opacity="0.1" cx="28.0005" cy="28.7295" r="28" fill="#ED9048"/>
<g clip-path="url(#clip0_213_16972)">
<path d="M43.413 26.1294L40.338 20.2419C40.0952 19.7785 39.6805 19.4286 39.1827 19.2674C38.685 19.1062 38.1439 19.1464 37.6755 19.3794L34.763 20.8419H32.713L28.588 18.9669C28.1544 18.7779 27.6693 18.7426 27.213 18.8669L21.1255 20.6419L18.3255 19.2419C17.855 19.0131 17.3139 18.9765 16.8169 19.1398C16.3199 19.3032 15.906 19.6536 15.663 20.1169L12.588 26.0044C12.4643 26.2388 12.3885 26.4955 12.3649 26.7594C12.3413 27.0233 12.3704 27.2893 12.4505 27.5419C12.6199 28.0518 12.9838 28.4741 13.463 28.7169L16.463 30.2169L23.213 35.4919C23.4331 35.6668 23.6892 35.7906 23.963 35.8544L31.213 37.6669C31.3682 37.707 31.5277 37.728 31.688 37.7294C32.2211 37.7251 32.7317 37.5146 33.113 37.1419L37.713 32.5419H37.7255C37.7255 32.5294 37.738 32.5294 37.738 32.5169H37.763L39.6255 30.3044L42.538 28.8419C42.7761 28.726 42.9884 28.5633 43.1623 28.3636C43.3363 28.1639 43.4683 27.9312 43.5505 27.6794C43.6309 27.4248 43.6602 27.1567 43.6366 26.8907C43.613 26.6247 43.537 26.366 43.413 26.1294ZM36.838 30.4794L32.088 27.0294C31.9147 26.9044 31.7059 26.8381 31.4922 26.8403C31.2785 26.8426 31.0711 26.9132 30.9005 27.0419L29.3005 28.2419C28.7788 28.6257 28.1481 28.8327 27.5005 28.8327C26.8528 28.8327 26.2221 28.6257 25.7005 28.2419L25.0255 27.7294L29.913 22.8419H34.4005L37.8005 29.3669L36.838 30.4794ZM17.438 21.0419L19.638 22.1419L16.563 28.0294L14.363 26.9294L17.438 21.0419ZM31.688 35.7294L24.4505 33.9169L18.2755 29.0919L21.6755 22.5669L27.763 20.7919L28.7255 21.2294L28.5005 21.4169L23.613 26.3169C23.4086 26.5184 23.2503 26.7617 23.149 27.0302C23.0476 27.2986 23.0056 27.5859 23.0258 27.8721C23.046 28.1584 23.1279 28.4368 23.2659 28.6884C23.404 28.94 23.5949 29.1587 23.8255 29.3294L24.5005 29.8419C25.3676 30.4872 26.4196 30.8357 27.5005 30.8357C28.5813 30.8357 29.6334 30.4872 30.5005 29.8419L31.513 29.0794L35.463 31.9544L31.688 35.7294ZM41.638 27.0544L39.438 28.1669L36.363 22.2794L38.563 21.1669L41.638 27.0544ZM26.9755 39.5794C26.9202 39.7965 26.7945 39.9891 26.6181 40.127C26.4416 40.265 26.2244 40.3406 26.0005 40.3419C25.9199 40.3417 25.8398 40.329 25.763 40.3044L21.988 39.3669C21.6818 39.2896 21.3988 39.1395 21.163 38.9294L18.3505 36.4794C18.252 36.3941 18.1713 36.2902 18.1129 36.1736C18.0546 36.0571 18.0198 35.9302 18.0105 35.8002C18.0012 35.6702 18.0177 35.5396 18.0588 35.4159C18.1 35.2923 18.1651 35.1779 18.2505 35.0794C18.3358 34.981 18.4398 34.9002 18.5563 34.8419C18.6729 34.7836 18.7998 34.7488 18.9298 34.7395C19.0598 34.7302 19.1903 34.7466 19.314 34.7878C19.4376 34.829 19.552 34.8941 19.6505 34.9794L22.4755 37.4294L26.238 38.3669C26.4953 38.432 26.7168 38.5956 26.8547 38.8224C26.9926 39.0491 27.036 39.321 26.9755 39.5794Z" fill="#ED9048"/>
</g>
<defs>
<clipPath id="clip0_213_16972">
<rect width="32" height="32" fill="white" transform="translate(12.0005 12.7295)"/>
</clipPath>
</defs>
</svg>
