<svg width="56" height="57" viewBox="0 0 56 57" fill="none" xmlns="http://www.w3.org/2000/svg">
<circle opacity="0.2" cx="28" cy="28.7295" r="28" fill="#FFB5B0"/>
<path d="M26.6667 40.7297C25 40.7297 23.4391 40.4185 21.984 39.7963C20.528 39.1741 19.2556 38.3185 18.1667 37.2297C17.0778 36.1408 16.2222 34.8683 15.6 33.4123C14.9778 31.9572 14.6667 30.3963 14.6667 28.7297C14.6667 25.3741 15.828 22.535 18.1507 20.2123C20.4725 17.8905 23.3111 16.7297 26.6667 16.7297C26.9556 16.7297 27.2334 16.7408 27.5 16.763C27.7667 16.7852 28.0334 16.8185 28.3 16.863C28.5889 16.9074 28.8334 17.0572 29.0334 17.3123C29.2334 17.5683 29.3334 17.8519 29.3334 18.163C29.3334 18.6074 29.1836 18.9461 28.884 19.179C28.5836 19.4128 28.2 19.5074 27.7334 19.463C27.5556 19.4408 27.3778 19.4239 27.2 19.4123C27.0222 19.4017 26.8445 19.3963 26.6667 19.3963C24.0445 19.3963 21.8334 20.2963 20.0334 22.0963C18.2334 23.8963 17.3334 26.1074 17.3334 28.7297C17.3334 31.3519 18.2334 33.563 20.0334 35.363C21.8334 37.163 24.0445 38.063 26.6667 38.063C29.2667 38.063 31.4614 37.1741 33.2507 35.3963C35.0391 33.6185 35.9556 31.4297 36 28.8297C36 28.4519 36.128 28.1185 36.384 27.8297C36.6391 27.5408 36.9556 27.3963 37.3334 27.3963C37.6889 27.3963 38 27.5239 38.2667 27.779C38.5334 28.035 38.6667 28.3297 38.6667 28.663V28.7297C38.6667 32.0852 37.5054 34.9239 35.1827 37.2457C32.8609 39.5683 30.0222 40.7297 26.6667 40.7297ZM37.3334 24.7297C36.9556 24.7297 36.6391 24.6017 36.384 24.3457C36.128 24.0905 36 23.7741 36 23.3963V20.7297H33.3334C32.9556 20.7297 32.6391 20.6021 32.384 20.347C32.128 20.091 32 19.7741 32 19.3963C32 19.0185 32.128 18.7017 32.384 18.4457C32.6391 18.1905 32.9556 18.063 33.3334 18.063H36V15.3963C36 15.0185 36.128 14.7017 36.384 14.4457C36.6391 14.1905 36.9556 14.063 37.3334 14.063C37.7111 14.063 38.0276 14.1905 38.2827 14.4457C38.5387 14.7017 38.6667 15.0185 38.6667 15.3963V18.063H41.3334C41.7111 18.063 42.0276 18.1905 42.2827 18.4457C42.5387 18.7017 42.6667 19.0185 42.6667 19.3963C42.6667 19.7741 42.5387 20.091 42.2827 20.347C42.0276 20.6021 41.7111 20.7297 41.3334 20.7297H38.6667V23.3963C38.6667 23.7741 38.5387 24.0905 38.2827 24.3457C38.0276 24.6017 37.7111 24.7297 37.3334 24.7297ZM29.4667 33.3963L25.7334 29.663C25.6 29.5297 25.5 29.3794 25.4334 29.2123C25.3667 29.0461 25.3334 28.8741 25.3334 28.6963V23.3963C25.3334 23.0185 25.4614 22.7017 25.7174 22.4457C25.9725 22.1905 26.2889 22.063 26.6667 22.063C27.0445 22.063 27.3614 22.1905 27.6174 22.4457C27.8725 22.7017 28 23.0185 28 23.3963V28.1963L31.3334 31.5297C31.5778 31.7741 31.7 32.0852 31.7 32.463C31.7 32.8408 31.5778 33.1519 31.3334 33.3963C31.0889 33.6408 30.7778 33.763 30.4 33.763C30.0222 33.763 29.7111 33.6408 29.4667 33.3963Z" fill="#F04338"/>
</svg>
