<svg width="56" height="57" viewBox="0 0 56 57" fill="none" xmlns="http://www.w3.org/2000/svg">
<circle opacity="0.4" cx="28" cy="28.7295" r="28" fill="#C6DFFA"/>
<path d="M22 43.7295H18C17.47 43.7279 16.9623 43.5167 16.5875 43.142C16.2128 42.7672 16.0016 42.2594 16 41.7295V34.7295C15.47 34.7279 14.9623 34.5167 14.5875 34.142C14.2128 33.7672 14.0016 33.2594 14 32.7295V26.7295C13.9927 26.3335 14.0652 25.9401 14.2134 25.5728C14.3616 25.2055 14.5823 24.8719 14.8623 24.5919C15.1424 24.3118 15.476 24.0911 15.8433 23.9429C16.2106 23.7948 16.604 23.7222 17 23.7295H23C23.396 23.7222 23.7894 23.7948 24.1566 23.9429C24.5239 24.0911 24.8576 24.3118 25.1376 24.5919C25.4177 24.8719 25.6384 25.2055 25.7866 25.5728C25.9347 25.9401 26.0073 26.3335 26 26.7295V32.7295C25.9984 33.2594 25.7872 33.7672 25.4125 34.142C25.0377 34.5167 24.5299 34.7279 24 34.7295V41.7295C23.9984 42.2594 23.7872 42.7672 23.4125 43.142C23.0377 43.5167 22.5299 43.7279 22 43.7295ZM17 25.7295C16.8666 25.7215 16.733 25.7418 16.608 25.7893C16.4831 25.8367 16.3696 25.9101 16.2751 26.0046C16.1806 26.0991 16.1072 26.2126 16.0598 26.3375C16.0123 26.4625 15.992 26.5961 16 26.7295V32.7295H18V41.7295H22V32.7295H24V26.7295C24.008 26.5961 23.9876 26.4625 23.9402 26.3375C23.8928 26.2126 23.8194 26.0991 23.7249 26.0046C23.6304 25.9101 23.5169 25.8367 23.392 25.7893C23.267 25.7418 23.1334 25.7215 23 25.7295H17ZM20 22.7295C19.2089 22.7295 18.4355 22.4949 17.7777 22.0554C17.1199 21.6158 16.6072 20.9911 16.3045 20.2602C16.0017 19.5293 15.9225 18.7251 16.0768 17.9491C16.2312 17.1732 16.6121 16.4605 17.1716 15.9011C17.731 15.3417 18.4437 14.9607 19.2196 14.8064C19.9955 14.652 20.7998 14.7312 21.5307 15.034C22.2616 15.3367 22.8863 15.8494 23.3259 16.5072C23.7654 17.165 24 17.9384 24 18.7295C23.9987 19.79 23.5768 20.8066 22.827 21.5565C22.0771 22.3063 21.0604 22.7282 20 22.7295ZM20 16.7295C19.6044 16.7295 19.2177 16.8468 18.8888 17.0666C18.5599 17.2863 18.3036 17.5987 18.1522 17.9641C18.0009 18.3296 17.9612 18.7317 18.0384 19.1197C18.1156 19.5076 18.3061 19.864 18.5858 20.1437C18.8655 20.4234 19.2218 20.6139 19.6098 20.6911C19.9978 20.7682 20.3999 20.7286 20.7654 20.5773C21.1308 20.4259 21.4432 20.1695 21.6629 19.8406C21.8827 19.5117 22 19.1251 22 18.7295C21.9995 18.1992 21.7886 17.6908 21.4136 17.3159C21.0387 16.9409 20.5303 16.73 20 16.7295ZM40.766 16.9855C40.0139 16.2213 38.9988 15.7726 37.9274 15.731C36.856 15.6894 35.8091 16.0579 35 16.7615C34.1909 16.0579 33.144 15.6894 32.0726 15.731C31.0012 15.7726 29.986 16.2213 29.234 16.9855C28.4434 17.7927 28.0006 18.8776 28.0006 20.0075C28.0006 21.1374 28.4434 22.2223 29.234 23.0295L34.998 28.8695L35 28.8675L35.002 28.8685L40.766 23.0295C41.5566 22.2223 41.9993 21.1374 41.9993 20.0075C41.9993 18.8776 41.5566 17.7927 40.766 16.9855ZM39.342 21.6245L35.002 26.0215L35 26.0195L34.998 26.0215L30.658 21.6245C30.2343 21.1929 29.9969 20.6123 29.9969 20.0075C29.9969 19.4027 30.2343 18.8221 30.658 18.3905C31.0806 17.9797 31.6467 17.75 32.236 17.75C32.8253 17.75 33.3914 17.9797 33.814 18.3905L34.995 19.5975L35 19.5925L35.005 19.5975L36.185 18.3905C36.6076 17.9794 37.1739 17.7495 37.7635 17.7495C38.353 17.7495 38.9194 17.9794 39.342 18.3905C39.7657 18.8221 40.0031 19.4027 40.0031 20.0075C40.0031 20.6123 39.7657 21.1929 39.342 21.6245Z" fill="#276CB4"/>
</svg>
