<svg width="69" height="65" viewBox="0 0 69 65" fill="none" xmlns="http://www.w3.org/2000/svg">
<path fill-rule="evenodd" clip-rule="evenodd" d="M28.1991 0.972635C34.1818 1.11795 39.1174 4.92973 44.2075 8.07671C49.7636 11.5118 57.0548 13.8662 59.0926 20.0724C61.1311 26.2808 56.1155 32.3115 54.2183 38.5645C52.2692 44.9885 52.5872 52.3982 47.8434 57.1484C42.7689 62.2297 35.2066 66.1885 28.1991 64.6183C21.3151 63.0757 19.215 54.3887 14.0557 49.5772C9.81367 45.6212 2.85702 44.4337 0.757315 39.0267C-1.36833 33.5529 1.46159 27.5963 3.36219 22.0403C5.232 16.5744 7.2101 11.022 11.6156 7.28506C16.2394 3.363 22.1378 0.825406 28.1991 0.972635Z" fill="#E3ECF6"/>
<g clip-path="url(#clip0_213_16999)">
<path fill-rule="evenodd" clip-rule="evenodd" d="M41.0668 57.6493C55.4604 57.6493 67.1288 45.967 67.1288 31.5561C67.1288 17.1452 55.4604 5.46289 41.0668 5.46289C26.6731 5.46289 15.0047 17.1452 15.0047 31.5561C15.0047 45.967 26.6731 57.6493 41.0668 57.6493ZM41.0666 54.3039C53.615 54.3039 63.7874 44.1193 63.7874 31.556C63.7874 18.9926 53.615 8.80806 41.0666 8.80806C28.5183 8.80806 18.3459 18.9926 18.3459 31.556C18.3459 44.1193 28.5183 54.3039 41.0666 54.3039Z" fill="#FFB5B0"/>
<path fill-rule="evenodd" clip-rule="evenodd" d="M41.0667 50.2894C51.4006 50.2894 59.7779 41.9021 59.7779 31.5558C59.7779 21.2096 51.4006 12.8223 41.0667 12.8223C30.7328 12.8223 22.3555 21.2096 22.3555 31.5558C22.3555 41.9021 30.7328 50.2894 41.0667 50.2894ZM41.0666 47.8877C50.0757 47.8877 57.3789 40.5757 57.3789 31.5559C57.3789 22.5361 50.0757 15.2241 41.0666 15.2241C32.0575 15.2241 24.7543 22.5361 24.7543 31.5559C24.7543 40.5757 32.0575 47.8877 41.0666 47.8877Z" fill="#FFB5B0"/>
<path d="M40.9337 18.041C40.6661 18.041 40.4654 17.8403 40.3985 17.5727V3.99081C40.3985 3.72319 40.5992 3.45557 40.9337 3.45557C41.2683 3.45557 41.469 3.65628 41.469 3.99081V17.5057C41.469 17.7734 41.2683 18.041 40.9337 18.041C41.0006 18.041 41.0006 18.041 40.9337 18.041Z" fill="#1C2F42"/>
<path d="M40.9337 59.4555C40.6661 59.4555 40.4654 59.2548 40.3985 58.9872V45.4054C40.3985 45.1377 40.5992 44.8701 40.9337 44.8701C41.2683 44.8701 41.469 45.0708 41.469 45.4054V58.9872C41.469 59.2548 41.2683 59.4555 40.9337 59.4555Z" fill="#1C2F42"/>
<path d="M68.3985 31.9572H54.8997C54.6324 31.9572 54.3651 31.7565 54.3651 31.422C54.3651 31.0874 54.5655 30.8867 54.8997 30.8867H68.4653C68.7326 30.8867 68.9999 31.0874 68.9999 31.422C68.9999 31.7565 68.7326 31.9572 68.3985 31.9572Z" fill="#1C2F42"/>
<path d="M27.0333 31.9575H13.5345C13.2672 31.9575 12.9999 31.7567 12.9999 31.4222C12.9999 31.0877 13.2004 30.887 13.5345 30.887H27.0333C27.3006 30.887 27.5679 31.0877 27.5679 31.4222C27.5679 31.7567 27.3006 31.9575 27.0333 31.9575Z" fill="#1C2F42"/>
<path d="M39.7351 24.9542C40.1539 23.6637 41.9796 23.6637 42.3984 24.9542L43.3032 27.7423C43.4905 28.3194 44.0282 28.7101 44.6349 28.7101H47.5665C48.9223 28.7101 49.4865 30.4448 48.3901 31.2423L46.0154 32.9696C45.5253 33.3261 45.3203 33.9575 45.5073 34.534L46.4137 37.3268C46.8324 38.6169 45.3554 39.6889 44.2585 38.8911L41.8903 37.1684C41.3993 36.8113 40.7342 36.8113 40.2432 37.1684L37.875 38.8911C36.7781 39.6889 35.3011 38.6169 35.7198 37.3268L36.6262 34.534C36.8133 33.9575 36.6082 33.3261 36.1181 32.9696L33.7434 31.2423C32.647 30.4448 33.2112 28.7101 34.567 28.7101H37.4987C38.1054 28.7101 38.643 28.3194 38.8303 27.7423L39.7351 24.9542Z" fill="#ED9048"/>
<path d="M36.7231 39.7184C35.7875 39.7184 34.9856 38.9824 34.9856 38.0457C34.9856 37.9119 34.9856 37.845 34.9856 37.7112L35.6539 33.8307L32.8472 31.0876C32.1789 30.4185 32.1789 29.348 32.8472 28.679C33.1145 28.4113 33.4486 28.2106 33.7828 28.2106L35.8544 27.8761C36.1217 27.8092 36.389 28.0099 36.389 28.2775C36.4558 28.5451 36.2553 28.8128 35.988 28.8128L33.9164 29.1473C33.6491 29.1473 33.4486 29.348 33.3818 29.6156C33.315 29.8833 33.3818 30.1509 33.5823 30.3516L36.5894 33.2954C36.7231 33.4293 36.7899 33.5631 36.7231 33.7638L35.988 37.9119C35.9212 38.1796 36.0548 38.4472 36.2553 38.581C36.4558 38.7148 36.7899 38.7817 36.9904 38.6479L40.6658 36.7076C40.7995 36.6407 40.9999 36.6407 41.1336 36.7076L44.809 38.6479C45.0095 38.7817 45.3436 38.7817 45.5441 38.581C45.7446 38.4472 45.8782 38.1796 45.8114 37.9119L45.1431 33.7638C45.1431 33.63 45.1431 33.4293 45.2768 33.2954L48.284 30.3516C48.4844 30.1509 48.5513 29.8833 48.4844 29.6156C48.4176 29.348 48.2171 29.1473 47.9498 29.1473L43.8066 28.5451C43.673 28.5451 43.4725 28.4113 43.4057 28.2775L41.5346 24.5308C41.3341 24.1963 40.8663 24.0625 40.5322 24.2632C40.3985 24.3301 40.3317 24.397 40.2649 24.5308L39.7971 25.5344C39.6634 25.802 39.3961 25.8689 39.1288 25.7351C38.8615 25.6013 38.7947 25.3337 38.9283 25.0661L39.3961 24.0625C39.7971 23.1927 40.7995 22.8582 41.6682 23.2596C42.0023 23.3934 42.2696 23.7279 42.4701 24.0625L44.2076 27.6085L48.0835 28.1437C49.019 28.2775 49.6205 29.1473 49.4868 30.084C49.42 30.4854 49.2863 30.8199 49.019 31.0876L46.2124 33.8307L46.8806 37.7112C47.0811 38.6479 46.4797 39.5177 45.5441 39.7184C45.1431 39.7853 44.7422 39.7184 44.3412 39.5177L40.8663 37.7112L37.4582 39.5177C37.2577 39.6515 36.9904 39.7184 36.7231 39.7184Z" fill="#1C2F42"/>
<path d="M40.933 57.3814C26.6323 57.3814 15.0714 45.8067 15.0714 31.4889C15.0714 17.1711 26.6991 5.52954 40.933 5.52954C44.1406 5.52954 47.3483 6.13169 50.4222 7.33599C50.6895 7.4698 50.7564 7.73743 50.6227 8.00505C50.4891 8.20577 50.2886 8.33958 50.0213 8.27267C37.2576 3.25475 22.8232 9.54388 17.7444 22.3229C12.6657 35.1018 19.0141 49.5534 31.7779 54.6383C36.7898 56.6454 42.3363 56.9131 47.5487 55.4411C47.816 55.3742 48.0833 55.508 48.1502 55.7757C48.217 56.0433 48.0833 56.3109 47.816 56.3778C45.6108 57.0469 43.2719 57.3814 40.933 57.3814ZM52.5607 54.5045C52.3602 54.5045 52.2265 54.4375 52.0929 54.2368C51.9592 53.9692 52.0929 53.7016 52.2934 53.5678C64.5893 47.3456 69.4008 32.2918 63.1191 20.115C62.9855 19.8473 62.8518 19.5797 62.6514 19.3121C62.5177 19.0445 62.5845 18.7769 62.8518 18.643C63.1191 18.5092 63.3864 18.5761 63.5201 18.8438C70.5368 31.2882 66.0595 47.0779 53.6299 54.103C53.3626 54.2368 53.0953 54.3706 52.828 54.5714C52.7611 54.5045 52.6943 54.5714 52.5607 54.5045ZM40.933 54.103C28.4366 54.103 18.3459 44.0003 18.3459 31.4889C18.3459 18.9776 28.4366 8.80792 40.933 8.80792C53.4294 8.80792 63.5869 18.9776 63.5869 31.4889C63.5869 43.9334 53.4294 54.103 40.933 54.103ZM40.933 9.8115C29.038 9.8115 19.3483 19.5128 19.3483 31.422C19.3483 43.3981 29.038 53.0994 40.9998 53.0994C52.9616 53.0994 62.6514 43.3981 62.6514 31.422C62.5845 19.5128 52.8948 9.8115 40.933 9.8115ZM59.9115 15.0301C59.7779 15.0301 59.6442 14.9632 59.5105 14.8294C58.1072 13.2906 56.5702 11.8856 54.8327 10.7482C54.6323 10.6144 54.5654 10.2798 54.6991 10.0791C54.8327 9.87841 55.1669 9.8115 55.3674 9.94531C57.1716 11.1496 58.8423 12.6215 60.2456 14.2273C60.4461 14.428 60.3793 14.7625 60.1788 14.9632C60.112 15.0301 60.0452 15.097 59.9115 15.0301Z" fill="#1C2F42"/>
<path d="M40.933 50.6909C36.9235 50.6909 32.9808 49.4197 29.7063 47.078C29.5058 46.9442 29.439 46.6097 29.5726 46.409C29.7063 46.2083 30.0404 46.1414 30.3077 46.2752C33.3817 48.4831 37.1239 49.6874 40.933 49.6874C50.9569 49.6874 59.1096 41.5249 59.1096 31.4221C59.1096 21.3194 51.0237 13.2238 40.933 13.2238C30.9092 13.2238 22.7564 21.3863 22.7564 31.4221C22.7564 35.5034 24.0929 39.3839 26.5655 42.5954C26.6991 42.7961 26.6323 43.1306 26.4318 43.2644C26.2313 43.3982 25.964 43.3982 25.7636 43.1975C23.1574 39.8522 21.6872 35.7041 21.6872 31.4221C21.754 20.851 30.3745 12.2202 40.933 12.2202C51.5583 12.2202 60.1788 20.851 60.1788 31.4221C60.1788 41.9932 51.5583 50.6909 40.933 50.6909C40.9998 50.6909 40.9998 50.6909 40.933 50.6909ZM40.933 47.7471C31.9115 47.7471 24.6275 40.4544 24.6275 31.489C24.6275 22.5237 31.9115 15.1641 40.8662 15.1641C49.8208 15.1641 57.1717 22.4568 57.1717 31.4221C57.2385 40.4544 49.9545 47.7471 40.933 47.7471ZM40.933 16.1676C32.513 16.1676 25.6967 22.992 25.6967 31.4221C25.6967 39.8522 32.513 46.7435 40.933 46.7435C49.3531 46.7435 56.2361 39.9191 56.2361 31.489C56.2361 22.992 49.4199 16.1676 40.933 16.1676Z" fill="#1C2F42"/>
</g>
<defs>
<clipPath id="clip0_213_16999">
<rect width="56" height="56" fill="white" transform="translate(13.0002 2.96655)"/>
</clipPath>
</defs>
</svg>
