<svg width="70" height="65" viewBox="0 0 70 65" fill="none" xmlns="http://www.w3.org/2000/svg">
<path fill-rule="evenodd" clip-rule="evenodd" d="M39.7642 0.624397C47.8778 0.416038 55.2299 4.59565 60.6138 10.6691C66.4273 17.2272 70.1393 25.3283 69.4052 34.0614C68.5075 44.7428 65.6913 56.4725 56.3257 61.6863C46.5276 67.1409 34.4198 64.2294 24.4555 59.0849C14.8716 54.1368 6.02006 45.9603 5.05866 35.2174C4.18423 25.4463 13.2675 18.632 20.2155 11.7065C25.7971 6.14309 31.8861 0.82671 39.7642 0.624397Z" fill="#E3ECF6"/>
<g clip-path="url(#clip0_215_17884)">
<path d="M29.8828 43.2187C29.8828 42.4702 29.7996 41.8049 29.6333 41.0565L31.2965 39.1437C30.6312 38.0626 30.6312 38.0626 29.9659 36.8983L27.471 37.3973C26.9721 36.8983 26.3899 36.3993 25.7246 36.0667L25.5583 33.5718C24.3108 33.2391 24.3108 33.2391 23.0634 32.9065L21.6496 35.0687C20.9012 35.0687 20.2359 35.1519 19.5705 35.3182L17.5746 33.655C16.4935 34.3203 16.4935 34.3203 15.3292 34.9856L15.8282 37.5636C15.3292 38.0626 14.9134 38.5616 14.5808 39.2269L12.0027 39.4764C11.6701 40.7238 11.6701 40.7238 11.3374 41.9713L13.4996 43.4682C13.4996 43.5514 13.4996 43.5514 13.4996 43.6345C13.4996 44.2167 13.5828 44.7988 13.7491 45.2978C13.7491 45.381 13.7491 45.381 13.7491 45.4641L12.0859 47.46C12.7512 48.6243 12.7512 48.6243 13.4165 49.7054L15.9945 49.2065C16.0777 49.2065 16.0777 49.2896 16.1609 49.2896C16.4935 49.6223 16.9093 49.9549 17.3251 50.2044C17.4083 50.2876 17.4915 50.2876 17.5746 50.3707L17.8241 53.032C19.0716 53.3646 19.0716 53.3646 20.319 53.6973L21.816 51.535C22.4813 51.535 23.1466 51.4519 23.8119 51.2855L25.8078 52.9488C26.9721 52.2835 26.9721 52.2835 28.0532 51.6182L27.5542 49.1233C28.0532 48.6243 28.5522 48.0422 28.8848 47.46L31.3797 47.2937C31.7124 46.0463 31.7124 46.0463 32.045 44.7988L29.8828 43.2187ZM26.0573 44.7157C25.2256 47.2105 22.5644 48.5412 20.1527 47.7095C17.6578 46.8779 16.3272 44.2167 17.1588 41.8049C17.9904 39.3101 20.6517 37.9794 23.0634 38.8111C25.5583 39.5595 26.8889 42.2208 26.0573 44.7157Z" fill="#FFF4D2"/>
<path d="M20.1527 54.2795C20.0695 54.2795 20.0695 54.2795 19.9864 54.2795C18.7389 53.9469 18.7389 53.9469 17.4915 53.6142C17.242 53.5311 17.0756 53.3647 16.9925 53.0321L16.8262 50.7035C16.4103 50.3709 15.9114 50.0382 15.5787 49.7887L13.3333 50.2045C13.0838 50.2877 12.8343 50.1214 12.668 49.8719C12.0027 48.7908 12.0027 48.7908 11.3374 47.6265C11.1711 47.377 11.2542 47.1275 11.4206 46.878L12.9175 45.1316C12.7512 44.5494 12.7512 43.9673 12.7512 43.5515L10.8384 42.2209C10.5889 42.0545 10.5058 41.8051 10.5889 41.5556L10.6721 41.3892C11.0047 40.3081 11.0047 40.225 11.2542 39.0607C11.3374 38.8112 11.5037 38.6449 11.8364 38.5617L14.0818 38.3954C14.2481 38.0627 14.5808 37.5637 14.9966 37.1479L14.5808 34.9025C14.4976 34.653 14.6639 34.4035 14.9134 34.2372C16.0777 33.5719 16.0777 33.5719 17.1588 32.9066C17.4083 32.7403 17.6578 32.8234 17.9073 32.9898L19.6537 34.4867C20.1527 34.3204 20.7348 34.3204 21.2338 34.2372L22.4812 32.4076C22.6476 32.1581 22.8971 32.075 23.1466 32.1581C24.394 32.4908 24.394 32.4908 25.6414 32.8234C25.8909 32.9066 26.0573 33.0729 26.1404 33.4056L26.3067 35.651C26.7226 35.9005 27.2215 36.2331 27.6374 36.6489L29.7996 36.2331C30.0491 36.15 30.2986 36.3163 30.4649 36.5658C30.8807 37.2311 30.9639 37.4806 31.2134 37.8964L31.7955 38.8112C31.9618 39.0607 31.8787 39.3102 31.7123 39.5597L30.2986 41.2229C30.4649 41.8051 30.4649 42.304 30.5481 42.8862L32.3777 44.1336C32.6271 44.2999 32.7103 44.5494 32.6271 44.7989C32.2945 46.0464 32.2945 46.0464 31.9618 47.2938C31.8787 47.5433 31.6292 47.7096 31.3797 47.7096L29.1343 47.876C28.8848 48.3749 28.5522 48.7908 28.1363 49.2066L28.5522 51.3688C28.6353 51.6183 28.469 51.8678 28.2195 52.0341C27.0552 52.6994 27.0552 52.6994 25.9741 53.3647C25.7246 53.5311 25.4751 53.4479 25.2256 53.2816L23.4792 51.7846C22.9802 51.8678 22.4812 51.951 21.8991 51.951L20.5685 53.8637C20.5685 54.1132 20.4022 54.2795 20.1527 54.2795ZM18.2399 52.4499C18.9884 52.6163 19.1547 52.6994 19.9032 52.8657L21.1506 51.0362C21.2338 50.8698 21.4833 50.7867 21.6496 50.7867C22.2318 50.7867 22.8971 50.7035 23.4792 50.5372C23.6455 50.454 23.895 50.5372 24.0613 50.7035L25.7246 52.1173C26.3899 51.7846 26.5562 51.6183 27.2215 51.2856L26.8057 49.2066C26.8057 49.0402 26.8057 48.7908 26.9721 48.6244C27.471 48.1255 27.8868 47.6265 28.1363 47.0443C28.2195 46.878 28.3858 46.7117 28.6353 46.7117L30.7144 46.5454C30.8807 45.7969 30.9639 45.6306 31.1302 44.8821L29.5501 43.7178C29.3838 43.6346 29.3006 43.3852 29.3006 43.2188C29.3006 42.5535 29.2175 41.8882 29.0511 41.2229C28.968 41.0566 29.0511 40.8071 29.2175 40.6408L30.5481 39.0607L30.2154 38.4785C30.0491 38.229 29.8828 37.9796 29.7164 37.5637L27.6374 37.9796C27.471 37.9796 27.2215 37.9796 27.0552 37.8132C26.5562 37.3142 26.0573 36.8984 25.4751 36.5658C25.3088 36.4826 25.1425 36.3163 25.1425 36.0668L24.9761 34.0709C24.2277 33.9046 24.0613 33.8214 23.3129 33.6551L22.0654 35.3183C21.9823 35.4847 21.8159 35.651 21.5665 35.5678C20.9011 35.5678 20.2358 35.651 19.6537 35.8173C19.4874 35.9005 19.2379 35.8173 19.0716 35.651L17.4083 34.2372C16.743 34.653 16.5767 34.7362 15.9114 35.0688L16.3272 37.2311C16.3272 37.4806 16.3272 37.6469 16.1609 37.8132C15.6619 38.229 15.1629 38.9775 15.0797 39.3102C14.9966 39.4765 14.8302 39.6428 14.5808 39.6428L12.4185 39.8923C12.2522 40.6408 12.169 40.8071 12.0027 41.5556L13.8323 42.803C13.9986 42.8862 14.0818 43.1357 14.0818 43.3852C14.0818 43.3852 13.9986 44.3831 14.3313 45.1316C14.4144 45.3811 14.3313 45.5474 14.2481 45.7137L12.8343 47.377C13.2501 48.0423 13.3333 48.2086 13.666 48.8739L15.8282 48.4581C15.9945 48.4581 16.244 48.4581 16.3272 48.6244C16.5767 48.8739 17.3251 49.5392 17.8241 49.7887C17.9904 49.8719 18.1568 50.0382 18.1568 50.2877L18.2399 52.4499ZM21.5665 48.5413C20.9843 48.5413 20.4853 48.4581 19.9032 48.2918C17.1588 47.377 15.5787 44.3831 16.4935 41.5556C17.4083 38.728 20.4022 37.2311 23.2297 38.1459C24.5603 38.5617 25.6414 39.5597 26.3067 40.8071C26.9721 42.0545 27.0552 43.5515 26.6394 44.8821C25.8909 47.1275 23.8119 48.5413 21.5665 48.5413ZM21.5665 39.1438C19.82 39.1438 18.2399 40.225 17.6578 41.9714C16.9925 44.1336 18.1568 46.379 20.2358 47.1275C22.3981 47.7928 24.6435 46.6285 25.392 44.5494C25.7246 43.5515 25.6414 42.3872 25.1425 41.4724C24.6435 40.4744 23.8119 39.8091 22.8139 39.4765C22.4812 39.227 22.0654 39.1438 21.5665 39.1438Z" fill="#2E3C56"/>
<path d="M62.1501 31.9086L65.9756 30.3285C65.8924 28.2494 65.8924 28.2494 65.7261 26.1704L61.8174 25.0061C61.4848 23.8418 60.9026 22.8438 60.3205 21.8459L61.9006 18.0204C60.3205 16.6066 60.2373 16.6066 58.7404 15.1928L55.1644 17.1888C54.0833 16.6898 53.0021 16.274 51.8379 16.0245L50.2578 12.199C48.1787 12.2821 48.1787 12.2821 46.0164 12.4485L44.8522 16.4403C43.771 16.7729 42.6899 17.2719 41.7751 17.9372L37.8665 16.3571C36.4527 17.9372 36.4527 17.9372 35.0389 19.5173L37.0348 23.2597C36.5359 24.2576 36.2032 25.3387 35.9537 26.4199L32.045 28.0831C32.1282 30.1622 32.1282 30.1622 32.2945 32.2413L36.3695 33.4056C36.3695 33.4887 36.4527 33.4887 36.4527 33.5719C36.7022 34.4867 37.118 35.3183 37.617 36.0668C37.617 36.1499 37.7001 36.2331 37.7001 36.3994L36.2032 40.3081C37.7833 41.7219 37.7833 41.7219 39.2802 43.1356L43.0226 41.1397C43.1057 41.1397 43.1889 41.2229 43.2721 41.2229C44.0205 41.5555 44.769 41.8882 45.6006 42.0545C45.767 42.0545 45.9333 42.1377 46.0996 42.2208L47.7629 46.1295C49.8419 46.0463 49.8419 46.0463 51.921 45.88L53.0853 41.805C54.1664 41.4724 55.1644 41.0566 56.0792 40.3913L59.9047 41.9714C61.3185 40.3913 61.3185 40.3913 62.7322 38.8943L60.7363 35.2351C61.4848 34.2372 61.9006 33.0729 62.1501 31.9086ZM49.0103 36.8152C44.8522 36.8152 41.4425 33.4056 41.4425 29.2474C41.4425 25.0061 44.8522 21.5964 49.0103 21.5964C53.1685 21.5964 56.5782 25.0061 56.5782 29.2474C56.6613 33.4056 53.2516 36.8152 49.0103 36.8152Z" fill="#FFF4D2"/>
<path d="M49.0103 37.3976C48.6777 37.3976 48.345 37.1481 48.345 36.7323C48.345 36.3996 48.5945 36.067 49.0103 36.067C52.8358 36.067 55.996 32.9068 55.996 29.0813C55.996 25.2558 52.8358 22.0956 49.0103 22.0956C45.1848 22.0956 42.0246 25.2558 42.0246 29.0813C42.0246 30.4119 42.4404 31.7425 43.1057 32.8236C43.2721 33.0731 43.1889 33.4889 42.9394 33.6553C42.6899 33.8216 42.2741 33.7384 42.1078 33.4889C41.2761 32.1583 40.7772 30.6614 40.7772 29.0813C40.7772 24.5073 44.4363 20.8481 49.0103 20.8481C53.5843 20.8481 57.2435 24.5073 57.2435 29.0813C57.2435 33.7384 53.5843 37.3976 49.0103 37.3976Z" fill="#2E3C56"/>
<path d="M47.846 46.7118C47.5966 46.7118 47.3471 46.5454 47.2639 46.2959L45.6838 42.6368C45.6006 42.6368 45.6006 42.6368 45.5175 42.5536C44.769 42.3873 43.9374 42.0546 43.1058 41.6388L39.6129 43.5516C39.3634 43.7179 39.1139 43.6347 38.8644 43.4684L35.7874 40.6409C35.6211 40.4745 35.5379 40.225 35.6211 39.9756L37.118 36.3164C37.118 36.3164 37.118 36.3164 37.118 36.2332C36.619 35.4847 36.2032 34.6531 35.9537 33.8215L32.1282 32.7404C31.8787 32.6572 31.7124 32.4077 31.7124 32.1582V31.9087C31.6292 30.0791 31.6292 29.996 31.4629 28.0001C31.4629 27.7506 31.6292 27.5011 31.8787 27.4179L35.5379 25.921C35.7874 24.923 36.0369 24.0914 36.4527 23.2598L34.54 19.7669C34.3736 19.5174 34.4568 19.2679 34.6231 19.0185C36.0369 17.4384 36.0369 17.4384 37.4507 15.8583C37.617 15.7751 37.8665 15.6919 38.116 15.7751L41.692 17.272C42.5236 16.7731 43.4384 16.3572 44.3532 16.0246L45.4343 12.3654C45.5175 12.1159 45.767 11.9496 46.0165 11.9496L50.1746 11.6169C50.4241 11.6169 50.6736 11.7833 50.7568 12.0328L52.1705 15.5256C53.0853 15.7751 54.0833 16.1077 54.9981 16.5236L58.3246 14.694C58.5741 14.5277 58.8236 14.6108 59.0731 14.7771C60.071 15.6919 60.4037 16.0246 60.9027 16.4404C61.2353 16.6899 61.568 17.0225 62.1501 17.5215C62.3164 17.6878 62.3996 17.9373 62.3164 18.1868L60.9027 21.6797C61.4016 22.5113 61.9006 23.4261 62.2333 24.4241L65.8924 25.5052C66.1419 25.5883 66.3083 25.8378 66.3083 26.0873C66.4746 28.1664 66.4746 28.1664 66.5577 30.2455C66.5577 30.495 66.3914 30.7445 66.1419 30.8276L62.7322 32.4077C62.4828 33.3225 62.1501 34.3205 61.7343 35.2353L63.5639 38.5618C63.7302 38.8113 63.647 39.0608 63.4807 39.3102C62.0669 40.8903 62.0669 40.8903 60.6532 42.4704C60.4868 42.6368 60.2373 42.7199 59.9879 42.6368L56.4118 41.223C55.5802 41.722 54.6654 42.1378 53.8338 42.3873L52.7527 46.1296C52.6695 46.3791 52.42 46.5454 52.1705 46.5454L47.846 46.7118C47.9292 46.7118 47.846 46.7118 47.846 46.7118ZM43.1058 40.4745C43.1889 40.4745 43.2721 40.4745 43.2721 40.4745L43.5216 40.5577C44.4364 40.9735 45.1017 41.223 45.767 41.3893C45.9333 41.3893 46.0165 41.4725 46.1828 41.5557L46.3491 41.6388C46.5154 41.722 46.6818 41.8051 46.7649 41.9715L48.2619 45.4643L51.5884 45.298L52.6695 41.6388C52.6695 41.5557 52.7527 41.4725 52.8358 41.3893C52.919 41.3062 53.0022 41.223 53.0853 41.223C54.0833 40.9735 54.9981 40.4745 55.9129 39.8924C56.0792 39.8092 56.3287 39.7261 56.495 39.8092L59.9879 41.223C60.9858 40.0587 61.1521 39.8924 62.2333 38.7281L60.4868 35.4847C60.4037 35.3184 60.4037 35.0689 60.4868 34.9026C60.9858 33.9046 61.4016 32.8235 61.568 31.8256C61.568 31.6592 61.7343 31.4098 61.9838 31.3266L65.3103 29.9128C65.2271 28.3327 65.2271 28.1664 65.144 26.5863L61.6511 25.5052C61.4848 25.422 61.3185 25.2557 61.2353 25.0894C60.9027 24.0082 60.4037 23.0103 59.8215 22.0955C59.7384 21.9292 59.6552 21.6797 59.7384 21.5133L61.1521 18.1037C60.7363 17.771 60.4868 17.5215 60.2374 17.272C59.7384 16.8562 59.4057 16.5236 58.6572 15.8583L55.4139 17.6047C55.2476 17.6878 54.9981 17.6878 54.8317 17.6047C53.7506 17.1057 52.7527 16.6899 51.6715 16.5236C51.5052 16.5236 51.2557 16.3572 51.1726 16.1077L49.7588 12.6981L46.4323 12.8644L45.3512 16.4404C45.268 16.6067 45.1017 16.7731 44.9353 16.8562C43.9374 17.1889 42.9394 17.6878 42.0246 18.27C41.8583 18.3532 41.6088 18.4363 41.4425 18.3532L37.9496 16.9394C36.9517 18.1037 36.7854 18.27 35.7042 19.4343L37.5338 22.7608C37.617 22.9271 37.617 23.1766 37.5338 23.3429C37.118 24.2577 36.7022 25.2557 36.5359 26.3368C36.4527 26.5863 36.2864 26.7526 36.0369 26.8358L32.6272 28.2496C32.7104 29.7465 32.7104 30.0791 32.7935 31.5761L36.4527 32.6572C36.619 32.7404 36.7854 32.8235 36.8685 32.9899L36.9517 33.1562V33.2393C37.2012 34.071 37.617 34.9026 38.0328 35.5679C38.0328 35.6511 38.116 35.6511 38.116 35.7342C38.116 35.8174 38.1991 35.9006 38.1991 35.9837C38.2823 36.1501 38.2823 36.3164 38.1991 36.4827L36.7854 39.9756L39.2803 42.221L42.6068 40.3914C42.8563 40.4745 42.9394 40.4745 43.1058 40.4745Z" fill="#2E3C56"/>
<path d="M49.0104 39.8094C43.1058 39.8094 38.3655 35.0691 38.3655 29.1645C38.3655 23.7589 42.3574 19.2681 47.763 18.6028C48.0956 18.6028 48.4283 18.7691 48.4283 19.1849C48.4283 19.5176 48.2619 19.8502 47.8461 19.8502C43.1058 20.4324 39.613 24.4242 39.613 29.1645C39.613 34.3206 43.8543 38.5619 49.0104 38.5619C51.6716 38.5619 54.2497 37.3976 55.9961 35.4017C56.2456 35.1522 56.6614 35.1522 56.9109 35.3186C57.1604 35.5681 57.1604 35.9007 56.9941 36.2334C54.9982 38.4788 52.0875 39.8094 49.0104 39.8094Z" fill="#2E3C56"/>
<path d="M59.0731 29.8295C58.7404 29.8295 58.4078 29.58 58.4078 29.1642C58.4078 26.2535 57.0772 23.5923 54.8318 21.8459C54.5823 21.5964 54.4991 21.2637 54.7486 20.9311C54.9981 20.6816 55.3307 20.5984 55.6634 20.8479C58.2415 22.8438 59.6552 25.9209 59.6552 29.1642C59.6552 29.4969 59.4057 29.8295 59.0731 29.8295Z" fill="#2E3C56"/>
</g>
<defs>
<clipPath id="clip0_215_17884">
<rect width="56" height="56" fill="white" transform="translate(10.5575 4.61694)"/>
</clipPath>
</defs>
</svg>
