<svg width="69" height="65" viewBox="0 0 69 65" fill="none" xmlns="http://www.w3.org/2000/svg">
<path fill-rule="evenodd" clip-rule="evenodd" d="M35.0908 0.995161C42.5604 1.58433 45.0892 11.8642 50.6018 17.3849C56.6089 23.4008 66.4324 25.6312 68.3236 34.2768C70.4482 43.9891 67.5142 55.5681 60.303 61.7334C53.4269 67.6121 43.7596 63.9174 35.0908 62.6891C28.0378 61.6897 21.3913 60.0332 15.6842 55.411C8.74773 49.7931 -0.331239 43.6834 0.00956116 34.2768C0.348534 24.9206 10.6744 20.8974 17.1574 14.747C22.8882 9.3102 27.5103 0.397248 35.0908 0.995161Z" fill="#E3ECF6"/>
<g clip-path="url(#clip0_213_17178)">
<path d="M37.0243 4.61694H49.5087C55.0315 4.61694 59.5087 9.0941 59.5087 14.6169V27.4526L50.0231 27.8039L51.077 34.1276L45.1046 33.7763L46.1586 27.8039H36.673V18.6696L32.1059 20.0749L29.6467 16.9131L31.4033 13.7512L36.3217 14.1025L37.0243 4.61694Z" fill="#1CC661"/>
<path d="M3.15738 37.2893L13.8374 36.938L12.7834 31.6683L17.7722 30.7549L19.1072 33.7762L18.0532 36.938L26.8361 37.2893L34.2138 46.7749L32.5275 55.3471L27.8901 60.125H15.1574C8.52997 60.125 3.15738 54.7524 3.15738 48.125V37.2893Z" fill="#C6DFFA"/>
<path d="M41.1699 60.1249H27.3982V50.5691H27.8901C28.5927 50.5691 29.2251 50.7798 29.7169 51.2717C30.1385 51.623 30.7006 51.9041 31.2627 51.9041C32.7382 51.9041 33.9327 50.4988 33.9327 48.7422C33.9327 46.9856 32.7382 45.5803 31.2627 45.5803C30.7006 45.5803 30.1385 45.7911 29.7169 46.2127C29.2251 46.6343 28.5224 46.9154 27.8901 46.9154H27.3982V37.2893H36.9541V37.7811C36.9541 38.4837 36.7433 39.1161 36.2514 39.6782C35.8298 40.0295 35.6191 40.5916 35.6191 41.1537C35.6191 42.6293 37.0243 43.8238 38.7809 43.8238C40.5375 43.8238 41.9428 42.6293 41.9428 41.1537C41.9428 40.5916 41.732 40.0295 41.3104 39.608C40.8888 39.1161 40.6078 38.4135 40.6078 37.7108V37.219H50.1636V50.9906C50.2339 56.0496 46.1586 60.1249 41.1699 60.1249Z" fill="#FFB5B0"/>
<path d="M13.2925 14.6129L27.0641 14.6129V24.1687H26.5723C25.8696 24.1687 25.2373 23.9579 24.7454 23.4661C24.3238 23.1148 23.7617 22.8337 23.1996 22.8337C21.7241 22.8337 20.5296 24.239 20.5296 25.9956C20.5296 27.7522 21.7241 29.1574 23.1996 29.1574C23.7617 29.1574 24.3238 28.9467 24.7454 28.5251C25.2373 28.1035 25.9399 27.8224 26.5723 27.8224H27.0641L27.0641 37.4485H17.5083V36.9567C17.5083 36.2541 17.7191 35.6217 18.2109 35.0596C18.6325 34.7083 18.8433 34.1462 18.8433 33.584C18.8433 32.1085 17.438 30.914 15.6814 30.914C13.9248 30.914 12.5196 32.1085 12.5196 33.584C12.5196 34.1462 12.7304 34.7083 13.1519 35.1298C13.5735 35.6217 13.8546 36.3243 13.8546 37.027V37.5188L4.29875 37.5188L4.29875 23.7472C4.22849 18.6882 8.30376 14.6129 13.2925 14.6129Z" fill="#FFF4D2"/>
<path d="M36.673 25.696C36.3919 25.696 36.1109 25.4852 36.1109 25.1339V18.8804C35.5488 18.8804 35.0569 19.0912 34.6354 19.4425C34.0732 19.9344 33.4409 20.1452 32.7382 20.1452C30.9817 20.1452 29.5764 18.4589 29.5764 16.4212C29.5764 14.3836 30.9817 12.6972 32.7382 12.6972C33.4409 12.6972 34.0732 12.9783 34.6354 13.3999C35.0569 13.7512 35.5488 13.962 36.1109 13.962V5.17905C36.1109 4.898 36.3217 4.61694 36.673 4.61694H40.8185C41.0996 4.61694 41.3807 4.82773 41.3807 5.17905C41.3807 5.46011 41.1699 5.74116 40.8185 5.74116H37.2351V14.7349C37.2351 15.0159 37.0243 15.297 36.673 15.297H36.1812C35.338 15.297 34.5651 15.0159 34.003 14.4538C33.6517 14.1728 33.2301 13.962 32.8085 13.962C31.614 13.962 30.7006 15.1565 30.7006 16.632C30.7006 18.1075 31.6843 19.302 32.8085 19.302C33.2301 19.302 33.6517 19.1615 34.003 18.8102C34.6354 18.3183 35.4083 17.967 36.1812 17.967H36.673C36.9541 17.967 37.2351 18.1778 37.2351 18.5291V25.2744C37.1648 25.4852 36.9541 25.696 36.673 25.696Z" fill="#2E3C56"/>
<path d="M48.0557 35.0412C46.018 35.0412 44.3317 33.636 44.3317 31.8794C44.3317 31.1767 44.6128 30.5444 45.0344 29.9823C45.3857 29.5607 45.5965 29.0688 45.5965 28.5067H39.5538C39.2728 28.5067 38.9917 28.2959 38.9917 27.9446C38.9917 27.6636 39.2025 27.3825 39.5538 27.3825H46.1586C46.4396 27.3825 46.7207 27.5933 46.7207 27.9446V28.4365C46.7207 29.2796 46.4396 30.0525 45.8775 30.6146C45.5965 30.9659 45.3857 31.3875 45.3857 31.8091C45.3857 33.0036 46.5802 33.917 48.0557 33.917C49.5312 33.917 50.7257 32.9333 50.7257 31.8091C50.7257 31.3875 50.5852 30.9659 50.2339 30.6146C49.742 29.9823 49.3907 29.2094 49.3907 28.3662V27.8744C49.3907 27.5933 49.6015 27.3122 49.9528 27.3122H58.9465V23.6585C58.9465 23.3775 59.1573 23.0964 59.5086 23.0964C59.7897 23.0964 60.0707 23.3072 60.0707 23.6585V27.8744C60.0707 28.1554 59.86 28.4365 59.5086 28.4365H50.5149C50.5149 28.9986 50.7257 29.4904 51.077 29.912C51.5689 30.4741 51.7797 31.1065 51.7797 31.8091C51.7797 33.636 50.0933 35.0412 48.0557 35.0412Z" fill="#2E3C56"/>
<path d="M59.5086 18.8804C59.2276 18.8804 58.9465 18.6696 58.9465 18.3183V14.1727C58.9465 9.46508 55.1523 5.67085 50.4446 5.67085H46.2991C46.018 5.67085 45.737 5.46006 45.737 5.10874C45.737 4.82768 45.9478 4.54663 46.2991 4.54663H50.4446C55.7144 4.54663 60.0005 8.8327 60.0005 14.1025V18.248C60.0005 18.5993 59.7897 18.8804 59.5086 18.8804Z" fill="#2E3C56"/>
<path d="M27.3982 60.6168H13.5563C8.28656 60.6168 4.00049 56.3308 4.00049 51.061V47.6181C4.00049 47.337 4.21128 47.056 4.5626 47.056C4.84365 47.056 5.1247 47.2668 5.1247 47.6181V51.061C5.1247 55.7687 8.91893 59.5629 13.6266 59.5629H26.9064V50.5692C26.9064 50.2881 27.1172 50.007 27.4685 50.007H27.9603C28.8035 50.007 29.5764 50.2881 30.1385 50.8502C30.4898 51.1313 30.9114 51.3421 31.333 51.3421C32.5275 51.3421 33.4409 50.1476 33.4409 48.672C33.4409 47.1965 32.4572 46.002 31.333 46.002C30.9114 46.002 30.4898 46.1426 30.1385 46.4939C29.5061 46.9857 28.7332 47.337 27.9603 47.337H27.4685C27.1874 47.337 26.9064 47.1262 26.9064 46.7749V37.7812H25.5714C25.2903 37.7812 25.0093 37.5704 25.0093 37.2191C25.0093 36.938 25.2201 36.657 25.5714 36.657H27.4685C27.7495 36.657 28.0306 36.8678 28.0306 37.2191V46.2128C28.5927 46.2128 29.0846 46.002 29.5061 45.6507C30.0682 45.1589 30.7006 44.9481 31.4032 44.9481C33.1598 44.9481 34.5651 46.6344 34.5651 48.672C34.5651 50.7097 33.1598 52.396 31.4032 52.396C30.7006 52.396 30.0682 52.115 29.5061 51.6934C29.0846 51.3421 28.5927 51.1313 28.0306 51.1313V60.125C27.8901 60.406 27.6793 60.6168 27.3982 60.6168Z" fill="#2E3C56"/>
<path d="M4.5626 42.77C4.21128 42.77 4.00049 42.5592 4.00049 42.2079V37.2192C4.00049 36.9381 4.21128 36.6571 4.5626 36.6571H13.5563C13.5563 36.095 13.3455 35.6031 12.9942 35.1815C12.5024 34.6194 12.2916 33.9871 12.2916 33.2844C12.2916 31.5278 13.9779 30.1226 16.0155 30.1226C18.0532 30.1226 19.7395 31.5278 19.7395 33.2844C19.7395 33.9871 19.4585 34.6194 19.0369 35.1815C18.6856 35.6031 18.4748 36.095 18.4748 36.6571H20.2314C20.5124 36.6571 20.7935 36.8679 20.7935 37.2192C20.7935 37.5002 20.5827 37.7813 20.2314 37.7813H17.9127C17.6316 37.7813 17.3506 37.5705 17.3506 37.2192V36.7273C17.3506 35.8842 17.6316 35.1113 18.1937 34.5492C18.4748 34.1978 18.6856 33.7763 18.6856 33.3547C18.6856 32.1602 17.4911 31.2468 16.0155 31.2468C14.54 31.2468 13.3455 32.2305 13.3455 33.3547C13.3455 33.7763 13.4861 34.1978 13.8374 34.5492C14.3292 35.1815 14.6805 35.9544 14.6805 36.7976V37.2894C14.6805 37.5705 14.4697 37.8515 14.1184 37.8515H5.05444V42.2781C5.05444 42.5592 4.84365 42.77 4.5626 42.77Z" fill="#2E3C56"/>
<path d="M27.3982 37.7812C27.1172 37.7812 26.8361 37.5704 26.8361 37.2191V28.2254C26.274 28.2254 25.7822 28.4361 25.3606 28.7875C24.7985 29.2793 24.1661 29.4901 23.4635 29.4901C21.7069 29.4901 20.3016 27.8038 20.3016 25.7661C20.3016 23.7285 21.7069 22.0422 23.4635 22.0422C24.1661 22.0422 24.7985 22.3232 25.3606 22.7448C25.7822 23.0961 26.274 23.3069 26.8361 23.3069V14.9456H13.5563C8.84865 14.9456 5.05442 18.7398 5.05442 23.4474V37.2191C5.05442 37.5001 4.84363 37.7812 4.49231 37.7812C4.21126 37.7812 3.93021 37.5704 3.93021 37.2191V23.4474C3.93021 18.1777 8.21628 13.8916 13.486 13.8916H27.2577C27.5387 13.8916 27.8198 14.1024 27.8198 14.4537V24.0095C27.8198 24.2906 27.609 24.5717 27.2577 24.5717H26.7658C25.9227 24.5717 25.1498 24.2906 24.5877 23.7285C24.2364 23.4474 23.8148 23.2366 23.3932 23.2366C22.1987 23.2366 21.2853 24.4311 21.2853 25.9067C21.2853 27.3822 22.269 28.5767 23.3932 28.5767C23.8148 28.5767 24.2364 28.4361 24.5877 28.0848C25.22 27.593 25.9929 27.2417 26.7658 27.2417H27.2577C27.5387 27.2417 27.8198 27.4525 27.8198 27.8038V37.3596C27.8901 37.5704 27.6793 37.7812 27.3982 37.7812Z" fill="#2E3C56"/>
<path d="M41.1699 60.6168H27.3982C27.1172 60.6168 26.8361 60.406 26.8361 60.0547C26.8361 59.7736 27.0469 59.4926 27.3982 59.4926H41.1699C45.8775 59.4926 49.6718 55.6983 49.6718 50.9907V37.7811H41.1699C41.1699 38.3433 41.3807 38.8351 41.732 39.2567C42.2238 39.8188 42.4346 40.4512 42.4346 41.1538C42.4346 42.9104 40.7483 44.3157 38.7107 44.3157C36.673 44.3157 34.9867 42.9104 34.9867 41.1538C34.9867 40.4512 35.2677 39.8188 35.6893 39.2567C36.0406 38.8351 36.2514 38.3433 36.2514 37.7811H27.3982C27.1172 37.7811 26.8361 37.5704 26.8361 37.219C26.8361 36.938 27.0469 36.6569 27.3982 36.6569H36.9541C37.2351 36.6569 37.5162 36.8677 37.5162 37.219V37.7109C37.5162 38.554 37.2351 39.3269 36.673 39.8891C36.392 40.2404 36.1812 40.662 36.1812 41.0835C36.1812 42.278 37.3756 43.1914 38.8512 43.1914C40.3267 43.1914 41.5212 42.2077 41.5212 41.0835C41.5212 40.662 41.3807 40.2404 41.0293 39.8891C40.5375 39.2567 40.1862 38.4838 40.1862 37.6406V37.1488C40.1862 36.8677 40.397 36.5867 40.7483 36.5867H50.3041C50.5852 36.5867 50.8662 36.7975 50.8662 37.1488V50.9204C50.7257 56.3307 46.4396 60.6168 41.1699 60.6168Z" fill="#2E3C56"/>
</g>
<defs>
<clipPath id="clip0_213_17178">
<rect width="56" height="56" fill="white" transform="translate(4.00049 4.61694)"/>
</clipPath>
</defs>
</svg>
