<svg width="470" height="106" viewBox="0 0 470 106" fill="none" xmlns="http://www.w3.org/2000/svg">
<path d="M22.203 7.46371C22.203 7.46371 16.7391 12.9517 17.3389 19.4291C18.8425 21.9082 22.7366 25.5407 25.1322 27.2237C22.9429 21.4325 21.9229 14.7761 22.203 7.46371V7.46371ZM7.35978 8.65618C0.877289 24.5221 4.19459 36.761 13.7143 44.3994L13.6643 44.4977C6.00553 59.2388 6.45568 77.6946 15.8985 90.1704L15.9481 90.2187C17.44 92.1846 19.1106 94.0159 20.9622 95.6812C33.1521 106.643 50.0529 107.708 64.9961 100.298C48.0184 107.151 24.7849 101.141 24.7849 82.5252C24.7849 71.0017 34.8054 59.8114 48.2164 55.1709C51.4234 54.0257 54.1129 51.8629 55.9614 49.0644L76.7121 52.639L58.4436 42.0659C58.5002 41.5202 58.5433 40.9879 58.5433 40.4274C58.5433 31.8039 51.5796 24.7891 42.9547 24.7891C40.2976 24.7891 37.5488 25.1406 34.7637 25.9816C31.2767 27.0326 28.1129 28.3341 25.1322 30.3982C16.2003 23.8271 10.2176 15.5847 7.35978 8.65618V8.65618ZM42.9547 37.5654C44.5259 37.5654 45.8167 38.8562 45.8167 40.4274C45.8167 41.6668 44.9936 42.7423 43.8912 43.1342C43.5935 43.2407 43.2889 43.2918 42.9547 43.2918C41.3824 43.2918 40.0917 41.9997 40.0917 40.4288C40.0917 38.8562 41.3824 37.5668 42.9547 37.5668V37.5654" fill="#276CB4"/>
<path d="M100.497 42.7314L80.2422 31.0654C79.6358 30.7136 78.9432 30.5749 78.3061 30.618C78.0943 30.6329 77.9152 30.6625 77.7103 30.7163C76.8952 30.9361 76.1933 31.4466 75.7242 32.2565L66.9012 47.5485L77.4813 52.0907H64.2807L53.7827 70.2836C52.8462 71.9048 53.3557 73.9165 54.9738 74.8513L75.2285 86.5673C76.8466 87.501 78.81 86.946 79.7451 85.3251L101.738 47.2994C102.673 45.6782 102.116 43.6651 100.497 42.7314" fill="#F04338"/>
<path d="M57.8438 0.998836C50.9573 0.998836 43.9019 2.85429 37.2673 6.36959C40.8285 5.13677 44.3803 4.51414 47.8135 4.51414C56.3805 4.51414 64.2159 8.38543 69.6352 16.2974C71.6228 19.1987 73.2033 22.4701 74.3013 25.9789C75.2864 25.5746 76.3426 25.3724 77.4071 25.3724C77.7455 25.3724 78.0836 25.3914 78.422 25.4332C79.4647 25.5584 80.493 25.8709 81.4509 26.4249L95.6987 34.6655C93.8243 25.2296 89.3818 16.6789 82.4426 10.4389C75.6124 4.29613 67.3231 1.20511 58.7144 1.00815C58.4246 1.0016 58.1335 0.998836 57.8438 0.998836" fill="#ED9048"/>
<path d="M144.676 78.024L128 27.8606H140.888L151.299 60.4102L162.712 27.8606H175.923L186.111 60.2355L197.75 27.8606H210.75L191.913 78.024H179.524L169.014 45.3633L157.2 78.024H144.676ZM231.161 78.024H219.062V27.8604H231.161V78.024ZM264.55 78.024H242.362V27.9389L264.55 27.8606C264.624 27.8606 264.694 27.8606 264.76 27.8606C268.73 27.8352 272.352 28.4512 275.634 29.7003C278.976 30.9483 281.767 32.6896 284 34.922C286.232 37.1597 287.957 39.806 289.172 42.8736C290.397 45.9497 291.013 49.2872 291.013 52.8883C291.013 57.7099 289.904 62.0308 287.684 65.8468C285.46 69.668 282.334 72.6489 278.298 74.7987C274.266 76.9486 269.68 78.024 264.55 78.024V78.024ZM254.46 39.0989V66.8227H264.55C268.775 66.8227 272.198 65.5451 274.825 62.9856C277.458 60.4261 278.773 57.06 278.773 52.8883C278.773 48.4679 277.495 45.0648 274.936 42.6757C272.376 40.2898 268.916 39.0989 264.55 39.0989H254.46ZM337.935 78.024H299.509V27.8606H337.935V39.0989H311.613V47.6994H333.584V58.1852H311.613V66.8227H337.935V78.024ZM359.833 78.024H347.735V27.8606H386.159V39.0989H359.833V50.585H381.797V61.7122H359.833V78.024ZM407.685 78.024H395.583V27.8604H407.685V78.024ZM433.619 53.4631L415.934 35.6005L424.548 27L442.258 44.8255L460.483 27L469.084 35.538L450.722 53.6123L467.472 70.2883L458.722 79L442.183 62.1748L425.445 78.8465L416.795 70.0608L433.619 53.4631Z" fill="#276CB4"/>
</svg>
