<svg width="235" height="53" viewBox="0 0 235 53" fill="none" xmlns="http://www.w3.org/2000/svg">
<path d="M11.1015 3.23185C11.1015 3.23185 8.36955 5.97587 8.66947 9.21453C9.42127 10.4541 11.3683 12.2704 12.5661 13.1119C11.4714 10.2162 10.9614 6.88807 11.1015 3.23185V3.23185ZM3.67989 3.82809C0.438645 11.7611 2.0973 17.8805 6.85715 21.6997L6.83214 21.7489C3.00277 29.1194 3.22784 38.3473 7.94923 44.5852L7.97407 44.6094C8.72001 45.5923 9.55528 46.5079 10.4811 47.3406C16.5761 52.8214 25.0264 53.3542 32.4981 49.6488C24.0092 53.0753 12.3924 50.0705 12.3924 40.7626C12.3924 35.0008 17.4027 29.4057 24.1082 27.0855C25.7117 26.5129 27.0564 25.4315 27.9807 24.0322L38.356 25.8195L29.2218 20.5329C29.2501 20.2601 29.2716 19.994 29.2716 19.7137C29.2716 15.4019 25.7898 11.8946 21.4773 11.8946C20.1488 11.8946 18.7744 12.0703 17.3818 12.4908C15.6383 13.0163 14.0564 13.667 12.5661 14.6991C8.10015 11.4135 5.10881 7.29234 3.67989 3.82809V3.82809ZM21.4773 18.2827C22.2629 18.2827 22.9083 18.9281 22.9083 19.7137C22.9083 20.3334 22.4968 20.8712 21.9456 21.0671C21.7968 21.1204 21.6445 21.1459 21.4773 21.1459C20.6912 21.1459 20.0458 20.4998 20.0458 19.7144C20.0458 18.9281 20.6912 18.2834 21.4773 18.2834V18.2827" fill="#276CB4"/>
<path d="M50.2484 20.8657L40.1211 15.0327C39.8179 14.8568 39.4716 14.7875 39.153 14.809C39.0471 14.8164 38.9576 14.8313 38.8552 14.8582C38.4476 14.968 38.0966 15.2233 37.8621 15.6282L33.4506 23.2742L38.7406 25.5453H32.1404L26.8914 34.6418C26.4231 35.4524 26.6779 36.4583 27.4869 36.9257L37.6142 42.7836C38.4233 43.2505 39.405 42.973 39.8726 42.1626L50.8688 23.1497C51.3364 22.3391 51.0582 21.3326 50.2484 20.8657" fill="#F04338"/>
<path d="M28.9219 -0.000582221C25.4787 -0.000582221 21.951 0.927143 18.6337 2.68479C20.4143 2.06838 22.1902 1.75707 23.9068 1.75707C28.1903 1.75707 32.108 3.69272 34.8177 7.64868C35.8114 9.09934 36.6017 10.7351 37.1507 12.4894C37.6432 12.2873 38.1714 12.1862 38.7036 12.1862C38.8728 12.1862 39.0418 12.1957 39.211 12.2166C39.7324 12.2792 40.2465 12.4354 40.7255 12.7124L47.8494 16.8328C46.9122 12.1148 44.6909 7.83943 41.2213 4.71943C37.8062 1.64807 33.6616 0.102556 29.3572 0.00407483C29.2123 0.000797884 29.0668 -0.000582221 28.9219 -0.000582221" fill="#ED9048"/>
<path d="M72.338 38.512L64 13.4303H70.4438L75.6496 29.7051L81.3561 13.4303H87.9613L93.0554 29.6178L98.8752 13.4303H105.375L95.9563 38.512H89.7618L84.5068 22.1816L78.6002 38.512H72.338ZM115.58 38.512H109.531V13.4302H115.58V38.512ZM132.275 38.512H121.181V13.4695L132.275 13.4303C132.312 13.4303 132.347 13.4303 132.38 13.4303C134.365 13.4176 136.176 13.7256 137.817 14.3501C139.488 14.9741 140.883 15.8448 142 16.961C143.116 18.0799 143.978 19.403 144.586 20.9368C145.198 22.4748 145.506 24.1436 145.506 25.9442C145.506 28.355 144.952 30.5154 143.842 32.4234C142.73 34.334 141.167 35.8244 139.149 36.8994C137.133 37.9743 134.84 38.512 132.275 38.512V38.512ZM127.23 19.0495V32.9114H132.275C134.388 32.9114 136.099 32.2725 137.412 30.9928C138.729 29.713 139.386 28.03 139.386 25.9442C139.386 23.734 138.748 22.0324 137.468 20.8378C136.188 19.6449 134.458 19.0495 132.275 19.0495H127.23ZM168.967 38.512H149.755V13.4303H168.967V19.0495H155.806V23.3497H166.792V28.5926H155.806V32.9114H168.967V38.512ZM179.916 38.512H173.867V13.4303H193.08V19.0495H179.916V24.7925H190.899V30.3561H179.916V38.512ZM203.843 38.512H197.792V13.4302H203.843V38.512ZM216.81 26.2316L207.967 17.3003L212.274 13L221.129 21.9128L230.242 13L234.542 17.269L225.361 26.3062L233.736 34.6442L229.361 39L221.091 30.5874L212.723 38.9233L208.398 34.5304L216.81 26.2316Z" fill="#276CB4"/>
</svg>
