<svg width="200" height="200" viewBox="0 0 200 200" fill="none" xmlns="http://www.w3.org/2000/svg">
<path d="M54.6824 9.46567C54.6824 9.46567 46.6824 17.501 47.5607 26.9849C49.7622 30.6147 55.4637 35.9334 58.9713 38.3975C55.7658 29.9182 54.2723 20.1722 54.6824 9.46567V9.46567ZM32.9496 11.2116C23.4582 34.4419 28.3153 52.3616 42.2536 63.5455L42.1804 63.6894C30.9668 85.2728 31.6258 112.295 45.4516 130.562L45.5243 130.632C47.7087 133.511 50.1546 136.192 52.8657 138.63C70.7137 154.68 95.4592 156.24 117.338 145.389C92.4804 155.423 58.4627 146.624 58.4627 119.368C58.4627 102.495 73.1344 86.1111 92.7703 79.3167C97.4657 77.6399 101.404 74.4732 104.11 70.3758L134.493 75.6096L107.745 60.1288C107.827 59.3298 107.89 58.5505 107.89 57.7298C107.89 45.1036 97.6945 34.8328 85.0663 34.8328C81.1758 34.8328 77.1511 35.3475 73.0733 36.5788C67.9678 38.1177 63.3355 40.0233 58.9713 43.0455C45.8935 33.4243 37.1339 21.3561 32.9496 11.2116V11.2116ZM85.0663 53.5394C87.3668 53.5394 89.2567 55.4293 89.2567 57.7298C89.2567 59.5445 88.0516 61.1192 86.4375 61.693C86.0016 61.849 85.5556 61.9238 85.0663 61.9238C82.7642 61.9238 80.8743 60.0319 80.8743 57.7319C80.8743 55.4293 82.7642 53.5414 85.0663 53.5414V53.5394" fill="#276CB4"/>
<path d="M169.317 61.1031L139.661 44.0222C138.773 43.5071 137.759 43.3041 136.826 43.3672C136.516 43.3889 136.254 43.4323 135.954 43.5111C134.761 43.8328 133.733 44.5803 133.046 45.7662L120.128 68.1561L135.619 74.8066H116.291L100.92 101.444C99.549 103.818 100.295 106.763 102.664 108.132L132.32 125.286C134.689 126.653 137.564 125.84 138.933 123.467L171.134 67.7914C172.503 65.4177 171.688 62.4702 169.317 61.1031" fill="#F04338"/>
<path d="M106.866 1.08192e-05C96.7835 1.08192e-05 86.4532 2.71669 76.739 7.86366C81.9532 6.05861 87.1537 5.14699 92.1804 5.14699C104.724 5.14699 116.196 10.8152 124.131 22.3995C127.041 26.6475 129.355 31.4374 130.963 36.5748C132.405 35.9828 133.952 35.6869 135.51 35.6869C136.006 35.6869 136.501 35.7147 136.996 35.7758C138.523 35.9591 140.028 36.4167 141.431 37.2278L162.292 49.2935C159.548 35.4778 153.043 22.9581 142.883 13.8217C132.882 4.82778 120.746 0.302032 108.141 0.0136482C107.717 0.00405221 107.291 1.08192e-05 106.866 1.08192e-05" fill="#ED9048"/>
<path d="M26.5172 199.428L18.5606 175.493H24.7096L29.6773 191.024L35.1227 175.493H41.4258L46.2869 190.94L51.8404 175.493H58.0429L49.055 199.428H43.1439L38.1293 183.844L32.4929 199.428H26.5172ZM67.7813 199.428H62.0085V175.493H67.7813V199.428ZM83.7121 199.428H73.1258V175.531L83.7121 175.493C83.7475 175.493 83.7808 175.493 83.8126 175.493C85.7066 175.481 87.4349 175.775 89.001 176.371C90.5955 176.967 91.9268 177.797 92.9924 178.863C94.0576 179.93 94.8803 181.193 95.4601 182.657C96.0444 184.124 96.3384 185.717 96.3384 187.435C96.3384 189.735 95.8096 191.797 94.75 193.618C93.6889 195.441 92.1975 196.863 90.2717 197.889C88.348 198.915 86.1601 199.428 83.7121 199.428V199.428ZM78.898 180.856V194.083H83.7121C85.7283 194.083 87.3616 193.474 88.6146 192.253C89.8712 191.031 90.4985 189.425 90.4985 187.435C90.4985 185.326 89.8889 183.702 88.6677 182.562C87.4465 181.424 85.7955 180.856 83.7121 180.856H78.898ZM118.726 199.428H100.392V175.493H118.726V180.856H106.167V184.959H116.65V189.962H106.167V194.083H118.726V199.428ZM129.174 199.428H123.402V175.493H141.735V180.856H129.174V186.336H139.654V191.645H129.174V199.428ZM152.006 199.428H146.232V175.493H152.006V199.428ZM164.38 187.709L155.942 179.186L160.052 175.083L168.502 183.588L177.197 175.083L181.301 179.157L172.54 187.78L180.532 195.737L176.357 199.893L168.466 191.866L160.48 199.82L156.353 195.628L164.38 187.709Z" fill="#276CB4"/>
</svg>
