<svg width="67" height="14" viewBox="0 0 67 14" fill="none" xmlns="http://www.w3.org/2000/svg">
<path d="M66.0193 5.56671C57.6014 4.30751 49.1572 3.98174 40.7195 4.08639C32.3306 4.18936 23.9433 4.9253 15.5816 6.29252C10.9209 7.05378 6.26586 5.86156 1.62407 7.04312L1.38202 3.85008C9.4182 5.28989 17.4445 6.98795 25.4724 8.60499C27.7706 9.06749 30.0613 9.56374 32.3512 10.1646C33.0129 10.3385 33.6366 11.3968 33.573 12.8856C33.5135 14.268 32.9559 14.0145 32.2414 13.9166C28.1894 13.3579 24.1523 12.4835 20.1111 11.6817C16.0699 10.88 12.136 10.0968 8.14768 9.30513C5.85198 8.84939 3.55959 8.35144 1.26637 7.84506C0.599792 7.6938 0.0668869 8.23196 0.00492859 6.82929C-0.0487671 5.61566 0.362625 4.06107 1.02432 3.91929C9.49916 2.11151 18.007 0.909701 26.5232 0.354371C34.9551 -0.195896 43.3944 -0.123315 51.8213 0.698709C56.5787 1.16289 61.3337 1.83131 66.0821 2.60101C67.0106 2.75124 66.9544 5.70512 66.0193 5.56502V5.56671Z" fill="#ED9048"/>
</svg>
