<svg width="164" height="53" viewBox="0 0 164 53" fill="none" xmlns="http://www.w3.org/2000/svg">
<path d="M56.4378 3.23924C62.3092 3.3609 68.1694 3.0782 74.0479 3.17095C79.8647 3.26477 85.6778 3.52529 91.4763 3.99702C103.232 4.95612 114.888 6.80736 126.284 9.45608C132.073 10.8025 137.795 12.3526 143.427 14.0962C147.532 15.3669 151.84 16.6398 155.099 19.14C158.433 21.6962 159.91 25.2881 158.793 28.8596C157.57 32.7636 153.959 35.8286 150.228 38.3162C142.916 43.1939 133.65 45.5718 124.339 46.8511C113.919 48.2828 103.188 48.8221 92.5871 48.9108C69.9909 49.0984 47.2346 46.3111 26.0985 39.2426C21.2018 37.6054 15.9843 35.8781 11.5934 33.4299C8.40909 31.6556 5.19232 28.9007 5.01132 25.6448C4.78739 21.6468 8.66502 19.544 12.4715 17.7598C17.299 15.4956 22.4055 13.5672 27.7057 12.0917C30.2703 11.3774 32.8822 10.7717 35.5255 10.258C37.8565 9.80586 36.877 6.91833 34.5369 7.33388C28.7049 8.3715 23.0091 9.88813 17.5961 11.8739C14.8295 12.8882 12.1319 14.0237 9.51296 15.2605C7.48524 16.219 5.43303 17.2641 3.87303 18.6997C0.459945 21.8412 -0.0783521 26.1622 2.19183 29.9787C4.17448 33.31 8.04391 35.8938 12.0141 37.6261C33.7379 47.1046 58.257 51.5216 82.596 52.2137C94.4262 52.5499 106.253 52.0355 117.964 50.935C128.035 49.9891 138.254 48.3319 146.992 44.1381C155.637 39.9888 165.424 32.3889 162.516 23.331C159.852 15.0356 148.099 12.2542 139.305 9.79764C115.502 3.15592 90.1891 -0.123385 65.229 1.00853C62.1657 1.14697 59.2073 1.41757 56.2141 1.91178C55.2843 2.06527 55.4982 3.21849 56.435 3.23908L56.4378 3.23924Z" fill="#FFB916"/>
</svg>
