<svg width="136" height="64" viewBox="0 0 136 64" fill="none" xmlns="http://www.w3.org/2000/svg">
<g id="oval1">
<path id="Vector" d="M85.1269 5.54067C81.1826 5.44411 77.2568 4.93744 73.3084 4.81126C69.4015 4.68847 65.4926 4.73508 61.5877 4.99666C53.6706 5.52973 45.7967 6.97229 38.076 9.23428C34.1538 10.3842 30.2713 11.7435 26.4435 13.3026C23.6534 14.4388 20.7276 15.5696 18.4723 17.9858C16.1648 20.456 15.0762 24.0474 15.7294 27.7152C16.4443 31.7245 18.7851 34.9716 21.2217 37.6371C25.9978 42.8632 32.1526 45.6247 38.3678 47.2725C45.3235 49.1166 52.5113 50.0664 59.6248 50.5538C74.7868 51.5912 90.1369 49.6143 104.516 43.2304C107.847 41.7517 111.396 40.1936 114.409 37.8727C116.595 36.1907 118.829 33.5143 119.038 30.2156C119.297 26.165 116.751 23.8847 114.245 21.9306C111.066 19.4509 107.69 17.3018 104.173 15.6051C102.471 14.7838 100.734 14.0709 98.9735 13.4503C97.4212 12.9039 98.1569 10.0091 99.7164 10.5187C103.603 11.7907 107.385 13.544 110.964 15.7629C112.794 16.8964 114.574 18.1503 116.298 19.5042C117.633 20.5533 118.982 21.6912 119.991 23.2072C122.196 26.5245 122.441 30.9316 120.813 34.7212C119.392 38.029 116.725 40.5072 114.013 42.1171C99.1748 50.9259 82.5972 54.4912 66.2415 54.2816C58.2917 54.1794 50.367 53.2139 42.5362 51.6577C35.8023 50.3198 28.9876 48.2543 23.2364 43.669C17.5459 39.1324 11.1829 31.0497 13.3803 21.9627C15.3932 13.6407 23.3575 11.2574 29.327 9.093C45.4839 3.24218 62.5633 0.861657 79.2865 2.94642C81.3389 3.20179 83.3173 3.58741 85.3131 4.20135C85.933 4.39203 85.7582 5.55483 85.1288 5.54061L85.1269 5.54067Z" fill="#F9604F"/>
</g>
</svg>
