<svg width="193" height="62" viewBox="0 0 193 62" fill="none" xmlns="http://www.w3.org/2000/svg">
<path id="Vector" d="M66.4293 3.21244C73.3896 3.35667 80.3365 3.02154 87.3053 3.13149C94.2008 3.2427 101.092 3.55154 107.966 4.11076C121.902 5.24773 135.72 7.44229 149.229 10.5822C156.091 12.1783 162.874 14.0159 169.551 16.0829C174.418 17.5892 179.524 19.0982 183.387 22.062C187.34 25.0924 189.091 29.3504 187.766 33.5843C186.317 38.2122 182.036 41.8456 177.614 44.7947C168.945 50.5769 157.961 53.3959 146.923 54.9123C134.57 56.6096 121.85 57.2489 109.283 57.354C82.4959 57.5764 55.5193 54.2722 30.4633 45.8929C24.6585 43.952 18.4735 41.9043 13.2682 39.0021C9.49337 36.8988 5.68003 33.6329 5.46546 29.7733C5.2 25.0338 9.79676 22.541 14.3092 20.4259C20.032 17.7418 26.0854 15.4558 32.3687 13.7066C35.4089 12.8598 38.5052 12.1418 41.6387 11.5329C44.4019 10.9969 43.2408 7.57384 40.4667 8.06645C33.5531 9.29651 26.801 11.0944 20.3842 13.4484C17.1045 14.6509 13.9066 15.9969 10.802 17.4631C8.39818 18.5994 5.96538 19.8383 4.11607 21.5402C0.070009 25.2642 -0.568118 30.3866 2.12308 34.9109C4.47342 38.86 9.06047 41.923 13.767 43.9765C39.5195 55.2129 68.5859 60.4491 97.4387 61.2695C111.463 61.668 125.483 61.0583 139.366 59.7537C151.304 58.6323 163.419 56.6678 173.777 51.6962C184.026 46.7774 195.627 37.768 192.18 27.0303C189.022 17.1965 175.089 13.8992 164.664 10.9871C136.447 3.11367 106.44 -0.773802 76.8509 0.568031C73.2194 0.732148 69.7124 1.05293 66.164 1.6388C65.0619 1.82075 65.3154 3.18785 66.426 3.21225L66.4293 3.21244Z" fill="#FFB916"/>
</svg>
