<svg width="168" height="20" viewBox="0 0 168 20" fill="none" xmlns="http://www.w3.org/2000/svg">
<path id="Vector" d="M2.73481 7.59709C23.7952 5.87862 44.9216 5.43402 66.0316 5.57685C87.0196 5.71736 108.003 6.72173 128.923 8.58763C140.584 9.62655 152.23 7.99948 163.843 9.61199L164.449 5.25434C144.343 7.2193 124.263 9.53671 104.178 11.7435C98.4282 12.3747 92.697 13.052 86.9679 13.8721C85.3125 14.1093 83.7521 15.5537 83.9112 17.5854C84.06 19.4721 85.4551 19.126 87.2428 18.9924C97.3803 18.2299 107.481 17.0367 117.591 15.9425C127.702 14.8483 137.544 13.7794 147.522 12.699C153.266 12.0771 159.001 11.3975 164.738 10.7064C166.406 10.5 167.739 11.2344 167.894 9.32017C168.029 7.66389 166.999 5.54229 165.344 5.34879C144.141 2.88165 122.855 1.2415 101.549 0.483622C80.4535 -0.267346 59.3394 -0.168292 38.2563 0.953553C26.3538 1.58704 14.4575 2.49926 2.57773 3.54969C0.254687 3.75471 0.395228 7.78598 2.73481 7.59479V7.59709Z" fill="#1CC661"/>
</svg>
