<svg width="138" height="24" viewBox="0 0 138 24" fill="none" xmlns="http://www.w3.org/2000/svg">
<path fill-rule="evenodd" clip-rule="evenodd" d="M0 0V24L23.9997 0H0ZM14.4006 14.4002L4.8 24H24.0003L14.4006 14.4002Z" fill="#0035EF"/>
<path fill-rule="evenodd" clip-rule="evenodd" d="M73.468 19.5343L75.1503 16.5429C75.8549 17.2286 76.7785 17.8596 78.0269 17.8596C79.7359 17.8596 80.8065 16.7072 80.8065 14.923L80.7996 2.68115H84.6943V14.9777C84.6943 19.3144 82.042 21.3185 78.3242 21.3185C76.507 21.3185 74.7706 20.824 73.468 19.5343ZM58.5039 14.5003L61.3264 6.57958L64.1488 14.5003H58.5039ZM65.2083 17.7455L66.3201 20.9897H70.7183L63.7425 2.68177H58.9103L51.9078 20.9897H56.3044L57.4445 17.7455H65.2083ZM38.8654 13.6609L44.3488 20.9898H49.0985L41.4172 11.2727L48.6105 2.68185H43.8599L37.4469 10.8616V2.68185H33.6002V20.9898H37.4469V15.3625L38.8654 13.6609ZM95.6196 14.2692L98.4429 6.57958L101.265 14.2692H95.6196ZM102.325 17.9767L103.437 20.9897H107.836L100.859 2.68177H96.026L89.0235 20.9897H93.4209L94.5602 17.9767H102.325ZM123.448 15.5004C123.448 14.348 122.634 13.3425 121.113 13.3425H116.084V17.5132H121.113C122.579 17.5132 123.448 16.8179 123.448 15.5004ZM123.095 8.03416C123.095 6.88089 122.281 6.15782 120.978 6.15782H116.084V10.0973H120.978C122.281 10.0973 123.095 9.18655 123.095 8.03416ZM112.189 20.9895V2.68152H121.818C125.266 2.68152 127.03 4.90549 127.03 7.34759C127.03 9.65325 125.619 11.1906 123.909 11.5478C125.835 11.8494 127.383 13.744 127.383 16.0497C127.383 18.7942 125.565 20.9895 122.117 20.9895H112.189ZM137.85 20.9898H134.004V2.68185H137.85V20.9898Z" fill="#040506"/>
</svg>
