<svg width="181" height="21" viewBox="0 0 181 21" fill="none" xmlns="http://www.w3.org/2000/svg">
<g clip-path="url(#clip0_122_980)">
<path d="M73.1335 17.4201H63.7829V0.71081C63.7829 0.632011 63.7516 0.556438 63.6958 0.500718C63.6401 0.444999 63.5646 0.413696 63.4858 0.413696H61.5564C61.4776 0.413696 61.402 0.444999 61.3463 0.500718C61.2906 0.556438 61.2593 0.632011 61.2593 0.71081V19.456C61.2593 19.5348 61.2906 19.6104 61.3463 19.6661C61.402 19.7218 61.4776 19.7531 61.5564 19.7531H73.1326C73.2114 19.7531 73.287 19.7218 73.3427 19.6661C73.3984 19.6104 73.4297 19.5348 73.4297 19.456V17.7173C73.4297 17.6385 73.3984 17.5629 73.3427 17.5072C73.287 17.4514 73.2114 17.4201 73.1326 17.4201" fill="#6F2B82"/>
<path d="M54.2434 17.4201H44.8927V0.71081C44.8927 0.632011 44.8614 0.556438 44.8057 0.500718C44.75 0.444999 44.6744 0.413696 44.5956 0.413696H42.6663C42.5875 0.413696 42.5119 0.444999 42.4562 0.500718C42.4004 0.556438 42.3691 0.632011 42.3691 0.71081V19.456C42.3691 19.5348 42.4004 19.6104 42.4562 19.6661C42.5119 19.7218 42.5875 19.7531 42.6663 19.7531H54.2424C54.3212 19.7531 54.3968 19.7218 54.4525 19.6661C54.5083 19.6104 54.5396 19.5348 54.5396 19.456V17.7173C54.5396 17.6385 54.5083 17.5629 54.4525 17.5072C54.3968 17.4514 54.3212 17.4201 54.2424 17.4201" fill="#6F2B82"/>
<path d="M26.5455 0.129639L35.201 19.3448C35.2198 19.3903 35.2269 19.4397 35.2219 19.4886C35.2168 19.5375 35.1997 19.5844 35.1721 19.6251C35.1448 19.6654 35.108 19.6984 35.065 19.7212C35.022 19.744 34.9741 19.7559 34.9254 19.7559H32.6672C32.607 19.7567 32.5481 19.7392 32.4981 19.7059C32.4481 19.6725 32.4093 19.6248 32.3869 19.569L26.6053 6.57643L21.688 17.4248H28.5823L29.5017 19.7503H18.2133C18.1648 19.7501 18.117 19.7381 18.0742 19.7154C18.0314 19.6926 17.9948 19.6597 17.9675 19.6195C17.94 19.5788 17.9229 19.5319 17.9178 19.483C17.9128 19.4341 17.9199 19.3847 17.9386 19.3392L26.5455 0.129639Z" fill="#6F2B82"/>
<path d="M7.38934 0.413706H0.921996C0.843684 0.414445 0.76883 0.446073 0.713715 0.501713C0.6586 0.557353 0.627682 0.632503 0.627686 0.710819V19.456C0.627686 19.5348 0.65899 19.6104 0.714709 19.6661C0.770429 19.7218 0.846 19.7531 0.924799 19.7531H2.85417C2.9328 19.7529 3.00813 19.7215 3.06365 19.6658C3.11917 19.6101 3.15034 19.5347 3.15034 19.456V13.5231H7.36505C11.3621 13.5231 13.7492 10.7146 13.7492 6.88946C13.7904 6.03801 13.6549 5.18725 13.3513 4.39068C13.0478 3.5941 12.5828 2.86893 11.9855 2.26074C11.3882 1.65255 10.6715 1.1745 9.88054 0.85664C9.08957 0.538776 8.2414 0.387972 7.38934 0.413706ZM7.28096 11.2452H3.15034V2.66541H7.30993C7.8514 2.67801 8.38473 2.79996 8.87787 3.02393C9.37101 3.2479 9.81378 3.56928 10.1795 3.96873C10.5453 4.36819 10.8265 4.83748 11.0063 5.34839C11.1861 5.85931 11.2607 6.4013 11.2257 6.94178C11.2257 9.41399 9.86248 11.2452 7.28283 11.2452" fill="#6F2B82"/>
<path d="M171.841 11.3873L163.283 0.106323V19.4644C163.284 19.5421 163.316 19.6161 163.372 19.6702C163.428 19.7243 163.502 19.7542 163.58 19.7532H165.455C165.533 19.7542 165.608 19.7243 165.663 19.6702C165.719 19.6161 165.751 19.5421 165.752 19.4644V7.57526L171.818 15.6552L177.849 7.66308V19.4616C177.849 19.5001 177.858 19.5381 177.873 19.5735C177.888 19.6089 177.91 19.6409 177.938 19.6677C177.965 19.6945 177.998 19.7156 178.034 19.7298C178.069 19.744 178.108 19.751 178.146 19.7503H180.075C180.114 19.751 180.152 19.744 180.188 19.7298C180.224 19.7156 180.256 19.6945 180.284 19.6677C180.312 19.6409 180.334 19.6089 180.349 19.5735C180.364 19.5381 180.372 19.5001 180.373 19.4616V0.144631L171.841 11.3873Z" fill="#6F2B82"/>
<path d="M154.631 0.413696H152.756C152.677 0.413696 152.602 0.444999 152.546 0.500719C152.49 0.556438 152.459 0.63201 152.459 0.710809V13.3418C152.459 16.1093 150.48 17.8266 147.293 17.8266C144.948 17.8266 142.209 16.6447 142.209 13.3129V0.710809C142.209 0.632172 142.178 0.556741 142.123 0.501048C142.067 0.445356 141.992 0.413944 141.913 0.413696H139.984C139.905 0.413696 139.83 0.444999 139.774 0.500719C139.718 0.556438 139.687 0.63201 139.687 0.710809V13.2877C139.687 17.3052 142.815 20.1082 147.294 20.1082C151.86 20.1082 154.928 17.3678 154.928 13.2877V0.710809C154.928 0.63201 154.897 0.556438 154.841 0.500719C154.786 0.444999 154.71 0.413696 154.631 0.413696" fill="#6F2B82"/>
<path d="M87.6275 0.129639L96.283 19.3448C96.3017 19.3903 96.3088 19.4397 96.3038 19.4886C96.2987 19.5375 96.2816 19.5844 96.2541 19.6251C96.2268 19.6654 96.19 19.6984 96.147 19.7212C96.104 19.744 96.0561 19.7559 96.0074 19.7559H93.7492C93.689 19.7567 93.6301 19.7392 93.5801 19.7059C93.5301 19.6725 93.4913 19.6248 93.4689 19.569L87.6873 6.57643L82.7691 17.4248H89.6634L90.5837 19.7503H79.2953C79.2467 19.7502 79.199 19.7383 79.1561 19.7155C79.1133 19.6927 79.0767 19.6597 79.0495 19.6195C79.0217 19.5789 79.0045 19.532 78.9992 19.4831C78.994 19.4342 79.001 19.3847 79.0196 19.3392L87.6275 0.129639Z" fill="#6F2B82"/>
<path d="M110.884 0.614624H104.25C104.211 0.614624 104.172 0.622316 104.136 0.637258C104.1 0.652201 104.068 0.674101 104.04 0.701703C104.013 0.729305 103.991 0.762065 103.976 0.798107C103.961 0.834149 103.954 0.872764 103.954 0.911737V19.457C103.954 19.496 103.961 19.5346 103.976 19.5706C103.991 19.6067 104.013 19.6394 104.04 19.667C104.068 19.6946 104.1 19.7165 104.136 19.7315C104.172 19.7464 104.211 19.7541 104.25 19.7541H110.884C116.396 19.7541 119.959 15.9178 119.959 10.1577C119.959 3.20549 115.271 0.614624 110.884 0.614624ZM110.748 17.4753H106.48V2.89342H110.748C114.778 2.89342 117.382 5.82438 117.382 10.1811C117.382 14.6752 114.903 17.4688 110.748 17.4688" fill="#6F2B82"/>
<path d="M130.426 0.413696H128.497C128.418 0.413696 128.342 0.444999 128.286 0.500719C128.231 0.556438 128.199 0.63201 128.199 0.710809V19.456C128.199 19.5348 128.231 19.6104 128.286 19.6661C128.342 19.7218 128.418 19.7531 128.497 19.7531H130.426C130.505 19.7531 130.58 19.7218 130.636 19.6661C130.692 19.6104 130.723 19.5348 130.723 19.456V0.710809C130.723 0.63201 130.692 0.556438 130.636 0.500719C130.58 0.444999 130.505 0.413696 130.426 0.413696" fill="#6F2B82"/>
</g>
<defs>
<clipPath id="clip0_122_980">
<rect width="179.751" height="20" fill="white" transform="translate(0.625 0.106323)"/>
</clipPath>
</defs>
</svg>
