<svg width="68" height="15" viewBox="0 0 68 15" fill="none" xmlns="http://www.w3.org/2000/svg">
<path d="M66.6299 5.63898C58.212 4.37978 49.7678 4.05401 41.3301 4.15866C32.9412 4.26162 24.5539 4.99756 16.1922 6.36479C11.5315 7.12605 6.87645 5.93383 2.23466 7.11538L1.99261 3.92235C10.0288 5.36216 18.0551 7.06022 26.083 8.67726C28.3812 9.13975 30.6719 9.63601 32.9618 10.2369C33.6235 10.4108 34.2472 11.4691 34.1836 12.9579C34.1241 14.3403 33.5665 14.0867 32.852 13.9888C28.8 13.4301 24.7629 12.5558 20.7217 11.754C16.6805 10.9522 12.7466 10.169 8.75827 9.37739C6.46258 8.92165 4.17018 8.42371 1.87696 7.91733C1.21039 7.76606 0.677483 8.30422 0.615524 6.90155C0.561829 5.68793 0.973221 4.13334 1.63492 3.99155C10.1098 2.18378 18.6176 0.981967 27.1338 0.426636C35.5657 -0.12363 44.005 -0.0510492 52.4319 0.770975C57.1893 1.23516 61.9443 1.90358 66.6926 2.67328C67.6212 2.8235 67.565 5.77739 66.6299 5.63729V5.63898Z" fill="#ED9048"/>
</svg>
