<svg width="24" height="25" viewBox="0 0 24 25" fill="none" xmlns="http://www.w3.org/2000/svg">
<path d="M10.8611 11.5885C12.0757 10.9992 12.7097 10.1075 12.7097 8.71947C12.7097 5.98228 10.7007 5.31543 8.38229 5.31543H2V19.0557H8.56181C11.0215 19.0557 13.3323 17.8577 13.3323 15.0662C13.3323 13.3409 12.5264 12.0654 10.8611 11.5885ZM4.97535 7.66104H7.76736C8.84062 7.66104 9.80694 7.96733 9.80694 9.23124C9.80694 10.3982 9.05451 10.8674 7.99271 10.8674H4.97535V7.66104ZM8.15694 16.7217H4.97535V12.9377H8.21806C9.52813 12.9377 10.3569 13.4921 10.3569 14.8995C10.3569 16.2875 9.36771 16.7217 8.15694 16.7217ZM21.8497 7.38965H16.3611V6.03656H21.8497V7.38965ZM24 14.2249C24 11.2822 22.3042 8.82803 19.2295 8.82803C16.2427 8.82803 14.2146 11.1077 14.2146 14.0931C14.2146 17.1908 16.1358 19.3154 19.2295 19.3154C21.5708 19.3154 23.0872 18.2454 23.8167 15.9695H21.441C21.1851 16.8186 20.1309 17.2684 19.3135 17.2684C17.7361 17.2684 16.9073 16.3301 16.9073 14.7366H23.9771C23.9885 14.5738 24 14.3993 24 14.2249ZM16.9111 13.0152C16.999 11.7087 17.8545 10.8906 19.1455 10.8906C20.4976 10.8906 21.1774 11.697 21.292 13.0152H16.9111Z" fill="#9E9E9E"/>
</svg>
