<svg width="56" height="57" viewBox="0 0 56 57" fill="none" xmlns="http://www.w3.org/2000/svg">
<circle opacity="0.1" cx="28.0005" cy="28.7295" r="28" fill="#F04338"/>
<g clip-path="url(#clip0_213_16956)">
<path fill-rule="evenodd" clip-rule="evenodd" d="M17.0103 15.0726C18.5106 13.5723 20.5454 12.7295 22.6672 12.7295C24.7889 12.7295 26.8237 13.5723 28.324 15.0726C29.8243 16.5729 30.6672 18.6078 30.6672 20.7295C30.6672 22.8512 29.8243 24.8861 28.324 26.3863C28.0544 26.6559 27.7676 26.9043 27.4661 27.1304C28.5314 27.6425 29.491 28.3265 30.3118 29.1552L30.3136 29.157C31.4494 30.3082 32.2989 31.7099 32.7938 33.2494C33.0192 33.9505 32.6336 34.7015 31.9326 34.9268C31.2315 35.1522 30.4805 34.7666 30.2551 34.0656C29.8882 32.9241 29.2584 31.8847 28.4164 31.031C27.0065 29.608 25.0059 28.7295 22.6672 28.7295C18.0702 28.7295 14.6672 32.1325 14.6672 36.7295V42.0628H26.6672C27.4035 42.0628 28.0005 42.6598 28.0005 43.3962C28.0005 44.1325 27.4035 44.7295 26.6672 44.7295H13.3338C12.5974 44.7295 12.0005 44.1325 12.0005 43.3962V36.7295C12.0005 32.4062 14.3326 28.8302 17.868 27.1302C17.5666 26.9042 17.2798 26.6559 17.0103 26.3863C15.51 24.8861 14.6672 22.8512 14.6672 20.7295C14.6672 18.6078 15.51 16.5729 17.0103 15.0726ZM22.6672 26.0628C24.0816 26.0628 25.4382 25.5009 26.4384 24.5007C27.4386 23.5005 28.0005 22.144 28.0005 20.7295C28.0005 19.315 27.4386 17.9585 26.4384 16.9583C25.4382 15.9581 24.0816 15.3962 22.6672 15.3962C21.2527 15.3962 19.8961 15.9581 18.8959 16.9583C17.8957 17.9585 17.3338 19.315 17.3338 20.7295C17.3338 22.144 17.8957 23.5005 18.8959 24.5007C19.8961 25.5009 21.2527 26.0628 22.6672 26.0628ZM43.4717 28.9996C44.0589 29.4439 44.1747 30.2801 43.7304 30.8674L34.6504 42.8674C34.4369 43.1495 34.12 43.3352 33.7695 43.3836C33.4191 43.432 33.0637 43.3391 32.7817 43.1254L27.1951 38.8907C26.6082 38.4459 26.4931 37.6096 26.9379 37.0227C27.3827 36.4359 28.2191 36.3208 28.8059 36.7656L33.3291 40.1941L41.6039 29.2583C42.0482 28.6711 42.8845 28.5552 43.4717 28.9996Z" fill="#F04338"/>
</g>
<defs>
<clipPath id="clip0_213_16956">
<rect width="32" height="32" fill="white" transform="translate(12.0005 12.7295)"/>
</clipPath>
</defs>
</svg>
