<svg width="56" height="57" viewBox="0 0 56 57" fill="none" xmlns="http://www.w3.org/2000/svg">
<circle opacity="0.1" cx="28" cy="28.7295" r="28" fill="#F9604F"/>
<path d="M40.0696 19.4304C39.693 19.0531 39.082 19.0525 38.7054 19.4288L27.1307 30.9729L22.9546 26.4372C22.5938 26.0455 21.9837 26.0201 21.5913 26.3809C21.1993 26.7418 21.1742 27.3522 21.535 27.7442L26.3913 33.0183C26.5692 33.2116 26.8181 33.3238 27.0805 33.3293C27.0876 33.3296 27.0944 33.3296 27.1011 33.3296C27.3562 33.3296 27.6015 33.2283 27.7823 33.0482L40.0677 20.7949C40.4453 20.4187 40.4459 19.8076 40.0696 19.4304Z" fill="#F9604F"/>
<path d="M39.8351 27.7648C39.3022 27.7648 38.8703 28.1967 38.8703 28.7297C38.8703 34.7238 33.9941 39.6 28 39.6C22.0062 39.6 17.1296 34.7238 17.1296 28.7297C17.1296 22.7359 22.0062 17.8593 28 17.8593C28.5329 17.8593 28.9648 17.4274 28.9648 16.8945C28.9648 16.3616 28.5329 15.9297 28 15.9297C20.942 15.9297 15.2 21.6717 15.2 28.7297C15.2 35.7874 20.942 41.5297 28 41.5297C35.0577 41.5297 40.8 35.7874 40.8 28.7297C40.8 28.1968 40.3681 27.7648 39.8351 27.7648Z" fill="#F9604F"/>
</svg>
