<svg width="24" height="24" viewBox="0 0 24 24" fill="none" xmlns="http://www.w3.org/2000/svg">
<path d="M14.1205 2.20302C13.5332 2.07728 13.0125 2.55099 13.0125 3.15163V3.15163C13.0125 3.66462 13.3976 4.09019 13.8967 4.20878C17.8118 5.13906 20.4755 8.88103 19.9725 12.97C19.5502 16.3118 17.105 19.0215 13.8905 19.7758C13.3954 19.8919 13.0125 20.3131 13.0125 20.8216V20.8216C13.0125 21.4151 13.5271 21.883 14.1077 21.76C19.0331 20.7166 22.4753 16.1278 21.9625 11C21.5483 6.62742 18.3206 3.10222 14.1205 2.20302ZM11.0125 3.17783C11.0125 2.57884 10.4943 2.10601 9.90819 2.22953C8.7261 2.47867 7.59694 2.9394 6.58029 3.59982C6.07579 3.92754 6.03925 4.62925 6.45727 5.06189V5.06189C6.82842 5.44602 7.42782 5.47725 7.88108 5.19464C8.58056 4.75851 9.3455 4.43304 10.1472 4.22972C10.6375 4.10537 11.0125 3.68366 11.0125 3.17783V3.17783ZM5.06402 6.46155C4.63974 6.03727 3.93781 6.06912 3.61101 6.57232C2.95178 7.58738 2.48451 8.71508 2.2326 9.89894C2.10827 10.4832 2.57984 11 3.17722 11V11C3.68407 11 4.10595 10.6228 4.22718 10.1306C4.4262 9.32274 4.74835 8.54923 5.18569 7.83987C5.45599 7.40145 5.42821 6.82574 5.06402 6.46155V6.46155ZM3.1874 13C2.59087 13 2.121 13.5176 2.24686 14.1007C2.50212 15.2832 2.96852 16.4076 3.62233 17.4217C3.94772 17.9264 4.65096 17.959 5.0741 17.5329V17.5329C5.43322 17.1712 5.46086 16.6022 5.19372 16.1681C4.75593 15.4568 4.43217 14.6813 4.23427 13.8698C4.11434 13.378 3.69359 13 3.1874 13V13ZM7.82072 18.8642C7.39926 18.6027 6.84676 18.6246 6.48864 18.9677V18.9677C6.05878 19.3795 6.08124 20.0777 6.57814 20.4055C7.59353 21.0754 8.72287 21.5544 9.91026 21.8186C10.4929 21.9483 11.0125 21.4793 11.0125 20.8824V20.8824C11.0125 20.3778 10.6357 19.9583 10.1454 19.8389C9.32394 19.6389 8.53925 19.3099 7.82072 18.8642ZM16.8325 15.19L12.7225 11.08C13.1325 10.04 12.9025 8.82003 12.0425 7.97003C11.1425 7.06003 9.7925 6.88003 8.7025 7.38003L10.6425 9.32003L9.2925 10.68L7.3025 8.73003C6.7625 9.82003 7.0125 11.17 7.8925 12.08C8.7525 12.94 9.9725 13.16 11.0125 12.76L15.1225 16.86C15.3025 17.05 15.5725 17.05 15.7525 16.86L16.7925 15.83C17.0125 15.65 17.0125 15.33 16.8325 15.19Z" fill="#F04338"/>
</svg>
