<svg width="24" height="24" viewBox="0 0 24 24" fill="none" xmlns="http://www.w3.org/2000/svg">
<path d="M13 11C13.5933 11 14.1734 10.8241 14.6667 10.4944C15.1601 10.1648 15.5446 9.69623 15.7716 9.14805C15.9987 8.59987 16.0581 7.99667 15.9424 7.41473C15.8266 6.83279 15.5409 6.29824 15.1213 5.87868C14.7018 5.45912 14.1672 5.1734 13.5853 5.05765C13.0033 4.94189 12.4001 5.0013 11.852 5.22836C11.3038 5.45543 10.8352 5.83994 10.5056 6.33329C10.1759 6.82664 10 7.40666 10 8C10 8.79565 10.3161 9.55871 10.8787 10.1213C11.4413 10.6839 12.2044 11 13 11ZM13 7C13.1978 7 13.3911 7.05865 13.5556 7.16853C13.72 7.27841 13.8482 7.43459 13.9239 7.61732C13.9996 7.80004 14.0194 8.00111 13.9808 8.19509C13.9422 8.38907 13.847 8.56726 13.7071 8.70711C13.5673 8.84696 13.3891 8.9422 13.1951 8.98079C13.0011 9.01937 12.8 8.99957 12.6173 8.92388C12.4346 8.84819 12.2784 8.72002 12.1685 8.55557C12.0586 8.39112 12 8.19778 12 8C12 7.73479 12.1054 7.48043 12.2929 7.29289C12.4804 7.10536 12.7348 7 13 7ZM17.11 10.86C17.6951 10.021 18.0087 9.02282 18.0087 8C18.0087 6.97718 17.6951 5.97897 17.11 5.14C17.3976 5.04741 17.6979 5.00018 18 5C18.7957 5 19.5587 5.31607 20.1213 5.87868C20.6839 6.44129 21 7.20435 21 8C21 8.79565 20.6839 9.55871 20.1213 10.1213C19.5587 10.6839 18.7957 11 18 11C17.6979 10.9998 17.3976 10.9526 17.11 10.86ZM13 13C7 13 7 17 7 17V18C7 18.5523 7.44772 19 8 19H18C18.5523 19 19 18.5523 19 18V17C19 17 19 13 13 13ZM9 17C9 16.71 9.32 15 13 15C16.5 15 16.94 16.56 17 17M24 17V18C24 18.5523 23.5523 19 23 19H22C21.4477 19 21 18.5523 21 18V17C20.9766 16.2566 20.8054 15.5254 20.4964 14.8489C20.1873 14.1724 19.7466 13.5643 19.2 13.06C24 13.55 24 17 24 17Z" fill="#F04338"/>
<path d="M3.288 14.712C3.47933 14.904 3.71667 15 4 15C4.28333 15 4.52067 14.904 4.712 14.712C4.904 14.5207 5 14.2833 5 14V12H7C7.28333 12 7.52067 11.9043 7.712 11.713C7.904 11.521 8 11.2833 8 11C8 10.7167 7.904 10.479 7.712 10.287C7.52067 10.0957 7.28333 10 7 10H5V8C5 7.71667 4.904 7.479 4.712 7.287C4.52067 7.09567 4.28333 7 4 7C3.71667 7 3.47933 7.09567 3.288 7.287C3.096 7.479 3 7.71667 3 8V10H1C0.716667 10 0.479333 10.0957 0.288 10.287C0.0960001 10.479 0 10.7167 0 11C0 11.2833 0.0960001 11.521 0.288 11.713C0.479333 11.9043 0.716667 12 1 12H3V14C3 14.2833 3.096 14.5207 3.288 14.712Z" fill="#F04338"/>
</svg>
