<svg width="136" height="31" viewBox="0 0 136 31" fill="none" xmlns="http://www.w3.org/2000/svg">
<path d="M6.40467 1.86447C6.40467 1.86447 4.82855 3.44756 5.00158 5.31602C5.43531 6.03114 6.5586 7.079 7.24964 7.56447C6.6181 5.89392 6.32387 3.97382 6.40467 1.86447V1.86447ZM2.12298 2.20845C0.253027 6.78517 1.20994 10.3156 3.95601 12.519L3.94158 12.5474C1.73233 16.7996 1.86218 22.1234 4.58606 25.7222L4.60039 25.7361C5.03074 26.3032 5.51263 26.8314 6.04676 27.3118C9.56308 30.4738 14.4383 30.7812 18.7488 28.6435C13.8514 30.6203 7.14944 28.8868 7.14944 23.5168C7.14944 20.1927 10.04 16.9648 13.9085 15.6262C14.8336 15.2958 15.6094 14.6719 16.1427 13.8647L22.1285 14.8958L16.8587 11.8459C16.875 11.6885 16.8875 11.5349 16.8875 11.3732C16.8875 8.88567 14.8787 6.86218 12.3907 6.86218C11.6243 6.86218 10.8313 6.96358 10.028 7.20616C9.02208 7.50935 8.10945 7.88477 7.24964 8.4802C4.67313 6.58467 2.94736 4.20706 2.12298 2.20845V2.20845ZM12.3907 10.5477C12.844 10.5477 13.2163 10.92 13.2163 11.3732C13.2163 11.7307 12.9789 12.041 12.6609 12.154C12.575 12.1848 12.4872 12.1995 12.3907 12.1995C11.9372 12.1995 11.5649 11.8268 11.5649 11.3736C11.5649 10.92 11.9372 10.5481 12.3907 10.5481V10.5477" fill="#276CB4"/>
<path d="M28.9894 12.0379L23.1467 8.67271C22.9718 8.57121 22.772 8.53121 22.5882 8.54365C22.5271 8.54793 22.4755 8.55649 22.4164 8.57201C22.1813 8.63539 21.9788 8.78265 21.8434 9.01629L19.2984 13.4274L22.3503 14.7377H18.5424L15.5142 19.9856C15.244 20.4533 15.391 21.0336 15.8578 21.3033L21.7005 24.6829C22.1672 24.9522 22.7336 24.7921 23.0033 24.3245L29.3473 13.3556C29.6171 12.8879 29.4566 12.3072 28.9894 12.0379" fill="#F04338"/>
<path d="M16.6856 -0.000362948C14.6992 -0.000362948 12.664 0.534863 10.7501 1.54889C11.7774 1.19327 12.802 1.01367 13.7923 1.01367C16.2636 1.01367 18.5238 2.13039 20.087 4.41267C20.6604 5.24959 21.1163 6.19327 21.433 7.20541C21.7172 7.08879 22.0219 7.03048 22.3289 7.03048C22.4265 7.03048 22.5241 7.03596 22.6217 7.048C22.9225 7.08412 23.2191 7.17427 23.4954 7.33407L27.6053 9.71118C27.0646 6.98929 25.7832 4.52272 23.7815 2.72272C21.8112 0.950781 19.4201 0.0591397 16.9368 0.00232381C16.8532 0.000433266 16.7692 -0.000362948 16.6856 -0.000362948" fill="#ED9048"/>
<path d="M41.7335 22.2185L36.9231 7.74824H40.6407L43.644 17.1376L46.9362 7.74824H50.7469L53.6858 17.0872L57.0434 7.74824H60.7933L55.3594 22.2185H51.7857L48.7539 12.7971L45.3463 22.2185H41.7335ZM66.681 22.2185H63.1908V7.74818H66.681V22.2185ZM76.3124 22.2185H69.9121V7.77084L76.3124 7.74824C76.3338 7.74824 76.3539 7.74824 76.3732 7.74824C77.5182 7.74091 78.5631 7.91863 79.51 8.27893C80.4739 8.63893 81.2788 9.14122 81.9231 9.78519C82.5671 10.4307 83.0645 11.194 83.415 12.0789C83.7683 12.9663 83.946 13.929 83.946 14.9678C83.946 16.3586 83.6263 17.605 82.9857 18.7058C82.3442 19.8081 81.4425 20.6679 80.2782 21.2881C79.1152 21.9082 77.7924 22.2185 76.3124 22.2185V22.2185ZM73.4019 10.9901V18.9873H76.3124C77.5313 18.9873 78.5188 18.6188 79.2764 17.8805C80.0361 17.1421 80.4153 16.1711 80.4153 14.9678C80.4153 13.6927 80.0468 12.711 79.3084 12.0218C78.5701 11.3336 77.572 10.9901 76.3124 10.9901H73.4019ZM97.4813 22.2185H86.397V7.74824H97.4813V10.9901H89.8883V13.471H96.2263V16.4957H89.8883V18.9873H97.4813V22.2185ZM103.798 22.2185H100.308V7.74824H111.392V10.9901H103.798V14.3034H110.134V17.5131H103.798V22.2185ZM117.602 22.2185H114.111V7.74818H117.602V22.2185ZM125.082 15.1336L119.981 9.98092L122.466 7.5L127.574 12.642L132.832 7.5L135.313 9.9629L130.016 15.1766L134.848 19.987L132.324 22.5L127.553 17.6466L122.725 22.4557L120.229 19.9214L125.082 15.1336Z" fill="#276CB4"/>
</svg>
