<svg width="69" height="65" viewBox="0 0 69 65" fill="none" xmlns="http://www.w3.org/2000/svg">
<path fill-rule="evenodd" clip-rule="evenodd" d="M38.0228 6.03819C43.507 4.01579 48.9688 -0.558995 54.6912 0.898606C60.1187 2.28109 61.6959 8.41095 64.2905 12.7291C66.5111 16.4247 68.2109 20.3112 68.8331 24.4347C69.4035 28.2149 68.3785 31.933 67.7579 35.7074C67.154 39.3801 67.7213 43.4768 65.2059 46.4932C62.6895 49.5106 57.0833 49.3398 54.1296 52.0496C50.3169 55.5476 51.0314 62.7112 45.7744 64.3205C40.8562 65.826 36.1005 61.2218 31.6026 58.9455C27.9522 57.0981 25.5167 53.9339 21.7997 52.1871C17.4721 50.1534 11.3113 51.0521 8.04836 47.8762C4.89465 44.8067 4.76493 40.0679 5.15822 35.9896C5.53275 32.1058 9.54025 29.1277 10.2278 25.2755C11.0732 20.5394 5.64646 14.4465 9.60632 11.0688C13.6943 7.58178 21.0633 12.2172 26.7084 11.2178C30.9411 10.4685 34.0521 7.50246 38.0228 6.03819Z" fill="#E3ECF6"/>
<g clip-path="url(#clip0_215_17657)">
<path d="M9.86945 41.4505V22.033H54.1618V41.4505C54.1618 45.1944 51.1159 48.2403 47.372 48.2403H16.6592C12.9153 48.2403 9.86945 45.1944 9.86945 41.4505Z" fill="#FCEDED"/>
<path d="M9.86945 22.0328V20.8906C9.86945 17.1467 12.9153 14.1008 16.6592 14.1008H47.3085C51.0524 14.1008 54.0983 17.1467 54.0983 20.8906V22.0328H9.86945Z" fill="#E26464"/>
<path d="M47.3085 48.748H16.6592C12.5981 48.748 9.3618 45.4482 9.3618 41.4505V40.9429C9.3618 40.689 9.55216 40.4352 9.86944 40.4352C10.1233 40.4352 10.3771 40.6256 10.3771 40.9429V41.4505C10.3771 44.9406 13.2326 47.7961 16.7227 47.7961H47.372C50.8621 47.7961 53.7176 44.9406 53.7176 41.4505V20.8907C53.7176 17.4006 50.8621 14.5451 47.372 14.5451H16.6592C13.1692 14.5451 10.3136 17.4006 10.3136 20.8907V35.8664C10.3136 36.1202 10.1233 36.374 9.80599 36.374C9.55216 36.374 9.29834 36.1836 9.29834 35.8664V20.8907C9.3618 16.893 12.5981 13.6567 16.6592 13.6567H47.3085C51.3063 13.6567 54.606 16.893 54.606 20.9542V41.514C54.606 45.4482 51.3063 48.748 47.3085 48.748Z" fill="#2E3C56"/>
<path d="M54.0984 22.5404H9.86947C9.55218 22.5404 9.36182 22.2866 9.36182 22.0328C9.36182 21.779 9.55218 21.5251 9.86947 21.5251H54.1618C54.4156 21.5251 54.6695 21.7155 54.6695 22.0328C54.606 22.2866 54.3522 22.5404 54.0984 22.5404Z" fill="#2E3C56"/>
<path d="M14.5018 46.0826V26.665H58.7941V46.0826C58.7941 49.8265 55.7482 52.8724 52.0043 52.8724H21.2916C17.5477 52.9359 14.5018 49.8265 14.5018 46.0826Z" fill="white"/>
<path d="M34.6173 19.2409H28.1448C27.891 19.2409 27.6371 19.0505 27.6371 18.7332C27.6371 18.4794 27.8275 18.2256 28.1448 18.2256H34.5539C34.8077 18.2256 35.0615 18.416 35.0615 18.7332C35.0615 19.0505 34.8711 19.2409 34.6173 19.2409Z" fill="#2E3C56"/>
<path d="M36.8383 27.1728H14.5017C14.2479 27.1728 14.0576 26.9824 14.0576 26.6651C14.0576 26.4113 14.2479 26.1575 14.5017 26.1575H36.8383C37.0921 26.1575 37.3459 26.3478 37.3459 26.6651C37.2825 26.9824 37.0921 27.1728 36.8383 27.1728Z" fill="#2E3C56"/>
<path d="M14.4383 26.3478C14.4383 22.4928 17.5634 19.3677 21.4185 19.3677H51.8774C55.7324 19.3677 58.8576 22.4928 58.8576 26.3478H14.4383Z" fill="#D9D9D9"/>
<path d="M51.9408 53.3803H21.2915C17.2938 53.3803 13.9941 50.144 13.9941 46.0828V25.5865C13.9941 21.5888 17.2303 18.2891 21.2915 18.2891H23.1318C23.3856 18.2891 23.6394 18.4794 23.6394 18.7967C23.6394 19.0505 23.449 19.3044 23.1318 19.3044H21.2915C17.8014 19.3044 14.9459 22.1599 14.9459 25.65V46.2097C14.9459 49.6998 17.8014 52.5554 21.2915 52.5554H51.9408C55.4309 52.5554 58.2864 49.6998 58.2864 46.2097V37.3893C58.2864 37.1355 58.4768 36.8817 58.7941 36.8817C59.0479 36.8817 59.3017 37.0721 59.3017 37.3893V46.0828C59.2383 50.144 56.002 53.3803 51.9408 53.3803Z" fill="#2E3C56"/>
<path d="M58.7941 32.8205C58.5402 32.8205 58.2864 32.6301 58.2864 32.3128V25.5865C58.2864 22.0964 55.4309 19.2409 51.9408 19.2409H39.6303C39.3765 19.2409 39.1227 19.0505 39.1227 18.7332C39.1227 18.4794 39.313 18.2256 39.6303 18.2256H51.9408C55.9385 18.2256 59.2383 21.4618 59.2383 25.523V32.3128C59.2383 32.6301 59.0479 32.8205 58.7941 32.8205Z" fill="#2E3C56"/>
<path d="M61.2863 30.8745H55.6411V32.8368H61.2863V30.8745Z" fill="#7EB9E7"/>
<path d="M58.8108 14.3462V22.7085C58.9014 22.7386 59.0222 22.799 59.0825 22.8896C59.4146 23.2217 59.4146 23.7952 59.0825 24.1575C58.7203 24.5198 58.1769 24.5198 57.8146 24.1575C57.4825 23.8254 57.4825 23.2519 57.8146 22.8896C57.9052 22.799 57.9957 22.7386 58.0863 22.7085V14.3462L52.5014 24.0066L52.5316 24.0669C54.4335 24.5198 55.8222 26.1802 55.8222 28.1726C55.8222 28.5952 55.7618 28.9877 55.641 29.3802H61.2561C61.1354 28.9877 61.075 28.5952 61.075 28.1726C61.075 26.15 62.4939 24.4896 64.3656 24.0669L64.3957 24.0066L58.8108 14.3462Z" fill="#7EB9E7"/>
<path d="M61.4221 33.3801H55.4448V31.116H61.3919V33.3801H61.4221ZM55.7466 33.0782H61.09V31.4179H55.7466V33.0782Z" fill="#2E3C56"/>
<path fill-rule="evenodd" clip-rule="evenodd" d="M55.2848 33.5402V30.9561H61.552V33.3802H61.4221V33.5402H55.2848ZM61.392 33.3802V31.1161H55.4448V33.3802H61.392ZM61.0901 33.0783H55.7467V31.4179H61.0901V33.0783ZM60.9301 31.5779H55.9067V32.9183H60.9301V31.5779Z" fill="#2E3C56"/>
<path d="M61.4221 29.9236H55.4146L55.475 29.7425C55.5957 29.35 55.6561 28.9878 55.6561 28.5953C55.6561 26.6934 54.358 25.0934 52.5165 24.6406H52.4561L52.3353 24.4595L58.2523 14.2255V23.2519L58.1617 23.2821C58.0712 23.3123 58.0108 23.3727 57.9202 23.433C57.6183 23.7349 57.6183 24.1878 57.9202 24.4897C58.2221 24.7915 58.6749 24.7915 58.9768 24.4897C59.1278 24.3387 59.1882 24.1576 59.1882 23.9764C59.1882 23.7651 59.0976 23.584 58.9768 23.4632C58.9165 23.4029 58.8259 23.3425 58.7353 23.3123L58.6448 23.2821V14.1953L64.5617 24.4293L64.4712 24.6104H64.4108C62.5693 25.0029 61.241 26.6632 61.241 28.5651C61.241 28.9576 61.3014 29.35 61.4221 29.7123V29.9236ZM55.807 29.6217H60.9995C60.9089 29.2896 60.8787 28.9274 60.8787 28.5651C60.8787 26.5727 62.2372 24.8519 64.1391 24.3387L58.9165 15.2821V22.9802C59.007 23.0406 59.0674 23.101 59.158 23.1613C59.3693 23.3727 59.4599 23.6142 59.4599 23.8859C59.4599 24.1576 59.3391 24.4293 59.158 24.6104C58.7655 25.0029 58.1014 25.0029 57.6787 24.6104C57.2863 24.218 57.2863 23.5538 57.6787 23.1312C57.7391 23.0708 57.8297 23.0104 57.9202 22.95V15.3123L52.6976 24.3689C54.5995 24.8821 55.9278 26.5727 55.9278 28.5651C55.9278 28.9274 55.8976 29.2896 55.807 29.6217Z" fill="#2E3C56"/>
<path fill-rule="evenodd" clip-rule="evenodd" d="M61.5821 30.0836H55.1926L55.3226 29.6936C55.4389 29.3151 55.4961 28.9692 55.4961 28.5953C55.4961 26.7759 54.2594 25.2426 52.4969 24.8006H52.3705L52.147 24.4654L58.4123 13.6291V23.3672L58.2123 23.4339C58.188 23.442 58.1647 23.4549 58.1327 23.4773C58.1252 23.4826 58.1133 23.4913 58.0992 23.5017C58.0766 23.5183 58.0483 23.5391 58.0234 23.5564C57.794 23.7955 57.7974 24.1405 58.0334 24.3765C58.2728 24.6159 58.6243 24.6159 58.8637 24.3765C58.9815 24.2587 59.0282 24.1198 59.0282 23.9764C59.0282 23.8115 58.9574 23.67 58.8637 23.5763C58.8188 23.5314 58.7491 23.4855 58.6847 23.464L58.4848 23.3974V13.5989L64.7434 24.4237L64.5701 24.7704H64.4278C62.67 25.1531 61.401 26.743 61.401 28.5651C61.401 28.9415 61.4589 29.3168 61.5739 29.6617L61.5821 29.6863V30.0836ZM64.4108 24.6104H64.4712L64.5617 24.4292L58.6448 14.1953V23.2821L58.7353 23.3123C58.8259 23.3424 58.9165 23.4028 58.9768 23.4632C59.0976 23.5839 59.1882 23.7651 59.1882 23.9764C59.1882 24.1575 59.1278 24.3387 58.9768 24.4896C58.6749 24.7915 58.2221 24.7915 57.9202 24.4896C57.6183 24.1877 57.6183 23.7349 57.9202 23.433C57.9473 23.415 57.9716 23.397 57.9949 23.3798C58.0495 23.3393 58.0982 23.3032 58.1617 23.2821L58.2523 23.2519V14.2255L52.3353 24.4594L52.4561 24.6406H52.5165C54.358 25.0934 55.6561 26.6934 55.6561 28.5953C55.6561 28.9877 55.5957 29.35 55.4749 29.7424L55.4146 29.9236H61.4221V29.7123C61.3014 29.35 61.241 28.9575 61.241 28.5651C61.241 26.6632 62.5693 25.0028 64.4108 24.6104ZM58.9165 22.9802C58.9617 23.0104 58.9995 23.0406 59.0372 23.0707C59.0749 23.1009 59.1127 23.1311 59.158 23.1613C59.3693 23.3726 59.4599 23.6141 59.4599 23.8858C59.4599 24.1575 59.3391 24.4292 59.158 24.6104C58.7655 25.0028 58.1014 25.0028 57.6787 24.6104C57.2863 24.2179 57.2863 23.5538 57.6787 23.1311C57.7391 23.0707 57.8297 23.0104 57.9202 22.95V15.3123L52.6976 24.3689C52.7508 24.3832 52.8036 24.3985 52.8559 24.4147C54.6728 24.9769 55.9278 26.6284 55.9278 28.5651C55.9278 28.8699 55.9064 29.1748 55.8456 29.4617C55.8342 29.5157 55.8214 29.5691 55.807 29.6217H60.9995C60.9851 29.5691 60.9723 29.5157 60.9609 29.4617C60.9001 29.1748 60.8787 28.8699 60.8787 28.5651C60.8787 26.6283 62.1623 24.9483 63.9808 24.3845C64.0332 24.3683 64.0859 24.353 64.1391 24.3387L58.9165 15.2821V22.9802ZM59.0765 15.8798L63.899 24.2425C62.0335 24.837 60.7187 26.5686 60.7187 28.5651C60.7187 28.865 60.7389 29.17 60.7975 29.4617H56.009C56.0676 29.17 56.0878 28.865 56.0878 28.5651C56.0878 26.569 54.8015 24.8654 52.9377 24.2727L57.7602 15.91V22.8647C57.6919 22.9113 57.6201 22.9635 57.5656 23.018L57.5615 23.0222C57.1142 23.5039 57.1084 24.2664 57.5656 24.7235L57.5698 24.7276C58.0515 25.1749 58.814 25.1806 59.2711 24.7235C59.4808 24.5138 59.6199 24.2019 59.6199 23.8858C59.6199 23.5733 59.5135 23.2906 59.2711 23.0482L59.2599 23.037L59.2467 23.0282C59.208 23.0024 59.1753 22.9763 59.1372 22.9458L59.1355 22.9445C59.1173 22.9299 59.0977 22.9143 59.0765 22.8981V15.8798Z" fill="#2E3C56"/>
<path d="M27.7641 37.9602H20.0859V38.8486H27.7641V37.9602Z" fill="#FFEEDE"/>
<path d="M29.985 44.877H20.0859V45.7653H29.985V44.877Z" fill="#FFEEDE"/>
<path d="M37.4729 42.5925H22.4338V43.4809H37.4729V42.5925Z" fill="#98B5EE"/>
<path d="M27.7006 40.2446H22.4338V41.133H27.7006V40.2446Z" fill="#6088CC"/>
<path d="M45.6587 40.2446H40.3918V41.133H45.6587V40.2446Z" fill="#98B5EE"/>
<path d="M53.1465 40.2446H46.6105V41.133H53.1465V40.2446Z" fill="#F77F7F"/>
<path d="M39.3766 40.2446H28.7159V41.133H39.3766V40.2446Z" fill="#F77F7F"/>
<path d="M27.7006 47.1614H22.4338V48.0498H27.7006V47.1614Z" fill="#98B5EE"/>
<path d="M33.2213 47.1614H28.7159V48.0498H33.2213V47.1614Z" fill="#F77F7F"/>
<path d="M44.9607 47.1614H34.1732V48.0498H44.9607V47.1614Z" fill="#98B5EE"/>
<path d="M53.1465 47.1614H45.9125V48.0498H53.1465V47.1614Z" fill="#6088CC"/>
<path d="M28.9937 37.6068L23.9567 32.7635L28.9937 27.9202H31.3185L26.4752 32.7635L31.5123 37.6068H28.9937Z" fill="#2E3C56"/>
<path d="M40.8113 20.7522L34.9993 44.0002H33.062L38.6803 20.7522H40.8113Z" fill="#2E3C56"/>
<path d="M42.1676 27.9202H44.4924L49.5295 32.7635L44.4924 37.6068H42.1676L47.2047 32.7635L42.1676 27.9202Z" fill="#2E3C56"/>
</g>
<defs>
<clipPath id="clip0_215_17657">
<rect width="56" height="40" fill="white" transform="translate(9.36182 13.3801)"/>
</clipPath>
</defs>
</svg>
