<svg width="70" height="65" viewBox="0 0 70 65" fill="none" xmlns="http://www.w3.org/2000/svg">
<path fill-rule="evenodd" clip-rule="evenodd" d="M34.4119 0.624379C40.041 0.383386 43.9172 6.0647 49.1031 8.26731C55.7194 11.0775 66.7884 8.48931 69.0186 15.323C71.3688 22.5242 61.0977 27.722 57.6542 34.4691C55.566 38.5605 54.7166 42.8921 52.8143 47.0731C50.1076 53.0222 50.2316 61.8774 44.1246 64.2058C38.1635 66.4785 32.974 58.6645 26.8197 56.9839C20.4853 55.2541 11.924 59.3003 7.71256 54.2624C3.48009 49.1994 8.43771 41.4745 8.33868 34.8761C8.25583 29.3558 4.79214 23.6688 7.17868 18.6904C9.56044 13.7219 15.9159 12.5374 20.5074 9.49156C25.1829 6.38993 28.8063 0.864366 34.4119 0.624379Z" fill="#E3ECF6"/>
<g clip-path="url(#clip0_215_17869)">
<path d="M48.8941 9.07275C51.7844 15.9373 56.3607 17.3824 60.2145 17.6233C59.7328 35.4469 52.7478 48.2125 38.7779 56.4018C24.808 48.2125 17.8231 35.4469 17.3414 17.7437C21.1951 17.5029 25.7715 16.0577 28.6618 9.19318H48.8941V9.07275ZM54.3134 22.1996C54.3134 21.3566 53.5908 20.634 52.7478 20.634C50.2188 20.634 48.4123 20.3932 47.0876 16.5394C46.9672 15.8168 46.365 15.4556 45.6424 15.4556H31.9134C31.1908 15.4556 30.5887 15.9373 30.4683 16.5394C29.1435 20.2728 27.3371 20.634 24.808 20.634C23.965 20.634 23.2424 21.3566 23.2424 22.1996C23.2424 28.462 24.4467 33.8814 26.8553 38.3373C29.2639 42.7932 32.9973 46.4061 37.9349 49.176C38.1758 49.2964 38.4166 49.4168 38.6575 49.4168C38.8984 49.4168 39.2596 49.2964 39.3801 49.176C49.4962 43.5158 54.3134 34.7244 54.3134 22.1996Z" fill="#FFD566"/>
<path d="M51.664 21.7181C49.0145 21.7181 46.2446 21.3568 44.679 16.6601C44.679 16.6601 44.679 16.5396 44.5586 16.5396H30.7091C30.7091 16.5396 30.5887 16.5396 30.5887 16.6601C29.0231 21.3568 26.2532 21.7181 23.6037 21.7181C23.6037 21.7181 23.4833 21.7181 23.4833 21.8386C23.4833 33.8816 28.0597 42.1913 37.5736 47.6106C47.0876 42.3117 51.7844 33.8816 51.664 21.7181C51.7844 21.8386 51.664 21.7181 51.664 21.7181ZM53.2295 21.8386C53.2295 34.3633 48.4123 43.2751 38.4166 48.8149C38.1758 48.9353 37.9349 49.0558 37.6941 49.0558C37.4532 49.0558 37.2123 48.9353 36.9715 48.8149C32.0339 46.045 28.3005 42.4321 25.8919 37.9762C23.4833 33.5203 22.279 28.1009 22.279 21.8386C22.0382 20.9956 22.7607 20.273 23.6037 20.273C26.1328 20.273 27.9392 20.0321 29.264 16.1784C29.5048 15.5762 30.107 15.0945 30.7091 15.0945H44.4382C45.1607 15.0945 45.7629 15.5762 45.8833 16.1784C47.208 19.9117 49.0145 20.273 51.5435 20.273C52.507 20.273 53.2295 20.9956 53.2295 21.8386Z" fill="#1C2F42"/>
<path d="M60.5758 16.7803C60.2145 35.6878 52.8682 49.0555 37.9349 57.6061C37.8145 57.7265 37.694 57.7265 37.5736 57.7265C37.4532 57.7265 37.3328 57.7265 37.2123 57.6061C22.3994 49.0555 15.0532 35.6878 14.6919 16.7803C14.6919 16.419 14.9328 16.0577 15.4145 16.0577C19.5091 15.9373 23.6037 14.733 26.3736 7.86844C26.494 7.62758 26.7349 7.38672 27.0962 7.38672H48.2919C48.6532 7.38672 48.894 7.62758 49.0145 7.86844C51.6639 14.733 55.879 15.8168 59.9736 16.0577C60.2145 16.0577 60.5758 16.2985 60.5758 16.7803ZM59.0102 17.3824C55.1564 17.1416 50.5801 15.6964 47.6897 8.83188H27.4575C24.5672 15.6964 19.9908 17.1416 16.1371 17.3824C16.6188 35.2061 23.6037 47.8512 37.5736 56.0405C51.5435 47.8512 58.5285 35.2061 59.0102 17.3824Z" fill="#1C2F42"/>
<path d="M61.1779 13.2879C62.3822 13.2879 63.2252 14.2514 63.2252 15.3352C63.2252 36.2901 55.1564 50.9825 38.5371 60.3761C38.4166 60.3761 38.4166 60.4965 38.2962 60.4965C38.1758 60.4965 38.1758 60.6169 38.0553 60.6169C37.8145 60.6169 37.694 60.7374 37.5736 60.7374C37.4532 60.7374 37.2123 60.7374 37.0919 60.6169C36.9715 60.6169 36.851 60.4965 36.851 60.4965C36.7306 60.4965 36.7306 60.4965 36.6102 60.3761C36.4897 60.2557 22.1586 49.6578 18.0639 42.1911C13.9693 34.8449 11.922 25.9331 11.922 15.3352C11.922 14.1309 12.8854 13.2879 13.9693 13.2879C18.1844 13.2879 21.6768 12.8062 23.965 6.0621C24.3263 5.21909 25.1693 4.61694 26.0123 4.61694H49.2553C50.0983 4.61694 50.9414 5.21909 51.1822 6.0621C53.4704 12.8062 56.9629 13.2879 61.1779 13.2879ZM38.0553 59.0514C54.0725 50.0191 61.9005 35.8083 61.9005 15.3352C61.9005 14.9739 61.6596 14.7331 61.2983 14.7331C56.8424 14.7331 52.5069 14.1309 49.8575 6.54383C49.7371 6.30296 49.4962 6.0621 49.2553 6.0621H26.0123C25.7715 6.0621 25.5306 6.18253 25.4102 6.54383C22.7607 14.1309 18.5457 14.7331 13.9693 14.7331C13.608 14.7331 13.3672 14.9739 13.3672 15.3352C13.3672 35.6879 21.1951 50.0191 37.2123 59.0514H37.3328H37.4532C37.5736 59.0514 37.694 59.0514 37.694 59.0514C37.8145 59.1718 37.9349 59.1718 38.0553 59.0514C37.9349 59.0514 37.9349 59.0514 38.0553 59.0514Z" fill="#1C2F42"/>
<path d="M36.3111 25.48C36.7299 24.1896 38.5556 24.1896 38.9744 25.4801L39.8792 28.2682C40.0665 28.8453 40.6041 29.236 41.2108 29.236H44.1425C45.4983 29.236 46.0625 30.9706 44.9661 31.7682L42.5914 33.4955C42.1013 33.852 41.8962 34.4834 42.0833 35.0598L42.9897 37.8526C43.4084 39.1428 41.9314 40.2148 40.8345 39.417L38.4663 37.6943C37.9753 37.3372 37.3102 37.3372 36.8192 37.6943L34.451 39.417C33.3541 40.2148 31.8771 39.1428 32.2958 37.8526L33.2022 35.0598C33.3892 34.4834 33.1842 33.852 32.6941 33.4955L30.3194 31.7682C29.223 30.9706 29.7872 29.236 31.143 29.236H34.0746C34.6813 29.236 35.219 28.8453 35.4063 28.2682L36.3111 25.48Z" fill="#ED9048"/>
<path d="M33.2991 40.2443C32.3635 40.2443 31.5616 39.5083 31.5616 38.5716C31.5616 38.4378 31.5616 38.3709 31.5616 38.2371L32.2299 34.3566L29.4232 31.6134C28.7549 30.9444 28.7549 29.8739 29.4232 29.2048C29.6905 28.9372 30.0246 28.7365 30.3588 28.7365L32.4303 28.402C32.6977 28.3351 32.965 28.5358 32.965 28.8034C33.0318 29.071 32.8313 29.3387 32.564 29.3387L30.4924 29.6732C30.2251 29.6732 30.0246 29.8739 29.9578 30.1415C29.891 30.4091 29.9578 30.6768 30.1583 30.8775L33.1654 33.8213C33.2991 33.9551 33.3659 34.0889 33.2991 34.2897L32.564 38.4378C32.4972 38.7054 32.6308 38.9731 32.8313 39.1069C33.0318 39.2407 33.3659 39.3076 33.5664 39.1738L37.2418 37.2335C37.3755 37.1666 37.5759 37.1666 37.7096 37.2335L41.385 39.1738C41.5855 39.3076 41.9196 39.3076 42.1201 39.1069C42.3206 38.9731 42.4542 38.7054 42.3874 38.4378L41.7191 34.2897C41.7191 34.1559 41.7191 33.9551 41.8528 33.8213L44.8599 30.8775C45.0604 30.6768 45.1272 30.4091 45.0604 30.1415C44.9936 29.8739 44.7931 29.6732 44.5258 29.6732L40.3826 29.071C40.249 29.071 40.0485 28.9372 39.9817 28.8034L38.1105 25.0567C37.9101 24.7222 37.4423 24.5884 37.1082 24.7891C36.9745 24.856 36.9077 24.9229 36.8408 25.0567L36.3731 26.0603C36.2394 26.3279 35.9721 26.3948 35.7048 26.261C35.4375 26.1272 35.3707 25.8596 35.5043 25.5919L35.9721 24.5884C36.3731 23.7186 37.3755 23.384 38.2442 23.7855C38.5783 23.9193 38.8456 24.2538 39.0461 24.5884L40.7836 28.1343L44.6595 28.6696C45.595 28.8034 46.1965 29.6732 46.0628 30.6099C45.996 31.0113 45.8623 31.3458 45.595 31.6134L42.7883 34.3566L43.4566 38.2371C43.6571 39.1738 43.0556 40.0435 42.1201 40.2443C41.7191 40.3112 41.3182 40.2443 40.9172 40.0435L37.4423 38.2371L34.0342 40.0435C33.8337 40.1774 33.5664 40.2443 33.2991 40.2443Z" fill="#1C2F42"/>
</g>
<defs>
<clipPath id="clip0_215_17869">
<rect width="51.4237" height="56" fill="white" transform="translate(11.922 4.61694)"/>
</clipPath>
</defs>
</svg>
