<svg width="41" height="41" viewBox="0 0 41 41" fill="none" xmlns="http://www.w3.org/2000/svg">
<path fill-rule="evenodd" clip-rule="evenodd" d="M19.5003 14.6315C19.9759 22.1713 25.9859 28.1813 33.5257 28.6569C34.0661 28.6433 34.5 28.2009 34.5 27.6572V24.3343L30.9193 22.902L29.8575 24.6717C29.5897 25.118 29.0244 25.2843 28.5577 25.0541C26.1887 23.8858 24.2715 21.9685 23.1031 19.5995C22.8729 19.1328 23.0392 18.5675 23.4855 18.2997L25.2552 17.2379L23.823 13.6572H20.5C19.9563 13.6572 19.514 14.0911 19.5003 14.6315ZM17.5 14.6572C17.5 13.0004 18.8431 11.6572 20.5 11.6572H24.5C24.9089 11.6572 25.2766 11.9062 25.4285 12.2858L27.4285 17.2858C27.6108 17.7416 27.4354 18.2622 27.0145 18.5147L25.3405 19.5191C26.1644 20.8627 27.2945 21.9929 28.6381 22.8167L29.6425 21.1427C29.895 20.7219 30.4157 20.5465 30.8714 20.7288L35.8714 22.7288C36.251 22.8806 36.5 23.2483 36.5 23.6572V27.6572C36.5 29.3141 35.1569 30.6572 33.5 30.6572C33.4798 30.6572 33.4595 30.6566 33.4393 30.6554C24.8625 30.1342 18.0231 23.2948 17.5018 14.7179C17.5006 14.6977 17.5 14.6775 17.5 14.6572Z" fill="#FAFAFA"/>
<path opacity="0.1" fill-rule="evenodd" clip-rule="evenodd" d="M40.1122 19.6653C40.0213 23.4045 37.639 26.4892 35.6721 29.6706C33.5252 33.1431 32.0537 37.7001 28.1748 38.9737C24.2946 40.2478 20.5254 37.1131 16.6173 35.9273C12.6022 34.7091 7.97116 34.9079 5.00233 31.943C1.82652 28.7714 -0.647758 24.045 0.333645 19.6653C1.29776 15.3628 6.72713 14.0503 9.73432 10.8256C12.2068 8.17441 12.949 3.8265 16.3284 2.51418C19.7495 1.18565 23.4724 2.95436 26.9449 4.14223C30.3611 5.31086 33.8313 6.54718 36.1669 9.30061C38.6182 12.1905 40.2042 15.877 40.1122 19.6653Z" fill="#E3ECF6"/>
</svg>
