<svg width="232" height="128" viewBox="0 0 232 128" fill="none" xmlns="http://www.w3.org/2000/svg">
<g opacity="0.2">
<path d="M172.889 52.1037C172.535 52.1037 172.181 51.9266 172.181 51.5725C172.004 51.2183 172.181 50.6871 172.535 50.51C174.66 49.6246 176.785 48.5622 178.733 47.4997C179.087 47.3226 179.618 47.4997 179.972 47.8539C180.149 48.208 179.972 48.7392 179.618 49.0934C177.493 50.1558 175.368 51.2183 173.243 52.1037C173.066 51.9267 173.066 52.1037 172.889 52.1037ZM185.285 45.7289C184.931 45.7289 184.753 45.5518 184.576 45.3747C184.399 45.0206 184.399 44.4894 184.931 44.1352C186.878 43.0727 188.826 41.8332 190.774 40.5936C191.128 40.4166 191.66 40.4166 192.014 40.7707C192.191 41.1249 192.191 41.6561 191.837 42.0103C189.889 43.2498 187.941 44.4893 185.816 45.5518C185.639 45.7289 185.462 45.7289 185.285 45.7289ZM196.972 38.2916C196.618 38.2916 196.441 38.1146 196.264 37.9375C195.909 37.5833 196.086 37.0521 196.441 36.6979C198.389 35.2813 200.159 34.0418 201.93 32.6251C202.284 32.271 202.815 32.448 203.17 32.8022C203.524 33.1563 203.347 33.6876 202.993 34.0417C201.222 35.4584 199.274 36.875 197.326 38.2916C197.326 38.1145 197.149 38.2916 196.972 38.2916ZM207.951 29.6148C207.774 29.6148 207.419 29.4377 207.242 29.2606C206.888 28.9065 206.888 28.3752 207.242 28.0211C209.013 26.4274 210.607 25.0107 212.378 23.417C212.732 23.0629 213.263 23.0629 213.617 23.417C213.971 23.7712 213.971 24.3025 213.617 24.6566C212.024 26.2503 210.253 27.844 208.482 29.4377C208.305 29.6148 208.128 29.6148 207.951 29.6148ZM218.044 20.0526C217.867 20.0526 217.69 20.0526 217.513 19.8755C217.159 19.5213 217.159 18.9901 217.513 18.6359C219.107 17.0422 220.7 15.2715 222.117 13.5007C222.471 13.1465 223.002 13.1465 223.357 13.3236C223.711 13.6777 223.711 14.209 223.534 14.5631C221.94 16.3339 220.523 18.1047 218.93 19.6984C218.398 19.8755 218.221 20.0526 218.044 20.0526ZM226.898 9.42787C226.721 9.42787 226.544 9.42786 226.367 9.25078C226.013 8.89662 225.836 8.36539 226.19 8.01124C227.606 6.24046 229.023 4.2926 230.263 2.34474C230.617 1.99058 231.148 1.81349 231.502 2.16765C231.856 2.52181 232.033 3.05306 231.679 3.40722C230.44 5.35508 229.023 7.30294 227.606 9.07372C227.429 9.2508 227.252 9.42787 226.898 9.42787Z" fill="#3B8BDF"/>
</g>
<g opacity="0.2">
<path d="M0.985967 127.292C0.63181 127.292 0.454715 127.115 0.277636 126.938C-0.0765201 126.584 0.10057 126.053 0.454726 125.699C2.40259 124.282 4.17336 123.043 5.94414 121.626C6.29829 121.272 6.82955 121.449 7.18371 121.803C7.53786 122.157 7.36077 122.688 7.00662 123.043C5.23584 124.459 3.28798 125.876 1.34012 127.292C1.34012 127.115 1.16304 127.292 0.985967 127.292ZM11.9648 118.616C11.7877 118.616 11.4336 118.439 11.2565 118.262C10.9023 117.907 10.9023 117.376 11.2565 117.022C13.0273 115.428 14.621 114.012 16.3918 112.418C16.7459 112.064 17.2772 112.064 17.6313 112.418C17.9855 112.772 17.9855 113.303 17.6313 113.657C16.0376 115.251 14.2668 116.845 12.4961 118.439C12.319 118.616 12.1419 118.616 11.9648 118.616ZM22.0583 109.053C21.8812 109.053 21.7041 109.053 21.527 108.876C21.1729 108.522 21.1729 107.991 21.527 107.637C23.1207 106.043 24.7144 104.272 26.1311 102.502C26.4852 102.147 27.0165 102.147 27.3706 102.324C27.7248 102.679 27.7248 103.21 27.5477 103.564C25.954 105.335 24.5374 107.106 22.9437 108.699C22.4124 108.876 22.2353 109.053 22.0583 109.053ZM31.1355 98.8126C30.9584 98.8126 30.7813 98.8126 30.6042 98.6355C30.2501 98.2814 30.073 97.7502 30.4271 97.396C31.8438 95.6252 33.2604 93.6774 34.4999 91.7295C34.8541 91.3753 35.3853 91.1983 35.7395 91.5524C36.0937 91.9066 36.2707 92.4378 35.9166 92.792C34.677 94.7398 33.2604 96.6877 31.8438 98.4585C31.6667 98.6356 31.4896 98.8126 31.1355 98.8126Z" fill="#3B8BDF"/>
</g>
<g opacity="0.2">
<path d="M39.9036 88.9366C39.5494 88.9366 39.3723 88.7596 39.1952 88.5825C38.8411 88.2283 39.0182 87.6971 39.3723 87.3429C41.3202 85.9263 43.091 84.5097 45.0388 83.2702C45.393 82.916 45.9242 83.093 46.2784 83.4472C46.6325 83.8013 46.4555 84.3326 46.1013 84.6868C44.1534 86.1034 42.3827 87.3429 40.4348 88.7595C40.4348 88.7595 40.0806 88.9366 39.9036 88.9366ZM51.2366 80.614C50.8824 80.614 50.7053 80.4369 50.5283 80.2598C50.1741 79.9057 50.3512 79.3744 50.7053 79.0202C52.8303 77.6036 54.601 76.3641 56.5489 75.1245C56.9031 74.9475 57.4343 74.9475 57.7885 75.3016C57.9655 75.6558 57.9655 76.187 57.6114 76.5412C55.8406 77.7807 53.8927 79.0203 51.9449 80.4369C51.5907 80.614 51.4136 80.614 51.2366 80.614ZM62.9237 73.1767C62.5696 73.1767 62.3925 72.9996 62.2154 72.8225C62.0383 72.4683 62.0383 71.9371 62.5696 71.583C64.6945 70.3434 66.6424 69.281 68.7673 68.2185C69.1215 68.0414 69.6527 68.2185 70.0069 68.5726C70.1839 68.9268 70.0068 69.458 69.6527 69.8122C67.7048 70.8747 65.5799 71.9371 63.632 73.1767C63.2779 73.1767 63.1008 73.1767 62.9237 73.1767ZM75.3192 66.8019C74.965 66.8019 74.6109 66.6248 74.4338 66.2706C74.2567 65.9165 74.4338 65.3852 74.965 65.2082C77.09 64.3228 79.392 63.4374 81.5169 62.7291C82.0482 62.552 82.4023 62.9061 82.5794 63.2603C82.7565 63.7915 82.4023 64.1457 82.0482 64.3228C79.9232 65.0311 77.7983 65.9165 75.6734 66.8019C75.6734 66.8019 75.4963 66.8019 75.3192 66.8019ZM88.6001 62.3749C88.2459 62.3749 87.8918 62.1978 87.7147 61.6666C87.5376 61.1354 87.8918 60.7812 88.423 60.6041C90.725 60.0729 93.027 59.5417 95.329 59.1875C95.8603 59.1875 96.2144 59.3646 96.3915 59.8958C96.3915 60.427 96.2144 60.7812 95.6832 60.9583C93.3812 61.3125 91.2562 61.6666 88.9542 62.3749C88.6001 62.3749 88.6001 62.3749 88.6001 62.3749ZM109.141 60.427C106.839 60.2499 104.537 60.2499 102.235 60.427C101.704 60.427 101.35 60.0729 101.35 59.5416C101.35 59.0104 101.704 58.6562 102.235 58.6562C104.537 58.4792 107.016 58.4792 109.318 58.6562C109.849 58.6562 110.204 59.1875 110.204 59.5416C110.027 60.0729 109.672 60.427 109.141 60.427Z" fill="#3B8BDF"/>
</g>
<path d="M95.1755 0.541016H129.952C136.477 0.541016 141.73 5.79327 141.73 12.3188V28.3939C141.73 33.8053 138.069 38.3413 133.135 39.7737L135.522 52.8248L124.62 40.2512H95.1755C88.65 40.2512 83.3977 34.999 83.3977 28.4734V12.3188C83.3977 5.79327 88.65 0.541016 95.1755 0.541016Z" fill="white"/>
<path d="M135.602 53.1426C135.523 53.1426 135.363 53.063 135.284 52.9834L124.541 40.4894H95.1757C88.491 40.4894 83 34.9984 83 28.3138V12.3183C83 5.63357 88.491 0.142578 95.1757 0.142578H129.952C136.637 0.142578 142.128 5.63357 142.128 12.3183V28.3933C142.128 33.7252 138.626 38.4204 133.613 40.0119L135.92 52.7447C135.92 52.9038 135.841 53.063 135.682 53.1426H135.602ZM95.1757 0.938374C88.8889 0.938374 83.7958 6.03147 83.7958 12.3183V28.3933C83.7958 34.6801 88.8889 39.7732 95.1757 39.7732H124.7C124.779 39.7732 124.938 39.8528 125.018 39.9324L134.965 51.4714L132.817 39.8528C132.817 39.6936 132.896 39.4549 133.135 39.3753C137.989 38.0225 141.411 33.4864 141.411 28.3933V12.3183C141.411 6.03147 136.318 0.938374 130.032 0.938374H95.1757Z" fill="#1C2F42"/>
<path d="M129.634 14.626L128.361 18.6845H124.382L127.565 21.1515L126.371 25.2101L129.634 22.7431L132.897 25.2101L131.623 21.1515L134.886 18.6845H130.827L129.634 14.626Z" fill="#E98030"/>
<path d="M126.371 25.6079C126.291 25.6079 126.212 25.6079 126.132 25.5284C125.973 25.4488 125.893 25.2896 125.973 25.1305L127.167 21.3902L124.143 19.0824C123.984 19.0028 123.984 18.8437 123.984 18.6845C124.063 18.5254 124.222 18.4458 124.381 18.4458H128.122L129.315 14.7055C129.395 14.5464 129.554 14.4668 129.713 14.4668C129.872 14.4668 130.032 14.5464 130.111 14.7055L131.305 18.4458H135.045C135.204 18.4458 135.363 18.5254 135.443 18.6845C135.523 18.8437 135.443 19.0028 135.284 19.0824L132.26 21.3902L133.454 25.1305C133.533 25.2896 133.454 25.4488 133.294 25.5284C133.135 25.6079 132.976 25.6079 132.817 25.5284L129.793 23.2205L126.769 25.5284C126.53 25.5284 126.451 25.6079 126.371 25.6079ZM125.496 19.0824L127.803 20.8332C127.963 20.9127 127.963 21.0719 127.963 21.2311L127.087 24.0959L129.395 22.3452C129.554 22.2656 129.713 22.2656 129.872 22.3452L132.18 24.0959L131.305 21.2311C131.225 21.0719 131.305 20.9127 131.464 20.8332L133.772 19.0824H130.907C130.748 19.0824 130.589 19.0028 130.509 18.8437L129.634 16.0584L128.758 18.8437C128.679 19.0028 128.52 19.0824 128.36 19.0824H125.496Z" fill="#1C2F42"/>
<path d="M112.603 14.626L111.329 18.6845H107.271L110.534 21.1515L109.34 25.2101L112.603 22.7431L115.865 25.2101L114.592 21.1515L117.855 18.6845H113.796L112.603 14.626Z" fill="#E98030"/>
<path d="M109.341 25.6079C109.261 25.6079 109.182 25.6079 109.102 25.5284C108.943 25.4488 108.863 25.2896 108.943 25.1305L110.137 21.3902L107.113 19.0824C106.953 19.0028 106.953 18.8437 106.953 18.6845C107.033 18.5254 107.192 18.4458 107.351 18.4458H111.092L112.285 14.7055C112.365 14.5464 112.524 14.4668 112.683 14.4668C112.842 14.4668 113.001 14.5464 113.081 14.7055L114.275 18.4458H118.015C118.174 18.4458 118.333 18.5254 118.413 18.6845C118.492 18.8437 118.413 19.0028 118.254 19.0824L115.23 21.3902L116.423 25.1305C116.503 25.2896 116.423 25.4488 116.264 25.5284C116.105 25.6079 115.946 25.6079 115.787 25.5284L112.763 23.2205L109.739 25.5284C109.5 25.5284 109.42 25.6079 109.341 25.6079ZM112.604 22.3452C112.683 22.3452 112.763 22.3452 112.842 22.4248L115.15 24.1755L114.275 21.3106C114.195 21.1515 114.275 20.9923 114.434 20.9127L116.742 19.162H113.877C113.718 19.162 113.559 19.0824 113.479 18.9233L112.604 16.138L111.728 18.9233C111.649 19.0824 111.489 19.162 111.33 19.162H108.465L110.773 20.9127C110.932 20.9923 110.932 21.1515 110.932 21.3106L110.057 24.1755L112.365 22.4248C112.444 22.3452 112.524 22.3452 112.604 22.3452Z" fill="#1C2F42"/>
<path d="M95.5733 14.626L94.3001 18.6845H90.2415L93.5043 21.1515L92.3106 25.2101L95.5733 22.7431L98.7565 25.2101L97.5628 21.1515L100.826 18.6845H96.767L95.5733 14.626Z" fill="#E98030"/>
<path d="M98.7568 25.6079C98.6772 25.6079 98.5976 25.6079 98.518 25.5284L95.494 23.2205L92.47 25.5284C92.3108 25.6079 92.1517 25.6079 91.9925 25.5284C91.8334 25.4488 91.7538 25.2896 91.8334 25.1305L93.0271 21.3902L90.003 19.0824C89.8439 19.0028 89.8439 18.8437 89.8439 18.6845C89.9235 18.5254 90.0826 18.4458 90.2418 18.4458H93.982L95.1757 14.7055C95.2553 14.5464 95.4144 14.4668 95.5736 14.4668C95.7328 14.4668 95.8919 14.5464 95.9715 14.7055L97.1652 18.4458H100.905C101.065 18.4458 101.224 18.5254 101.303 18.6845C101.383 18.8437 101.303 19.0028 101.144 19.0824L98.1201 21.3902L99.3138 25.1305C99.3934 25.2896 99.3138 25.4488 99.1547 25.5284C98.9159 25.5284 98.8364 25.6079 98.7568 25.6079ZM95.5736 22.3452C95.6532 22.3452 95.7328 22.3452 95.8123 22.4248L98.1201 24.1755L97.2448 21.3106C97.1652 21.1515 97.2448 20.9923 97.4039 20.9127L99.7117 19.162H96.8469C96.6877 19.162 96.5286 19.0824 96.449 18.9233L95.5736 16.138L94.6982 18.9233C94.6186 19.0824 94.4595 19.162 94.3003 19.162H91.4355L93.7433 20.9127C93.9024 20.9923 93.9024 21.1515 93.9024 21.3106L93.0271 24.1755L95.3349 22.4248C95.3349 22.3452 95.494 22.3452 95.5736 22.3452Z" fill="#1C2F42"/>
<path d="M129.634 14.626L128.361 18.6845H124.382L127.565 21.1515L126.371 25.2101L129.634 22.7431L132.897 25.2101L131.623 21.1515L134.886 18.6845H130.827L129.634 14.626Z" fill="#E98030"/>
<path d="M126.371 25.6079C126.291 25.6079 126.212 25.6079 126.132 25.5284C125.973 25.4488 125.893 25.2896 125.973 25.1305L127.167 21.3902L124.143 19.0824C123.984 19.0028 123.984 18.8437 123.984 18.6845C124.063 18.5254 124.222 18.4458 124.381 18.4458H128.122L129.315 14.7055C129.395 14.5464 129.554 14.4668 129.713 14.4668C129.872 14.4668 130.032 14.5464 130.111 14.7055L131.305 18.4458H135.045C135.204 18.4458 135.363 18.5254 135.443 18.6845C135.523 18.8437 135.443 19.0028 135.284 19.0824L132.26 21.3902L133.454 25.1305C133.533 25.2896 133.454 25.4488 133.294 25.5284C133.135 25.6079 132.976 25.6079 132.817 25.5284L129.793 23.2205L126.769 25.5284C126.53 25.5284 126.451 25.6079 126.371 25.6079ZM125.496 19.0824L127.803 20.8332C127.963 20.9127 127.963 21.0719 127.963 21.2311L127.087 24.0959L129.395 22.3452C129.554 22.2656 129.713 22.2656 129.872 22.3452L132.18 24.0959L131.305 21.2311C131.225 21.0719 131.305 20.9127 131.464 20.8332L133.772 19.0824H130.907C130.748 19.0824 130.589 19.0028 130.509 18.8437L129.634 16.0584L128.758 18.8437C128.679 19.0028 128.52 19.0824 128.36 19.0824H125.496Z" fill="#1C2F42"/>
<path d="M112.603 14.626L111.329 18.6845H107.271L110.534 21.1515L109.34 25.2101L112.603 22.7431L115.865 25.2101L114.592 21.1515L117.855 18.6845H113.796L112.603 14.626Z" fill="#E98030"/>
<path d="M109.341 25.6079C109.261 25.6079 109.182 25.6079 109.102 25.5284C108.943 25.4488 108.863 25.2896 108.943 25.1305L110.137 21.3902L107.113 19.0824C106.953 19.0028 106.953 18.8437 106.953 18.6845C107.033 18.5254 107.192 18.4458 107.351 18.4458H111.092L112.285 14.7055C112.365 14.5464 112.524 14.4668 112.683 14.4668C112.842 14.4668 113.001 14.5464 113.081 14.7055L114.275 18.4458H118.015C118.174 18.4458 118.333 18.5254 118.413 18.6845C118.492 18.8437 118.413 19.0028 118.254 19.0824L115.23 21.3902L116.423 25.1305C116.503 25.2896 116.423 25.4488 116.264 25.5284C116.105 25.6079 115.946 25.6079 115.787 25.5284L112.763 23.2205L109.739 25.5284C109.5 25.5284 109.42 25.6079 109.341 25.6079ZM112.604 22.3452C112.683 22.3452 112.763 22.3452 112.842 22.4248L115.15 24.1755L114.275 21.3106C114.195 21.1515 114.275 20.9923 114.434 20.9127L116.742 19.162H113.877C113.718 19.162 113.559 19.0824 113.479 18.9233L112.604 16.138L111.728 18.9233C111.649 19.0824 111.489 19.162 111.33 19.162H108.465L110.773 20.9127C110.932 20.9923 110.932 21.1515 110.932 21.3106L110.057 24.1755L112.365 22.4248C112.444 22.3452 112.524 22.3452 112.604 22.3452Z" fill="#1C2F42"/>
<path d="M95.5733 14.626L94.3001 18.6845H90.2415L93.5043 21.1515L92.3106 25.2101L95.5733 22.7431L98.7565 25.2101L97.5628 21.1515L100.826 18.6845H96.767L95.5733 14.626Z" fill="#E98030"/>
<path d="M98.7568 25.6079C98.6772 25.6079 98.5976 25.6079 98.518 25.5284L95.494 23.2205L92.47 25.5284C92.3108 25.6079 92.1517 25.6079 91.9925 25.5284C91.8334 25.4488 91.7538 25.2896 91.8334 25.1305L93.0271 21.3902L90.003 19.0824C89.8439 19.0028 89.8439 18.8437 89.8439 18.6845C89.9235 18.5254 90.0826 18.4458 90.2418 18.4458H93.982L95.1757 14.7055C95.2553 14.5464 95.4144 14.4668 95.5736 14.4668C95.7328 14.4668 95.8919 14.5464 95.9715 14.7055L97.1652 18.4458H100.905C101.065 18.4458 101.224 18.5254 101.303 18.6845C101.383 18.8437 101.303 19.0028 101.144 19.0824L98.1201 21.3902L99.3138 25.1305C99.3934 25.2896 99.3138 25.4488 99.1547 25.5284C98.9159 25.5284 98.8364 25.6079 98.7568 25.6079ZM95.5736 22.3452C95.6532 22.3452 95.7328 22.3452 95.8123 22.4248L98.1201 24.1755L97.2448 21.3106C97.1652 21.1515 97.2448 20.9923 97.4039 20.9127L99.7117 19.162H96.8469C96.6877 19.162 96.5286 19.0824 96.449 18.9233L95.5736 16.138L94.6982 18.9233C94.6186 19.0824 94.4595 19.162 94.3003 19.162H91.4355L93.7433 20.9127C93.9024 20.9923 93.9024 21.1515 93.9024 21.3106L93.0271 24.1755L95.3349 22.4248C95.3349 22.3452 95.494 22.3452 95.5736 22.3452Z" fill="#1C2F42"/>
<g opacity="0.1294">
<path d="M140.775 32.9297C140.377 33.248 139.342 34.0438 138.149 34.9192C137.91 34.9988 137.99 34.9988 137.83 35.1579C138.149 34.9192 137.273 35.6354 137.035 35.715C135.363 36.8291 132.976 37.1474 132.021 39.1369C131.544 40.0123 131.703 41.3651 132.021 42.7976C132.101 43.5934 132.26 44.3096 132.26 44.6279C132.26 44.7075 132.26 44.787 132.26 44.8666V44.9462C132.26 44.9462 132.26 44.9462 132.26 45.0258C132.26 45.0258 132.26 45.1054 132.18 45.1054C132.18 45.1054 132.18 45.1054 132.101 45.1849C132.021 45.1849 132.021 45.1849 131.942 45.1849C131.623 45.1849 131.623 45.185 130.907 44.6279L130.827 44.5483C130.35 43.9913 129.793 43.4342 129.315 42.8771C128.122 41.2855 126.451 39.6144 125.416 38.8982C124.541 38.3411 123.506 38.1819 122.472 38.0228C115.866 37.5453 109.182 38.3411 102.577 38.3411C99.7914 38.2615 96.5286 38.5798 94.4595 38.1024C93.425 37.9432 92.47 37.7045 91.5151 37.3066C90.958 37.1474 90.3214 36.8291 89.7643 36.8291H89.6848C89.6848 36.8291 89.6848 36.8291 89.6052 36.8291C89.3664 36.7495 89.1277 36.6699 88.9685 36.5108C88.6502 36.3516 87.0586 35.715 87.4565 35.8741C87.3769 35.8741 87.2974 35.7946 87.2178 35.7946C87.0586 35.715 86.9791 35.715 86.8199 35.6354C86.1833 35.3171 85.5466 34.9988 84.9896 34.6009C85.2283 34.9192 85.3875 35.1579 85.6262 35.4762C85.9445 35.8741 86.2628 36.1924 86.5812 36.5108C87.0586 36.9882 87.6157 37.5453 88.2523 37.9432C88.8094 38.1819 89.446 38.4207 90.0031 38.6594C90.0031 38.739 90.0031 38.739 90.0031 38.8186C90.958 39.1369 91.8334 39.3756 92.7884 39.5348C93.5842 39.694 94.38 39.8531 95.1757 39.9327C95.1757 39.8531 95.1757 39.7735 95.1757 39.694H95.2553C97.2448 39.9327 99.2343 39.7735 101.144 39.8531C106.396 40.0123 111.728 39.6144 116.981 39.5348C119.209 39.6144 122.233 39.5348 123.665 39.8531C124.541 40.0919 124.62 40.251 125.496 40.9672C126.451 41.8426 127.326 42.8771 128.042 43.9117C128.997 45.1054 130.111 46.1399 131.066 47.4132C131.942 48.6865 132.817 49.8006 133.851 50.9943C134.011 51.1534 133.851 50.9943 134.17 51.4717C134.249 51.6309 134.488 51.79 134.647 51.8696C135.523 52.0288 136 51.0738 135.363 50.3576C135.284 50.278 135.204 50.1189 135.125 50.0393C135.125 49.9597 135.125 49.9597 135.125 49.8801C134.488 47.7315 134.249 45.5033 133.851 43.275C133.613 41.8426 133.533 41.1264 133.454 40.3306C133.454 40.251 133.454 40.251 133.454 40.1714C133.454 40.0919 133.533 39.8531 133.533 39.7735C133.533 39.694 133.613 39.6144 133.692 39.5348H133.772C135.523 39.1369 138.228 37.1474 138.865 36.4312C138.945 36.3516 139.104 36.272 139.183 36.1925C139.342 35.8741 139.502 35.5558 139.661 35.2375C139.899 34.6804 140.297 34.203 140.536 33.7255C140.616 33.4072 140.775 33.1684 140.775 32.9297C140.854 32.9297 140.854 32.9297 140.775 32.9297Z" fill="black"/>
</g>
<path d="M157.566 30.2441H127.57C121.941 30.2441 117.411 34.7744 117.411 40.403V54.2684C117.411 58.9359 120.569 62.8484 124.824 64.084L122.765 75.341L132.169 64.4958H157.635C163.263 64.4958 167.793 59.9655 167.793 54.337V40.403C167.725 34.7744 163.195 30.2441 157.566 30.2441Z" fill="white"/>
<path d="M122.697 75.6151C122.629 75.6151 122.629 75.6151 122.56 75.6151C122.423 75.5464 122.354 75.4091 122.354 75.2719L124.345 64.2894C120.02 62.9165 117 58.8667 117 54.2678V40.4024C117 34.6366 121.736 29.9004 127.502 29.9004H157.498C163.264 29.9004 168 34.6366 168 40.4024V54.2678C168 60.0336 163.264 64.7698 157.498 64.7698H132.17L122.903 75.5464C122.903 75.5464 122.834 75.6151 122.697 75.6151ZM127.571 30.5868C122.148 30.5868 117.755 34.9798 117.755 40.4024V54.2678C117.755 58.6608 120.707 62.5733 124.894 63.7402C125.031 63.8089 125.168 63.9462 125.168 64.1521L123.315 74.1736L131.895 64.2207C131.964 64.1521 132.032 64.0834 132.17 64.0834H157.635C163.058 64.0834 167.451 59.6904 167.451 54.2678V40.4024C167.451 34.9798 163.058 30.5868 157.635 30.5868H127.571Z" fill="#1C2F42"/>
<path d="M154.477 39.373H126.403V42.05H154.477V39.373Z" fill="#E98030"/>
<path d="M154.409 42.3243H126.335C126.129 42.3243 125.992 42.187 125.992 41.9811V39.3041C125.992 39.0982 126.129 38.9609 126.335 38.9609H154.409C154.615 38.9609 154.753 39.0982 154.753 39.3041V41.9811C154.753 42.187 154.615 42.3243 154.409 42.3243ZM126.747 41.6379H154.135V39.6473H126.747V41.6379Z" fill="#1C2F42"/>
<path d="M143.631 45.6875H126.402V48.3645H143.631V45.6875Z" fill="white"/>
<path d="M143.633 48.6388H126.404C126.198 48.6388 126.061 48.5015 126.061 48.2956V45.6186C126.061 45.4127 126.198 45.2754 126.404 45.2754H143.633C143.839 45.2754 143.976 45.4127 143.976 45.6186V48.2956C143.976 48.5015 143.839 48.6388 143.633 48.6388ZM126.747 47.9524H143.29V45.9618H126.747V47.9524Z" fill="#1C2F42"/>
<path d="M154.477 52.0029H126.403V54.6799H154.477V52.0029Z" fill="#E98030"/>
<path d="M154.409 54.9542H126.335C126.129 54.9542 125.992 54.8169 125.992 54.611V51.934C125.992 51.7281 126.129 51.5908 126.335 51.5908H154.409C154.615 51.5908 154.753 51.7281 154.753 51.934V54.6796C154.753 54.8169 154.615 54.9542 154.409 54.9542ZM126.747 54.3364H154.135V52.3459H126.747V54.3364Z" fill="#1C2F42"/>
<g opacity="0.1294">
<path d="M165.598 59.6216C165.392 59.8275 162.921 61.5435 162.646 61.5435C160.862 62.2299 160.038 62.2986 158.322 62.3672C157.018 62.4358 155.645 62.5045 154.341 62.5045C152.076 62.5045 149.81 62.6418 147.545 62.7104C145.349 62.779 143.152 62.779 141.024 62.8477C138.416 62.9163 135.876 62.5045 133.268 62.5731C131.415 62.5731 130.385 63.1222 128.875 64.8383C128.051 65.8679 127.09 67.2407 126.129 68.4762C126.335 67.7898 126.404 67.0348 126.473 66.2797C126.473 65.7992 126.61 65.2501 126.473 64.7696C126.473 64.8383 126.473 64.9069 126.473 64.9755C126.473 64.4264 126.404 63.8087 125.992 63.3968C125.649 63.0536 125.237 62.985 124.825 62.9163C123.727 62.2986 122.629 61.7494 121.599 61.063C120.638 60.3766 119.54 59.5529 118.51 58.6606C118.648 58.8665 118.716 59.0724 118.853 59.2784C119.746 60.5825 120.844 61.8181 122.08 62.8477C122.148 62.8477 122.217 62.8477 122.285 62.8477C122.835 62.985 123.315 63.1909 123.796 63.4654C124.002 63.6027 124.276 63.74 124.482 63.8773C124.757 64.0146 125.031 64.2205 125.1 64.5637C125.168 64.8383 125.031 65.0442 124.825 65.1128C124.825 65.2501 124.825 65.3874 124.825 65.5933C124.825 66.417 124.276 68.4762 123.796 69.9177C123.521 70.6727 123.246 71.4964 122.972 72.2514C122.903 72.5947 122.697 72.8692 122.766 73.2124C122.766 73.6243 123.178 73.9675 123.59 74.0361C124.345 74.1734 124.757 73.3497 125.1 72.8692C125.1 72.8692 125.1 72.8692 125.168 72.8006C125.58 72.2515 125.992 71.7023 126.404 71.1532C127.502 69.5745 128.12 68.8194 129.081 67.5839C129.973 66.3484 130.179 66.0052 131.277 64.9069C131.827 64.4264 131.689 64.4951 132.238 64.2891C132.307 64.2891 132.444 64.2205 132.582 64.2205C134.709 64.0832 136.769 64.2891 138.897 64.3578C141.162 64.4264 143.495 64.2891 145.829 64.2891C148.094 64.2891 150.428 64.0832 152.693 64.0832C154.341 64.0832 156.057 64.0832 157.704 63.9459C159.695 63.8773 161.754 63.6027 163.539 62.779C164.362 61.8181 165.255 60.9944 166.216 60.1707C166.627 59.4156 167.108 58.592 167.588 57.8369C166.765 58.592 166.216 59.1411 165.598 59.6216Z" fill="#1C2F42"/>
</g>
</svg>
