<svg width="176" height="317" viewBox="0 0 176 317" fill="none" xmlns="http://www.w3.org/2000/svg">
<path opacity="0.2" d="M37.9759 316.143C37.5097 316.143 37.1989 316.143 36.7327 316.143C36.2665 316.143 35.9557 315.779 35.9557 315.232C35.9557 314.686 36.2665 314.321 36.7327 314.321C38.7529 314.321 40.7731 314.321 42.7933 314.139C43.2595 314.139 43.5703 314.504 43.5703 315.05C43.5703 315.597 43.2595 315.961 42.7933 315.961C41.2393 316.143 39.6853 316.143 37.9759 316.143ZM30.6721 315.961C28.6519 315.779 26.4763 315.597 24.4561 315.232C23.9899 315.232 23.6791 314.686 23.8345 314.321C23.8345 313.775 24.3007 313.411 24.6115 313.593C26.6317 313.957 28.6519 314.139 30.6721 314.321C31.1383 314.321 31.4491 314.868 31.4491 315.232C31.4491 315.597 30.9829 315.961 30.6721 315.961ZM49.0093 315.597C48.6985 315.597 48.2323 315.232 48.2323 314.868C48.2323 314.321 48.5431 313.957 48.8539 313.957C50.8741 313.775 52.8943 313.411 54.9145 313.046C55.3807 313.046 55.6915 313.228 55.8469 313.775C55.8469 314.321 55.6915 314.686 55.2253 314.868C53.0497 314.868 51.0295 315.232 49.0093 315.597ZM18.5509 314.139C18.5509 314.139 18.3955 314.139 18.5509 314.139C16.3753 313.775 14.3551 313.228 12.3349 312.682C11.8687 312.5 11.7133 312.135 11.7133 311.589C11.8687 311.042 12.1794 310.86 12.6456 310.86C14.6658 311.407 16.6861 311.953 18.5509 312.318C19.0171 312.318 19.1725 312.864 19.1725 313.411C19.1725 313.775 18.8617 314.139 18.5509 314.139ZM60.9751 313.046C60.6643 313.046 60.3535 312.682 60.1981 312.318C60.0427 311.771 60.3535 311.407 60.8197 311.225C62.8399 310.678 64.7047 310.132 66.7249 309.403C67.1911 309.221 67.5019 309.585 67.6573 309.949C67.8127 310.496 67.5019 310.86 67.1911 311.042C65.3263 311.771 63.3061 312.318 61.2859 312.864C61.1305 313.046 60.9751 313.046 60.9751 313.046ZM6.5851 310.86H6.42964C4.40944 310.132 2.54466 309.403 0.524459 308.674C0.058259 308.492 -0.0971221 307.946 0.058278 307.581C0.213678 307.035 0.67984 306.853 0.99064 307.035C2.85544 307.763 4.87566 308.492 6.74046 309.221C7.20666 309.403 7.36204 309.767 7.20664 310.314C7.20664 310.678 6.8959 310.86 6.5851 310.86ZM72.6301 308.856C72.3193 308.856 72.0085 308.674 71.8531 308.31C71.6977 307.763 71.8531 307.399 72.3193 307.217C74.1841 306.306 76.0489 305.395 77.9137 304.484C78.2245 304.302 78.6907 304.484 79.0015 304.849C79.1569 305.213 79.0015 305.76 78.6907 306.124C76.8259 307.217 74.9611 308.128 73.0963 309.039C72.7855 308.856 72.7855 308.856 72.6301 308.856ZM83.6635 302.845C83.3527 302.845 83.1973 302.663 83.0419 302.298C82.8865 301.934 83.0419 301.388 83.3527 301.023C85.0621 299.93 86.7715 298.655 88.4809 297.38C88.7917 297.198 89.2579 297.198 89.5687 297.562C89.7241 297.926 89.7241 298.473 89.4133 298.837C87.7039 300.112 85.9945 301.388 84.1297 302.663C83.9743 302.845 83.8189 302.845 83.6635 302.845ZM93.9199 295.012C93.7645 295.012 93.4537 294.83 93.2983 294.647C92.9875 294.283 93.1429 293.737 93.4537 293.372C95.0077 291.915 96.5617 290.458 98.1157 288.818C98.4265 288.454 98.8927 288.454 99.2035 288.818C99.5143 289.182 99.5143 289.729 99.2035 290.093C97.6495 291.733 96.0955 293.19 94.3861 294.647C94.2307 294.83 94.0753 295.012 93.9199 295.012ZM102.933 285.357C102.778 285.357 102.622 285.357 102.467 285.175C102.156 284.81 102.156 284.264 102.467 283.9C103.866 282.26 105.264 280.438 106.507 278.617C106.818 278.252 107.284 278.252 107.595 278.435C107.906 278.799 107.906 279.345 107.75 279.71C106.507 281.531 105.109 283.353 103.555 284.993C103.399 285.357 103.244 285.357 102.933 285.357ZM110.858 274.427C110.703 274.427 110.548 274.427 110.392 274.245C110.082 273.88 109.926 273.334 110.237 272.97C111.48 270.966 112.568 268.962 113.5 266.958C113.656 266.594 114.122 266.412 114.588 266.594C114.899 266.776 115.054 267.322 114.899 267.869C113.811 269.873 112.723 271.877 111.48 273.88C111.325 274.245 111.014 274.427 110.858 274.427ZM117.074 262.222C116.919 262.222 116.919 262.222 116.764 262.222C116.453 262.04 116.298 261.493 116.453 260.947C117.385 258.761 118.162 256.575 118.939 254.389C119.095 253.842 119.561 253.66 119.872 253.842C120.338 254.024 120.493 254.571 120.338 254.935C119.561 257.121 118.784 259.307 117.851 261.493C117.541 262.04 117.23 262.222 117.074 262.222ZM121.426 248.741H121.27C120.804 248.559 120.649 248.195 120.804 247.648C120.96 246.738 121.27 245.827 121.426 244.734C121.736 243.459 121.892 242.001 122.203 240.726C122.358 240.18 122.669 239.997 123.135 239.997C123.601 240.18 123.757 240.544 123.757 241.09C123.601 242.548 123.29 243.823 122.98 245.28C122.824 246.191 122.514 247.284 122.358 248.195C122.047 248.559 121.736 248.741 121.426 248.741ZM123.757 234.715C123.29 234.715 122.98 234.168 122.98 233.804C123.135 231.436 123.291 229.067 123.446 226.699C123.446 226.153 123.757 225.788 124.223 225.788C124.689 225.788 125 226.153 125 226.699C124.845 229.067 124.689 231.618 124.534 233.986C124.534 234.35 124.223 234.715 123.757 234.715ZM124.223 220.506C123.757 220.506 123.446 220.141 123.446 219.595C123.446 217.227 123.291 214.858 123.135 212.49C123.135 211.944 123.446 211.579 123.757 211.579C124.223 211.579 124.534 211.944 124.534 212.308C124.689 214.676 124.844 217.227 124.844 219.595C125 220.141 124.689 220.506 124.223 220.506ZM123.29 206.297C122.98 206.297 122.513 205.932 122.513 205.568C122.203 203.382 121.892 201.014 121.581 198.463C121.581 197.917 121.736 197.552 122.203 197.37C122.669 197.37 122.98 197.553 123.135 198.099C123.446 200.467 123.757 203.018 124.067 205.204C124.067 205.75 123.757 206.114 123.29 206.297ZM121.27 192.088C120.96 192.088 120.649 191.723 120.493 191.359C120.183 189.173 119.716 186.805 119.25 184.437C119.095 183.89 119.405 183.526 119.872 183.343C120.338 183.161 120.649 183.526 120.804 184.072C121.27 186.623 121.737 188.808 122.047 191.177C122.047 191.541 121.892 191.905 121.27 192.088C121.27 192.088 121.426 192.088 121.27 192.088ZM118.628 178.061C118.318 178.061 118.007 177.696 117.851 177.332C117.385 174.964 116.919 172.778 116.453 170.41C116.298 169.863 116.608 169.499 117.074 169.317C117.541 169.134 117.852 169.499 118.007 170.045C118.473 172.413 118.939 174.599 119.405 176.968C119.561 177.514 119.25 177.878 118.784 178.061H118.628ZM115.676 164.216C115.365 164.216 115.054 164.034 114.899 163.487C114.433 161.119 113.967 158.933 113.5 156.565C113.345 156.018 113.656 155.654 114.122 155.472C114.588 155.29 114.899 155.654 115.054 156.201C115.521 158.569 115.987 160.755 116.453 163.123C116.608 163.669 116.298 164.034 115.831 164.216H115.676ZM112.879 150.371C112.568 150.371 112.257 150.007 112.102 149.643C111.635 147.092 111.169 144.906 110.858 142.538C110.703 141.992 111.014 141.627 111.48 141.445C111.946 141.263 112.257 141.627 112.412 142.174C112.723 144.36 113.189 146.728 113.656 149.096C113.811 149.643 113.5 150.007 113.034 150.189C112.879 150.371 112.879 150.371 112.879 150.371ZM110.392 136.344C110.082 136.344 109.771 135.98 109.615 135.616C109.46 134.523 109.305 133.43 109.149 132.337C108.994 131.062 108.838 129.786 108.683 128.511C108.683 127.965 108.994 127.6 109.304 127.418C109.771 127.418 110.082 127.783 110.237 128.147C110.392 129.422 110.548 130.697 110.703 131.79C110.859 132.883 111.014 133.976 111.169 135.069C111.169 135.616 111.014 136.162 110.392 136.344C110.392 136.344 110.548 136.344 110.392 136.344ZM108.838 122.135C108.372 122.135 108.061 121.771 108.061 121.407C107.906 119.039 107.751 116.67 107.595 114.302C107.595 113.756 107.906 113.391 108.372 113.391C108.838 113.391 109.149 113.756 109.149 114.302C109.305 116.67 109.46 119.039 109.615 121.407C109.615 121.589 109.305 121.953 108.838 122.135ZM108.061 107.744C107.595 107.744 107.284 107.38 107.284 106.833C107.284 105.558 107.284 104.283 107.284 102.826C107.284 101.733 107.284 100.64 107.284 99.5468C107.284 99.0003 107.595 98.636 108.061 98.636C108.528 98.636 108.838 99.0003 108.838 99.5468C108.838 100.64 108.838 101.733 108.838 102.826C108.838 104.101 108.838 105.376 108.838 106.651C108.838 107.38 108.528 107.744 108.061 107.744ZM108.217 93.5353C107.75 93.5353 107.44 93.171 107.44 92.6245C107.595 90.2563 107.751 87.8881 107.906 85.52C107.906 84.9735 108.372 84.6091 108.683 84.7913C109.149 84.7913 109.46 85.3378 109.304 85.7021C109.149 88.0703 108.994 90.4385 108.838 92.8066C108.994 93.171 108.683 93.5353 108.217 93.5353ZM109.46 79.1441C109.305 79.1441 109.305 79.1441 109.46 79.1441C108.994 79.1441 108.683 78.5976 108.683 78.0511C108.994 75.683 109.305 73.3148 109.615 70.9466C109.615 70.4001 110.081 70.2179 110.548 70.2179C111.014 70.2179 111.169 70.7644 111.169 71.3109C110.859 73.6791 110.548 76.0473 110.237 78.4154C110.082 78.9619 109.771 79.1441 109.46 79.1441ZM111.48 65.1173H111.325C110.858 64.9351 110.703 64.5708 110.703 64.0243C111.169 61.6561 111.635 59.2879 112.102 57.1019C112.257 56.5554 112.568 56.3733 113.034 56.3733C113.5 56.5554 113.656 56.9198 113.656 57.4663C113.189 59.8344 112.723 62.0204 112.257 64.3886C112.102 64.7529 111.791 65.1173 111.48 65.1173ZM114.277 51.2726H114.122C113.656 51.0904 113.5 50.7261 113.656 50.1796C114.277 47.8114 114.899 45.6254 115.52 43.2573C115.676 42.7108 116.142 42.5286 116.453 42.7108C116.919 42.8929 117.075 43.4394 116.919 43.8038C116.298 45.9898 115.676 48.3579 115.054 50.5439C115.054 50.9083 114.744 51.2726 114.277 51.2726ZM118.162 37.6101C118.007 37.6101 118.007 37.6101 117.851 37.6101C117.385 37.4279 117.23 36.8814 117.385 36.5171C118.162 34.3311 118.784 31.9629 119.561 29.7769C119.716 29.2304 120.183 29.0483 120.493 29.2304C120.96 29.4126 121.115 29.9591 120.959 30.3234C120.182 32.5094 119.406 34.6954 118.784 36.8814C118.784 37.4279 118.473 37.6101 118.162 37.6101Z" fill="#3B8BDF"/>
<path d="M102.213 15.0221L175.242 1.02344L145.09 54.1794L132.952 36.167L123.848 41.0617L123.26 25.203L102.213 15.0221Z" fill="white"/>
<path d="M127.762 34.3063C127.664 34.3063 127.567 34.2084 127.567 34.1105L127.372 23.3423C127.372 23.2444 127.469 23.1465 127.567 23.1465C127.664 23.1465 127.762 23.2444 127.762 23.3423L127.957 34.1105C127.957 34.2084 127.859 34.3063 127.762 34.3063Z" fill="#1C2F42"/>
<path d="M131.384 30.8811C131.286 30.8811 131.189 30.7832 131.189 30.6853C131.189 27.6507 131.189 24.7139 130.994 21.6792C130.994 21.5813 131.091 21.4834 131.189 21.4834C131.286 21.4834 131.384 21.5813 131.384 21.6792C131.579 24.7139 131.579 27.7486 131.579 30.6853C131.579 30.7832 131.481 30.8811 131.384 30.8811Z" fill="#1C2F42"/>
<path d="M135.006 28.6295C134.908 28.6295 134.908 28.6295 134.811 28.5316V28.4337C134.616 25.6927 134.518 22.8538 134.518 20.1128C134.518 20.0149 134.616 19.917 134.713 19.917C134.811 19.917 134.908 20.0149 134.908 20.1128C134.908 22.8538 135.006 25.6927 135.201 28.4337C135.201 28.5316 135.103 28.6295 135.006 28.6295Z" fill="#1C2F42"/>
<path d="M138.431 25.8878C138.334 25.8878 138.236 25.79 138.236 25.79C137.944 23.3426 137.846 20.7974 137.846 18.3501C137.846 18.2522 137.944 18.1543 138.041 18.1543C138.139 18.1543 138.236 18.2522 138.236 18.3501C138.236 20.7974 138.334 23.3426 138.626 25.79C138.626 25.79 138.529 25.8878 138.431 25.8878Z" fill="#1C2F42"/>
<path d="M141.957 23.3425C141.859 23.3425 141.762 23.2446 141.762 23.1467C141.664 20.9931 141.664 18.8394 141.762 16.7837C141.762 16.6858 141.859 16.5879 141.957 16.5879C142.054 16.5879 142.152 16.6858 142.152 16.7837C142.054 18.9373 142.152 21.091 142.152 23.1467C142.054 23.2446 142.054 23.3425 141.957 23.3425Z" fill="#1C2F42"/>
<path d="M146.069 21.2871C145.971 21.2871 145.874 21.1892 145.874 21.0913L146.166 14.2388C146.166 14.1409 146.264 14.043 146.361 14.043C146.459 14.043 146.556 14.1409 146.556 14.2388L146.264 21.0913C146.166 21.1892 146.166 21.2871 146.069 21.2871Z" fill="#1C2F42"/>
<path d="M149.299 18.742C149.202 18.742 149.104 18.6441 149.104 18.5462L149.494 13.3579C149.494 13.26 149.592 13.1621 149.689 13.1621C149.787 13.1621 149.884 13.26 149.884 13.3579L149.494 18.5462C149.397 18.742 149.397 18.742 149.299 18.742Z" fill="#1C2F42"/>
<path d="M152.823 16.8821C152.726 16.8821 152.628 16.7842 152.628 16.6863L153.018 11.3022C153.018 11.2043 153.116 11.1064 153.213 11.1064C153.311 11.1064 153.408 11.2043 153.408 11.3022L153.018 16.6863C153.018 16.7842 152.921 16.8821 152.823 16.8821Z" fill="#1C2F42"/>
<path d="M156.543 14.4354C156.446 14.4354 156.348 14.3375 156.348 14.2396L156.543 9.83446C156.543 9.73656 156.641 9.63867 156.738 9.63867C156.836 9.63867 156.933 9.73656 156.933 9.83446L156.738 14.2396C156.641 14.4354 156.641 14.4354 156.543 14.4354Z" fill="#1C2F42"/>
<path d="M159.872 11.8899C159.774 11.8899 159.677 11.792 159.677 11.6941C159.677 10.5194 159.774 9.24675 159.872 8.07204C159.872 7.97414 159.969 7.87625 160.067 7.97414C160.164 7.97414 160.262 8.07204 160.164 8.16993C160.067 9.34464 159.969 10.6173 159.969 11.792C160.067 11.792 159.969 11.8899 159.872 11.8899Z" fill="#1C2F42"/>
<path d="M163.396 9.44238C163.298 9.44238 163.201 9.34449 163.201 9.2466L163.298 6.4077C163.298 6.30981 163.396 6.21191 163.493 6.21191C163.591 6.21191 163.688 6.30981 163.688 6.4077L163.591 9.2466C163.493 9.44239 163.493 9.44238 163.396 9.44238Z" fill="#1C2F42"/>
<path d="M125.119 37.9289C125.021 37.9289 124.924 37.831 124.924 37.7331C125.021 33.4258 124.924 29.0207 124.729 24.7134C124.729 24.6155 124.826 24.5176 124.924 24.5176C125.021 24.5176 125.119 24.6155 125.119 24.7134C125.314 29.0207 125.411 33.4258 125.314 37.7331C125.314 37.9289 125.216 37.9289 125.119 37.9289Z" fill="#1C2F42"/>
<path d="M144.992 55.1585C144.797 55.1585 144.699 55.0606 144.601 54.9627L129.819 32.4473C129.721 32.2515 129.721 31.9578 129.917 31.762C130.211 31.5662 154.586 14.6307 170.151 3.66673C154.782 11.0087 139.119 18.2528 123.652 25.2032C123.554 25.2032 123.456 25.3011 123.358 25.2032C116.506 23.7348 101.919 15.4139 101.234 15.1202C101.038 15.0223 100.941 14.8265 101.038 14.6307C101.038 14.435 101.234 14.2392 101.43 14.2392L175.437 0.142578C175.633 0.142578 175.829 0.142578 175.927 0.338364C176.024 0.53415 176.024 0.729936 175.927 0.827829L145.482 54.9627C145.384 55.0606 145.188 55.1585 144.992 55.1585C144.992 55.1585 145.09 55.1585 144.992 55.1585ZM130.896 32.3494L144.992 53.788L174.067 2.10044C159.872 12.1834 134.322 29.9021 130.896 32.3494ZM102.996 14.9244C106.618 16.8823 117.876 22.9517 123.554 24.2243C139.706 16.8823 155.956 9.34452 172.011 1.70887L102.996 14.9244Z" fill="#1C2F42"/>
<path d="M123.162 41.7475C123.065 41.7475 123.065 41.7475 122.967 41.7475C122.771 41.6496 122.673 41.4538 122.673 41.2581L122.575 25.4973C122.575 25.2036 122.771 25.0078 123.065 25.0078C123.358 25.0078 123.554 25.2036 123.554 25.4973L123.652 39.7897L129.721 31.8603C129.917 31.6645 130.211 31.5666 130.407 31.7624C130.602 31.9582 130.7 32.2519 130.504 32.4477L123.554 41.4538C123.456 41.6496 123.26 41.7475 123.162 41.7475Z" fill="#1C2F42"/>
<path d="M123.652 41.7464C123.456 41.7464 123.358 41.6486 123.26 41.4528C123.162 41.257 123.26 40.9633 123.456 40.7675L132.756 35.6771C132.952 35.5792 133.245 35.6771 133.441 35.8729C133.539 36.0686 133.441 36.3623 133.245 36.5581L123.946 41.6486C123.75 41.7464 123.75 41.7464 123.652 41.7464Z" fill="#1C2F42"/>
<g opacity="0.1294">
<path d="M131.679 34.6015C131.581 34.4057 131.483 34.112 131.385 33.9162C131.483 33.0352 130.211 32.35 129.623 33.3289C128.644 34.8952 127.861 35.8741 127.47 36.3636C127.078 36.7551 126.099 37.6362 125.512 38.1256C124.924 38.5172 124.533 38.9088 124.631 39.6919C124.827 40.3772 125.708 40.7687 126.295 40.3772C126.393 40.3772 126.393 40.2793 126.491 40.2793C127.665 39.4961 129.036 38.9088 130.309 38.2235C130.504 38.1256 131.092 37.832 131.19 37.7341C131.581 37.6362 131.973 37.2446 132.071 36.853C132.364 35.4825 131.875 35.3846 131.679 34.6015Z" fill="#1C2F42"/>
</g>
</svg>
