<svg width="167" height="33" viewBox="0 0 167 33" fill="none" xmlns="http://www.w3.org/2000/svg">
<path d="M1.8288 18.9125C22.8892 17.194 44.0156 16.7495 65.1256 16.8923C86.1136 17.0328 107.097 18.0372 128.017 19.9031C139.678 20.942 151.324 19.3149 162.937 20.9274L163.543 16.5698C143.437 18.5347 123.357 20.8521 103.272 23.059C97.5222 23.6902 91.791 24.3674 86.0619 25.1875C84.4065 25.4248 82.8461 26.8691 83.0052 28.9009C83.154 30.7875 84.5491 30.4415 86.3368 30.3079C96.4743 29.5454 106.575 28.3521 116.685 27.2579C126.796 26.1637 136.638 25.0948 146.616 24.0145C152.36 23.3925 158.095 22.7129 163.832 22.0219C165.5 21.8154 166.833 22.5499 166.988 20.6356C167.123 18.9793 166.093 16.8577 164.438 16.6642C143.235 14.1971 121.949 12.5569 100.643 11.7991C79.5475 11.0481 58.4334 11.1471 37.3503 12.269C25.4478 12.9025 13.5515 13.8147 1.67173 14.8651C-0.651318 15.0701 -0.510778 19.1014 1.8288 18.9102V18.9125Z" fill="#1CC661"/>
</svg>
