<svg width="135" height="65" viewBox="0 0 135 65" fill="none" xmlns="http://www.w3.org/2000/svg">
<path d="M83.8005 6.40355C79.8944 6.35211 76.0021 5.89443 72.0917 5.8137C68.2223 5.73587 64.3529 5.82577 60.4898 6.12845C52.6577 6.74483 44.8783 8.26115 37.2599 10.587C33.3896 11.7694 29.561 13.1586 25.7889 14.745C23.0393 15.9011 20.1553 17.0534 17.9495 19.4707C15.6927 21.9422 14.6552 25.5099 15.3429 29.1339C16.0956 33.0953 18.4493 36.2838 20.8915 38.8954C25.6785 44.016 31.8029 46.6811 37.9746 48.2428C44.8816 49.9908 52.0084 50.8506 59.0564 51.2535C74.0789 52.1109 89.254 49.9819 103.418 43.5006C106.699 41.9993 110.195 40.4171 113.153 38.0855C115.298 36.3959 117.48 33.7211 117.65 30.453C117.861 26.4398 115.315 24.2108 112.811 22.3042C109.636 19.8848 106.271 17.7949 102.769 16.1545C101.075 15.3604 99.3474 14.6741 97.5977 14.0794C96.0547 13.5558 96.7507 10.6816 98.3003 11.1686C102.162 12.3845 105.926 14.0779 109.495 16.2347C111.319 17.3364 113.095 18.5579 114.817 19.879C116.151 20.9027 117.499 22.0142 118.515 23.5038C120.736 26.7633 121.027 31.1237 119.458 34.8938C118.088 38.1846 115.475 40.6679 112.808 42.2921C98.2164 51.1792 81.844 54.8946 65.6489 54.8701C57.7772 54.858 49.9207 53.9908 42.1506 52.5377C35.4688 51.2885 28.6988 49.3199 22.9536 44.8447C17.2691 40.417 10.879 32.4861 12.9528 23.4651C14.8525 15.2034 22.7108 12.7547 28.5965 10.5451C44.5269 4.57171 61.4095 2.02374 77.9893 3.90053C80.0241 4.13039 81.9871 4.49001 83.9699 5.0755C84.5857 5.25734 84.4257 6.4105 83.8024 6.40348L83.8005 6.40355Z" fill="#F9604F"/>
</svg>
