<svg width="17" height="17" viewBox="0 0 17 17" fill="none" xmlns="http://www.w3.org/2000/svg">
<path fill-rule="evenodd" clip-rule="evenodd" d="M8.49992 3.36409C5.5544 3.36409 3.16659 5.75191 3.16659 8.69743C3.16659 11.6429 5.5544 14.0308 8.49992 14.0308C11.4454 14.0308 13.8333 11.6429 13.8333 8.69743C13.8333 5.75191 11.4454 3.36409 8.49992 3.36409ZM1.83325 8.69743C1.83325 5.01553 4.81802 2.03076 8.49992 2.03076C12.1818 2.03076 15.1666 5.01553 15.1666 8.69743C15.1666 12.3793 12.1818 15.3641 8.49992 15.3641C4.81802 15.3641 1.83325 12.3793 1.83325 8.69743ZM10.9713 6.89269C11.2317 7.15304 11.2317 7.57515 10.9713 7.8355L8.30466 10.5022C8.04431 10.7625 7.6222 10.7625 7.36185 10.5022L6.02851 9.16883C5.76816 8.90848 5.76816 8.48637 6.02851 8.22602C6.28886 7.96567 6.71097 7.96567 6.97132 8.22602L7.83325 9.08795L10.0285 6.89269C10.2889 6.63234 10.711 6.63234 10.9713 6.89269Z" fill="#15793E"/>
</svg>
