<?xml version="1.0" encoding="utf-8"?>
<!-- Generator: Adobe Illustrator 25.2.1, SVG Export Plug-In . SVG Version: 6.00 Build 0)  -->
<svg version="1.1" id="Layer_1" xmlns="http://www.w3.org/2000/svg" xmlns:xlink="http://www.w3.org/1999/xlink" x="0px" y="0px"
	 viewBox="0 0 5000 2000" style="enable-background:new 0 0 5000 2000;" xml:space="preserve">
<style type="text/css">
	.st0{fill:#999999;}
</style>
<g>
	<path class="st0" d="M2460.18,1335.8h-4.14v-27.21c0-10.05-0.15-20.11-0.44-30.16s-0.44-20.1-0.44-30.16
		c0-8.87,0.59-18.23,1.77-28.09c1.18-9.85,3.31-19.61,6.36-29.27c3.06-9.66,7.15-18.82,12.27-27.5
		c5.13-8.67,11.63-16.36,19.52-23.07c7.89-6.7,17.25-12.02,28.09-15.97c10.84-3.94,23.56-5.91,38.15-5.91
		c14.39,0,27.01,1.97,37.85,5.91c10.84,3.95,20.21,9.22,28.09,15.82c7.89,6.61,14.4,14.15,19.52,22.62
		c5.13,8.48,9.22,17.3,12.27,26.46c3.06,9.17,5.17,18.24,6.36,27.21c1.18,8.97,1.77,17.3,1.77,24.98c0,11.24-0.1,22.43-0.29,33.56
		c-0.2,11.14-0.29,22.33-0.29,33.56v27.21h-4.14v-27.21h-202.26V1335.8z M2663.33,1250.04c0-12.81-1.53-23.75-4.58-32.82
		c-3.05-9.07-7.2-16.71-12.42-22.92c-5.22-6.21-11.19-11.14-17.89-14.78c-6.7-3.64-13.75-6.41-21.14-8.28
		c-7.39-1.87-14.78-3.11-22.18-3.7c-7.39-0.59-14.34-0.89-20.84-0.89c-15.97,0-30.41,0.99-43.32,2.96
		c-12.91,1.97-23.95,5.87-33.12,11.68c-9.16,5.82-16.21,14-21.14,24.54c-4.93,10.55-7.4,24.4-7.4,41.54c0,3.95,0.05,7.5,0.15,10.65
		c0.11,3.16,0.35,5.72,0.74,7.69h202.26C2663.03,1260,2663.33,1254.77,2663.33,1250.04z"/>
	<path class="st0" d="M2456.04,922.41h50.57v3.85c-3.35,0.99-7.64,2.66-12.86,5.03c-5.22,2.37-10.3,5.67-15.23,9.91
		c-4.93,4.24-9.21,9.71-12.86,16.41c-3.64,6.71-5.47,14.89-5.47,24.55v47.02h91.37v-16.56c0-7.29-1.03-13.45-3.11-18.48
		c-2.07-5.03-5.03-9.21-8.87-12.57c-3.84-3.35-8.47-6.11-13.9-8.28c-5.42-2.17-11.48-3.94-18.19-5.32v-3.85h91.96v3.85
		c-5.72,1.38-11.24,3.01-16.56,4.88c-5.32,1.88-10,4.39-14.04,7.54c-4.04,3.16-7.25,7.05-9.61,11.68c-2.37,4.64-3.55,10.4-3.55,17.3
		v19.81h106.74v-48.5c0-9.07-1.52-17.25-4.58-24.54c-3.06-7.29-7.34-13.75-12.86-19.37c-5.52-5.62-11.98-10.3-19.37-14.05
		c-7.39-3.74-15.32-6.6-23.8-8.57v-3.85h64.76v188.95h-4.14v-27.2h-202.26v27.2h-4.14V922.41z"/>
	<path class="st0" d="M2456.04,791.72h4.14v27.2h202.26v-48.79c0-6.5-1.08-13.06-3.25-19.66c-2.16-6.6-5.76-12.81-10.79-18.63
		c-5.03-5.81-11.53-11.04-19.52-15.67c-7.98-4.63-17.69-8.23-29.12-10.79v-3.84h66.83V889h-4.14V861.8h-202.26V889h-4.14V791.72z"/>
</g>
<g>
	<path d="M529.21,878.61c-6.5-19.49-14.32-40-23.47-61.56c-9.16-21.55-20.96-41.32-35.43-59.34c-14.48-18-32.48-32.77-54.03-44.28
		c-21.56-11.52-48.27-17.27-80.15-17.27c-43.11,0-77.06,7.97-101.85,23.91c-24.8,15.94-43.55,38.08-56.24,66.43
		c-12.7,28.34-20.81,62.15-24.36,101.41c-3.54,39.27-5.31,82.23-5.31,128.87c0,61.42,3.54,112.19,10.63,152.34
		c7.08,40.16,18.16,72.05,33.21,95.65c15.06,23.62,34.54,40.16,58.46,49.6c23.91,9.45,52.39,14.17,85.47,14.17
		c26.57,0,50.62-5.31,72.18-15.94c21.55-10.63,40.59-24.65,57.13-42.07c16.52-17.41,30.4-37.34,41.63-59.79
		c11.21-22.43,19.49-45.75,24.8-69.97h14.17v187.76h-14.17c-2.96-7.08-6.5-11.96-10.63-14.61c-4.14-2.66-10.34-3.98-18.6-3.98
		c-7.08,0-16.25,1.63-27.46,4.87c-11.22,3.25-24.07,6.8-38.53,10.63c-14.48,3.83-30.27,7.37-47.39,10.63
		c-17.13,3.24-35.14,4.87-54.03,4.87c-43.11,0-84.73-8.41-124.88-25.24c-40.16-16.83-75.43-39.85-105.84-69.08
		c-30.42-29.23-54.77-63.62-73.07-103.18C13.15,1103.88,4,1061.06,4,1015.01c0-50.18,10.19-95.66,30.56-136.4
		c20.37-40.74,46.5-75.57,78.38-104.51c31.89-28.92,67.45-51.22,106.73-66.87c39.26-15.64,77.79-23.47,115.58-23.47
		c18.89,0,36.45,1.77,52.7,5.31c16.23,3.54,31.29,7.24,45.17,11.07c13.87,3.85,26.42,7.53,37.64,11.07
		c11.21,3.54,20.66,5.31,28.34,5.31c8.26,0,14.46-1.02,18.6-3.1c4.12-2.06,7.09-7.23,8.86-15.5h14.17v180.68H529.21z"/>
	<path d="M628,1013.59c14.26-28.52,32.55-52.9,54.87-73.16c22.32-20.25,47.32-35.85,75.02-46.81
		c27.69-10.95,54.76-16.43,81.22-16.43c28.52,0,56.73,5.38,84.63,16.12c27.9,10.75,52.7,26.04,74.4,45.88
		c21.7,19.84,39.26,43.92,52.7,72.23c13.43,28.31,20.15,60.24,20.15,95.78c0,31-6.31,60.45-18.91,88.35
		c-12.61,27.9-29.55,52.39-50.84,73.47c-21.29,21.08-45.88,37.72-73.78,49.91c-27.9,12.19-57.35,18.29-88.35,18.29
		c-30.59,0-59.93-5.89-88.04-17.67c-28.11-11.78-52.81-27.9-74.09-48.36c-21.29-20.46-38.34-44.53-51.15-72.23
		c-12.82-27.69-19.22-57.66-19.22-89.9C606.61,1073.94,613.74,1042.11,628,1013.59z M715.1,1216.01
		c4.96,28.31,12.71,50.84,23.25,67.58c10.54,16.74,24.18,28.42,40.92,35.03c16.74,6.62,36.68,9.92,59.83,9.92
		c30.58,0,54.56-5.68,71.92-17.05c17.36-11.36,30.38-27.06,39.06-47.12c8.68-20.04,14.15-43.8,16.43-71.3
		c2.27-27.48,3.41-57.35,3.41-89.58c0-28.93-0.93-56.52-2.79-82.77c-1.86-26.24-7.13-49.38-15.81-69.44
		c-8.68-20.04-21.81-35.96-39.37-47.74c-17.57-11.78-41.85-17.67-72.85-17.67c-28.93,0-52.08,5.48-69.44,16.43
		c-17.36,10.96-30.59,26.35-39.68,46.19c-9.1,19.84-15.09,43.4-17.98,70.68c-2.9,27.28-4.34,57.25-4.34,89.89
		C707.66,1152.06,710.14,1187.7,715.1,1216.01z"/>
	<path d="M1132.96,1190.9c0.82,4.96,2.27,11.47,4.34,19.53c2.06,8.06,5.06,16.74,8.99,26.04c3.92,9.3,8.88,18.81,14.88,28.52
		c5.99,9.72,13.33,18.71,22.01,26.97c9.5,9.51,18.7,16.74,27.59,21.7c8.88,4.96,17.36,8.58,25.42,10.85
		c8.06,2.27,15.7,3.51,22.94,3.72c7.23,0.21,13.95,0.31,20.15,0.31c21.9,0,39.88-3.41,53.94-10.23
		c14.05-6.82,25.11-15.19,33.17-25.11c8.06-9.92,13.74-20.35,17.05-31.31c3.3-10.95,4.96-20.56,4.96-28.83
		c0-15.29-3.62-27.9-10.85-37.82c-7.24-9.92-16.84-18.18-28.83-24.8c-11.99-6.61-25.63-12.18-40.92-16.74
		c-15.3-4.54-31-9.19-47.12-13.95c-16.12-4.74-31.83-10.33-47.12-16.74c-15.3-6.4-28.93-14.67-40.92-24.8
		c-11.99-10.12-21.6-22.63-28.83-37.51c-7.24-14.88-10.85-33.48-10.85-55.8c0-16.53,3.72-32.44,11.16-47.74
		c7.44-15.29,17.77-28.83,31-40.61c13.22-11.78,29.03-21.28,47.43-28.52c18.39-7.23,38.33-10.85,59.83-10.85
		c13.64,0,25.62,1.24,35.96,3.72c10.33,2.48,19.42,5.07,27.28,7.75c7.85,2.69,14.77,5.27,20.77,7.75
		c5.99,2.48,11.47,3.72,16.43,3.72c5.78,0,9.61-0.93,11.47-2.79c1.86-1.86,3.82-5.27,5.89-10.23h9.92v117.8h-8.06
		c-4.96-14.46-10.23-28.72-15.81-42.78c-5.58-14.05-12.71-26.76-21.39-38.13c-8.68-11.36-19.64-20.56-32.86-27.59
		c-13.23-7.02-29.97-10.54-50.22-10.54c-16.54,0-31.11,2.27-43.71,6.82c-12.61,4.55-23.25,10.54-31.93,17.98
		c-8.68,7.44-15.3,15.71-19.84,24.8c-4.55,9.1-6.82,18.4-6.82,27.9c0,14.47,3.82,26.45,11.47,35.96
		c7.64,9.51,17.67,17.67,30.07,24.49s26.55,12.71,42.47,17.67c15.91,4.96,32.24,10.13,48.98,15.5
		c16.74,5.38,33.06,11.26,48.98,17.67c15.91,6.41,30.07,14.57,42.47,24.49c12.4,9.92,22.42,21.92,30.07,35.96
		c7.64,14.06,11.47,31.42,11.47,52.08c0,20.26-4.14,39.48-12.4,57.66c-8.27,18.19-19.94,34.1-35.03,47.74
		c-15.09,13.64-33.07,24.49-53.94,32.55c-20.88,8.06-44.13,12.09-69.75,12.09c-12.82,0-25.53-1.24-38.13-3.72
		c-12.61-2.48-24.39-5.06-35.34-7.75c-10.96-2.68-20.67-5.27-29.14-7.75c-8.48-2.48-14.78-3.72-18.91-3.72
		c-5.79,0-9.92,0.93-12.4,2.79c-2.48,1.86-4.76,5.69-6.82,11.47h-9.92V1190.9H1132.96z"/>
	<path d="M1625.22,895.79c-15.3,0-28.94,1.55-40.92,4.65c-11.99,3.1-22.74,8.48-32.24,16.12c-9.51,7.65-17.98,18.29-25.42,31.93
		c-7.44,13.64-14.26,31-20.46,52.08h-8.06V887.11h388.73v113.46h-8.06c-6.2-21.08-13.02-38.44-20.46-52.08
		c-7.44-13.64-15.92-24.28-25.42-31.93c-9.51-7.64-20.26-13.02-32.24-16.12c-11.99-3.1-25.63-4.65-40.92-4.65h-22.32v424.06h57.04
		v8.68H1590.5v-8.68h57.04V895.79H1625.22z"/>
	<path d="M1935.2,1319.86l184.75-450.1h16.74l195.29,450.1h53.32v8.68h-208.31v-8.68h57.66l-71.92-166.15h-148.79l-68.82,166.15
		h55.18v8.68h-117.18v-8.68H1935.2z M2017.04,1145.02h142.6l-73.16-169.26L2017.04,1145.02z"/>
</g>
<g>
	<path d="M3078.5,697.93v12.4h-81.48v290.5h255.96v-290.5h-81.48v-12.4h291.39v12.4h-81.48v605.81h81.48v12.4h-291.39v-12.4h81.48
		v-302.9h-255.96v302.9h81.48v12.4h-291.39v-12.4h81.48V710.33h-81.48v-12.4H3078.5z"/>
	<path d="M3523.59,1013.59c14.26-28.52,32.55-52.9,54.87-73.16c22.32-20.25,47.32-35.85,75.02-46.81
		c27.69-10.95,54.76-16.43,81.22-16.43c28.52,0,56.73,5.38,84.63,16.12c27.9,10.75,52.7,26.04,74.4,45.88
		c21.7,19.84,39.26,43.92,52.7,72.23c13.43,28.31,20.15,60.24,20.15,95.78c0,31-6.31,60.45-18.91,88.35
		c-12.61,27.9-29.55,52.39-50.84,73.47c-21.29,21.08-45.88,37.72-73.78,49.91c-27.9,12.19-57.35,18.29-88.35,18.29
		c-30.59,0-59.93-5.89-88.04-17.67c-28.11-11.78-52.8-27.9-74.09-48.36c-21.29-20.46-38.34-44.53-51.15-72.23
		c-12.81-27.69-19.22-57.66-19.22-89.9C3502.2,1073.94,3509.33,1042.11,3523.59,1013.59z M3610.7,1216.01
		c4.96,28.31,12.71,50.84,23.25,67.58s24.18,28.42,40.92,35.03c16.74,6.62,36.67,9.92,59.83,9.92c30.58,0,54.56-5.68,71.92-17.05
		c17.36-11.36,30.38-27.06,39.06-47.12c8.68-20.04,14.15-43.8,16.43-71.3c2.27-27.48,3.41-57.35,3.41-89.58
		c0-28.93-0.93-56.52-2.79-82.77c-1.86-26.24-7.13-49.38-15.81-69.44c-8.68-20.04-21.81-35.96-39.37-47.74
		c-17.57-11.78-41.85-17.67-72.85-17.67c-28.93,0-52.08,5.48-69.44,16.43c-17.36,10.96-30.59,26.35-39.68,46.19
		c-9.1,19.84-15.09,43.4-17.98,70.68c-2.89,27.28-4.34,57.25-4.34,89.89C3603.26,1152.06,3605.74,1187.7,3610.7,1216.01z"/>
	<path d="M4160.61,887.11l107.25,308.75h1.24l109.12-308.75h155v8.68h-57.04v424.06h57.04v8.68h-203.35v-8.68h56.42V895.79h-1.24
		l-152.51,432.74h-9.92l-153.13-432.74h-1.24v424.06h57.04v8.68h-124v-8.68h57.04V895.79h-57.04v-8.68H4160.61z"/>
	<path d="M4935.58,887.11v106.02h-8.06c-2.07-7.02-5.58-16.01-10.54-26.97c-4.96-10.94-11.88-21.59-20.77-31.93
		c-8.89-10.32-20.36-19.31-34.41-26.97c-14.06-7.64-31.21-11.47-51.46-11.47h-98.58v191.57h34.72c15.29,0,28.21-2.17,38.75-6.51
		c10.54-4.34,19.32-10.54,26.35-18.6c7.02-8.06,12.8-17.77,17.36-29.14c4.54-11.36,8.26-24.07,11.16-38.13h8.06v192.81h-8.06
		c-2.9-11.98-6.31-23.56-10.23-34.72c-3.93-11.16-9.2-20.97-15.81-29.45c-6.62-8.47-14.78-15.19-24.49-20.15
		c-9.71-4.96-21.81-7.44-36.27-7.44h-41.54v223.81h101.68c19.01,0,36.16-3.19,51.46-9.61c15.29-6.41,28.83-15.4,40.61-26.97
		c11.78-11.57,21.59-25.11,29.45-40.61c7.85-15.5,13.84-32.13,17.98-49.91h8.06v135.77h-396.17v-8.68h57.04V895.79h-57.04v-8.68
		H4935.58z"/>
</g>
</svg>
