<svg width="57" height="57" viewBox="0 0 57 57" fill="none" xmlns="http://www.w3.org/2000/svg">
<circle cx="28.5002" cy="28.5" r="28.5" fill="#F04338"/>
<path d="M16.9396 37.9393C16.3538 38.5251 16.3538 39.4749 16.9396 40.0607C17.5254 40.6464 18.4751 40.6464 19.0609 40.0607L16.9396 37.9393ZM39.5002 19C39.5002 18.1716 38.8287 17.5 38.0002 17.5H24.5002C23.6718 17.5 23.0002 18.1716 23.0002 19C23.0002 19.8284 23.6718 20.5 24.5002 20.5H36.5002V32.5C36.5002 33.3284 37.1718 34 38.0002 34C38.8287 34 39.5002 33.3284 39.5002 32.5V19ZM19.0609 40.0607L39.0609 20.0607L36.9396 17.9393L16.9396 37.9393L19.0609 40.0607Z" fill="#FAFAFA"/>
</svg>
