<svg width="34" height="34" viewBox="0 0 34 34" fill="none" xmlns="http://www.w3.org/2000/svg">
<rect width="34" height="34" rx="17" fill="#168845"/>
<path d="M19.7914 10.1407C19.7702 10.0984 19.7377 10.0629 19.6975 10.038C19.6573 10.0132 19.6109 10 19.5637 10C19.5164 10 19.47 10.0132 19.4298 10.038C19.3896 10.0629 19.3571 10.0984 19.336 10.1407L18.8269 11.1589C18.7967 11.2193 18.7917 11.2892 18.8131 11.3532C18.8344 11.4173 18.8803 11.4702 18.9407 11.5004C19.0011 11.5306 19.071 11.5356 19.1351 11.5142C19.1991 11.4929 19.2521 11.447 19.2823 11.3866L19.3091 11.3329V23.3178C19.31 23.3628 19.293 23.4062 19.2619 23.4387C19.2308 23.4711 19.1881 23.4899 19.1431 23.4909H15.1478C15.1029 23.4899 15.0602 23.4711 15.0291 23.4387C14.998 23.4062 14.981 23.3628 14.9818 23.3178V15.4065C14.9814 15.3842 14.9854 15.362 14.9936 15.3412C15.0018 15.3204 15.014 15.3014 15.0295 15.2854C15.045 15.2693 15.0636 15.2564 15.0841 15.2475C15.1046 15.2386 15.1266 15.2339 15.149 15.2335L18.6485 15.2182C18.716 15.218 18.7807 15.1911 18.8283 15.1432C18.876 15.0954 18.9027 15.0306 18.9025 14.9631C18.9024 14.8956 18.8754 14.8309 18.8276 14.7833C18.7797 14.7356 18.7149 14.7089 18.6474 14.7091H18.6463L15.1478 14.7244C14.9679 14.7255 14.7958 14.798 14.6692 14.9259C14.5427 15.0538 14.472 15.2266 14.4728 15.4065V23.3178C14.472 23.4978 14.5427 23.6706 14.6692 23.7985C14.7958 23.9264 14.9679 23.9989 15.1478 24H19.1431C19.323 23.9989 19.4952 23.9264 19.6217 23.7985C19.7483 23.6706 19.8189 23.4978 19.8182 23.3178V11.3329L19.8451 11.3866C19.86 11.4165 19.8807 11.4431 19.906 11.465C19.9312 11.487 19.9605 11.5037 19.9923 11.5142C20.024 11.5248 20.0575 11.529 20.0908 11.5267C20.1241 11.5243 20.1567 11.5154 20.1866 11.5004C20.2165 11.4855 20.2432 11.4648 20.2651 11.4395C20.287 11.4143 20.3037 11.3849 20.3143 11.3532C20.3248 11.3215 20.3291 11.288 20.3267 11.2547C20.3243 11.2213 20.3154 11.1888 20.3005 11.1589L19.7914 10.1407Z" fill="#DEFFEC"/>
<path d="M18.8 16.9982C18.8 16.9408 18.7807 16.8852 18.7451 16.8402C18.7095 16.7952 18.6598 16.7636 18.604 16.7504C18.221 16.6601 18.2325 16.4 18.2545 16.2955C18.2635 16.2581 18.2638 16.2192 18.2555 16.1816C18.2473 16.144 18.2306 16.1089 18.2068 16.0787C18.1829 16.0485 18.1526 16.0241 18.118 16.0073C18.0834 15.9905 18.0454 15.9818 18.0069 15.9818H16.284C16.246 15.9821 16.2086 15.9909 16.1745 16.0075C16.1404 16.0241 16.1104 16.0481 16.0867 16.0778C16.0628 16.1076 16.0459 16.1423 16.0371 16.1794C16.0283 16.2165 16.0278 16.2551 16.0357 16.2924C16.0584 16.4 16.0699 16.6601 15.687 16.7505C15.6312 16.7636 15.5815 16.7953 15.5459 16.8402C15.5103 16.8852 15.4909 16.9408 15.4909 16.9982V17.2545C15.4909 17.322 15.5178 17.3868 15.5655 17.4345C15.6132 17.4823 15.678 17.5091 15.7455 17.5091C15.813 17.5091 15.8777 17.4823 15.9255 17.4345C15.9732 17.3868 16 17.322 16 17.2545V17.1834C16.1754 17.1154 16.3241 16.9927 16.4242 16.8334C16.4879 16.7291 16.5285 16.6123 16.5434 16.4909H17.7475C17.7624 16.6123 17.803 16.7291 17.8667 16.8334C17.9668 16.9926 18.1156 17.1154 18.2909 17.1834V17.2545C18.2909 17.322 18.3178 17.3868 18.3655 17.4345C18.4132 17.4823 18.478 17.5091 18.5455 17.5091C18.613 17.5091 18.6777 17.4823 18.7255 17.4345C18.7732 17.3868 18.8 17.322 18.8 17.2545V16.9982ZM18.604 21.9587C18.6598 21.9455 18.7095 21.9138 18.7451 21.8689C18.7807 21.8239 18.8 21.7682 18.8 21.7109V21.4545C18.8 21.387 18.7732 21.3223 18.7255 21.2745C18.6777 21.2268 18.613 21.2 18.5455 21.2C18.478 21.2 18.4132 21.2268 18.3655 21.2745C18.3178 21.3223 18.2909 21.387 18.2909 21.4545V21.5256C18.1156 21.5937 17.9668 21.7164 17.8667 21.8756C17.803 21.98 17.7624 22.0968 17.7475 22.2182H16.5434C16.5285 22.0968 16.4879 21.98 16.4242 21.8756C16.3241 21.7164 16.1754 21.5937 16 21.5256V21.4545C16 21.387 15.9732 21.3223 15.9255 21.2745C15.8777 21.2268 15.813 21.2 15.7455 21.2C15.678 21.2 15.6132 21.2268 15.5655 21.2745C15.5178 21.3223 15.4909 21.387 15.4909 21.4545V21.7109C15.4909 21.7682 15.5103 21.8239 15.5459 21.8689C15.5815 21.9138 15.6312 21.9454 15.687 21.9586C16.0699 22.049 16.0584 22.309 16.0364 22.4136C16.0274 22.451 16.0271 22.4899 16.0354 22.5275C16.0436 22.565 16.0603 22.6002 16.0842 22.6304C16.108 22.6606 16.1383 22.685 16.1729 22.7018C16.2076 22.7186 16.2455 22.7273 16.284 22.7273H18.0069C18.0449 22.7269 18.0823 22.7182 18.1164 22.7016C18.1506 22.685 18.1806 22.661 18.2042 22.6313C18.2281 22.6015 18.245 22.5668 18.2538 22.5297C18.2626 22.4926 18.2631 22.454 18.2552 22.4167C18.2325 22.309 18.221 22.049 18.604 21.9587ZM17.1355 17.7636C17.068 17.7636 17.0032 17.7905 16.9555 17.8382C16.9078 17.8859 16.8809 17.9507 16.8809 18.0182V18.2048C16.6765 18.2422 16.4946 18.3573 16.3732 18.526C16.2962 18.6413 16.2549 18.7767 16.2543 18.9153C16.2537 19.0539 16.2939 19.1896 16.3699 19.3055C16.5427 19.5786 16.8489 19.662 17.0949 19.7291C17.3554 19.8001 17.4824 19.8461 17.5205 19.9596C17.5551 20.0639 17.4382 20.143 17.3721 20.1701C17.2893 20.2 17.2009 20.2111 17.1133 20.2026C17.0256 20.1942 16.941 20.1664 16.8654 20.1212C16.8072 20.0869 16.7378 20.0772 16.6725 20.0941C16.6071 20.1109 16.5511 20.1531 16.5168 20.2113C16.4825 20.2694 16.4728 20.3388 16.4897 20.4042C16.5065 20.4696 16.5487 20.5256 16.6069 20.5598C16.6927 20.6102 16.7849 20.6488 16.8809 20.6748V20.8182C16.8809 20.8857 16.9078 20.9504 16.9555 20.9982C17.0032 21.0459 17.068 21.0727 17.1355 21.0727C17.203 21.0727 17.2677 21.0459 17.3155 20.9982C17.3632 20.9504 17.39 20.8857 17.39 20.8182V20.6932C17.4497 20.6814 17.5081 20.664 17.5646 20.6413C17.9311 20.4913 18.1158 20.1372 18.0035 19.7985C17.8743 19.4139 17.5164 19.3163 17.2288 19.2379C17.0428 19.1872 16.8672 19.1394 16.7998 19.0328C16.7778 19.0007 16.7656 18.963 16.7644 18.9241C16.7633 18.8852 16.7733 18.8468 16.7934 18.8134C16.8784 18.6889 17.1007 18.6653 17.2716 18.6958C17.3241 18.706 17.3743 18.7258 17.4197 18.7542C17.4481 18.7717 17.4798 18.7835 17.5128 18.7889C17.5459 18.7942 17.5797 18.793 17.6122 18.7853C17.6448 18.7775 17.6755 18.7635 17.7026 18.7438C17.7297 18.7242 17.7527 18.6995 17.7703 18.6709C17.7878 18.6424 17.7995 18.6108 17.8048 18.5777C17.8101 18.5447 17.8088 18.5109 17.801 18.4783C17.7932 18.4458 17.7791 18.4151 17.7594 18.388C17.7397 18.3609 17.7149 18.338 17.6864 18.3205C17.595 18.2644 17.4948 18.2241 17.39 18.2013V18.0182C17.39 17.9507 17.3632 17.8859 17.3155 17.8382C17.2677 17.7905 17.203 17.7636 17.1355 17.7636ZM21.9818 18.7818C22.0494 18.7818 22.1141 18.755 22.1618 18.7073C22.2096 18.6595 22.2364 18.5948 22.2364 18.5273V18.513C22.3351 18.4665 22.4214 18.3975 22.4886 18.3116C22.5557 18.2257 22.6017 18.1252 22.6229 18.0182H23.3771C23.3983 18.1252 23.4443 18.2257 23.5115 18.3116C23.5786 18.3975 23.665 18.4665 23.7637 18.513V18.5273C23.7637 18.5948 23.7905 18.6595 23.8382 18.7073C23.886 18.755 23.9507 18.7818 24.0182 18.7818C24.0857 18.7818 24.1505 18.755 24.1982 18.7073C24.2459 18.6595 24.2728 18.5948 24.2728 18.5273V18.335C24.2727 18.2779 24.2536 18.2226 24.2183 18.1777C24.1831 18.1329 24.1338 18.1011 24.0784 18.0877C23.9165 18.0483 23.8482 17.9572 23.8745 17.8211C23.8832 17.7837 23.8833 17.7449 23.8749 17.7076C23.8665 17.6702 23.8497 17.6352 23.8259 17.6052C23.802 17.5752 23.7717 17.551 23.7372 17.5344C23.7027 17.5177 23.6649 17.5091 23.6266 17.5091H22.3735C22.3352 17.5091 22.2974 17.5177 22.2628 17.5344C22.2283 17.551 22.198 17.5752 22.1742 17.6052C22.1504 17.6352 22.1336 17.6702 22.1252 17.7076C22.1167 17.7449 22.1169 17.7837 22.1255 17.8211C22.1398 17.8828 22.1486 18.0325 21.9217 18.0877C21.8663 18.1011 21.817 18.1329 21.7817 18.1777C21.7465 18.2226 21.7273 18.2779 21.7273 18.335V18.5273C21.7273 18.5948 21.7541 18.6595 21.8019 18.7073C21.8496 18.755 21.9143 18.7818 21.9818 18.7818ZM21.9217 22.276C22.0836 22.3154 22.1519 22.4064 22.1255 22.5426C22.1169 22.5799 22.1167 22.6187 22.1252 22.6561C22.1336 22.6934 22.1504 22.7284 22.1742 22.7584C22.198 22.7884 22.2283 22.8126 22.2628 22.8293C22.2973 22.8459 22.3352 22.8546 22.3735 22.8545H23.6266C23.6649 22.8546 23.7027 22.8459 23.7372 22.8293C23.7717 22.8126 23.802 22.7884 23.8259 22.7584C23.8497 22.7284 23.8665 22.6934 23.8749 22.6561C23.8833 22.6187 23.8832 22.5799 23.8745 22.5426C23.8602 22.4808 23.8515 22.3312 24.0784 22.276C24.1338 22.2625 24.1831 22.2308 24.2183 22.1859C24.2536 22.1411 24.2727 22.0857 24.2728 22.0286V21.8364C24.2728 21.7688 24.2459 21.7041 24.1982 21.6564C24.1505 21.6086 24.0857 21.5818 24.0182 21.5818C23.9507 21.5818 23.886 21.6086 23.8382 21.6564C23.7905 21.7041 23.7637 21.7688 23.7637 21.8364V21.8506C23.665 21.8971 23.5786 21.9661 23.5115 22.052C23.4443 22.138 23.3983 22.2385 23.3771 22.3454H22.6229C22.6017 22.2385 22.5557 22.138 22.4886 22.052C22.4214 21.9661 22.3351 21.8971 22.2364 21.8506V21.8364C22.2364 21.7688 22.2096 21.7041 22.1618 21.6564C22.1141 21.6086 22.0494 21.5818 21.9818 21.5818C21.9143 21.5818 21.8496 21.6086 21.8019 21.6564C21.7541 21.7041 21.7273 21.7688 21.7273 21.8364V22.0286C21.7273 22.0857 21.7465 22.1411 21.7817 22.1859C21.817 22.2308 21.8663 22.2625 21.9217 22.276Z" fill="#DEFFEC"/>
<path d="M24.6545 16.4909H21.9818C21.9143 16.4909 21.8496 16.5177 21.8018 16.5655C21.7541 16.6132 21.7273 16.6779 21.7273 16.7454C21.7273 16.813 21.7541 16.8777 21.8018 16.9254C21.8496 16.9732 21.9143 17 21.9818 17L24.649 16.9995C24.6855 17.0223 24.7165 17.053 24.7395 17.0895C24.7625 17.1259 24.777 17.1671 24.7818 17.2099V23.2569C24.7827 23.2843 24.7727 23.3109 24.754 23.3308C24.7354 23.3508 24.7095 23.3626 24.6822 23.3636H21.3178C21.2905 23.3626 21.2646 23.3508 21.246 23.3308C21.2273 23.3109 21.2173 23.2843 21.2182 23.2569V14.547C21.2655 14.5746 21.3204 14.5861 21.3749 14.5799C21.4293 14.5737 21.4802 14.5501 21.5201 14.5126C21.56 14.4751 21.5868 14.4258 21.5963 14.3718C21.6059 14.3179 21.5977 14.2623 21.5732 14.2134L21.1913 13.4498C21.1702 13.4075 21.1377 13.3719 21.0975 13.3471C21.0573 13.3222 21.0109 13.3091 20.9636 13.3091C20.9164 13.3091 20.87 13.3222 20.8298 13.3471C20.7896 13.3719 20.7571 13.4075 20.7359 13.4498L20.3541 14.2134C20.3296 14.2624 20.3215 14.3179 20.3311 14.3718C20.3407 14.4257 20.3674 14.4751 20.4072 14.5126C20.4471 14.5501 20.498 14.5738 20.5524 14.58C20.6068 14.5863 20.6617 14.5749 20.7091 14.5474V23.2569C20.7083 23.4192 20.772 23.5752 20.8861 23.6907C21.0002 23.8061 21.1555 23.8716 21.3178 23.8727H24.6822C24.8445 23.8716 24.9998 23.8061 25.1139 23.6907C25.228 23.5752 25.2917 23.4193 25.2909 23.2569V17.2099C25.2909 16.8842 25.007 16.4909 24.6545 16.4909Z" fill="#DEFFEC"/>
<path d="M22.992 21.5818C23.0595 21.5818 23.1242 21.555 23.172 21.5073C23.2197 21.4595 23.2465 21.3948 23.2465 21.3273V21.2604C23.284 21.2511 23.3208 21.2392 23.3565 21.2247C23.503 21.1726 23.624 21.0664 23.6945 20.9278C23.7649 20.7892 23.7795 20.6289 23.7352 20.4799C23.624 20.1414 23.3104 20.0539 23.0814 19.9901C22.9427 19.9514 22.8117 19.9149 22.7677 19.8438C22.7544 19.8244 22.7469 19.8017 22.7458 19.7782C22.7448 19.7547 22.7504 19.7314 22.7619 19.7109C22.8146 19.632 22.9676 19.6134 23.0907 19.6361C23.1262 19.6432 23.1601 19.657 23.1905 19.6766C23.2188 19.6946 23.2503 19.7068 23.2834 19.7125C23.3164 19.7183 23.3503 19.7175 23.383 19.7101C23.4157 19.7027 23.4466 19.689 23.474 19.6696C23.5014 19.6503 23.5247 19.6257 23.5425 19.5973C23.5604 19.5689 23.5724 19.5373 23.578 19.5042C23.5836 19.4712 23.5826 19.4373 23.5751 19.4047C23.5676 19.372 23.5537 19.3411 23.5342 19.3138C23.5147 19.2865 23.49 19.2634 23.4616 19.2457C23.3948 19.2046 23.3223 19.1736 23.2465 19.1537V19.0364C23.2465 18.9688 23.2197 18.9041 23.172 18.8564C23.1242 18.8086 23.0595 18.7818 22.992 18.7818C22.9245 18.7818 22.8597 18.8086 22.812 18.8564C22.7643 18.9041 22.7374 18.9688 22.7374 19.0364V19.1523C22.5752 19.1921 22.4333 19.2902 22.3387 19.4279C22.2725 19.5295 22.2369 19.6481 22.2363 19.7695C22.2356 19.8908 22.27 20.0098 22.3351 20.1121C22.4835 20.3518 22.7392 20.4232 22.9447 20.4805C23.1354 20.5336 23.2278 20.5665 23.2512 20.6377C23.2697 20.6949 23.1915 20.7418 23.1603 20.7549C23.102 20.7762 23.0397 20.784 22.9779 20.7776C22.9162 20.7713 22.8568 20.7511 22.804 20.7184C22.7462 20.6836 22.6769 20.6731 22.6114 20.6893C22.5458 20.7056 22.4894 20.7472 22.4546 20.805C22.4197 20.8628 22.4092 20.9321 22.4255 20.9976C22.4417 21.0632 22.4833 21.1196 22.5411 21.1544C22.603 21.1909 22.6689 21.2201 22.7374 21.2415V21.3273C22.7374 21.3948 22.7643 21.4595 22.812 21.5072C22.8597 21.555 22.9245 21.5818 22.992 21.5818ZM13.555 13.4498C13.5338 13.4075 13.5013 13.3719 13.4611 13.3471C13.4209 13.3222 13.3746 13.3091 13.3273 13.3091C13.28 13.3091 13.2337 13.3222 13.1934 13.3471C13.1532 13.3719 13.1207 13.4075 13.0996 13.4498L12.7178 14.2134C12.6932 14.2624 12.6852 14.3179 12.6947 14.3718C12.7043 14.4257 12.731 14.4751 12.7709 14.5126C12.8107 14.5501 12.8616 14.5738 12.916 14.5801C12.9704 14.5863 13.0254 14.5749 13.0727 14.5475V23.2569C13.0736 23.2843 13.0636 23.3108 13.045 23.3308C13.0263 23.3508 13.0005 23.3626 12.9731 23.3636H9.60872C9.58138 23.3626 9.55555 23.3508 9.53688 23.3308C9.51821 23.3108 9.50822 23.2843 9.5091 23.2569V17.2099C9.51407 17.1679 9.528 17.1274 9.54995 17.0911C9.57191 17.0549 9.60138 17.0238 9.63637 17H12.3091C12.3766 17 12.4414 16.9732 12.4891 16.9254C12.5368 16.8777 12.5636 16.813 12.5636 16.7454C12.5636 16.6779 12.5368 16.6132 12.4891 16.5655C12.4414 16.5177 12.3766 16.4909 12.3091 16.4909H9.63637C9.28388 16.4909 9.00001 16.8842 9.00001 17.2099V23.2569C8.99925 23.4192 9.06292 23.5752 9.17703 23.6907C9.29115 23.8061 9.44639 23.8716 9.60872 23.8727H12.9731C13.1354 23.8716 13.2907 23.8061 13.4048 23.6907C13.5189 23.5752 13.5826 23.4192 13.5818 23.2569V14.547C13.6291 14.5746 13.6841 14.5861 13.7385 14.5799C13.7929 14.5737 13.8439 14.5501 13.8838 14.5126C13.9237 14.4751 13.9504 14.4257 13.9599 14.3718C13.9695 14.3179 13.9614 14.2623 13.9368 14.2134L13.555 13.4498Z" fill="#DEFFEC"/>
<path d="M12.5636 18.335C12.5636 18.278 12.5445 18.2226 12.5092 18.1777C12.474 18.1329 12.4247 18.1011 12.3693 18.0877C12.2074 18.0483 12.1391 17.9572 12.1654 17.8211C12.1741 17.7837 12.1742 17.7449 12.1658 17.7076C12.1573 17.6702 12.1406 17.6352 12.1168 17.6052C12.0929 17.5752 12.0626 17.551 12.0281 17.5344C11.9936 17.5177 11.9558 17.5091 11.9175 17.5091H10.6644C10.6261 17.5091 10.5882 17.5177 10.5537 17.5344C10.5192 17.551 10.4889 17.5752 10.4651 17.6052C10.4412 17.6352 10.4245 17.6702 10.4161 17.7076C10.4076 17.7449 10.4078 17.7837 10.4164 17.8211C10.4307 17.8828 10.4395 18.0325 10.2126 18.0877C10.1572 18.1011 10.1079 18.1329 10.0726 18.1777C10.0374 18.2226 10.0182 18.278 10.0182 18.335V18.5273C10.0182 18.5948 10.045 18.6595 10.0927 18.7073C10.1405 18.755 10.2052 18.7818 10.2727 18.7818C10.3402 18.7818 10.405 18.755 10.4527 18.7073C10.5005 18.6595 10.5273 18.5948 10.5273 18.5273V18.513C10.626 18.4665 10.7123 18.3976 10.7795 18.3116C10.8466 18.2257 10.8926 18.1252 10.9138 18.0182H11.668C11.6892 18.1252 11.7352 18.2257 11.8024 18.3116C11.8695 18.3976 11.9559 18.4665 12.0546 18.513V18.5273C12.0546 18.5948 12.0814 18.6595 12.1291 18.7073C12.1768 18.755 12.2416 18.7818 12.3091 18.7818C12.3766 18.7818 12.4414 18.755 12.4891 18.7073C12.5368 18.6595 12.5636 18.5948 12.5636 18.5273V18.335ZM12.3693 22.276C12.4247 22.2625 12.474 22.2308 12.5092 22.1859C12.5445 22.1411 12.5636 22.0857 12.5636 22.0286V21.8364C12.5636 21.7689 12.5368 21.7041 12.4891 21.6564C12.4414 21.6086 12.3766 21.5818 12.3091 21.5818C12.2416 21.5818 12.1768 21.6086 12.1291 21.6564C12.0814 21.7041 12.0546 21.7689 12.0546 21.8364V21.8507C11.9559 21.8971 11.8695 21.9661 11.8024 22.052C11.7352 22.138 11.6892 22.2385 11.668 22.3455H10.9138C10.8926 22.2385 10.8466 22.138 10.7795 22.052C10.7123 21.9661 10.626 21.8971 10.5273 21.8507V21.8364C10.5273 21.7689 10.5005 21.7041 10.4527 21.6564C10.405 21.6086 10.3402 21.5818 10.2727 21.5818C10.2052 21.5818 10.1405 21.6086 10.0927 21.6564C10.045 21.7041 10.0182 21.7689 10.0182 21.8364V22.0286C10.0182 22.0857 10.0374 22.1411 10.0726 22.1859C10.1079 22.2308 10.1571 22.2625 10.2126 22.276C10.3745 22.3154 10.4428 22.4064 10.4164 22.5426C10.4078 22.5799 10.4076 22.6187 10.4161 22.6561C10.4245 22.6934 10.4412 22.7284 10.4651 22.7584C10.4889 22.7884 10.5192 22.8126 10.5537 22.8293C10.5882 22.8459 10.6261 22.8546 10.6644 22.8545H11.9175C11.9558 22.8546 11.9936 22.8459 12.0281 22.8293C12.0626 22.8126 12.0929 22.7884 12.1167 22.7584C12.1406 22.7284 12.1573 22.6934 12.1658 22.6561C12.1742 22.6187 12.1741 22.5799 12.1654 22.5426C12.1511 22.4808 12.1424 22.3312 12.3693 22.276Z" fill="#DEFFEC"/>
<path d="M11.2829 18.7818C11.2154 18.7818 11.1507 18.8086 11.1029 18.8563C11.0552 18.9041 11.0284 18.9688 11.0284 19.0363V19.1523C10.8662 19.1921 10.7243 19.2902 10.6296 19.4278C10.5634 19.5295 10.5278 19.6481 10.5272 19.7694C10.5266 19.8908 10.5609 20.0097 10.626 20.1121C10.7744 20.3518 11.0301 20.4231 11.2356 20.4804C11.4263 20.5335 11.5187 20.5665 11.5421 20.6376C11.5606 20.6948 11.4824 20.7417 11.4512 20.7548C11.3929 20.7761 11.3306 20.7839 11.2689 20.7776C11.2071 20.7713 11.1477 20.751 11.0949 20.7184C11.0371 20.6835 10.9678 20.6731 10.9023 20.6893C10.8367 20.7055 10.7803 20.7471 10.7455 20.8049C10.7106 20.8628 10.7002 20.9321 10.7164 20.9976C10.7326 21.0631 10.7742 21.1195 10.8321 21.1544C10.8939 21.1909 10.9598 21.2201 11.0284 21.2414V21.3272C11.0284 21.3947 11.0552 21.4595 11.1029 21.5072C11.1507 21.5549 11.2154 21.5818 11.2829 21.5818C11.3504 21.5818 11.4152 21.5549 11.4629 21.5072C11.5106 21.4595 11.5375 21.3947 11.5375 21.3272V21.2604C11.5749 21.2511 11.6117 21.2391 11.6475 21.2246C11.794 21.1726 11.9149 21.0663 11.9854 20.9278C12.0558 20.7892 12.0704 20.6288 12.0261 20.4798C11.9149 20.1413 11.6013 20.0539 11.3723 19.99C11.2336 19.9513 11.1026 19.9148 11.0586 19.8438C11.0454 19.8243 11.0378 19.8016 11.0368 19.7781C11.0357 19.7546 11.0413 19.7313 11.0528 19.7108C11.1056 19.6319 11.2585 19.6134 11.3817 19.6361C11.4171 19.6432 11.451 19.6569 11.4814 19.6765C11.5385 19.7121 11.6074 19.7236 11.673 19.7085C11.7386 19.6934 11.7955 19.6529 11.8314 19.5959C11.8672 19.539 11.879 19.4702 11.8642 19.4045C11.8494 19.3388 11.8093 19.2817 11.7525 19.2456C11.6857 19.2046 11.6133 19.1736 11.5375 19.1537V19.0363C11.5375 18.9688 11.5106 18.9041 11.4629 18.8563C11.4152 18.8086 11.3504 18.7818 11.2829 18.7818ZM10.1284 13.1829C10.1841 13.2211 10.2526 13.2357 10.319 13.2234C10.3854 13.2111 10.4442 13.173 10.4825 13.1174L10.6546 12.8672L10.8266 13.1174C10.8456 13.145 10.8698 13.1685 10.8978 13.1867C10.9259 13.2049 10.9572 13.2174 10.9901 13.2235C11.023 13.2296 11.0567 13.2291 11.0894 13.2221C11.1221 13.2152 11.1531 13.2018 11.1807 13.1829C11.2082 13.1639 11.2318 13.1397 11.25 13.1117C11.2682 13.0836 11.2806 13.0523 11.2867 13.0194C11.2928 12.9865 11.2923 12.9528 11.2854 12.9201C11.2784 12.8874 11.2651 12.8564 11.2461 12.8288L10.8643 12.2738C10.8409 12.2398 10.8096 12.212 10.773 12.1928C10.7365 12.1736 10.6958 12.1636 10.6546 12.1636C10.6133 12.1636 10.5726 12.1736 10.5361 12.1928C10.4995 12.212 10.4682 12.2398 10.4448 12.2738L10.063 12.8288C10.0248 12.8845 10.0102 12.953 10.0224 13.0194C10.0347 13.0858 10.0728 13.1446 10.1284 13.1829ZM10.6546 14.2088C10.6042 14.2088 10.555 14.2238 10.5131 14.2517C10.4713 14.2797 10.4387 14.3195 10.4194 14.366C10.4001 14.4125 10.3951 14.4637 10.4049 14.513C10.4147 14.5624 10.439 14.6078 10.4746 14.6434C10.5102 14.679 10.5555 14.7032 10.6049 14.713C10.6543 14.7228 10.7055 14.7178 10.752 14.6985C10.7985 14.6793 10.8382 14.6467 10.8662 14.6048C10.8942 14.5629 10.9091 14.5137 10.9091 14.4634C10.9091 14.4299 10.9025 14.3968 10.8897 14.366C10.877 14.3351 10.8582 14.307 10.8346 14.2834C10.8109 14.2597 10.7829 14.241 10.752 14.2282C10.7211 14.2154 10.688 14.2088 10.6546 14.2088ZM10.6546 14.9637C10.6042 14.9637 10.555 14.9787 10.5131 15.0066C10.4713 15.0346 10.4387 15.0743 10.4194 15.1209C10.4001 15.1674 10.3951 15.2186 10.4049 15.2679C10.4147 15.3173 10.439 15.3627 10.4746 15.3983C10.5102 15.4339 10.5555 15.4581 10.6049 15.4679C10.6543 15.4777 10.7055 15.4727 10.752 15.4534C10.7985 15.4342 10.8382 15.4015 10.8662 15.3597C10.8942 15.3178 10.9091 15.2686 10.9091 15.2183C10.9091 15.1848 10.9025 15.1517 10.8897 15.1208C10.877 15.09 10.8582 15.0619 10.8346 15.0383C10.8109 15.0146 10.7829 14.9959 10.752 14.9831C10.7211 14.9703 10.688 14.9637 10.6546 14.9637ZM10.6546 13.4557C10.6042 13.4557 10.555 13.4706 10.5131 13.4986C10.4713 13.5266 10.4387 13.5663 10.4194 13.6128C10.4001 13.6593 10.3951 13.7105 10.4049 13.7599C10.4147 13.8093 10.439 13.8546 10.4746 13.8902C10.5102 13.9258 10.5555 13.9501 10.6049 13.9599C10.6543 13.9697 10.7055 13.9647 10.752 13.9454C10.7985 13.9261 10.8382 13.8935 10.8662 13.8516C10.8942 13.8098 10.9091 13.7606 10.9091 13.7102C10.9091 13.6768 10.9025 13.6437 10.8897 13.6128C10.877 13.5819 10.8582 13.5539 10.8346 13.5302C10.8109 13.5066 10.7829 13.4878 10.752 13.475C10.7211 13.4623 10.688 13.4557 10.6546 13.4557ZM16.3648 11.6549C16.4205 11.6931 16.489 11.7077 16.5554 11.6954C16.6217 11.6832 16.6805 11.6451 16.7188 11.5895L16.8909 11.3393L17.063 11.5895C17.082 11.617 17.1061 11.6406 17.1342 11.6588C17.1622 11.677 17.1936 11.6894 17.2265 11.6955C17.2593 11.7016 17.2931 11.7011 17.3258 11.6942C17.3585 11.6872 17.3895 11.6739 17.417 11.6549C17.4446 11.636 17.4681 11.6118 17.4863 11.5837C17.5045 11.5557 17.517 11.5243 17.5231 11.4915C17.5292 11.4586 17.5287 11.4248 17.5217 11.3921C17.5148 11.3594 17.5014 11.3284 17.4825 11.3009L17.1007 10.7459C17.0773 10.7119 17.0459 10.6841 17.0094 10.6649C16.9729 10.6457 16.9322 10.6356 16.8909 10.6356C16.8496 10.6356 16.809 10.6457 16.7725 10.6649C16.7359 10.6841 16.7046 10.7119 16.6812 10.7459L16.2994 11.3009C16.2611 11.3565 16.2465 11.4251 16.2588 11.4914C16.2711 11.5578 16.3092 11.6166 16.3648 11.6549ZM16.8909 12.6809C16.8406 12.6809 16.7914 12.6958 16.7495 12.7238C16.7076 12.7517 16.675 12.7915 16.6558 12.838C16.6365 12.8845 16.6314 12.9357 16.6413 12.9851C16.6511 13.0345 16.6753 13.0798 16.7109 13.1154C16.7465 13.151 16.7919 13.1752 16.8413 13.1851C16.8906 13.1949 16.9418 13.1899 16.9883 13.1706C17.0348 13.1513 17.0746 13.1187 17.1026 13.0768C17.1305 13.035 17.1455 12.9858 17.1455 12.9354C17.1455 12.902 17.1389 12.8689 17.1261 12.838C17.1133 12.8071 17.0946 12.779 17.0709 12.7554C17.0473 12.7318 17.0192 12.713 16.9883 12.7002C16.9575 12.6874 16.9244 12.6809 16.8909 12.6809ZM16.8909 13.4358C16.8406 13.4358 16.7914 13.4507 16.7495 13.4787C16.7076 13.5066 16.675 13.5464 16.6558 13.5929C16.6365 13.6394 16.6314 13.6906 16.6413 13.74C16.6511 13.7894 16.6753 13.8347 16.7109 13.8703C16.7465 13.9059 16.7919 13.9301 16.8413 13.94C16.8906 13.9498 16.9418 13.9447 16.9883 13.9255C17.0348 13.9062 17.0746 13.8736 17.1026 13.8317C17.1305 13.7899 17.1455 13.7407 17.1455 13.6903C17.1455 13.6569 17.1389 13.6238 17.1261 13.5929C17.1133 13.562 17.0946 13.5339 17.0709 13.5103C17.0473 13.4867 17.0192 13.4679 16.9883 13.4551C16.9575 13.4423 16.9244 13.4358 16.8909 13.4358ZM16.8909 11.9277C16.8406 11.9277 16.7914 11.9427 16.7495 11.9706C16.7076 11.9986 16.675 12.0384 16.6558 12.0849C16.6365 12.1314 16.6314 12.1826 16.6413 12.2319C16.6511 12.2813 16.6753 12.3267 16.7109 12.3623C16.7465 12.3979 16.7919 12.4221 16.8413 12.4319C16.8906 12.4418 16.9418 12.4367 16.9883 12.4174C17.0348 12.3982 17.0746 12.3656 17.1026 12.3237C17.1305 12.2818 17.1455 12.2326 17.1455 12.1823C17.1455 12.1488 17.1389 12.1157 17.1261 12.0849C17.1133 12.054 17.0946 12.0259 17.0709 12.0023C17.0473 11.9786 17.0192 11.9599 16.9883 11.9471C16.9575 11.9343 16.9244 11.9277 16.8909 11.9277ZM23.1103 13.1829C23.1659 13.2211 23.2344 13.2357 23.3008 13.2234C23.3672 13.2111 23.426 13.173 23.4643 13.1174L23.6364 12.8672L23.8085 13.1174C23.8274 13.145 23.8516 13.1685 23.8796 13.1867C23.9077 13.2049 23.9391 13.2174 23.9719 13.2235C24.0048 13.2296 24.0386 13.2291 24.0712 13.2221C24.1039 13.2152 24.135 13.2018 24.1625 13.1829C24.19 13.1639 24.2136 13.1397 24.2318 13.1117C24.25 13.0836 24.2625 13.0523 24.2685 13.0194C24.2746 12.9865 24.2742 12.9528 24.2672 12.9201C24.2602 12.8874 24.2469 12.8564 24.2279 12.8288L23.8461 12.2738C23.8227 12.2398 23.7914 12.212 23.7549 12.1928C23.7183 12.1736 23.6777 12.1636 23.6364 12.1636C23.5951 12.1636 23.5544 12.1736 23.5179 12.1928C23.4814 12.212 23.45 12.2398 23.4266 12.2738L23.0448 12.8288C23.0066 12.8845 22.992 12.953 23.0043 13.0194C23.0165 13.0858 23.0547 13.1446 23.1103 13.1829ZM23.6364 14.2088C23.586 14.2088 23.5368 14.2238 23.495 14.2517C23.4531 14.2797 23.4205 14.3195 23.4012 14.366C23.3819 14.4125 23.3769 14.4637 23.3867 14.513C23.3965 14.5624 23.4208 14.6078 23.4564 14.6434C23.492 14.679 23.5373 14.7032 23.5867 14.713C23.6361 14.7228 23.6873 14.7178 23.7338 14.6985C23.7803 14.6793 23.8201 14.6467 23.848 14.6048C23.876 14.5629 23.8909 14.5137 23.8909 14.4634C23.8909 14.4299 23.8844 14.3968 23.8716 14.366C23.8588 14.3351 23.84 14.307 23.8164 14.2834C23.7928 14.2597 23.7647 14.241 23.7338 14.2282C23.7029 14.2154 23.6698 14.2088 23.6364 14.2088ZM23.6364 14.9637C23.586 14.9637 23.5368 14.9787 23.495 15.0066C23.4531 15.0346 23.4205 15.0743 23.4012 15.1209C23.3819 15.1674 23.3769 15.2186 23.3867 15.2679C23.3965 15.3173 23.4208 15.3627 23.4564 15.3983C23.492 15.4339 23.5373 15.4581 23.5867 15.4679C23.6361 15.4777 23.6873 15.4727 23.7338 15.4534C23.7803 15.4342 23.8201 15.4015 23.848 15.3597C23.876 15.3178 23.8909 15.2686 23.8909 15.2183C23.8909 15.1848 23.8844 15.1517 23.8716 15.1208C23.8588 15.09 23.84 15.0619 23.8164 15.0383C23.7928 15.0146 23.7647 14.9959 23.7338 14.9831C23.7029 14.9703 23.6698 14.9637 23.6364 14.9637ZM23.6364 13.4557C23.586 13.4557 23.5368 13.4706 23.495 13.4986C23.4531 13.5266 23.4205 13.5663 23.4012 13.6128C23.3819 13.6593 23.3769 13.7105 23.3867 13.7599C23.3965 13.8093 23.4208 13.8546 23.4564 13.8902C23.492 13.9258 23.5373 13.9501 23.5867 13.9599C23.6361 13.9697 23.6873 13.9647 23.7338 13.9454C23.7803 13.9261 23.8201 13.8935 23.848 13.8516C23.876 13.8098 23.8909 13.7606 23.8909 13.7102C23.8909 13.6768 23.8844 13.6437 23.8716 13.6128C23.8588 13.5819 23.84 13.5539 23.8164 13.5302C23.7928 13.5066 23.7647 13.4878 23.7338 13.475C23.7029 13.4623 23.6698 13.4557 23.6364 13.4557Z" fill="#DEFFEC"/>
</svg>
