<svg width="34" height="34" viewBox="0 0 34 34" fill="none" xmlns="http://www.w3.org/2000/svg">
<rect width="34" height="34" rx="17" fill="#FFE5C1"/>
<path d="M16.422 10.6967C12.4718 10.6967 9.269 13.8988 9.269 17.8484C9.269 21.7985 12.4718 25 16.422 25C20.3702 25 23.5729 21.7985 23.5729 17.8484H16.422V10.6967Z" fill="#E98030"/>
<path d="M17.7168 9C17.4949 9 17.3155 9.18004 17.3155 9.40126V16.5522C17.3155 16.7741 17.4949 16.9542 17.7168 16.9542H24.8691C25.0903 16.9542 25.271 16.7741 25.271 16.5522C25.271 12.3881 21.8815 9 17.7168 9ZM18.1187 16.1516V9.81515C21.5208 10.0151 24.2552 12.7489 24.4552 16.1516H18.1187Z" fill="#E98030"/>
</svg>
