<svg width="35" height="35" viewBox="0 0 35 35" fill="none" xmlns="http://www.w3.org/2000/svg">
<rect width="35" height="35" rx="17.5" fill="#193B5D"/>
<path d="M14.0286 17.5714H13.1143C12.7356 17.5714 12.4286 17.9384 12.4286 18.3912V23.0372C12.4286 23.49 12.7356 23.8571 13.1143 23.8571H14.0286C14.4073 23.8571 14.7143 23.49 14.7143 23.0372V18.3912C14.7143 17.9384 14.4073 17.5714 14.0286 17.5714Z" fill="#E4F2FF"/>
<path d="M17.8572 15.2856H16.7144C16.241 15.2856 15.8572 15.6694 15.8572 16.1428V23C15.8572 23.4734 16.241 23.8571 16.7144 23.8571H17.8572C18.3306 23.8571 18.7144 23.4734 18.7144 23V16.1428C18.7144 15.6694 18.3306 15.2856 17.8572 15.2856Z" fill="#E4F2FF"/>
<path d="M21.2858 13.5714H20.1429C19.6695 13.5714 19.2858 13.9447 19.2858 14.4053V23.0232C19.2858 23.4838 19.6695 23.8571 20.1429 23.8571H21.2858C21.7592 23.8571 22.1429 23.4838 22.1429 23.0232V14.4053C22.1429 13.9447 21.7592 13.5714 21.2858 13.5714Z" fill="#E4F2FF"/>
<path d="M10.7143 15.8571C10.7143 15.8571 16.2662 14.3596 19.2858 10.7142" stroke="#E4F2FF" stroke-width="1.875" stroke-linecap="round"/>
<path fill-rule="evenodd" clip-rule="evenodd" d="M20.988 9.16331L20.0186 12.4594L17.6919 10.1327L20.988 9.16331Z" fill="#E4F2FF"/>
<path d="M24.4287 24.4286H9V25H24.4287V24.4286Z" fill="#E4F2FF"/>
</svg>
