<svg width="34" height="34" viewBox="0 0 34 34" fill="none" xmlns="http://www.w3.org/2000/svg">
<rect width="34" height="34" rx="17" fill="#E8E8FD"/>
<path fill-rule="evenodd" clip-rule="evenodd" d="M10.3663 13.9463C10.3663 16.4374 11.811 18.575 13.8421 18.575C15.8722 18.575 17.3151 16.4374 17.3151 13.9463C17.3151 11.456 16.0841 10 13.8421 10C11.5991 10 10.3663 11.456 10.3663 13.9463ZM8.20646 23.2956C8.95531 23.7655 10.8357 24 13.8448 24C16.8539 24 18.7334 23.7655 19.4831 23.2965C19.5511 23.2539 19.6059 23.1947 19.642 23.125C19.6782 23.0554 19.6942 22.9777 19.6886 22.9001C19.5498 20.9506 17.6 19.975 13.8411 19.975C10.0813 19.975 8.13431 20.9506 8.00098 22.901C7.99569 22.9783 8.01192 23.0556 8.04803 23.1249C8.08413 23.1943 8.1388 23.2532 8.20646 23.2956ZM23.4338 21.3776C23.1916 21.3776 22.9593 21.2854 22.788 21.1213C22.6168 20.9572 22.5206 20.7347 22.5206 20.5026V17.8776H19.7808C19.5386 17.8776 19.3064 17.7854 19.1351 17.6213C18.9638 17.4572 18.8676 17.2347 18.8676 17.0026C18.8676 16.7706 18.9638 16.548 19.1351 16.3839C19.3064 16.2198 19.5386 16.1276 19.7808 16.1276H22.5206V13.5026C22.5206 13.2706 22.6168 13.048 22.788 12.8839C22.9593 12.7198 23.1916 12.6276 23.4338 12.6276C23.676 12.6276 23.9083 12.7198 24.0796 12.8839C24.2508 13.048 24.347 13.2706 24.347 13.5026V16.1276H27.0868C27.329 16.1276 27.5613 16.2198 27.7325 16.3839C27.9038 16.548 28 16.7706 28 17.0026C28 17.2347 27.9038 17.4572 27.7325 17.6213C27.5613 17.7854 27.329 17.8776 27.0868 17.8776H24.347V20.5026C24.347 20.7347 24.2508 20.9572 24.0796 21.1213C23.9083 21.2854 23.676 21.3776 23.4338 21.3776Z" fill="#4F4FFF"/>
</svg>
