<svg width="876" height="541" viewBox="0 0 876 541" fill="none" xmlns="http://www.w3.org/2000/svg">
<g filter="url(#filter0_d_407_14386)">
<path d="M1.5 513C37.5 388 1031.98 475.68 829.5 268.5C724.406 160.965 558.052 225.498 403.929 174.952C240.841 121.467 189.364 35.9369 -32 43.9376" stroke="#F04338" stroke-width="4"/>
</g>
<path d="M225.818 30.9091V124H200.545V54.1818H200L179.636 66.3636V44.9091L202.545 30.9091H225.818Z" fill="#E4E4E4" fill-opacity="0.4"/>
<rect x="106" y="43" width="40" height="40" rx="4.70588" fill="white"/>
<path fill-rule="evenodd" clip-rule="evenodd" d="M119 56.9743C119.476 64.5141 125.486 70.5241 133.026 70.9997C133.566 70.986 134 70.5437 134 70V66.677L130.419 65.2448L129.357 67.0145C129.09 67.4608 128.524 67.6271 128.058 67.3969C125.689 66.2285 123.771 64.3113 122.603 61.9423C122.373 61.4756 122.539 60.9103 122.985 60.6425L124.755 59.5807L123.323 56H120C119.456 56 119.014 56.4339 119 56.9743ZM117 57C117 55.3431 118.343 54 120 54H124C124.409 54 124.777 54.249 124.928 54.6286L126.928 59.6286C127.111 60.0843 126.935 60.605 126.514 60.8575L124.84 61.8619C125.664 63.2055 126.794 64.3356 128.138 65.1595L129.142 63.4855C129.395 63.0646 129.916 62.8892 130.371 63.0715L135.371 65.0715C135.751 65.2234 136 65.5911 136 66V70C136 71.6569 134.657 73 133 73C132.98 73 132.959 72.9994 132.939 72.9982C124.362 72.4769 117.523 65.6375 117.002 57.0607C117.001 57.0405 117 57.0202 117 57Z" fill="#ED9048"/>
<path d="M101.528 124.288C100.344 124.288 99.304 124.048 98.408 123.568C97.528 123.088 96.824 122.472 96.296 121.72C96.168 121.544 96.184 121.368 96.344 121.192L97.352 120.04C97.528 119.832 97.712 119.824 97.904 120.016C98.944 121.216 100.144 121.816 101.504 121.816C102.384 121.816 103.072 121.616 103.568 121.216C104.08 120.8 104.336 120.232 104.336 119.512C104.336 118.856 104.136 118.344 103.736 117.976C103.352 117.608 102.728 117.224 101.864 116.824L99.824 115.864C97.696 114.856 96.632 113.4 96.632 111.496C96.632 110.12 97.104 109.032 98.048 108.232C98.992 107.416 100.168 107.008 101.576 107.008C103.448 107.008 105.024 107.736 106.304 109.192C106.48 109.368 106.48 109.552 106.304 109.744L105.32 110.92C105.16 111.128 104.976 111.144 104.768 110.968C103.776 109.976 102.744 109.48 101.672 109.48C100.952 109.48 100.368 109.656 99.92 110.008C99.472 110.36 99.248 110.856 99.248 111.496C99.248 112.024 99.408 112.456 99.728 112.792C100.048 113.128 100.576 113.472 101.312 113.824L103.16 114.688C104.36 115.264 105.288 115.904 105.944 116.608C106.616 117.312 106.952 118.28 106.952 119.512C106.952 121.016 106.432 122.192 105.392 123.04C104.352 123.872 103.064 124.288 101.528 124.288ZM115.324 124.288C113.564 124.288 112.092 123.696 110.908 122.512C109.74 121.328 109.156 119.856 109.156 118.096C109.156 116.336 109.74 114.872 110.908 113.704C112.076 112.536 113.532 111.952 115.276 111.952C117.164 111.952 118.66 112.632 119.764 113.992C119.908 114.184 119.908 114.352 119.764 114.496L118.684 115.528C118.492 115.72 118.3 115.712 118.108 115.504C117.34 114.736 116.436 114.352 115.396 114.352C114.292 114.352 113.388 114.704 112.684 115.408C111.996 116.112 111.652 117.008 111.652 118.096C111.652 119.184 112.004 120.088 112.708 120.808C113.412 121.528 114.324 121.888 115.444 121.888C116.484 121.888 117.372 121.504 118.108 120.736C118.316 120.528 118.516 120.52 118.708 120.712L119.788 121.744C119.932 121.888 119.932 122.056 119.788 122.248C118.684 123.608 117.196 124.288 115.324 124.288ZM128.794 111.952C130.074 111.952 131.106 112.376 131.89 113.224C132.674 114.072 133.066 115.256 133.066 116.776V123.64C133.066 123.88 132.946 124 132.706 124H130.81C130.586 124 130.474 123.88 130.474 123.64V117.256C130.474 116.328 130.25 115.616 129.802 115.12C129.37 114.608 128.738 114.352 127.906 114.352C127.058 114.352 126.378 114.608 125.866 115.12C125.354 115.632 125.098 116.344 125.098 117.256V123.64C125.098 123.88 124.986 124 124.762 124H122.842C122.618 124 122.506 123.88 122.506 123.64V107.2C122.506 106.96 122.618 106.84 122.842 106.84H124.762C124.986 106.84 125.098 106.96 125.098 107.2V114.064C125.882 112.656 127.114 111.952 128.794 111.952ZM142 124.288C140.112 124.288 138.584 123.696 137.416 122.512C136.248 121.328 135.664 119.848 135.664 118.072C135.664 116.312 136.216 114.856 137.32 113.704C138.44 112.536 139.88 111.952 141.64 111.952C143.336 111.952 144.688 112.504 145.696 113.608C146.704 114.696 147.208 116.008 147.208 117.544C147.208 118.088 147.128 118.48 146.968 118.72C146.824 118.96 146.536 119.08 146.104 119.08H138.184C138.344 120.04 138.768 120.8 139.456 121.36C140.16 121.92 141.08 122.2 142.216 122.2C143.32 122.2 144.328 121.896 145.24 121.288C145.4 121.192 145.528 121.216 145.624 121.36L146.296 122.272C146.424 122.432 146.392 122.608 146.2 122.8C145.192 123.792 143.792 124.288 142 124.288ZM138.16 117.208H144.904C144.84 116.248 144.512 115.496 143.92 114.952C143.328 114.408 142.568 114.136 141.64 114.136C140.712 114.136 139.928 114.408 139.288 114.952C138.664 115.496 138.288 116.248 138.16 117.208ZM154.899 124.288C153.235 124.288 151.875 123.704 150.819 122.536C149.763 121.368 149.235 119.896 149.235 118.12C149.235 116.36 149.763 114.896 150.819 113.728C151.875 112.544 153.235 111.952 154.899 111.952C156.691 111.952 158.035 112.632 158.931 113.992V107.2C158.931 106.96 159.043 106.84 159.267 106.84H161.187C161.411 106.84 161.523 106.96 161.523 107.2V123.64C161.523 123.88 161.411 124 161.187 124H159.435C159.211 124 159.099 123.88 159.099 123.64L159.051 122.08C158.155 123.552 156.771 124.288 154.899 124.288ZM155.403 121.912C156.459 121.912 157.315 121.568 157.971 120.88C158.627 120.176 158.955 119.264 158.955 118.144C158.955 117.008 158.627 116.088 157.971 115.384C157.315 114.68 156.459 114.328 155.403 114.328C154.347 114.328 153.475 114.68 152.787 115.384C152.099 116.088 151.755 117 151.755 118.12C151.755 119.256 152.091 120.176 152.763 120.88C153.451 121.568 154.331 121.912 155.403 121.912ZM168.989 124.288C167.709 124.288 166.677 123.864 165.893 123.016C165.125 122.168 164.741 120.984 164.741 119.464V112.6C164.741 112.36 164.853 112.24 165.077 112.24H166.997C167.221 112.24 167.333 112.36 167.333 112.6V118.984C167.333 119.912 167.549 120.632 167.981 121.144C168.429 121.64 169.069 121.888 169.901 121.888C170.733 121.888 171.405 121.632 171.917 121.12C172.445 120.608 172.709 119.896 172.709 118.984V112.6C172.709 112.36 172.821 112.24 173.045 112.24H174.941C175.181 112.24 175.301 112.36 175.301 112.6V123.64C175.301 123.88 175.181 124 174.941 124H173.141C172.901 124 172.781 123.872 172.781 123.616L172.709 122.176C171.925 123.584 170.685 124.288 168.989 124.288ZM178.835 124C178.611 124 178.499 123.88 178.499 123.64V107.2C178.499 106.96 178.611 106.84 178.835 106.84H180.755C180.979 106.84 181.091 106.96 181.091 107.2V123.64C181.091 123.88 180.979 124 180.755 124H178.835ZM190.047 124.288C188.159 124.288 186.631 123.696 185.463 122.512C184.295 121.328 183.711 119.848 183.711 118.072C183.711 116.312 184.263 114.856 185.367 113.704C186.487 112.536 187.927 111.952 189.687 111.952C191.383 111.952 192.735 112.504 193.743 113.608C194.751 114.696 195.255 116.008 195.255 117.544C195.255 118.088 195.175 118.48 195.015 118.72C194.871 118.96 194.583 119.08 194.151 119.08H186.231C186.391 120.04 186.815 120.8 187.503 121.36C188.207 121.92 189.127 122.2 190.263 122.2C191.367 122.2 192.375 121.896 193.287 121.288C193.447 121.192 193.575 121.216 193.671 121.36L194.343 122.272C194.471 122.432 194.439 122.608 194.247 122.8C193.239 123.792 191.839 124.288 190.047 124.288ZM186.207 117.208H192.951C192.887 116.248 192.559 115.496 191.967 114.952C191.375 114.408 190.615 114.136 189.687 114.136C188.759 114.136 187.975 114.408 187.335 114.952C186.711 115.496 186.335 116.248 186.207 117.208ZM207.68 124.288C206.016 124.288 204.656 123.704 203.6 122.536C202.544 121.368 202.016 119.896 202.016 118.12C202.016 116.36 202.544 114.896 203.6 113.728C204.656 112.544 206.016 111.952 207.68 111.952C209.568 111.952 210.952 112.696 211.832 114.184L211.88 112.6C211.88 112.36 211.992 112.24 212.216 112.24H213.968C214.192 112.24 214.304 112.36 214.304 112.6V123.64C214.304 123.88 214.192 124 213.968 124H212.216C211.992 124 211.88 123.88 211.88 123.64L211.832 122.08C210.936 123.552 209.552 124.288 207.68 124.288ZM208.184 121.912C209.24 121.912 210.096 121.568 210.752 120.88C211.408 120.176 211.736 119.264 211.736 118.144C211.736 117.008 211.408 116.088 210.752 115.384C210.096 114.68 209.24 114.328 208.184 114.328C207.128 114.328 206.256 114.68 205.568 115.384C204.88 116.088 204.536 117 204.536 118.12C204.536 119.256 204.872 120.176 205.544 120.88C206.232 121.568 207.112 121.912 208.184 121.912ZM227.824 124.288C226.064 124.288 224.592 123.696 223.408 122.512C222.24 121.328 221.656 119.856 221.656 118.096C221.656 116.336 222.24 114.872 223.408 113.704C224.576 112.536 226.032 111.952 227.776 111.952C229.664 111.952 231.16 112.632 232.264 113.992C232.408 114.184 232.408 114.352 232.264 114.496L231.184 115.528C230.992 115.72 230.8 115.712 230.608 115.504C229.84 114.736 228.936 114.352 227.896 114.352C226.792 114.352 225.888 114.704 225.184 115.408C224.496 116.112 224.152 117.008 224.152 118.096C224.152 119.184 224.504 120.088 225.208 120.808C225.912 121.528 226.824 121.888 227.944 121.888C228.984 121.888 229.872 121.504 230.608 120.736C230.816 120.528 231.016 120.52 231.208 120.712L232.288 121.744C232.432 121.888 232.432 122.056 232.288 122.248C231.184 123.608 229.696 124.288 227.824 124.288ZM239.602 124.288C237.938 124.288 236.578 123.704 235.522 122.536C234.466 121.368 233.938 119.896 233.938 118.12C233.938 116.36 234.466 114.896 235.522 113.728C236.578 112.544 237.938 111.952 239.602 111.952C241.49 111.952 242.874 112.696 243.754 114.184L243.802 112.6C243.802 112.36 243.914 112.24 244.138 112.24H245.89C246.114 112.24 246.226 112.36 246.226 112.6V123.64C246.226 123.88 246.114 124 245.89 124H244.138C243.914 124 243.802 123.88 243.802 123.64L243.754 122.08C242.858 123.552 241.474 124.288 239.602 124.288ZM240.106 121.912C241.162 121.912 242.018 121.568 242.674 120.88C243.33 120.176 243.658 119.264 243.658 118.144C243.658 117.008 243.33 116.088 242.674 115.384C242.018 114.68 241.162 114.328 240.106 114.328C239.05 114.328 238.178 114.68 237.49 115.384C236.802 116.088 236.458 117 236.458 118.12C236.458 119.256 236.794 120.176 237.466 120.88C238.154 121.568 239.034 121.912 240.106 121.912ZM249.78 124C249.556 124 249.444 123.88 249.444 123.64V107.2C249.444 106.96 249.556 106.84 249.78 106.84H251.7C251.924 106.84 252.036 106.96 252.036 107.2V123.64C252.036 123.88 251.924 124 251.7 124H249.78ZM255.592 124C255.368 124 255.256 123.88 255.256 123.64V107.2C255.256 106.96 255.368 106.84 255.592 106.84H257.512C257.736 106.84 257.848 106.96 257.848 107.2V123.64C257.848 123.88 257.736 124 257.512 124H255.592Z" fill="#303030"/>
<rect x="558" y="177.586" width="40" height="40" rx="4.70588" fill="white"/>
<path d="M587.052 190.611C586.77 190.329 586.311 190.328 586.029 190.61L577.348 199.268L574.216 195.867C573.945 195.573 573.488 195.554 573.193 195.824C572.899 196.095 572.881 196.553 573.151 196.847L576.793 200.802C576.927 200.947 577.114 201.032 577.31 201.036C577.316 201.036 577.321 201.036 577.326 201.036C577.517 201.036 577.701 200.96 577.837 200.825L587.051 191.635C587.334 191.353 587.334 190.894 587.052 190.611Z" fill="#1AAA55"/>
<path d="M586.876 196.862C586.477 196.862 586.153 197.186 586.153 197.586C586.153 202.081 582.496 205.739 578 205.739C573.505 205.739 569.847 202.081 569.847 197.586C569.847 193.09 573.505 189.433 578 189.433C578.4 189.433 578.724 189.109 578.724 188.709C578.724 188.31 578.4 187.986 578 187.986C572.706 187.986 568.4 192.292 568.4 197.586C568.4 202.879 572.706 207.186 578 207.186C583.293 207.186 587.6 202.879 587.6 197.586C587.6 197.186 587.276 196.862 586.876 196.862Z" fill="#1AAA55"/>
<path d="M632.182 255V236.818L666.909 208.091C669.212 206.182 671.182 204.394 672.818 202.727C674.485 201.03 675.758 199.288 676.636 197.5C677.545 195.712 678 193.727 678 191.545C678 189.152 677.485 187.106 676.454 185.409C675.454 183.712 674.061 182.409 672.273 181.5C670.485 180.561 668.424 180.091 666.091 180.091C663.758 180.091 661.697 180.561 659.909 181.5C658.151 182.439 656.788 183.818 655.818 185.636C654.848 187.455 654.364 189.667 654.364 192.273H630.364C630.364 185.727 631.833 180.091 634.773 175.364C637.712 170.636 641.864 167 647.227 164.455C652.591 161.909 658.879 160.636 666.091 160.636C673.545 160.636 680 161.833 685.454 164.227C690.939 166.591 695.167 169.924 698.136 174.227C701.136 178.53 702.636 183.576 702.636 189.364C702.636 192.939 701.894 196.5 700.409 200.045C698.924 203.561 696.258 207.455 692.409 211.727C688.561 216 683.091 221.091 676 227L667.273 234.273V234.818H703.636V255H632.182Z" fill="#E4E4E4" fill-opacity="0.4"/>
<path d="M562.528 254.592C562.64 254.864 562.544 255 562.24 255H560.152C559.944 255 559.808 254.904 559.744 254.712L558.76 251.784H551.8L550.792 254.712C550.728 254.904 550.592 255 550.384 255H548.32C548.016 255 547.92 254.864 548.032 254.592L553.744 238.488C553.824 238.296 553.968 238.2 554.176 238.2H556.36C556.584 238.2 556.736 238.296 556.816 238.488L562.528 254.592ZM552.616 249.384H557.944L555.28 241.536L552.616 249.384ZM565.514 255C565.29 255 565.178 254.88 565.178 254.64V238.2C565.178 237.96 565.29 237.84 565.514 237.84H567.434C567.658 237.84 567.77 237.96 567.77 238.2V254.64C567.77 254.88 567.658 255 567.434 255H565.514ZM571.327 255C571.103 255 570.991 254.88 570.991 254.64V238.2C570.991 237.96 571.103 237.84 571.327 237.84H573.247C573.471 237.84 573.583 237.96 573.583 238.2V254.64C573.583 254.88 573.471 255 573.247 255H571.327ZM585.786 255.288C584.506 255.288 583.474 254.864 582.69 254.016C581.922 253.168 581.538 251.984 581.538 250.464V243.6C581.538 243.36 581.65 243.24 581.874 243.24H583.794C584.018 243.24 584.13 243.36 584.13 243.6V249.984C584.13 250.912 584.346 251.632 584.778 252.144C585.226 252.64 585.866 252.888 586.698 252.888C587.53 252.888 588.202 252.632 588.714 252.12C589.242 251.608 589.506 250.896 589.506 249.984V243.6C589.506 243.36 589.618 243.24 589.842 243.24H591.738C591.978 243.24 592.098 243.36 592.098 243.6V254.64C592.098 254.88 591.978 255 591.738 255H589.938C589.698 255 589.578 254.872 589.578 254.616L589.506 253.176C588.722 254.584 587.482 255.288 585.786 255.288ZM595.631 255C595.407 255 595.295 254.88 595.295 254.64V243.6C595.295 243.36 595.407 243.24 595.631 243.24H597.455C597.679 243.24 597.791 243.368 597.791 243.624L597.887 245.064C598.671 243.656 599.903 242.952 601.583 242.952C602.863 242.952 603.895 243.376 604.679 244.224C605.463 245.072 605.855 246.256 605.855 247.776V254.64C605.855 254.88 605.735 255 605.495 255H603.599C603.375 255 603.263 254.88 603.263 254.64V248.256C603.263 247.328 603.039 246.616 602.591 246.12C602.159 245.608 601.527 245.352 600.695 245.352C599.847 245.352 599.167 245.608 598.655 246.12C598.143 246.632 597.887 247.344 597.887 248.256V254.64C597.887 254.88 597.775 255 597.551 255H595.631ZM614.117 255.288C612.453 255.288 611.093 254.704 610.037 253.536C608.981 252.368 608.453 250.896 608.453 249.12C608.453 247.36 608.981 245.896 610.037 244.728C611.093 243.544 612.453 242.952 614.117 242.952C615.909 242.952 617.253 243.632 618.149 244.992V238.2C618.149 237.96 618.261 237.84 618.485 237.84H620.405C620.629 237.84 620.741 237.96 620.741 238.2V254.64C620.741 254.88 620.629 255 620.405 255H618.653C618.429 255 618.317 254.88 618.317 254.64L618.269 253.08C617.373 254.552 615.989 255.288 614.117 255.288ZM614.621 252.912C615.677 252.912 616.533 252.568 617.189 251.88C617.845 251.176 618.173 250.264 618.173 249.144C618.173 248.008 617.845 247.088 617.189 246.384C616.533 245.68 615.677 245.328 614.621 245.328C613.565 245.328 612.693 245.68 612.005 246.384C611.317 247.088 610.973 248 610.973 249.12C610.973 250.256 611.309 251.176 611.981 251.88C612.669 252.568 613.549 252.912 614.621 252.912ZM629.696 255.288C627.808 255.288 626.28 254.696 625.112 253.512C623.944 252.328 623.36 250.848 623.36 249.072C623.36 247.312 623.912 245.856 625.016 244.704C626.136 243.536 627.576 242.952 629.336 242.952C631.032 242.952 632.384 243.504 633.392 244.608C634.4 245.696 634.904 247.008 634.904 248.544C634.904 249.088 634.824 249.48 634.664 249.72C634.52 249.96 634.232 250.08 633.8 250.08H625.88C626.04 251.04 626.464 251.8 627.152 252.36C627.856 252.92 628.776 253.2 629.912 253.2C631.016 253.2 632.024 252.896 632.936 252.288C633.096 252.192 633.224 252.216 633.32 252.36L633.992 253.272C634.12 253.432 634.088 253.608 633.896 253.8C632.888 254.792 631.488 255.288 629.696 255.288ZM625.856 248.208H632.6C632.536 247.248 632.208 246.496 631.616 245.952C631.024 245.408 630.264 245.136 629.336 245.136C628.408 245.136 627.624 245.408 626.984 245.952C626.36 246.496 625.984 247.248 625.856 248.208ZM637.866 255C637.642 255 637.53 254.88 637.53 254.64V243.6C637.53 243.36 637.642 243.24 637.866 243.24H639.69C639.914 243.24 640.026 243.368 640.026 243.624L640.098 245.04C640.61 243.648 641.482 242.952 642.714 242.952C643.194 242.952 643.554 243.04 643.794 243.216C643.938 243.312 644.01 243.464 644.01 243.672V245.16C644.01 245.416 643.858 245.504 643.554 245.424C643.234 245.344 642.946 245.304 642.69 245.304C641.826 245.304 641.178 245.592 640.746 246.168C640.33 246.744 640.122 247.456 640.122 248.304V254.64C640.122 254.88 640.01 255 639.786 255H637.866ZM646.796 255C646.572 255 646.46 254.88 646.46 254.64V238.2C646.46 237.96 646.572 237.84 646.796 237.84H648.716C648.94 237.84 649.052 237.96 649.052 238.2V254.64C649.052 254.88 648.94 255 648.716 255H646.796ZM654.696 259.56C654.392 259.56 654.304 259.432 654.432 259.176L656.112 255.024L651.576 243.648C651.48 243.376 651.576 243.24 651.864 243.24H653.808C654.016 243.24 654.152 243.336 654.216 243.528L657.384 252.024L660.576 243.528C660.656 243.336 660.792 243.24 660.984 243.24H662.928C663.2 243.24 663.288 243.376 663.192 243.648L657 259.272C656.936 259.464 656.792 259.56 656.568 259.56H654.696ZM667.022 240.72C666.59 240.72 666.23 240.576 665.942 240.288C665.654 239.984 665.51 239.624 665.51 239.208C665.51 238.792 665.654 238.44 665.942 238.152C666.23 237.864 666.59 237.72 667.022 237.72C667.438 237.72 667.79 237.864 668.078 238.152C668.366 238.44 668.51 238.792 668.51 239.208C668.51 239.624 668.366 239.984 668.078 240.288C667.79 240.576 667.438 240.72 667.022 240.72ZM666.038 255C665.814 255 665.702 254.88 665.702 254.64V243.6C665.702 243.36 665.814 243.24 666.038 243.24H667.982C668.206 243.24 668.318 243.36 668.318 243.6V254.64C668.318 254.88 668.206 255 667.982 255H666.038ZM671.874 255C671.65 255 671.538 254.88 671.538 254.64V243.6C671.538 243.36 671.65 243.24 671.874 243.24H673.698C673.922 243.24 674.034 243.368 674.034 243.624L674.13 245.064C674.914 243.656 676.146 242.952 677.826 242.952C679.106 242.952 680.138 243.376 680.922 244.224C681.706 245.072 682.098 246.256 682.098 247.776V254.64C682.098 254.88 681.978 255 681.738 255H679.842C679.618 255 679.506 254.88 679.506 254.64V248.256C679.506 247.328 679.282 246.616 678.834 246.12C678.402 245.608 677.77 245.352 676.938 245.352C676.09 245.352 675.41 245.608 674.898 246.12C674.386 246.632 674.13 247.344 674.13 248.256V254.64C674.13 254.88 674.018 255 673.794 255H671.874ZM690.695 259.92C688.935 259.92 687.479 259.504 686.327 258.672C686.103 258.528 686.047 258.328 686.159 258.072L686.711 257.04C686.839 256.816 687.015 256.768 687.239 256.896C688.231 257.488 689.311 257.784 690.479 257.784C691.567 257.784 692.479 257.512 693.215 256.968C693.951 256.424 694.319 255.56 694.319 254.376V252.792C693.471 254.136 692.135 254.808 690.311 254.808C688.647 254.808 687.295 254.256 686.255 253.152C685.215 252.048 684.695 250.624 684.695 248.88C684.695 247.136 685.215 245.712 686.255 244.608C687.295 243.504 688.639 242.952 690.287 242.952C692.143 242.952 693.495 243.64 694.343 245.016L694.391 243.6C694.391 243.36 694.503 243.24 694.727 243.24H696.479C696.703 243.24 696.815 243.36 696.815 243.6V254.448C696.815 255.728 696.503 256.792 695.879 257.64C695.255 258.488 694.503 259.08 693.623 259.416C692.743 259.752 691.767 259.92 690.695 259.92ZM690.767 252.456C691.807 252.456 692.647 252.136 693.287 251.496C693.927 250.856 694.247 249.992 694.247 248.904C694.247 247.816 693.919 246.944 693.263 246.288C692.623 245.632 691.791 245.304 690.767 245.304C689.743 245.304 688.895 245.632 688.223 246.288C687.551 246.944 687.215 247.808 687.215 248.88C687.215 249.968 687.551 250.84 688.223 251.496C688.895 252.136 689.743 252.456 690.767 252.456ZM549.928 268.72C549.496 268.72 549.136 268.576 548.848 268.288C548.56 267.984 548.416 267.624 548.416 267.208C548.416 266.792 548.56 266.44 548.848 266.152C549.136 265.864 549.496 265.72 549.928 265.72C550.344 265.72 550.696 265.864 550.984 266.152C551.272 266.44 551.416 266.792 551.416 267.208C551.416 267.624 551.272 267.984 550.984 268.288C550.696 268.576 550.344 268.72 549.928 268.72ZM548.944 283C548.72 283 548.608 282.88 548.608 282.64V271.6C548.608 271.36 548.72 271.24 548.944 271.24H550.888C551.112 271.24 551.224 271.36 551.224 271.6V282.64C551.224 282.88 551.112 283 550.888 283H548.944ZM558.188 283.288C556.476 283.288 555.1 282.664 554.06 281.416C553.9 281.24 553.908 281.024 554.084 280.768L554.708 279.904C554.868 279.68 555.06 279.664 555.284 279.856C556.244 280.688 557.172 281.104 558.068 281.104C558.612 281.104 559.044 280.984 559.364 280.744C559.7 280.504 559.868 280.16 559.868 279.712C559.868 279.328 559.748 279.016 559.508 278.776C559.268 278.536 558.884 278.304 558.356 278.08L556.916 277.504C555.172 276.8 554.3 275.736 554.3 274.312C554.3 273.288 554.676 272.472 555.428 271.864C556.18 271.256 557.1 270.952 558.188 270.952C559.724 270.952 560.956 271.528 561.884 272.68C562.028 272.856 562.02 273.024 561.86 273.184L561.116 274.072C560.94 274.264 560.748 274.264 560.54 274.072C559.804 273.384 559.06 273.04 558.308 273.04C557.844 273.04 557.468 273.152 557.18 273.376C556.908 273.6 556.772 273.904 556.772 274.288C556.772 274.672 556.9 274.976 557.156 275.2C557.412 275.424 557.796 275.64 558.308 275.848L559.724 276.424C561.532 277.144 562.436 278.264 562.436 279.784C562.42 280.888 562.004 281.752 561.188 282.376C560.372 282.984 559.372 283.288 558.188 283.288ZM568.899 283.288C567.187 283.288 565.811 282.664 564.771 281.416C564.611 281.24 564.619 281.024 564.795 280.768L565.419 279.904C565.579 279.68 565.771 279.664 565.995 279.856C566.955 280.688 567.883 281.104 568.779 281.104C569.323 281.104 569.755 280.984 570.075 280.744C570.411 280.504 570.579 280.16 570.579 279.712C570.579 279.328 570.459 279.016 570.219 278.776C569.979 278.536 569.595 278.304 569.067 278.08L567.627 277.504C565.883 276.8 565.011 275.736 565.011 274.312C565.011 273.288 565.387 272.472 566.139 271.864C566.891 271.256 567.811 270.952 568.899 270.952C570.435 270.952 571.667 271.528 572.595 272.68C572.739 272.856 572.731 273.024 572.571 273.184L571.827 274.072C571.651 274.264 571.459 274.264 571.251 274.072C570.515 273.384 569.771 273.04 569.019 273.04C568.555 273.04 568.179 273.152 567.891 273.376C567.619 273.6 567.483 273.904 567.483 274.288C567.483 274.672 567.611 274.976 567.867 275.2C568.123 275.424 568.507 275.64 569.019 275.848L570.435 276.424C572.243 277.144 573.147 278.264 573.147 279.784C573.131 280.888 572.715 281.752 571.899 282.376C571.083 282.984 570.083 283.288 568.899 283.288ZM580.114 283.288C578.834 283.288 577.802 282.864 577.018 282.016C576.25 281.168 575.866 279.984 575.866 278.464V271.6C575.866 271.36 575.978 271.24 576.202 271.24H578.122C578.346 271.24 578.458 271.36 578.458 271.6V277.984C578.458 278.912 578.674 279.632 579.106 280.144C579.554 280.64 580.194 280.888 581.026 280.888C581.858 280.888 582.53 280.632 583.042 280.12C583.57 279.608 583.834 278.896 583.834 277.984V271.6C583.834 271.36 583.946 271.24 584.17 271.24H586.066C586.306 271.24 586.426 271.36 586.426 271.6V282.64C586.426 282.88 586.306 283 586.066 283H584.266C584.026 283 583.906 282.872 583.906 282.616L583.834 281.176C583.05 282.584 581.81 283.288 580.114 283.288ZM595.36 283.288C593.472 283.288 591.944 282.696 590.776 281.512C589.608 280.328 589.024 278.848 589.024 277.072C589.024 275.312 589.576 273.856 590.68 272.704C591.8 271.536 593.24 270.952 595 270.952C596.696 270.952 598.048 271.504 599.056 272.608C600.064 273.696 600.568 275.008 600.568 276.544C600.568 277.088 600.488 277.48 600.328 277.72C600.184 277.96 599.896 278.08 599.464 278.08H591.544C591.704 279.04 592.128 279.8 592.816 280.36C593.52 280.92 594.44 281.2 595.576 281.2C596.68 281.2 597.688 280.896 598.6 280.288C598.76 280.192 598.888 280.216 598.984 280.36L599.656 281.272C599.784 281.432 599.752 281.608 599.56 281.8C598.552 282.792 597.152 283.288 595.36 283.288ZM591.52 276.208H598.264C598.2 275.248 597.872 274.496 597.28 273.952C596.688 273.408 595.928 273.136 595 273.136C594.072 273.136 593.288 273.408 592.648 273.952C592.024 274.496 591.648 275.248 591.52 276.208ZM606.704 283.288C604.992 283.288 603.616 282.664 602.576 281.416C602.416 281.24 602.424 281.024 602.6 280.768L603.224 279.904C603.384 279.68 603.576 279.664 603.8 279.856C604.76 280.688 605.688 281.104 606.584 281.104C607.128 281.104 607.56 280.984 607.88 280.744C608.216 280.504 608.384 280.16 608.384 279.712C608.384 279.328 608.264 279.016 608.024 278.776C607.784 278.536 607.4 278.304 606.872 278.08L605.432 277.504C603.688 276.8 602.816 275.736 602.816 274.312C602.816 273.288 603.192 272.472 603.944 271.864C604.696 271.256 605.616 270.952 606.704 270.952C608.24 270.952 609.472 271.528 610.4 272.68C610.544 272.856 610.536 273.024 610.376 273.184L609.632 274.072C609.456 274.264 609.264 274.264 609.056 274.072C608.32 273.384 607.576 273.04 606.824 273.04C606.36 273.04 605.984 273.152 605.696 273.376C605.424 273.6 605.288 273.904 605.288 274.288C605.288 274.672 605.416 274.976 605.672 275.2C605.928 275.424 606.312 275.64 606.824 275.848L608.24 276.424C610.048 277.144 610.952 278.264 610.952 279.784C610.936 280.888 610.52 281.752 609.704 282.376C608.888 282.984 607.888 283.288 606.704 283.288ZM623.901 283.288C622.157 283.288 620.701 282.696 619.533 281.512C618.381 280.328 617.805 278.864 617.805 277.12C617.805 275.376 618.381 273.912 619.533 272.728C620.701 271.544 622.157 270.952 623.901 270.952C625.629 270.952 627.069 271.544 628.221 272.728C629.389 273.912 629.973 275.376 629.973 277.12C629.973 278.864 629.389 280.328 628.221 281.512C627.069 282.696 625.629 283.288 623.901 283.288ZM623.901 280.888C624.925 280.888 625.773 280.544 626.445 279.856C627.133 279.152 627.477 278.24 627.477 277.12C627.477 276 627.133 275.096 626.445 274.408C625.773 273.704 624.925 273.352 623.901 273.352C622.861 273.352 621.997 273.704 621.309 274.408C620.637 275.096 620.301 276 620.301 277.12C620.301 278.24 620.637 279.152 621.309 279.856C621.997 280.544 622.861 280.888 623.901 280.888ZM633.718 283C633.494 283 633.382 282.88 633.382 282.64V273.304H631.966C631.742 273.304 631.63 273.184 631.63 272.944V271.6C631.63 271.36 631.742 271.24 631.966 271.24H633.382V269.032C633.382 266.648 634.582 265.456 636.982 265.456C637.59 265.456 638.086 265.552 638.47 265.744C638.614 265.808 638.686 265.92 638.686 266.08V267.712C638.686 267.856 638.59 267.912 638.398 267.88C637.918 267.816 637.614 267.784 637.486 267.784C636.91 267.784 636.51 267.928 636.286 268.216C636.078 268.504 635.974 268.92 635.974 269.464V271.24H638.35C638.574 271.24 638.686 271.36 638.686 271.6V272.944C638.686 273.184 638.574 273.304 638.35 273.304H635.974V282.64C635.974 282.88 635.862 283 635.638 283H633.718ZM648.344 287.56C648.04 287.56 647.952 287.432 648.08 287.176L649.76 283.024L645.224 271.648C645.128 271.376 645.224 271.24 645.512 271.24H647.456C647.664 271.24 647.8 271.336 647.864 271.528L651.032 280.024L654.224 271.528C654.304 271.336 654.44 271.24 654.632 271.24H656.576C656.848 271.24 656.936 271.376 656.84 271.648L650.648 287.272C650.584 287.464 650.44 287.56 650.216 287.56H648.344ZM664.002 283.288C662.258 283.288 660.802 282.696 659.634 281.512C658.482 280.328 657.906 278.864 657.906 277.12C657.906 275.376 658.482 273.912 659.634 272.728C660.802 271.544 662.258 270.952 664.002 270.952C665.73 270.952 667.17 271.544 668.322 272.728C669.49 273.912 670.074 275.376 670.074 277.12C670.074 278.864 669.49 280.328 668.322 281.512C667.17 282.696 665.73 283.288 664.002 283.288ZM664.002 280.888C665.026 280.888 665.874 280.544 666.546 279.856C667.234 279.152 667.578 278.24 667.578 277.12C667.578 276 667.234 275.096 666.546 274.408C665.874 273.704 665.026 273.352 664.002 273.352C662.962 273.352 662.098 273.704 661.41 274.408C660.738 275.096 660.402 276 660.402 277.12C660.402 278.24 660.738 279.152 661.41 279.856C662.098 280.544 662.962 280.888 664.002 280.888ZM676.817 283.288C675.537 283.288 674.505 282.864 673.721 282.016C672.953 281.168 672.569 279.984 672.569 278.464V271.6C672.569 271.36 672.681 271.24 672.905 271.24H674.825C675.049 271.24 675.161 271.36 675.161 271.6V277.984C675.161 278.912 675.377 279.632 675.809 280.144C676.257 280.64 676.897 280.888 677.729 280.888C678.561 280.888 679.233 280.632 679.745 280.12C680.273 279.608 680.537 278.896 680.537 277.984V271.6C680.537 271.36 680.649 271.24 680.873 271.24H682.769C683.009 271.24 683.129 271.36 683.129 271.6V282.64C683.129 282.88 683.009 283 682.769 283H680.969C680.729 283 680.609 282.872 680.609 282.616L680.537 281.176C679.753 282.584 678.513 283.288 676.817 283.288ZM686.663 283C686.439 283 686.327 282.88 686.327 282.64V271.6C686.327 271.36 686.439 271.24 686.663 271.24H688.487C688.711 271.24 688.823 271.368 688.823 271.624L688.895 273.04C689.407 271.648 690.279 270.952 691.511 270.952C691.991 270.952 692.351 271.04 692.591 271.216C692.735 271.312 692.807 271.464 692.807 271.672V273.16C692.807 273.416 692.655 273.504 692.351 273.424C692.031 273.344 691.743 273.304 691.487 273.304C690.623 273.304 689.975 273.592 689.543 274.168C689.127 274.744 688.919 275.456 688.919 276.304V282.64C688.919 282.88 688.807 283 688.583 283H686.663ZM704.82 283.288C703.156 283.288 701.796 282.704 700.74 281.536C699.684 280.368 699.156 278.896 699.156 277.12C699.156 275.36 699.684 273.896 700.74 272.728C701.796 271.544 703.156 270.952 704.82 270.952C706.708 270.952 708.092 271.696 708.972 273.184L709.02 271.6C709.02 271.36 709.132 271.24 709.356 271.24H711.108C711.332 271.24 711.444 271.36 711.444 271.6V282.64C711.444 282.88 711.332 283 711.108 283H709.356C709.132 283 709.02 282.88 709.02 282.64L708.972 281.08C708.076 282.552 706.692 283.288 704.82 283.288ZM705.324 280.912C706.38 280.912 707.236 280.568 707.892 279.88C708.548 279.176 708.876 278.264 708.876 277.144C708.876 276.008 708.548 275.088 707.892 274.384C707.236 273.68 706.38 273.328 705.324 273.328C704.268 273.328 703.396 273.68 702.708 274.384C702.02 275.088 701.676 276 701.676 277.12C701.676 278.256 702.012 279.176 702.684 279.88C703.372 280.568 704.252 280.912 705.324 280.912ZM714.999 287.56C714.775 287.56 714.663 287.44 714.663 287.2V271.6C714.663 271.36 714.775 271.24 714.999 271.24H716.751C716.975 271.24 717.087 271.36 717.087 271.6L717.135 273.184C718.015 271.696 719.399 270.952 721.287 270.952C722.951 270.952 724.311 271.544 725.367 272.728C726.423 273.896 726.951 275.36 726.951 277.12C726.951 278.896 726.423 280.368 725.367 281.536C724.311 282.704 722.951 283.288 721.287 283.288C719.495 283.288 718.151 282.608 717.255 281.248V287.2C717.255 287.44 717.143 287.56 716.919 287.56H714.999ZM720.783 280.912C721.855 280.912 722.727 280.568 723.399 279.88C724.087 279.176 724.431 278.256 724.431 277.12C724.431 276 724.087 275.088 723.399 274.384C722.711 273.68 721.839 273.328 720.783 273.328C719.727 273.328 718.871 273.68 718.215 274.384C717.559 275.088 717.231 276.008 717.231 277.144C717.231 278.264 717.559 279.176 718.215 279.88C718.871 280.568 719.727 280.912 720.783 280.912ZM729.905 287.56C729.681 287.56 729.569 287.44 729.569 287.2V271.6C729.569 271.36 729.681 271.24 729.905 271.24H731.657C731.881 271.24 731.993 271.36 731.993 271.6L732.041 273.184C732.921 271.696 734.305 270.952 736.193 270.952C737.857 270.952 739.217 271.544 740.273 272.728C741.329 273.896 741.857 275.36 741.857 277.12C741.857 278.896 741.329 280.368 740.273 281.536C739.217 282.704 737.857 283.288 736.193 283.288C734.401 283.288 733.057 282.608 732.161 281.248V287.2C732.161 287.44 732.049 287.56 731.825 287.56H729.905ZM735.689 280.912C736.761 280.912 737.633 280.568 738.305 279.88C738.993 279.176 739.337 278.256 739.337 277.12C739.337 276 738.993 275.088 738.305 274.384C737.617 273.68 736.745 273.328 735.689 273.328C734.633 273.328 733.777 273.68 733.121 274.384C732.465 275.088 732.137 276.008 732.137 277.144C732.137 278.264 732.465 279.176 733.121 279.88C733.777 280.568 734.633 280.912 735.689 280.912ZM554.008 315.92C552.248 315.92 550.792 315.504 549.64 314.672C549.416 314.528 549.36 314.328 549.472 314.072L550.024 313.04C550.152 312.816 550.328 312.768 550.552 312.896C551.544 313.488 552.624 313.784 553.792 313.784C554.88 313.784 555.792 313.512 556.528 312.968C557.264 312.424 557.632 311.56 557.632 310.376V308.792C556.784 310.136 555.448 310.808 553.624 310.808C551.96 310.808 550.608 310.256 549.568 309.152C548.528 308.048 548.008 306.624 548.008 304.88C548.008 303.136 548.528 301.712 549.568 300.608C550.608 299.504 551.952 298.952 553.6 298.952C555.456 298.952 556.808 299.64 557.656 301.016L557.704 299.6C557.704 299.36 557.816 299.24 558.04 299.24H559.792C560.016 299.24 560.128 299.36 560.128 299.6V310.448C560.128 311.728 559.816 312.792 559.192 313.64C558.568 314.488 557.816 315.08 556.936 315.416C556.056 315.752 555.08 315.92 554.008 315.92ZM554.08 308.456C555.12 308.456 555.96 308.136 556.6 307.496C557.24 306.856 557.56 305.992 557.56 304.904C557.56 303.816 557.232 302.944 556.576 302.288C555.936 301.632 555.104 301.304 554.08 301.304C553.056 301.304 552.208 301.632 551.536 302.288C550.864 302.944 550.528 303.808 550.528 304.88C550.528 305.968 550.864 306.84 551.536 307.496C552.208 308.136 553.056 308.456 554.08 308.456ZM569.086 311.288C567.198 311.288 565.67 310.696 564.502 309.512C563.334 308.328 562.75 306.848 562.75 305.072C562.75 303.312 563.302 301.856 564.406 300.704C565.526 299.536 566.966 298.952 568.726 298.952C570.422 298.952 571.774 299.504 572.782 300.608C573.79 301.696 574.294 303.008 574.294 304.544C574.294 305.088 574.214 305.48 574.054 305.72C573.91 305.96 573.622 306.08 573.19 306.08H565.27C565.43 307.04 565.854 307.8 566.542 308.36C567.246 308.92 568.166 309.2 569.302 309.2C570.406 309.2 571.414 308.896 572.326 308.288C572.486 308.192 572.614 308.216 572.71 308.36L573.382 309.272C573.51 309.432 573.478 309.608 573.286 309.8C572.278 310.792 570.878 311.288 569.086 311.288ZM565.246 304.208H571.99C571.926 303.248 571.598 302.496 571.006 301.952C570.414 301.408 569.654 301.136 568.726 301.136C567.798 301.136 567.014 301.408 566.374 301.952C565.75 302.496 565.374 303.248 565.246 304.208ZM580.886 311.288C579.942 311.288 579.19 311.048 578.63 310.568C578.086 310.072 577.814 309.304 577.814 308.264V301.304H576.302C576.078 301.304 575.966 301.184 575.966 300.944V299.6C575.966 299.36 576.078 299.24 576.302 299.24H577.814V296.48C577.814 296.24 577.926 296.12 578.15 296.12H580.094C580.318 296.12 580.43 296.24 580.43 296.48V299.24H582.326C582.566 299.24 582.686 299.36 582.686 299.6V300.944C582.686 301.184 582.566 301.304 582.326 301.304H580.43V307.976C580.43 308.728 580.782 309.104 581.486 309.104C581.63 309.104 581.878 309.088 582.23 309.056C582.518 309.04 582.662 309.152 582.662 309.392V310.664C582.662 311.08 582.07 311.288 580.886 311.288ZM591.273 311C591.049 311 590.937 310.88 590.937 310.64V301.304H589.521C589.297 301.304 589.185 301.184 589.185 300.944V299.6C589.185 299.36 589.297 299.24 589.521 299.24H590.937V297.032C590.937 294.648 592.137 293.456 594.537 293.456C595.145 293.456 595.641 293.552 596.025 293.744C596.169 293.808 596.241 293.92 596.241 294.08V295.712C596.241 295.856 596.145 295.912 595.953 295.88C595.473 295.816 595.169 295.784 595.041 295.784C594.465 295.784 594.065 295.928 593.841 296.216C593.633 296.504 593.529 296.92 593.529 297.464V299.24H595.905C596.129 299.24 596.241 299.36 596.241 299.6V300.944C596.241 301.184 596.129 301.304 595.905 301.304H593.529V310.64C593.529 310.88 593.417 311 593.193 311H591.273ZM600.061 296.72C599.629 296.72 599.269 296.576 598.981 296.288C598.693 295.984 598.549 295.624 598.549 295.208C598.549 294.792 598.693 294.44 598.981 294.152C599.269 293.864 599.629 293.72 600.061 293.72C600.477 293.72 600.829 293.864 601.117 294.152C601.405 294.44 601.549 294.792 601.549 295.208C601.549 295.624 601.405 295.984 601.117 296.288C600.829 296.576 600.477 296.72 600.061 296.72ZM599.077 311C598.853 311 598.741 310.88 598.741 310.64V299.6C598.741 299.36 598.853 299.24 599.077 299.24H601.021C601.245 299.24 601.357 299.36 601.357 299.6V310.64C601.357 310.88 601.245 311 601.021 311H599.077ZM604.145 311C604.001 311 603.905 310.96 603.857 310.88C603.825 310.8 603.849 310.696 603.929 310.568L607.529 304.976L604.073 299.672C604.009 299.544 603.993 299.44 604.025 299.36C604.073 299.28 604.161 299.24 604.289 299.24H606.401C606.577 299.24 606.713 299.32 606.809 299.48L609.089 303.152L611.345 299.48C611.441 299.32 611.585 299.24 611.777 299.24H613.865C614.009 299.24 614.097 299.28 614.129 299.36C614.177 299.44 614.161 299.544 614.081 299.672L610.649 304.976L614.249 310.568C614.329 310.696 614.345 310.8 614.297 310.88C614.249 310.96 614.161 311 614.033 311H611.921C611.745 311 611.609 310.92 611.513 310.76L609.089 306.824L606.665 310.76C606.569 310.92 606.425 311 606.233 311H604.145ZM621.821 311.288C619.933 311.288 618.405 310.696 617.237 309.512C616.069 308.328 615.485 306.848 615.485 305.072C615.485 303.312 616.037 301.856 617.141 300.704C618.261 299.536 619.701 298.952 621.461 298.952C623.157 298.952 624.509 299.504 625.517 300.608C626.525 301.696 627.029 303.008 627.029 304.544C627.029 305.088 626.949 305.48 626.789 305.72C626.645 305.96 626.357 306.08 625.925 306.08H618.005C618.165 307.04 618.589 307.8 619.277 308.36C619.981 308.92 620.901 309.2 622.037 309.2C623.141 309.2 624.149 308.896 625.061 308.288C625.221 308.192 625.349 308.216 625.445 308.36L626.117 309.272C626.245 309.432 626.213 309.608 626.021 309.8C625.013 310.792 623.613 311.288 621.821 311.288ZM617.981 304.208H624.725C624.661 303.248 624.333 302.496 623.741 301.952C623.149 301.408 622.389 301.136 621.461 301.136C620.533 301.136 619.749 301.408 619.109 301.952C618.485 302.496 618.109 303.248 617.981 304.208ZM634.719 311.288C633.055 311.288 631.695 310.704 630.639 309.536C629.583 308.368 629.055 306.896 629.055 305.12C629.055 303.36 629.583 301.896 630.639 300.728C631.695 299.544 633.055 298.952 634.719 298.952C636.511 298.952 637.855 299.632 638.751 300.992V294.2C638.751 293.96 638.863 293.84 639.087 293.84H641.007C641.231 293.84 641.343 293.96 641.343 294.2V310.64C641.343 310.88 641.231 311 641.007 311H639.255C639.031 311 638.919 310.88 638.919 310.64L638.871 309.08C637.975 310.552 636.591 311.288 634.719 311.288ZM635.223 308.912C636.279 308.912 637.135 308.568 637.791 307.88C638.447 307.176 638.775 306.264 638.775 305.144C638.775 304.008 638.447 303.088 637.791 302.384C637.135 301.68 636.279 301.328 635.223 301.328C634.167 301.328 633.295 301.68 632.607 302.384C631.919 303.088 631.575 304 631.575 305.12C631.575 306.256 631.911 307.176 632.583 307.88C633.271 308.568 634.151 308.912 635.223 308.912Z" fill="#303030"/>
<rect x="247" y="415" width="40" height="40" rx="4.70588" fill="white"/>
<path fill-rule="evenodd" clip-rule="evenodd" d="M266.206 429.614C265.308 428.406 263.807 427.804 262.323 428.057C260.839 428.31 259.623 429.375 259.176 430.813C258.729 432.25 259.127 433.817 260.206 434.867L260.212 434.873L260.212 434.873L267.008 441.604L273.805 434.873C273.825 434.853 273.847 434.833 273.869 434.815C274.893 433.764 275.261 432.235 274.823 430.83C274.375 429.398 273.164 428.336 271.685 428.081C270.207 427.825 268.709 428.419 267.808 429.619C267.618 429.871 267.321 430.018 267.005 430.018C266.69 430.017 266.394 429.867 266.206 429.614ZM275.143 436.362L267.712 443.722C267.322 444.108 266.694 444.108 266.305 443.722L258.808 436.297C257.192 434.722 256.596 432.374 257.266 430.219C257.936 428.062 259.761 426.465 261.987 426.085C263.818 425.773 265.665 426.328 267.012 427.543C268.362 426.34 270.203 425.795 272.026 426.11C274.244 426.493 276.061 428.085 276.732 430.234C277.403 432.382 276.815 434.726 275.209 436.303C275.188 436.324 275.166 436.344 275.143 436.362Z" fill="#F04338"/>
<path d="M357.545 487.273C350.212 487.273 343.697 486.015 338 483.5C332.333 480.955 327.879 477.455 324.636 473C321.394 468.545 319.758 463.424 319.727 457.636H345.182C345.212 459.424 345.758 461.03 346.818 462.455C347.909 463.848 349.394 464.939 351.273 465.727C353.152 466.515 355.303 466.909 357.727 466.909C360.061 466.909 362.121 466.5 363.909 465.682C365.697 464.833 367.091 463.667 368.091 462.182C369.091 460.697 369.576 459 369.545 457.091C369.576 455.212 369 453.545 367.818 452.091C366.667 450.636 365.045 449.5 362.955 448.682C360.864 447.864 358.455 447.455 355.727 447.455H346.273V430H355.727C358.242 430 360.455 429.591 362.364 428.773C364.303 427.955 365.803 426.818 366.864 425.364C367.955 423.909 368.485 422.242 368.455 420.364C368.485 418.545 368.045 416.939 367.136 415.545C366.227 414.152 364.955 413.061 363.318 412.273C361.712 411.485 359.848 411.091 357.727 411.091C355.424 411.091 353.364 411.5 351.545 412.318C349.758 413.136 348.348 414.273 347.318 415.727C346.288 417.182 345.758 418.848 345.727 420.727H321.545C321.576 415.03 323.136 410 326.227 405.636C329.348 401.273 333.621 397.848 339.045 395.364C344.47 392.879 350.697 391.636 357.727 391.636C364.606 391.636 370.682 392.803 375.955 395.136C381.258 397.47 385.394 400.682 388.364 404.773C391.364 408.833 392.848 413.485 392.818 418.727C392.879 423.939 391.091 428.212 387.455 431.545C383.848 434.879 379.273 436.848 373.727 437.455V438.182C381.242 439 386.894 441.303 390.682 445.091C394.47 448.848 396.333 453.576 396.273 459.273C396.303 464.727 394.667 469.561 391.364 473.773C388.091 477.985 383.53 481.288 377.682 483.682C371.864 486.076 365.152 487.273 357.545 487.273Z" fill="#E4E4E4" fill-opacity="0.4"/>
<path d="M245.96 486.312C243.528 486.312 241.488 485.488 239.84 483.84C238.192 482.176 237.368 480.12 237.368 477.672C237.368 475.224 238.192 473.168 239.84 471.504C241.488 469.84 243.528 469.008 245.96 469.008C248.2 469.008 250.128 469.776 251.744 471.312C251.92 471.488 251.928 471.664 251.768 471.84L250.544 473.16C250.4 473.32 250.232 473.328 250.04 473.184C248.856 472.16 247.504 471.648 245.984 471.648C244.304 471.648 242.896 472.224 241.76 473.376C240.64 474.512 240.08 475.944 240.08 477.672C240.08 479.4 240.64 480.832 241.76 481.968C242.896 483.104 244.304 483.672 245.984 483.672C247.504 483.672 248.856 483.16 250.04 482.136C250.216 481.976 250.384 481.976 250.544 482.136L251.768 483.48C251.944 483.624 251.936 483.792 251.744 483.984C250.144 485.536 248.216 486.312 245.96 486.312ZM258.989 486.288C257.709 486.288 256.677 485.864 255.893 485.016C255.125 484.168 254.741 482.984 254.741 481.464V474.6C254.741 474.36 254.853 474.24 255.077 474.24H256.997C257.221 474.24 257.333 474.36 257.333 474.6V480.984C257.333 481.912 257.549 482.632 257.981 483.144C258.429 483.64 259.069 483.888 259.901 483.888C260.733 483.888 261.405 483.632 261.917 483.12C262.445 482.608 262.709 481.896 262.709 480.984V474.6C262.709 474.36 262.821 474.24 263.045 474.24H264.941C265.181 474.24 265.301 474.36 265.301 474.6V485.64C265.301 485.88 265.181 486 264.941 486H263.141C262.901 486 262.781 485.872 262.781 485.616L262.709 484.176C261.925 485.584 260.685 486.288 258.989 486.288ZM272.243 486.288C270.531 486.288 269.155 485.664 268.115 484.416C267.955 484.24 267.963 484.024 268.139 483.768L268.763 482.904C268.923 482.68 269.115 482.664 269.339 482.856C270.299 483.688 271.227 484.104 272.123 484.104C272.667 484.104 273.099 483.984 273.419 483.744C273.755 483.504 273.923 483.16 273.923 482.712C273.923 482.328 273.803 482.016 273.563 481.776C273.323 481.536 272.939 481.304 272.411 481.08L270.971 480.504C269.227 479.8 268.355 478.736 268.355 477.312C268.355 476.288 268.731 475.472 269.483 474.864C270.235 474.256 271.155 473.952 272.243 473.952C273.779 473.952 275.011 474.528 275.939 475.68C276.083 475.856 276.075 476.024 275.915 476.184L275.171 477.072C274.995 477.264 274.803 477.264 274.595 477.072C273.859 476.384 273.115 476.04 272.363 476.04C271.899 476.04 271.523 476.152 271.235 476.376C270.963 476.6 270.827 476.904 270.827 477.288C270.827 477.672 270.955 477.976 271.211 478.2C271.467 478.424 271.851 478.64 272.363 478.848L273.779 479.424C275.587 480.144 276.491 481.264 276.491 482.784C276.475 483.888 276.059 484.752 275.243 485.376C274.427 485.984 273.427 486.288 272.243 486.288ZM282.941 486.288C281.997 486.288 281.245 486.048 280.685 485.568C280.141 485.072 279.869 484.304 279.869 483.264V476.304H278.357C278.133 476.304 278.021 476.184 278.021 475.944V474.6C278.021 474.36 278.133 474.24 278.357 474.24H279.869V471.48C279.869 471.24 279.981 471.12 280.205 471.12H282.149C282.373 471.12 282.485 471.24 282.485 471.48V474.24H284.381C284.621 474.24 284.741 474.36 284.741 474.6V475.944C284.741 476.184 284.621 476.304 284.381 476.304H282.485V482.976C282.485 483.728 282.837 484.104 283.541 484.104C283.685 484.104 283.933 484.088 284.285 484.056C284.573 484.04 284.717 484.152 284.717 484.392V485.664C284.717 486.08 284.125 486.288 282.941 486.288ZM292.604 486.288C290.86 486.288 289.404 485.696 288.236 484.512C287.084 483.328 286.508 481.864 286.508 480.12C286.508 478.376 287.084 476.912 288.236 475.728C289.404 474.544 290.86 473.952 292.604 473.952C294.332 473.952 295.772 474.544 296.924 475.728C298.092 476.912 298.676 478.376 298.676 480.12C298.676 481.864 298.092 483.328 296.924 484.512C295.772 485.696 294.332 486.288 292.604 486.288ZM292.604 483.888C293.628 483.888 294.476 483.544 295.148 482.856C295.836 482.152 296.18 481.24 296.18 480.12C296.18 479 295.836 478.096 295.148 477.408C294.476 476.704 293.628 476.352 292.604 476.352C291.564 476.352 290.7 476.704 290.012 477.408C289.34 478.096 289.004 479 289.004 480.12C289.004 481.24 289.34 482.152 290.012 482.856C290.7 483.544 291.564 483.888 292.604 483.888ZM301.624 486C301.4 486 301.288 485.88 301.288 485.64V474.6C301.288 474.36 301.4 474.24 301.624 474.24H303.448C303.672 474.24 303.784 474.368 303.784 474.624L303.856 475.896C304.56 474.6 305.664 473.952 307.168 473.952C308.8 473.952 309.928 474.68 310.552 476.136C311.32 474.68 312.544 473.952 314.224 473.952C315.472 473.952 316.448 474.36 317.152 475.176C317.856 475.992 318.208 477.168 318.208 478.704V485.64C318.208 485.88 318.096 486 317.872 486H315.952C315.728 486 315.616 485.88 315.616 485.64V479.184C315.616 477.296 314.888 476.352 313.432 476.352C312.696 476.352 312.112 476.6 311.68 477.096C311.248 477.592 311.032 478.288 311.032 479.184V485.64C311.032 485.88 310.92 486 310.696 486H308.8C308.56 486 308.44 485.88 308.44 485.64V479.184C308.44 477.296 307.696 476.352 306.208 476.352C305.472 476.352 304.896 476.6 304.48 477.096C304.08 477.592 303.88 478.288 303.88 479.184V485.64C303.88 485.88 303.768 486 303.544 486H301.624ZM327.133 486.288C325.245 486.288 323.717 485.696 322.549 484.512C321.381 483.328 320.797 481.848 320.797 480.072C320.797 478.312 321.349 476.856 322.453 475.704C323.573 474.536 325.013 473.952 326.773 473.952C328.469 473.952 329.821 474.504 330.829 475.608C331.837 476.696 332.341 478.008 332.341 479.544C332.341 480.088 332.261 480.48 332.101 480.72C331.957 480.96 331.669 481.08 331.237 481.08H323.317C323.477 482.04 323.901 482.8 324.589 483.36C325.293 483.92 326.213 484.2 327.349 484.2C328.453 484.2 329.461 483.896 330.373 483.288C330.533 483.192 330.661 483.216 330.757 483.36L331.429 484.272C331.557 484.432 331.525 484.608 331.333 484.8C330.325 485.792 328.925 486.288 327.133 486.288ZM323.293 479.208H330.037C329.973 478.248 329.645 477.496 329.053 476.952C328.461 476.408 327.701 476.136 326.773 476.136C325.845 476.136 325.061 476.408 324.421 476.952C323.797 477.496 323.421 478.248 323.293 479.208ZM335.303 486C335.079 486 334.967 485.88 334.967 485.64V474.6C334.967 474.36 335.079 474.24 335.303 474.24H337.127C337.351 474.24 337.463 474.368 337.463 474.624L337.535 476.04C338.047 474.648 338.919 473.952 340.151 473.952C340.631 473.952 340.991 474.04 341.231 474.216C341.375 474.312 341.447 474.464 341.447 474.672V476.16C341.447 476.416 341.295 476.504 340.991 476.424C340.671 476.344 340.383 476.304 340.127 476.304C339.263 476.304 338.615 476.592 338.183 477.168C337.767 477.744 337.559 478.456 337.559 479.304V485.64C337.559 485.88 337.447 486 337.223 486H335.303ZM347.641 486.288C345.929 486.288 344.553 485.664 343.513 484.416C343.353 484.24 343.361 484.024 343.537 483.768L344.161 482.904C344.321 482.68 344.513 482.664 344.737 482.856C345.697 483.688 346.625 484.104 347.521 484.104C348.065 484.104 348.497 483.984 348.817 483.744C349.153 483.504 349.321 483.16 349.321 482.712C349.321 482.328 349.201 482.016 348.961 481.776C348.721 481.536 348.337 481.304 347.809 481.08L346.369 480.504C344.625 479.8 343.753 478.736 343.753 477.312C343.753 476.288 344.129 475.472 344.881 474.864C345.633 474.256 346.553 473.952 347.641 473.952C349.177 473.952 350.409 474.528 351.337 475.68C351.481 475.856 351.473 476.024 351.313 476.184L350.569 477.072C350.393 477.264 350.201 477.264 349.993 477.072C349.257 476.384 348.513 476.04 347.761 476.04C347.297 476.04 346.921 476.152 346.633 476.376C346.361 476.6 346.225 476.904 346.225 477.288C346.225 477.672 346.353 477.976 346.609 478.2C346.865 478.424 347.249 478.64 347.761 478.848L349.177 479.424C350.985 480.144 351.889 481.264 351.889 482.784C351.873 483.888 351.457 484.752 350.641 485.376C349.825 485.984 348.825 486.288 347.641 486.288ZM362.846 486C362.638 486 362.494 485.904 362.414 485.712L358.646 474.648C358.55 474.376 358.646 474.24 358.934 474.24H360.782C360.99 474.24 361.134 474.336 361.214 474.528L363.95 483.048L366.854 474.528C366.918 474.336 367.062 474.24 367.286 474.24H369.206C369.414 474.24 369.558 474.336 369.638 474.528L372.542 483.048L375.278 474.528C375.358 474.336 375.494 474.24 375.686 474.24H377.558C377.83 474.24 377.918 474.376 377.822 474.648L374.078 485.712C373.998 485.904 373.854 486 373.646 486H371.63C371.422 486 371.278 485.904 371.198 485.712L368.246 477.192L365.294 485.712C365.214 485.904 365.07 486 364.862 486H362.846ZM381.686 471.72C381.254 471.72 380.894 471.576 380.606 471.288C380.318 470.984 380.174 470.624 380.174 470.208C380.174 469.792 380.318 469.44 380.606 469.152C380.894 468.864 381.254 468.72 381.686 468.72C382.102 468.72 382.454 468.864 382.742 469.152C383.03 469.44 383.174 469.792 383.174 470.208C383.174 470.624 383.03 470.984 382.742 471.288C382.454 471.576 382.102 471.72 381.686 471.72ZM380.702 486C380.478 486 380.366 485.88 380.366 485.64V474.6C380.366 474.36 380.478 474.24 380.702 474.24H382.646C382.87 474.24 382.982 474.36 382.982 474.6V485.64C382.982 485.88 382.87 486 382.646 486H380.702ZM386.538 486C386.314 486 386.202 485.88 386.202 485.64V469.2C386.202 468.96 386.314 468.84 386.538 468.84H388.458C388.682 468.84 388.794 468.96 388.794 469.2V485.64C388.794 485.88 388.682 486 388.458 486H386.538ZM392.35 486C392.126 486 392.014 485.88 392.014 485.64V469.2C392.014 468.96 392.126 468.84 392.35 468.84H394.27C394.494 468.84 394.606 468.96 394.606 469.2V485.64C394.606 485.88 394.494 486 394.27 486H392.35ZM402.897 486C402.673 486 402.561 485.88 402.561 485.64V469.2C402.561 468.96 402.673 468.84 402.897 468.84H404.817C405.041 468.84 405.153 468.96 405.153 469.2V485.64C405.153 485.88 405.041 486 404.817 486H402.897ZM413.87 486.288C412.126 486.288 410.67 485.696 409.502 484.512C408.35 483.328 407.774 481.864 407.774 480.12C407.774 478.376 408.35 476.912 409.502 475.728C410.67 474.544 412.126 473.952 413.87 473.952C415.598 473.952 417.038 474.544 418.19 475.728C419.358 476.912 419.942 478.376 419.942 480.12C419.942 481.864 419.358 483.328 418.19 484.512C417.038 485.696 415.598 486.288 413.87 486.288ZM413.87 483.888C414.894 483.888 415.742 483.544 416.414 482.856C417.102 482.152 417.446 481.24 417.446 480.12C417.446 479 417.102 478.096 416.414 477.408C415.742 476.704 414.894 476.352 413.87 476.352C412.83 476.352 411.966 476.704 411.278 477.408C410.606 478.096 410.27 479 410.27 480.12C410.27 481.24 410.606 482.152 411.278 482.856C411.966 483.544 412.83 483.888 413.87 483.888ZM425.838 486C425.614 486 425.47 485.904 425.406 485.712L421.014 474.648C420.918 474.376 421.014 474.24 421.302 474.24H423.246C423.454 474.24 423.59 474.336 423.654 474.528L426.822 483.048L429.966 474.528C430.046 474.336 430.19 474.24 430.398 474.24H432.318C432.606 474.24 432.702 474.376 432.606 474.648L428.214 485.712C428.15 485.904 428.006 486 427.782 486H425.838ZM440.008 486.288C438.12 486.288 436.592 485.696 435.424 484.512C434.256 483.328 433.672 481.848 433.672 480.072C433.672 478.312 434.224 476.856 435.328 475.704C436.448 474.536 437.888 473.952 439.648 473.952C441.344 473.952 442.696 474.504 443.704 475.608C444.712 476.696 445.216 478.008 445.216 479.544C445.216 480.088 445.136 480.48 444.976 480.72C444.832 480.96 444.544 481.08 444.112 481.08H436.192C436.352 482.04 436.776 482.8 437.464 483.36C438.168 483.92 439.088 484.2 440.224 484.2C441.328 484.2 442.336 483.896 443.248 483.288C443.408 483.192 443.536 483.216 443.632 483.36L444.304 484.272C444.432 484.432 444.4 484.608 444.208 484.8C443.2 485.792 441.8 486.288 440.008 486.288ZM436.168 479.208H442.912C442.848 478.248 442.52 477.496 441.928 476.952C441.336 476.408 440.576 476.136 439.648 476.136C438.72 476.136 437.936 476.408 437.296 476.952C436.672 477.496 436.296 478.248 436.168 479.208ZM241.808 514.288C240.864 514.288 240.112 514.048 239.552 513.568C239.008 513.072 238.736 512.304 238.736 511.264V504.304H237.224C237 504.304 236.888 504.184 236.888 503.944V502.6C236.888 502.36 237 502.24 237.224 502.24H238.736V499.48C238.736 499.24 238.848 499.12 239.072 499.12H241.016C241.24 499.12 241.352 499.24 241.352 499.48V502.24H243.248C243.488 502.24 243.608 502.36 243.608 502.6V503.944C243.608 504.184 243.488 504.304 243.248 504.304H241.352V510.976C241.352 511.728 241.704 512.104 242.408 512.104C242.552 512.104 242.8 512.088 243.152 512.056C243.44 512.04 243.584 512.152 243.584 512.392V513.664C243.584 514.08 242.992 514.288 241.808 514.288ZM251.471 514.288C249.727 514.288 248.271 513.696 247.103 512.512C245.951 511.328 245.375 509.864 245.375 508.12C245.375 506.376 245.951 504.912 247.103 503.728C248.271 502.544 249.727 501.952 251.471 501.952C253.199 501.952 254.639 502.544 255.791 503.728C256.959 504.912 257.543 506.376 257.543 508.12C257.543 509.864 256.959 511.328 255.791 512.512C254.639 513.696 253.199 514.288 251.471 514.288ZM251.471 511.888C252.495 511.888 253.343 511.544 254.015 510.856C254.703 510.152 255.047 509.24 255.047 508.12C255.047 507 254.703 506.096 254.015 505.408C253.343 504.704 252.495 504.352 251.471 504.352C250.431 504.352 249.567 504.704 248.879 505.408C248.207 506.096 247.871 507 247.871 508.12C247.871 509.24 248.207 510.152 248.879 510.856C249.567 511.544 250.431 511.888 251.471 511.888ZM269.137 514.288C267.857 514.288 266.825 513.864 266.041 513.016C265.273 512.168 264.889 510.984 264.889 509.464V502.6C264.889 502.36 265.001 502.24 265.225 502.24H267.145C267.369 502.24 267.481 502.36 267.481 502.6V508.984C267.481 509.912 267.697 510.632 268.129 511.144C268.577 511.64 269.217 511.888 270.049 511.888C270.881 511.888 271.553 511.632 272.065 511.12C272.593 510.608 272.857 509.896 272.857 508.984V502.6C272.857 502.36 272.969 502.24 273.193 502.24H275.089C275.329 502.24 275.449 502.36 275.449 502.6V513.64C275.449 513.88 275.329 514 275.089 514H273.289C273.049 514 272.929 513.872 272.929 513.616L272.857 512.176C272.073 513.584 270.833 514.288 269.137 514.288ZM282.391 514.288C280.679 514.288 279.303 513.664 278.263 512.416C278.103 512.24 278.111 512.024 278.287 511.768L278.911 510.904C279.071 510.68 279.263 510.664 279.487 510.856C280.447 511.688 281.375 512.104 282.271 512.104C282.815 512.104 283.247 511.984 283.567 511.744C283.903 511.504 284.071 511.16 284.071 510.712C284.071 510.328 283.951 510.016 283.711 509.776C283.471 509.536 283.087 509.304 282.559 509.08L281.119 508.504C279.375 507.8 278.503 506.736 278.503 505.312C278.503 504.288 278.879 503.472 279.631 502.864C280.383 502.256 281.303 501.952 282.391 501.952C283.927 501.952 285.159 502.528 286.087 503.68C286.231 503.856 286.223 504.024 286.063 504.184L285.319 505.072C285.143 505.264 284.951 505.264 284.743 505.072C284.007 504.384 283.263 504.04 282.511 504.04C282.047 504.04 281.671 504.152 281.383 504.376C281.111 504.6 280.975 504.904 280.975 505.288C280.975 505.672 281.103 505.976 281.359 506.2C281.615 506.424 281.999 506.64 282.511 506.848L283.927 507.424C285.735 508.144 286.639 509.264 286.639 510.784C286.623 511.888 286.207 512.752 285.391 513.376C284.575 513.984 283.575 514.288 282.391 514.288ZM294.977 514.288C293.089 514.288 291.561 513.696 290.393 512.512C289.225 511.328 288.641 509.848 288.641 508.072C288.641 506.312 289.193 504.856 290.297 503.704C291.417 502.536 292.857 501.952 294.617 501.952C296.313 501.952 297.665 502.504 298.673 503.608C299.681 504.696 300.185 506.008 300.185 507.544C300.185 508.088 300.105 508.48 299.945 508.72C299.801 508.96 299.513 509.08 299.081 509.08H291.161C291.321 510.04 291.745 510.8 292.433 511.36C293.137 511.92 294.057 512.2 295.193 512.2C296.297 512.2 297.305 511.896 298.217 511.288C298.377 511.192 298.505 511.216 298.601 511.36L299.273 512.272C299.401 512.432 299.369 512.608 299.177 512.8C298.169 513.792 296.769 514.288 294.977 514.288ZM291.137 507.208H297.881C297.817 506.248 297.489 505.496 296.897 504.952C296.305 504.408 295.545 504.136 294.617 504.136C293.689 504.136 292.905 504.408 292.265 504.952C291.641 505.496 291.265 506.248 291.137 507.208ZM309.97 518.56C309.666 518.56 309.578 518.432 309.706 518.176L311.386 514.024L306.85 502.648C306.754 502.376 306.85 502.24 307.138 502.24H309.082C309.29 502.24 309.426 502.336 309.49 502.528L312.658 511.024L315.85 502.528C315.93 502.336 316.066 502.24 316.258 502.24H318.202C318.474 502.24 318.562 502.376 318.466 502.648L312.273 518.272C312.21 518.464 312.066 518.56 311.842 518.56H309.97ZM325.627 514.288C323.883 514.288 322.427 513.696 321.259 512.512C320.107 511.328 319.531 509.864 319.531 508.12C319.531 506.376 320.107 504.912 321.259 503.728C322.427 502.544 323.883 501.952 325.627 501.952C327.355 501.952 328.795 502.544 329.947 503.728C331.115 504.912 331.699 506.376 331.699 508.12C331.699 509.864 331.115 511.328 329.947 512.512C328.795 513.696 327.355 514.288 325.627 514.288ZM325.627 511.888C326.651 511.888 327.499 511.544 328.171 510.856C328.859 510.152 329.203 509.24 329.203 508.12C329.203 507 328.859 506.096 328.171 505.408C327.499 504.704 326.651 504.352 325.627 504.352C324.587 504.352 323.723 504.704 323.035 505.408C322.363 506.096 322.027 507 322.027 508.12C322.027 509.24 322.363 510.152 323.035 510.856C323.723 511.544 324.587 511.888 325.627 511.888ZM338.442 514.288C337.162 514.288 336.13 513.864 335.346 513.016C334.578 512.168 334.194 510.984 334.194 509.464V502.6C334.194 502.36 334.306 502.24 334.53 502.24H336.45C336.674 502.24 336.786 502.36 336.786 502.6V508.984C336.786 509.912 337.002 510.632 337.434 511.144C337.882 511.64 338.522 511.888 339.354 511.888C340.186 511.888 340.858 511.632 341.37 511.12C341.898 510.608 342.162 509.896 342.162 508.984V502.6C342.162 502.36 342.274 502.24 342.498 502.24H344.394C344.634 502.24 344.754 502.36 344.754 502.6V513.64C344.754 513.88 344.634 514 344.394 514H342.594C342.354 514 342.234 513.872 342.234 513.616L342.162 512.176C341.378 513.584 340.138 514.288 338.442 514.288ZM348.288 514C348.064 514 347.952 513.88 347.952 513.64V502.6C347.952 502.36 348.064 502.24 348.288 502.24H350.112C350.336 502.24 350.448 502.368 350.448 502.624L350.52 504.04C351.032 502.648 351.904 501.952 353.136 501.952C353.616 501.952 353.976 502.04 354.216 502.216C354.36 502.312 354.432 502.464 354.432 502.672V504.16C354.432 504.416 354.28 504.504 353.976 504.424C353.656 504.344 353.368 504.304 353.112 504.304C352.248 504.304 351.6 504.592 351.168 505.168C350.752 505.744 350.544 506.456 350.544 507.304V513.64C350.544 513.88 350.432 514 350.208 514H348.288ZM361.717 518.56C361.493 518.56 361.381 518.44 361.381 518.2V502.6C361.381 502.36 361.493 502.24 361.717 502.24H363.469C363.693 502.24 363.805 502.36 363.805 502.6L363.853 504.184C364.733 502.696 366.117 501.952 368.005 501.952C369.669 501.952 371.029 502.544 372.085 503.728C373.141 504.896 373.669 506.36 373.669 508.12C373.669 509.896 373.141 511.368 372.085 512.536C371.029 513.704 369.669 514.288 368.005 514.288C366.213 514.288 364.869 513.608 363.973 512.248V518.2C363.973 518.44 363.861 518.56 363.637 518.56H361.717ZM367.501 511.912C368.573 511.912 369.445 511.568 370.117 510.88C370.805 510.176 371.149 509.256 371.149 508.12C371.149 507 370.805 506.088 370.117 505.384C369.429 504.68 368.557 504.328 367.501 504.328C366.445 504.328 365.589 504.68 364.933 505.384C364.277 506.088 363.949 507.008 363.949 508.144C363.949 509.264 364.277 510.176 364.933 510.88C365.589 511.568 366.445 511.912 367.501 511.912ZM376.624 514C376.4 514 376.288 513.88 376.288 513.64V502.6C376.288 502.36 376.4 502.24 376.624 502.24H378.448C378.672 502.24 378.784 502.368 378.784 502.624L378.856 504.04C379.368 502.648 380.24 501.952 381.472 501.952C381.952 501.952 382.312 502.04 382.552 502.216C382.696 502.312 382.768 502.464 382.768 502.672V504.16C382.768 504.416 382.616 504.504 382.312 504.424C381.992 504.344 381.704 504.304 381.448 504.304C380.584 504.304 379.936 504.592 379.504 505.168C379.088 505.744 378.88 506.456 378.88 507.304V513.64C378.88 513.88 378.768 514 378.544 514H376.624ZM390.245 514.288C388.501 514.288 387.045 513.696 385.877 512.512C384.725 511.328 384.149 509.864 384.149 508.12C384.149 506.376 384.725 504.912 385.877 503.728C387.045 502.544 388.501 501.952 390.245 501.952C391.973 501.952 393.413 502.544 394.565 503.728C395.733 504.912 396.317 506.376 396.317 508.12C396.317 509.864 395.733 511.328 394.565 512.512C393.413 513.696 391.973 514.288 390.245 514.288ZM390.245 511.888C391.269 511.888 392.117 511.544 392.789 510.856C393.477 510.152 393.821 509.24 393.821 508.12C393.821 507 393.477 506.096 392.789 505.408C392.117 504.704 391.269 504.352 390.245 504.352C389.205 504.352 388.341 504.704 387.653 505.408C386.981 506.096 386.645 507 386.645 508.12C386.645 509.24 386.981 510.152 387.653 510.856C388.341 511.544 389.205 511.888 390.245 511.888ZM403.992 514.288C402.328 514.288 400.968 513.704 399.912 512.536C398.856 511.368 398.328 509.896 398.328 508.12C398.328 506.36 398.856 504.896 399.912 503.728C400.968 502.544 402.328 501.952 403.992 501.952C405.784 501.952 407.128 502.632 408.024 503.992V497.2C408.024 496.96 408.136 496.84 408.36 496.84H410.28C410.504 496.84 410.616 496.96 410.616 497.2V513.64C410.616 513.88 410.504 514 410.28 514H408.528C408.304 514 408.192 513.88 408.192 513.64L408.144 512.08C407.248 513.552 405.864 514.288 403.992 514.288ZM404.496 511.912C405.552 511.912 406.408 511.568 407.064 510.88C407.72 510.176 408.048 509.264 408.048 508.144C408.048 507.008 407.72 506.088 407.064 505.384C406.408 504.68 405.552 504.328 404.496 504.328C403.44 504.328 402.568 504.68 401.88 505.384C401.192 506.088 400.848 507 400.848 508.12C400.848 509.256 401.184 510.176 401.856 510.88C402.544 511.568 403.424 511.912 404.496 511.912ZM418.083 514.288C416.803 514.288 415.771 513.864 414.987 513.016C414.219 512.168 413.835 510.984 413.835 509.464V502.6C413.835 502.36 413.947 502.24 414.171 502.24H416.091C416.315 502.24 416.427 502.36 416.427 502.6V508.984C416.427 509.912 416.643 510.632 417.075 511.144C417.523 511.64 418.163 511.888 418.995 511.888C419.827 511.888 420.499 511.632 421.011 511.12C421.539 510.608 421.803 509.896 421.803 508.984V502.6C421.803 502.36 421.915 502.24 422.139 502.24H424.035C424.275 502.24 424.395 502.36 424.395 502.6V513.64C424.395 513.88 424.275 514 424.035 514H422.235C421.995 514 421.875 513.872 421.875 513.616L421.803 512.176C421.019 513.584 419.779 514.288 418.083 514.288ZM433.16 514.288C431.4 514.288 429.928 513.696 428.744 512.512C427.576 511.328 426.992 509.856 426.992 508.096C426.992 506.336 427.576 504.872 428.744 503.704C429.912 502.536 431.368 501.952 433.112 501.952C435 501.952 436.496 502.632 437.6 503.992C437.744 504.184 437.744 504.352 437.6 504.496L436.52 505.528C436.328 505.72 436.136 505.712 435.944 505.504C435.176 504.736 434.272 504.352 433.232 504.352C432.128 504.352 431.224 504.704 430.52 505.408C429.832 506.112 429.488 507.008 429.488 508.096C429.488 509.184 429.84 510.088 430.544 510.808C431.248 511.528 432.16 511.888 433.28 511.888C434.32 511.888 435.208 511.504 435.944 510.736C436.152 510.528 436.352 510.52 436.544 510.712L437.624 511.744C437.768 511.888 437.768 512.056 437.624 512.248C436.52 513.608 435.032 514.288 433.16 514.288ZM444.425 514.288C443.481 514.288 442.729 514.048 442.169 513.568C441.625 513.072 441.353 512.304 441.353 511.264V504.304H439.841C439.617 504.304 439.505 504.184 439.505 503.944V502.6C439.505 502.36 439.617 502.24 439.841 502.24H441.353V499.48C441.353 499.24 441.465 499.12 441.689 499.12H443.633C443.857 499.12 443.969 499.24 443.969 499.48V502.24H445.865C446.105 502.24 446.225 502.36 446.225 502.6V503.944C446.225 504.184 446.105 504.304 445.865 504.304H443.969V510.976C443.969 511.728 444.321 512.104 445.025 512.104C445.169 512.104 445.417 512.088 445.769 512.056C446.057 512.04 446.201 512.152 446.201 512.392V513.664C446.201 514.08 445.609 514.288 444.425 514.288Z" fill="#303030"/>
<defs>
<filter id="filter0_d_407_14386" x="-49.0723" y="34.4141" width="924.749" height="506.14" filterUnits="userSpaceOnUse" color-interpolation-filters="sRGB">
<feFlood flood-opacity="0" result="BackgroundImageFix"/>
<feColorMatrix in="SourceAlpha" type="matrix" values="0 0 0 0 0 0 0 0 0 0 0 0 0 0 0 0 0 0 127 0" result="hardAlpha"/>
<feOffset dy="10"/>
<feGaussianBlur stdDeviation="8.5"/>
<feComposite in2="hardAlpha" operator="out"/>
<feColorMatrix type="matrix" values="0 0 0 0 0.152941 0 0 0 0 0.423529 0 0 0 0 0.705882 0 0 0 0.34 0"/>
<feBlend mode="normal" in2="BackgroundImageFix" result="effect1_dropShadow_407_14386"/>
<feBlend mode="normal" in="SourceGraphic" in2="effect1_dropShadow_407_14386" result="shape"/>
</filter>
</defs>
</svg>
